%TF.GenerationSoftware,Altium Limited,Altium Designer,26.5.1 (12)*%
G04 Layer_Physical_Order=3*
G04 Layer_Color=16440176*
G04 Board_Origin=8850000|10000000*
%FSLAX45Y45*%
%MOMM*%
%TF.SameCoordinates,84847B52-3A98-4CAC-9896-DB7724CA6EA3*%
%TF.FilePolarity,Positive*%
%TF.FileFunction,Copper,L3,Inr,Signal*%
%TF.Part,Single*%
G01*
G75*
%TA.AperFunction,ComponentPad*%
%ADD52C,1.57000*%
%ADD53R,1.57000X1.57000*%
%ADD54C,0.65000*%
%ADD55O,0.90000X2.40000*%
%ADD56O,0.90000X1.70000*%
%ADD57C,1.30000*%
%ADD59C,2.85000*%
%ADD60C,1.37160*%
G04:AMPARAMS|DCode=61|XSize=1.3mm|YSize=1.3mm|CornerRadius=0.325mm|HoleSize=0mm|Usage=FLASHONLY|Rotation=270.000|XOffset=0mm|YOffset=0mm|HoleType=Round|Shape=RoundedRectangle|*
%AMROUNDEDRECTD61*
21,1,1.30000,0.65000,0,0,270.0*
21,1,0.65000,1.30000,0,0,270.0*
1,1,0.65000,-0.32500,-0.32500*
1,1,0.65000,-0.32500,0.32500*
1,1,0.65000,0.32500,0.32500*
1,1,0.65000,0.32500,-0.32500*
%
%ADD61ROUNDEDRECTD61*%
%ADD63C,2.62500*%
%ADD64C,1.50800*%
%TA.AperFunction,WasherPad*%
%ADD65C,3.70000*%
%TA.AperFunction,ComponentPad*%
%ADD66C,1.95000*%
%ADD68C,0.50800*%
%TA.AperFunction,ViaPad*%
%ADD69C,0.60000*%
%ADD70C,0.50000*%
%ADD71C,0.50800*%
%ADD72C,0.80000*%
%ADD73C,1.00000*%
G36*
X3422328Y8082608D02*
X3412879Y8059795D01*
X3405001Y8020190D01*
Y7979809D01*
X3412879Y7940203D01*
X3428332Y7902895D01*
X3450767Y7869320D01*
X3479321Y7840765D01*
X3512896Y7818331D01*
X3550204Y7802877D01*
X3589810Y7794999D01*
X3610000D01*
Y5444166D01*
X3430769Y5250000D01*
X3194506D01*
X3186908Y5268343D01*
X3172843Y5282408D01*
X3154466Y5290020D01*
X3134574D01*
X3116197Y5282408D01*
X3102132Y5268343D01*
X3094534Y5250000D01*
X409999D01*
X220000Y5440000D01*
Y7799947D01*
X226872Y7805587D01*
X229811Y7805002D01*
X270193D01*
X309798Y7812880D01*
X347106Y7828333D01*
X380682Y7850768D01*
X409236Y7879322D01*
X431670Y7912898D01*
X447124Y7950206D01*
X455002Y7989811D01*
Y8030192D01*
X447124Y8069798D01*
X441818Y8082608D01*
X446757Y8090000D01*
X3417389D01*
X3422328Y8082608D01*
D02*
G37*
G36*
X1990694Y1856092D02*
X1993612Y1853173D01*
X1997889Y1847365D01*
X1993612Y1841558D01*
X1990693Y1838638D01*
X1984886Y1834362D01*
X1979078Y1838638D01*
X1976159Y1841557D01*
X1971884Y1847368D01*
X1976159Y1853173D01*
X1979078Y1856092D01*
X1984888Y1860371D01*
X1990694Y1856092D01*
D02*
G37*
G36*
X640928Y5185902D02*
X646558Y5176969D01*
X641200Y5156974D01*
Y5131855D01*
X647702Y5107592D01*
X660261Y5085838D01*
X678023Y5068076D01*
X699777Y5055516D01*
X724040Y5049015D01*
X749160D01*
X773423Y5055516D01*
X795177Y5068076D01*
X812939Y5085838D01*
X825498Y5107592D01*
X832000Y5131855D01*
Y5156974D01*
X827009Y5175602D01*
X833391Y5184444D01*
X1155089Y5182007D01*
X1160000Y5174596D01*
X1156500Y5166146D01*
Y5146254D01*
X1164112Y5127877D01*
X1178177Y5113812D01*
X1196554Y5106200D01*
X1216446D01*
X1234823Y5113812D01*
X1248888Y5127877D01*
X1256500Y5146254D01*
Y5166146D01*
X1253308Y5173852D01*
X1258275Y5181225D01*
X1610859Y5178554D01*
X1615770Y5171143D01*
X1613700Y5166146D01*
Y5146254D01*
X1621312Y5127877D01*
X1635377Y5113812D01*
X1653754Y5106200D01*
X1673646D01*
X1692023Y5113812D01*
X1706088Y5127877D01*
X1713700Y5146254D01*
Y5166146D01*
X1711947Y5170377D01*
X1716914Y5177750D01*
X2066629Y5175101D01*
X2071540Y5167690D01*
X2070900Y5166146D01*
Y5146254D01*
X2078512Y5127877D01*
X2092577Y5113812D01*
X2110954Y5106200D01*
X2130846D01*
X2149223Y5113812D01*
X2163288Y5127877D01*
X2170900Y5146254D01*
Y5165421D01*
X2171457Y5168195D01*
X2175553Y5174276D01*
X2283460Y5173459D01*
X2460643Y5172116D01*
X2464600Y5166145D01*
Y5146254D01*
X2472212Y5127877D01*
X2486277Y5113812D01*
X2504654Y5106200D01*
X2524546D01*
X2542923Y5113812D01*
X2556988Y5127877D01*
X2564600Y5146254D01*
Y5162438D01*
X2571364Y5171277D01*
X3334503Y5165496D01*
X3334504Y5165496D01*
X3610000Y4890000D01*
Y4111780D01*
Y4089319D01*
Y3478762D01*
Y3378520D01*
Y3297712D01*
Y3153375D01*
Y3023120D01*
X3610000Y1782278D01*
Y1741165D01*
Y1396016D01*
Y1274773D01*
Y1140000D01*
Y1062512D01*
Y815554D01*
Y797177D01*
Y464999D01*
X3589810D01*
X3550204Y457121D01*
X3512896Y441668D01*
X3479321Y419233D01*
X3450767Y390679D01*
X3428332Y357103D01*
X3412879Y319796D01*
X3405001Y280190D01*
Y240000D01*
X2830000Y240000D01*
X2700000Y370000D01*
Y601973D01*
X2704300Y612354D01*
Y632246D01*
X2700000Y642627D01*
Y690412D01*
X2624844Y740000D01*
X1580741D01*
X1490000Y838000D01*
Y1140000D01*
X1678153Y1299930D01*
X1690054Y1295000D01*
X1709946D01*
X1728323Y1302612D01*
X1742388Y1316677D01*
X1750000Y1335054D01*
Y1354946D01*
X1748145Y1359423D01*
X1890000Y1480000D01*
X1950000Y1531000D01*
Y1762595D01*
X1954546D01*
X1971233Y1769507D01*
X1979078Y1777352D01*
X1984886Y1781629D01*
X1990693Y1777352D01*
X1998539Y1769507D01*
X2015225Y1762595D01*
X2033286D01*
X2049973Y1769507D01*
X2062744Y1782278D01*
X2069656Y1798965D01*
Y1817026D01*
X2062744Y1833712D01*
X2054899Y1841558D01*
X2050622Y1847365D01*
X2054899Y1853173D01*
X2062744Y1861018D01*
X2069656Y1877705D01*
Y1895766D01*
X2062744Y1912452D01*
X2049973Y1925224D01*
X2033286Y1932135D01*
X2015225D01*
X1998539Y1925224D01*
X1990696Y1917381D01*
X1984886Y1913102D01*
X1979080Y1917381D01*
X1971235Y1925226D01*
X1954549Y1932137D01*
X1950000D01*
Y1990000D01*
X1960000Y2000000D01*
X1120909Y2710000D01*
X390000D01*
X220000Y2880000D01*
Y4990000D01*
X417594Y5187594D01*
X640928Y5185902D01*
D02*
G37*
G36*
X1589271Y2189979D02*
X1589687Y2181098D01*
X1583212Y2174623D01*
X1575600Y2156246D01*
Y2136354D01*
X1583212Y2117977D01*
X1597277Y2103912D01*
X1615654Y2096300D01*
X1635546D01*
X1653923Y2103912D01*
X1667988Y2117977D01*
X1674319Y2119548D01*
X1855000Y1969921D01*
Y1575400D01*
X1748423Y1481612D01*
X1748423Y1481612D01*
Y1481612D01*
X1662075Y1405626D01*
X1653565Y1408199D01*
X1652729Y1411319D01*
X1643514Y1427281D01*
X1630481Y1440314D01*
X1614519Y1449529D01*
X1596716Y1454300D01*
X1578284D01*
X1560481Y1449529D01*
X1544519Y1440314D01*
X1531486Y1427281D01*
X1522271Y1411319D01*
X1517500Y1393516D01*
Y1375084D01*
X1522271Y1357281D01*
X1531486Y1341319D01*
X1544519Y1328286D01*
X1554309Y1322634D01*
X1555391Y1311744D01*
X1471769Y1238157D01*
X1420000Y1192600D01*
Y190000D01*
X1335000Y105000D01*
X323077D01*
X250000Y200000D01*
Y910000D01*
Y2445454D01*
X388596Y2609250D01*
X1070000Y2620000D01*
X1589271Y2189979D01*
D02*
G37*
%LPC*%
G36*
X3108746Y8076400D02*
X3088854D01*
X3070477Y8068788D01*
X3056412Y8054723D01*
X3048800Y8036346D01*
Y8016454D01*
X3056412Y7998077D01*
X3070477Y7984012D01*
X3088854Y7976400D01*
X3108746D01*
X3127123Y7984012D01*
X3141188Y7998077D01*
X3148800Y8016454D01*
Y8036346D01*
X3141188Y8054723D01*
X3127123Y8068788D01*
X3108746Y8076400D01*
D02*
G37*
G36*
X940345Y7936700D02*
X920454D01*
X902077Y7929088D01*
X888012Y7915023D01*
X880400Y7896646D01*
Y7876754D01*
X888012Y7858377D01*
X902077Y7844312D01*
X920454Y7836700D01*
X940345D01*
X958722Y7844312D01*
X972788Y7858377D01*
X980400Y7876754D01*
Y7896646D01*
X972788Y7915023D01*
X958722Y7929088D01*
X940345Y7936700D01*
D02*
G37*
G36*
X937046Y7809700D02*
X917154D01*
X898777Y7802088D01*
X884712Y7788023D01*
X877100Y7769646D01*
Y7762486D01*
X868887Y7759084D01*
X863983Y7763988D01*
X845606Y7771600D01*
X825714D01*
X807337Y7763988D01*
X793272Y7749923D01*
X785660Y7731546D01*
Y7711654D01*
X793272Y7693277D01*
X807337Y7679212D01*
X825714Y7671600D01*
X845606D01*
X863983Y7679212D01*
X878048Y7693277D01*
X885660Y7711654D01*
Y7718814D01*
X893873Y7722216D01*
X898777Y7717312D01*
X917154Y7709700D01*
X937046D01*
X955423Y7717312D01*
X969488Y7731377D01*
X977100Y7749754D01*
Y7769646D01*
X969488Y7788023D01*
X955423Y7802088D01*
X937046Y7809700D01*
D02*
G37*
G36*
Y7682700D02*
X917154D01*
X898777Y7675088D01*
X884712Y7661023D01*
X877100Y7642646D01*
Y7622754D01*
X884712Y7604377D01*
X898777Y7590312D01*
X917154Y7582700D01*
X937046D01*
X955423Y7590312D01*
X969488Y7604377D01*
X977100Y7622754D01*
Y7642646D01*
X969488Y7661023D01*
X955423Y7675088D01*
X937046Y7682700D01*
D02*
G37*
G36*
X840526Y7629360D02*
X820634D01*
X802257Y7621748D01*
X788192Y7607683D01*
X780580Y7589306D01*
Y7569414D01*
X788192Y7551037D01*
X802257Y7536972D01*
X820634Y7529360D01*
X840526D01*
X858903Y7536972D01*
X872968Y7551037D01*
X880580Y7569414D01*
Y7589306D01*
X872968Y7607683D01*
X858903Y7621748D01*
X840526Y7629360D01*
D02*
G37*
G36*
X1943953Y7560001D02*
X1926052D01*
X1909512Y7553151D01*
X1896853Y7540492D01*
X1890003Y7523952D01*
Y7506051D01*
X1896853Y7489511D01*
X1909512Y7476852D01*
X1926052Y7470002D01*
X1943953D01*
X1960493Y7476852D01*
X1973152Y7489511D01*
X1980002Y7506051D01*
Y7523952D01*
X1973152Y7540492D01*
X1960493Y7553151D01*
X1943953Y7560001D01*
D02*
G37*
G36*
X1803949D02*
X1786047D01*
X1769507Y7553151D01*
X1756849Y7540492D01*
X1749998Y7523952D01*
Y7506051D01*
X1756849Y7489511D01*
X1769507Y7476852D01*
X1786047Y7470002D01*
X1803949D01*
X1820488Y7476852D01*
X1833147Y7489511D01*
X1839998Y7506051D01*
Y7523952D01*
X1833147Y7540492D01*
X1820488Y7553151D01*
X1803949Y7560001D01*
D02*
G37*
G36*
X1663949D02*
X1646047D01*
X1629508Y7553151D01*
X1616849Y7540492D01*
X1609998Y7523952D01*
Y7506051D01*
X1616849Y7489511D01*
X1629508Y7476852D01*
X1646047Y7470002D01*
X1663949D01*
X1680488Y7476852D01*
X1693147Y7489511D01*
X1699998Y7506051D01*
Y7523952D01*
X1693147Y7540492D01*
X1680488Y7553151D01*
X1663949Y7560001D01*
D02*
G37*
G36*
X940345Y7555700D02*
X920454D01*
X902077Y7548088D01*
X888012Y7534023D01*
X880400Y7515646D01*
Y7495754D01*
X888012Y7477377D01*
X902077Y7463312D01*
X920454Y7455700D01*
X940345D01*
X958722Y7463312D01*
X972788Y7477377D01*
X980400Y7495754D01*
Y7515646D01*
X972788Y7534023D01*
X958722Y7548088D01*
X940345Y7555700D01*
D02*
G37*
G36*
X837986Y7479500D02*
X818094D01*
X799717Y7471888D01*
X785652Y7457823D01*
X778040Y7439446D01*
Y7419554D01*
X785652Y7401177D01*
X799717Y7387112D01*
X818094Y7379500D01*
X837986D01*
X856363Y7387112D01*
X870428Y7401177D01*
X878040Y7419554D01*
Y7439446D01*
X870428Y7457823D01*
X856363Y7471888D01*
X837986Y7479500D01*
D02*
G37*
G36*
X1803949Y7420002D02*
X1786047D01*
X1769507Y7413151D01*
X1756849Y7400492D01*
X1749998Y7383953D01*
Y7366051D01*
X1756849Y7349511D01*
X1769507Y7336853D01*
X1786047Y7330002D01*
X1803949D01*
X1820488Y7336853D01*
X1833147Y7349511D01*
X1839998Y7366051D01*
Y7383953D01*
X1833147Y7400492D01*
X1820488Y7413151D01*
X1803949Y7420002D01*
D02*
G37*
G36*
X1663949D02*
X1646047D01*
X1629508Y7413151D01*
X1616849Y7400492D01*
X1609998Y7383953D01*
Y7366051D01*
X1616849Y7349511D01*
X1629508Y7336853D01*
X1646047Y7330002D01*
X1663949D01*
X1680488Y7336853D01*
X1693147Y7349511D01*
X1699998Y7366051D01*
Y7383953D01*
X1693147Y7400492D01*
X1680488Y7413151D01*
X1663949Y7420002D01*
D02*
G37*
G36*
X940345Y7428700D02*
X920454D01*
X902077Y7421088D01*
X888012Y7407023D01*
X880400Y7388646D01*
Y7368754D01*
X888012Y7350377D01*
X902077Y7336312D01*
X920454Y7328700D01*
X940345D01*
X958722Y7336312D01*
X972788Y7350377D01*
X980400Y7368754D01*
Y7388646D01*
X972788Y7407023D01*
X958722Y7421088D01*
X940345Y7428700D01*
D02*
G37*
G36*
X1943953Y7414998D02*
X1926052D01*
X1909512Y7408147D01*
X1896853Y7395488D01*
X1890003Y7378949D01*
Y7361047D01*
X1896853Y7344508D01*
X1909512Y7331849D01*
X1926052Y7324998D01*
X1943953D01*
X1960493Y7331849D01*
X1973152Y7344508D01*
X1980002Y7361047D01*
Y7378949D01*
X1973152Y7395488D01*
X1960493Y7408147D01*
X1943953Y7414998D01*
D02*
G37*
G36*
X939946Y7305000D02*
X920054D01*
X901677Y7297388D01*
X887612Y7283323D01*
X880000Y7264946D01*
Y7245054D01*
X887612Y7226677D01*
X901677Y7212612D01*
X920054Y7205000D01*
X939946D01*
X958323Y7212612D01*
X972388Y7226677D01*
X980000Y7245054D01*
Y7264946D01*
X972388Y7283323D01*
X958323Y7297388D01*
X939946Y7305000D01*
D02*
G37*
G36*
X1938950Y7280002D02*
X1921048D01*
X1904508Y7273151D01*
X1891850Y7260492D01*
X1884999Y7243953D01*
Y7226051D01*
X1891850Y7209512D01*
X1904508Y7196853D01*
X1921048Y7190002D01*
X1938950D01*
X1955489Y7196853D01*
X1968148Y7209512D01*
X1974999Y7226051D01*
Y7243953D01*
X1968148Y7260492D01*
X1955489Y7273151D01*
X1938950Y7280002D01*
D02*
G37*
G36*
X1803949D02*
X1786047D01*
X1769507Y7273151D01*
X1756849Y7260492D01*
X1749998Y7243953D01*
Y7226051D01*
X1756849Y7209512D01*
X1769507Y7196853D01*
X1786047Y7190002D01*
X1803949D01*
X1820488Y7196853D01*
X1833147Y7209512D01*
X1839998Y7226051D01*
Y7243953D01*
X1833147Y7260492D01*
X1820488Y7273151D01*
X1803949Y7280002D01*
D02*
G37*
G36*
X1658950D02*
X1641048D01*
X1624509Y7273151D01*
X1611850Y7260492D01*
X1604999Y7243953D01*
Y7226051D01*
X1611850Y7209512D01*
X1624509Y7196853D01*
X1641048Y7190002D01*
X1658950D01*
X1675490Y7196853D01*
X1688148Y7209512D01*
X1694999Y7226051D01*
Y7243953D01*
X1688148Y7260492D01*
X1675490Y7273151D01*
X1658950Y7280002D01*
D02*
G37*
G36*
X837986Y7235660D02*
X818094D01*
X799717Y7228048D01*
X785652Y7213983D01*
X778040Y7195606D01*
Y7175714D01*
X785652Y7157337D01*
X799717Y7143272D01*
X818094Y7135660D01*
X837986D01*
X856363Y7143272D01*
X870428Y7157337D01*
X878040Y7175714D01*
Y7195606D01*
X870428Y7213983D01*
X856363Y7228048D01*
X837986Y7235660D01*
D02*
G37*
G36*
X940345Y7174700D02*
X920454D01*
X902077Y7167088D01*
X888012Y7153023D01*
X880400Y7134646D01*
Y7114754D01*
X888012Y7096377D01*
X902077Y7082312D01*
X920454Y7074700D01*
X940345D01*
X958722Y7082312D01*
X972788Y7096377D01*
X980400Y7114754D01*
Y7134646D01*
X972788Y7153023D01*
X958722Y7167088D01*
X940345Y7174700D01*
D02*
G37*
G36*
X837986Y7098500D02*
X818094D01*
X799717Y7090888D01*
X785652Y7076823D01*
X778040Y7058446D01*
Y7038554D01*
X785652Y7020177D01*
X799717Y7006112D01*
X818094Y6998500D01*
X837986D01*
X856363Y7006112D01*
X870428Y7020177D01*
X878040Y7038554D01*
Y7058446D01*
X870428Y7076823D01*
X856363Y7090888D01*
X837986Y7098500D01*
D02*
G37*
G36*
X940345Y7047700D02*
X920454D01*
X902077Y7040088D01*
X888012Y7026023D01*
X880400Y7007646D01*
Y6987754D01*
X888012Y6969377D01*
X902077Y6955312D01*
X920454Y6947700D01*
X940345D01*
X958722Y6955312D01*
X972788Y6969377D01*
X980400Y6987754D01*
Y7007646D01*
X972788Y7026023D01*
X958722Y7040088D01*
X940345Y7047700D01*
D02*
G37*
G36*
X840526Y6966420D02*
X820634D01*
X802257Y6958808D01*
X788192Y6944743D01*
X780580Y6926366D01*
Y6906474D01*
X788192Y6888097D01*
X802257Y6874032D01*
X820634Y6866420D01*
X840526D01*
X858903Y6874032D01*
X872968Y6888097D01*
X880580Y6906474D01*
Y6926366D01*
X872968Y6944743D01*
X858903Y6958808D01*
X840526Y6966420D01*
D02*
G37*
G36*
X940345Y6920700D02*
X920454D01*
X902077Y6913088D01*
X888012Y6899023D01*
X880400Y6880646D01*
Y6860754D01*
X888012Y6842377D01*
X902077Y6828312D01*
X920454Y6820700D01*
X940345D01*
X958722Y6828312D01*
X972788Y6842377D01*
X980400Y6860754D01*
Y6880646D01*
X972788Y6899023D01*
X958722Y6913088D01*
X940345Y6920700D01*
D02*
G37*
G36*
Y6679400D02*
X920454D01*
X902077Y6671788D01*
X888012Y6657723D01*
X880400Y6639346D01*
Y6619454D01*
X888012Y6601077D01*
X902077Y6587012D01*
X920454Y6579400D01*
X940345D01*
X958722Y6587012D01*
X972788Y6601077D01*
X980400Y6619454D01*
Y6639346D01*
X972788Y6657723D01*
X958722Y6671788D01*
X940345Y6679400D01*
D02*
G37*
G36*
Y6539700D02*
X920454D01*
X902077Y6532088D01*
X888012Y6518023D01*
X880400Y6499646D01*
Y6479754D01*
X888012Y6461377D01*
X902077Y6447312D01*
X920454Y6439700D01*
X940345D01*
X958722Y6447312D01*
X972788Y6461377D01*
X980400Y6479754D01*
Y6499646D01*
X972788Y6518023D01*
X958722Y6532088D01*
X940345Y6539700D01*
D02*
G37*
G36*
X1787946Y6260300D02*
X1768054D01*
X1749677Y6252688D01*
X1735612Y6238623D01*
X1728000Y6220246D01*
Y6200354D01*
X1735612Y6181977D01*
X1749677Y6167912D01*
X1768054Y6160300D01*
X1787946D01*
X1806323Y6167912D01*
X1820388Y6181977D01*
X1828000Y6200354D01*
Y6220246D01*
X1820388Y6238623D01*
X1806323Y6252688D01*
X1787946Y6260300D01*
D02*
G37*
G36*
X1648246D02*
X1628354D01*
X1609977Y6252688D01*
X1595912Y6238623D01*
X1588300Y6220246D01*
Y6200354D01*
X1595912Y6181977D01*
X1609977Y6167912D01*
X1628354Y6160300D01*
X1648246D01*
X1666623Y6167912D01*
X1680688Y6181977D01*
X1688300Y6200354D01*
Y6220246D01*
X1680688Y6238623D01*
X1666623Y6252688D01*
X1648246Y6260300D01*
D02*
G37*
G36*
X2346746Y6146000D02*
X2326854D01*
X2308477Y6138388D01*
X2294412Y6124323D01*
X2286800Y6105946D01*
Y6086054D01*
X2294412Y6067677D01*
X2308477Y6053612D01*
X2326854Y6046000D01*
X2346746D01*
X2365123Y6053612D01*
X2379188Y6067677D01*
X2386800Y6086054D01*
Y6105946D01*
X2379188Y6124323D01*
X2365123Y6138388D01*
X2346746Y6146000D01*
D02*
G37*
G36*
X1216446D02*
X1196554D01*
X1178177Y6138388D01*
X1164112Y6124323D01*
X1156500Y6105946D01*
Y6086054D01*
X1164112Y6067677D01*
X1178177Y6053612D01*
X1196554Y6046000D01*
X1216446D01*
X1234823Y6053612D01*
X1248888Y6067677D01*
X1256500Y6086054D01*
Y6105946D01*
X1248888Y6124323D01*
X1234823Y6138388D01*
X1216446Y6146000D01*
D02*
G37*
G36*
X1351066Y6143460D02*
X1331174D01*
X1312797Y6135848D01*
X1298732Y6121783D01*
X1291120Y6103406D01*
Y6083514D01*
X1298732Y6065137D01*
X1312797Y6051072D01*
X1331174Y6043460D01*
X1351066D01*
X1369443Y6051072D01*
X1383508Y6065137D01*
X1391120Y6083514D01*
Y6103406D01*
X1383508Y6121783D01*
X1369443Y6135848D01*
X1351066Y6143460D01*
D02*
G37*
G36*
X2134870Y6160842D02*
X2056130D01*
X2048326Y6159290D01*
X2041711Y6154869D01*
X2037290Y6148254D01*
X2035738Y6140450D01*
Y6051550D01*
X2037290Y6043746D01*
X2041711Y6037131D01*
X2048326Y6032710D01*
X2056130Y6031158D01*
X2134870D01*
X2142674Y6032710D01*
X2149289Y6037131D01*
X2153710Y6043746D01*
X2155262Y6051550D01*
Y6140450D01*
X2153710Y6148254D01*
X2149289Y6154869D01*
X2142674Y6159290D01*
X2134870Y6160842D01*
D02*
G37*
G36*
X708446Y6120600D02*
X688554D01*
X670177Y6112988D01*
X656112Y6098923D01*
X648500Y6080546D01*
Y6060654D01*
X656112Y6042277D01*
X670177Y6028212D01*
X688554Y6020600D01*
X708446D01*
X726823Y6028212D01*
X740888Y6042277D01*
X748500Y6060654D01*
Y6080546D01*
X740888Y6098923D01*
X726823Y6112988D01*
X708446Y6120600D01*
D02*
G37*
G36*
X2346746Y6031700D02*
X2326854D01*
X2308477Y6024088D01*
X2294412Y6010023D01*
X2286800Y5991646D01*
Y5971754D01*
X2294412Y5953377D01*
X2308477Y5939312D01*
X2326854Y5931700D01*
X2346746D01*
X2365123Y5939312D01*
X2379188Y5953377D01*
X2386800Y5971754D01*
Y5991646D01*
X2379188Y6010023D01*
X2365123Y6024088D01*
X2346746Y6031700D01*
D02*
G37*
G36*
X1508546Y5968200D02*
X1488654D01*
X1470277Y5960588D01*
X1456212Y5946523D01*
X1448600Y5928146D01*
Y5908254D01*
X1456212Y5889877D01*
X1470277Y5875812D01*
X1488654Y5868200D01*
X1508546D01*
X1526923Y5875812D01*
X1540988Y5889877D01*
X1548600Y5908254D01*
Y5928146D01*
X1540988Y5946523D01*
X1526923Y5960588D01*
X1508546Y5968200D01*
D02*
G37*
G36*
X1381546D02*
X1361654D01*
X1343277Y5960588D01*
X1329212Y5946523D01*
X1321600Y5928146D01*
Y5908254D01*
X1329212Y5889877D01*
X1343277Y5875812D01*
X1361654Y5868200D01*
X1381546D01*
X1399923Y5875812D01*
X1413988Y5889877D01*
X1421600Y5908254D01*
Y5928146D01*
X1413988Y5946523D01*
X1399923Y5960588D01*
X1381546Y5968200D01*
D02*
G37*
G36*
X749160Y5989815D02*
X724040D01*
X699777Y5983313D01*
X678023Y5970754D01*
X660261Y5952992D01*
X647702Y5931238D01*
X641200Y5906974D01*
Y5881855D01*
X647702Y5857592D01*
X660261Y5835838D01*
X678023Y5818076D01*
X699777Y5805516D01*
X724040Y5799015D01*
X749160D01*
X773423Y5805516D01*
X795177Y5818076D01*
X812939Y5835838D01*
X825498Y5857592D01*
X832000Y5881855D01*
Y5906974D01*
X825498Y5931238D01*
X812939Y5952992D01*
X795177Y5970754D01*
X773423Y5983313D01*
X749160Y5989815D01*
D02*
G37*
G36*
X1216446Y5866600D02*
X1196554D01*
X1178177Y5858988D01*
X1164112Y5844923D01*
X1156500Y5826546D01*
Y5806654D01*
X1164112Y5788277D01*
X1178177Y5774212D01*
X1196554Y5766600D01*
X1216446D01*
X1234823Y5774212D01*
X1248888Y5788277D01*
X1256500Y5806654D01*
Y5826546D01*
X1248888Y5844923D01*
X1234823Y5858988D01*
X1216446Y5866600D01*
D02*
G37*
G36*
X3477046Y5815800D02*
X3457154D01*
X3438777Y5808188D01*
X3424712Y5794123D01*
X3417100Y5775746D01*
Y5755854D01*
X3424712Y5737477D01*
X3438777Y5723412D01*
X3457154Y5715800D01*
X3477046D01*
X3495423Y5723412D01*
X3509488Y5737477D01*
X3517100Y5755854D01*
Y5775746D01*
X3509488Y5794123D01*
X3495423Y5808188D01*
X3477046Y5815800D01*
D02*
G37*
G36*
X1216446Y5739600D02*
X1196554D01*
X1178177Y5731988D01*
X1164112Y5717923D01*
X1156500Y5699546D01*
Y5679654D01*
X1164112Y5661277D01*
X1178177Y5647212D01*
X1196554Y5639600D01*
X1216446D01*
X1234823Y5647212D01*
X1248888Y5661277D01*
X1256500Y5679654D01*
Y5699546D01*
X1248888Y5717923D01*
X1234823Y5731988D01*
X1216446Y5739600D01*
D02*
G37*
G36*
X1559346Y5663400D02*
X1539454D01*
X1521077Y5655788D01*
X1507012Y5641723D01*
X1499400Y5623346D01*
Y5603454D01*
X1507012Y5585077D01*
X1521077Y5571012D01*
X1539454Y5563400D01*
X1559346D01*
X1577723Y5571012D01*
X1591788Y5585077D01*
X1599400Y5603454D01*
Y5623346D01*
X1591788Y5641723D01*
X1577723Y5655788D01*
X1559346Y5663400D01*
D02*
G37*
G36*
X749160Y5739815D02*
X724040D01*
X699777Y5733313D01*
X678023Y5720754D01*
X660261Y5702992D01*
X647702Y5681238D01*
X641200Y5656974D01*
Y5631855D01*
X647702Y5607592D01*
X660261Y5585838D01*
X678023Y5568076D01*
X699777Y5555516D01*
X724040Y5549015D01*
X749160D01*
X773423Y5555516D01*
X795177Y5568076D01*
X812939Y5585838D01*
X825498Y5607592D01*
X832000Y5631855D01*
Y5656974D01*
X825498Y5681238D01*
X812939Y5702992D01*
X795177Y5720754D01*
X773423Y5733313D01*
X749160Y5739815D01*
D02*
G37*
G36*
X2232446Y5638000D02*
X2212554D01*
X2194177Y5630388D01*
X2180112Y5616323D01*
X2172500Y5597946D01*
Y5578054D01*
X2180112Y5559677D01*
X2194177Y5545612D01*
X2212554Y5538000D01*
X2232446D01*
X2250823Y5545612D01*
X2264888Y5559677D01*
X2272500Y5578054D01*
Y5597946D01*
X2264888Y5616323D01*
X2250823Y5630388D01*
X2232446Y5638000D01*
D02*
G37*
G36*
X2524546Y5498300D02*
X2504654D01*
X2486277Y5490688D01*
X2472212Y5476623D01*
X2464600Y5458246D01*
Y5438354D01*
X2472212Y5419977D01*
X2486277Y5405912D01*
X2504654Y5398300D01*
X2524546D01*
X2542923Y5405912D01*
X2556988Y5419977D01*
X2564600Y5438354D01*
Y5458246D01*
X2556988Y5476623D01*
X2542923Y5490688D01*
X2524546Y5498300D01*
D02*
G37*
G36*
X2991906Y5411940D02*
X2972014D01*
X2953637Y5404328D01*
X2939572Y5390263D01*
X2931960Y5371886D01*
Y5351994D01*
X2939572Y5333617D01*
X2953637Y5319552D01*
X2972014Y5311940D01*
X2991906D01*
X3010283Y5319552D01*
X3024348Y5333617D01*
X3031960Y5351994D01*
Y5371886D01*
X3024348Y5390263D01*
X3010283Y5404328D01*
X2991906Y5411940D01*
D02*
G37*
G36*
X1992416Y5410129D02*
X1972524D01*
X1954147Y5402517D01*
X1940082Y5388452D01*
X1932470Y5370074D01*
Y5350183D01*
X1940082Y5331806D01*
X1954147Y5317741D01*
X1972524Y5310129D01*
X1992416D01*
X2010793Y5317741D01*
X2024858Y5331806D01*
X2032470Y5350183D01*
Y5370074D01*
X2024858Y5388452D01*
X2010793Y5402517D01*
X1992416Y5410129D01*
D02*
G37*
G36*
X749160Y5489815D02*
X724040D01*
X699777Y5483313D01*
X678023Y5470754D01*
X660261Y5452992D01*
X647702Y5431238D01*
X641200Y5406974D01*
Y5381855D01*
X647702Y5357592D01*
X660261Y5335838D01*
X678023Y5318076D01*
X699777Y5305516D01*
X724040Y5299015D01*
X749160D01*
X773423Y5305516D01*
X795177Y5318076D01*
X812939Y5335838D01*
X825498Y5357592D01*
X832000Y5381855D01*
Y5406974D01*
X825498Y5431238D01*
X812939Y5452992D01*
X795177Y5470754D01*
X773423Y5483313D01*
X749160Y5489815D01*
D02*
G37*
G36*
X3157615Y5035000D02*
X3135235D01*
X3113616Y5029207D01*
X3094234Y5018017D01*
X3078408Y5002191D01*
X3067218Y4982808D01*
X3061425Y4961190D01*
Y4938809D01*
X3067218Y4917191D01*
X3078408Y4897809D01*
X3094234Y4881983D01*
X3113616Y4870792D01*
X3135235Y4865000D01*
X3157615D01*
X3179234Y4870792D01*
X3198616Y4881983D01*
X3214442Y4897809D01*
X3225632Y4917191D01*
X3231425Y4938809D01*
Y4961190D01*
X3225632Y4982808D01*
X3214442Y5002191D01*
X3198616Y5018017D01*
X3179234Y5029207D01*
X3157615Y5035000D01*
D02*
G37*
G36*
X1508546Y4888700D02*
X1488654D01*
X1470277Y4881088D01*
X1456212Y4867023D01*
X1448600Y4848646D01*
Y4828754D01*
X1456212Y4810377D01*
X1470277Y4796312D01*
X1488654Y4788700D01*
X1508546D01*
X1526923Y4796312D01*
X1540988Y4810377D01*
X1548600Y4828754D01*
Y4848646D01*
X1540988Y4867023D01*
X1526923Y4881088D01*
X1508546Y4888700D01*
D02*
G37*
G36*
X1343446D02*
X1323554D01*
X1305177Y4881088D01*
X1291112Y4867023D01*
X1283500Y4848646D01*
Y4828754D01*
X1291112Y4810377D01*
X1305177Y4796312D01*
X1323554Y4788700D01*
X1343446D01*
X1361823Y4796312D01*
X1375888Y4810377D01*
X1383500Y4828754D01*
Y4848646D01*
X1375888Y4867023D01*
X1361823Y4881088D01*
X1343446Y4888700D01*
D02*
G37*
G36*
X1178346D02*
X1158454D01*
X1140077Y4881088D01*
X1126012Y4867023D01*
X1118400Y4848646D01*
Y4828754D01*
X1126012Y4810377D01*
X1140077Y4796312D01*
X1158454Y4788700D01*
X1178346D01*
X1196723Y4796312D01*
X1210788Y4810377D01*
X1218400Y4828754D01*
Y4848646D01*
X1210788Y4867023D01*
X1196723Y4881088D01*
X1178346Y4888700D01*
D02*
G37*
G36*
X1000546D02*
X980654D01*
X962277Y4881088D01*
X948212Y4867023D01*
X940600Y4848646D01*
Y4828754D01*
X948212Y4810377D01*
X962277Y4796312D01*
X980654Y4788700D01*
X1000546D01*
X1018923Y4796312D01*
X1032988Y4810377D01*
X1040600Y4828754D01*
Y4848646D01*
X1032988Y4867023D01*
X1018923Y4881088D01*
X1000546Y4888700D01*
D02*
G37*
G36*
X835446D02*
X815554D01*
X797177Y4881088D01*
X783112Y4867023D01*
X775500Y4848646D01*
Y4828754D01*
X783112Y4810377D01*
X797177Y4796312D01*
X815554Y4788700D01*
X835446D01*
X853823Y4796312D01*
X867888Y4810377D01*
X875500Y4828754D01*
Y4848646D01*
X867888Y4867023D01*
X853823Y4881088D01*
X835446Y4888700D01*
D02*
G37*
G36*
X505246Y4876000D02*
X485354D01*
X466977Y4868388D01*
X452912Y4854323D01*
X445300Y4835946D01*
Y4816054D01*
X452912Y4797677D01*
X466977Y4783612D01*
X485354Y4776000D01*
X505246D01*
X523623Y4783612D01*
X537688Y4797677D01*
X545300Y4816054D01*
Y4835946D01*
X537688Y4854323D01*
X523623Y4868388D01*
X505246Y4876000D01*
D02*
G37*
G36*
X3178925Y4836028D02*
X3113925D01*
X3093441Y4831953D01*
X3076075Y4820350D01*
X3064471Y4802984D01*
X3060397Y4782500D01*
Y4717500D01*
X3064471Y4697015D01*
X3076075Y4679650D01*
X3093441Y4668046D01*
X3113925Y4663971D01*
X3178925D01*
X3199409Y4668046D01*
X3216775Y4679650D01*
X3228379Y4697015D01*
X3232453Y4717500D01*
Y4782500D01*
X3228379Y4802984D01*
X3216775Y4820350D01*
X3199409Y4831953D01*
X3178925Y4836028D01*
D02*
G37*
G36*
X1508382Y4746700D02*
X1482447D01*
X1457395Y4739987D01*
X1434934Y4727020D01*
X1416595Y4708680D01*
X1403627Y4686219D01*
X1396915Y4661168D01*
Y4635232D01*
X1403627Y4610181D01*
X1416595Y4587720D01*
X1434934Y4569380D01*
X1457395Y4556413D01*
X1482447Y4549700D01*
X1508382D01*
X1533434Y4556413D01*
X1555895Y4569380D01*
X1574234Y4587720D01*
X1587202Y4610181D01*
X1593915Y4635232D01*
Y4661168D01*
X1587202Y4686219D01*
X1574234Y4708680D01*
X1555895Y4727020D01*
X1533434Y4739987D01*
X1508382Y4746700D01*
D02*
G37*
G36*
X1175957D02*
X1150021D01*
X1124970Y4739987D01*
X1102509Y4727020D01*
X1084170Y4708680D01*
X1071202Y4686219D01*
X1064489Y4661168D01*
Y4635232D01*
X1071202Y4610181D01*
X1084170Y4587720D01*
X1102509Y4569380D01*
X1124970Y4556413D01*
X1150021Y4549700D01*
X1175957D01*
X1201009Y4556413D01*
X1223469Y4569380D01*
X1241809Y4587720D01*
X1254776Y4610181D01*
X1261489Y4635232D01*
Y4661168D01*
X1254776Y4686219D01*
X1241809Y4708680D01*
X1223469Y4727020D01*
X1201009Y4739987D01*
X1175957Y4746700D01*
D02*
G37*
G36*
X843531D02*
X817596D01*
X792544Y4739987D01*
X770083Y4727020D01*
X751744Y4708680D01*
X738776Y4686219D01*
X732064Y4661168D01*
Y4635232D01*
X738776Y4610181D01*
X751744Y4587720D01*
X770083Y4569380D01*
X792544Y4556413D01*
X817596Y4549700D01*
X843531D01*
X868583Y4556413D01*
X891044Y4569380D01*
X909383Y4587720D01*
X922351Y4610181D01*
X929063Y4635232D01*
Y4661168D01*
X922351Y4686219D01*
X909383Y4708680D01*
X891044Y4727020D01*
X868583Y4739987D01*
X843531Y4746700D01*
D02*
G37*
G36*
X511106D02*
X485170D01*
X460118Y4739987D01*
X437657Y4727020D01*
X419318Y4708680D01*
X406351Y4686219D01*
X399638Y4661168D01*
Y4635232D01*
X406351Y4610181D01*
X419318Y4587720D01*
X437657Y4569380D01*
X460118Y4556413D01*
X485170Y4549700D01*
X511106D01*
X536157Y4556413D01*
X558618Y4569380D01*
X576957Y4587720D01*
X589925Y4610181D01*
X596638Y4635232D01*
Y4661168D01*
X589925Y4686219D01*
X576957Y4708680D01*
X558618Y4727020D01*
X536157Y4739987D01*
X511106Y4746700D01*
D02*
G37*
G36*
X1520815Y4494959D02*
Y4419600D01*
X1596174D01*
X1592234Y4434304D01*
X1578555Y4457996D01*
X1559211Y4477341D01*
X1535518Y4491019D01*
X1520815Y4494959D01*
D02*
G37*
G36*
X1188389D02*
Y4419600D01*
X1263748D01*
X1259809Y4434304D01*
X1246130Y4457996D01*
X1226785Y4477341D01*
X1203093Y4491019D01*
X1188389Y4494959D01*
D02*
G37*
G36*
X855963D02*
Y4419600D01*
X931323D01*
X927383Y4434304D01*
X913704Y4457996D01*
X894360Y4477341D01*
X870667Y4491019D01*
X855963Y4494959D01*
D02*
G37*
G36*
X523538D02*
Y4419600D01*
X598897D01*
X594957Y4434304D01*
X581279Y4457996D01*
X561934Y4477341D01*
X538242Y4491019D01*
X523538Y4494959D01*
D02*
G37*
G36*
X1470015D02*
X1455311Y4491019D01*
X1431618Y4477341D01*
X1412274Y4457996D01*
X1398595Y4434304D01*
X1394655Y4419600D01*
X1470015D01*
Y4494959D01*
D02*
G37*
G36*
X1137589D02*
X1122885Y4491019D01*
X1099193Y4477341D01*
X1079848Y4457996D01*
X1066170Y4434304D01*
X1062230Y4419600D01*
X1137589D01*
Y4494959D01*
D02*
G37*
G36*
X805163D02*
X790460Y4491019D01*
X766767Y4477341D01*
X747423Y4457996D01*
X733744Y4434304D01*
X729804Y4419600D01*
X805163D01*
Y4494959D01*
D02*
G37*
G36*
X472738D02*
X458034Y4491019D01*
X434342Y4477341D01*
X414997Y4457996D01*
X401318Y4434304D01*
X397379Y4419600D01*
X472738D01*
Y4494959D01*
D02*
G37*
G36*
X1596174Y4368800D02*
X1520815D01*
Y4293441D01*
X1535518Y4297381D01*
X1559211Y4311059D01*
X1578555Y4330404D01*
X1592234Y4354096D01*
X1596174Y4368800D01*
D02*
G37*
G36*
X1263748D02*
X1188389D01*
Y4293441D01*
X1203093Y4297381D01*
X1226785Y4311059D01*
X1246130Y4330404D01*
X1259809Y4354096D01*
X1263748Y4368800D01*
D02*
G37*
G36*
X931323D02*
X855963D01*
Y4293441D01*
X870667Y4297381D01*
X894360Y4311059D01*
X913704Y4330404D01*
X927383Y4354096D01*
X931323Y4368800D01*
D02*
G37*
G36*
X598897D02*
X523538D01*
Y4293441D01*
X538242Y4297381D01*
X561934Y4311059D01*
X581279Y4330404D01*
X594957Y4354096D01*
X598897Y4368800D01*
D02*
G37*
G36*
X1470015D02*
X1394655D01*
X1398595Y4354096D01*
X1412274Y4330404D01*
X1431618Y4311059D01*
X1455311Y4297381D01*
X1470015Y4293441D01*
Y4368800D01*
D02*
G37*
G36*
X1137589D02*
X1062230D01*
X1066170Y4354096D01*
X1079848Y4330404D01*
X1099193Y4311059D01*
X1122885Y4297381D01*
X1137589Y4293441D01*
Y4368800D01*
D02*
G37*
G36*
X805163D02*
X729804D01*
X733744Y4354096D01*
X747423Y4330404D01*
X766767Y4311059D01*
X790460Y4297381D01*
X805163Y4293441D01*
Y4368800D01*
D02*
G37*
G36*
X472738D02*
X397379D01*
X401318Y4354096D01*
X414997Y4330404D01*
X434342Y4311059D01*
X458034Y4297381D01*
X472738Y4293441D01*
Y4368800D01*
D02*
G37*
G36*
X3527846Y4317200D02*
X3507954D01*
X3489577Y4309588D01*
X3475512Y4295523D01*
X3467900Y4277146D01*
Y4257254D01*
X3475512Y4238877D01*
X3489577Y4224812D01*
X3507954Y4217200D01*
X3527846D01*
X3546223Y4224812D01*
X3560288Y4238877D01*
X3567900Y4257254D01*
Y4277146D01*
X3560288Y4295523D01*
X3546223Y4309588D01*
X3527846Y4317200D01*
D02*
G37*
G36*
X3400846D02*
X3380954D01*
X3362577Y4309588D01*
X3348512Y4295523D01*
X3340900Y4277146D01*
Y4257254D01*
X3348512Y4238877D01*
X3362577Y4224812D01*
X3380954Y4217200D01*
X3400846D01*
X3419223Y4224812D01*
X3433288Y4238877D01*
X3440900Y4257254D01*
Y4277146D01*
X3433288Y4295523D01*
X3419223Y4309588D01*
X3400846Y4317200D01*
D02*
G37*
G36*
X3184946D02*
X3165054D01*
X3146677Y4309588D01*
X3132612Y4295523D01*
X3125000Y4277146D01*
Y4257254D01*
X3132612Y4238877D01*
X3146677Y4224812D01*
X3165054Y4217200D01*
X3184946D01*
X3203323Y4224812D01*
X3217388Y4238877D01*
X3225000Y4257254D01*
Y4277146D01*
X3217388Y4295523D01*
X3203323Y4309588D01*
X3184946Y4317200D01*
D02*
G37*
G36*
X3057946D02*
X3038054D01*
X3019677Y4309588D01*
X3005612Y4295523D01*
X2998000Y4277146D01*
Y4257254D01*
X3005612Y4238877D01*
X3019677Y4224812D01*
X3038054Y4217200D01*
X3057946D01*
X3076323Y4224812D01*
X3090388Y4238877D01*
X3098000Y4257254D01*
Y4277146D01*
X3090388Y4295523D01*
X3076323Y4309588D01*
X3057946Y4317200D01*
D02*
G37*
G36*
X2842046D02*
X2822154D01*
X2803777Y4309588D01*
X2789712Y4295523D01*
X2782100Y4277146D01*
Y4257254D01*
X2789712Y4238877D01*
X2803777Y4224812D01*
X2822154Y4217200D01*
X2842046D01*
X2860423Y4224812D01*
X2874488Y4238877D01*
X2882100Y4257254D01*
Y4277146D01*
X2874488Y4295523D01*
X2860423Y4309588D01*
X2842046Y4317200D01*
D02*
G37*
G36*
X2727746D02*
X2707854D01*
X2689477Y4309588D01*
X2675412Y4295523D01*
X2667800Y4277146D01*
Y4257254D01*
X2675412Y4238877D01*
X2689477Y4224812D01*
X2707854Y4217200D01*
X2727746D01*
X2746123Y4224812D01*
X2760188Y4238877D01*
X2767800Y4257254D01*
Y4277146D01*
X2760188Y4295523D01*
X2746123Y4309588D01*
X2727746Y4317200D01*
D02*
G37*
G36*
X2511846D02*
X2491954D01*
X2473577Y4309588D01*
X2459512Y4295523D01*
X2451900Y4277146D01*
Y4257254D01*
X2459512Y4238877D01*
X2473577Y4224812D01*
X2491954Y4217200D01*
X2511846D01*
X2530223Y4224812D01*
X2544288Y4238877D01*
X2551900Y4257254D01*
Y4277146D01*
X2544288Y4295523D01*
X2530223Y4309588D01*
X2511846Y4317200D01*
D02*
G37*
G36*
X2397546D02*
X2377654D01*
X2359277Y4309588D01*
X2345212Y4295523D01*
X2337600Y4277146D01*
Y4257254D01*
X2345212Y4238877D01*
X2359277Y4224812D01*
X2377654Y4217200D01*
X2397546D01*
X2415923Y4224812D01*
X2429988Y4238877D01*
X2437600Y4257254D01*
Y4277146D01*
X2429988Y4295523D01*
X2415923Y4309588D01*
X2397546Y4317200D01*
D02*
G37*
G36*
X1593915Y4238700D02*
X1396915D01*
Y4041700D01*
X1593915D01*
Y4238700D01*
D02*
G37*
G36*
X1261489D02*
X1064489D01*
Y4041700D01*
X1261489D01*
Y4238700D01*
D02*
G37*
G36*
X929063D02*
X732064D01*
Y4041700D01*
X929063D01*
Y4238700D01*
D02*
G37*
G36*
X596638D02*
X399638D01*
Y4041700D01*
X596638D01*
Y4238700D01*
D02*
G37*
G36*
X3397844Y4149800D02*
X3371909D01*
X3346857Y4143087D01*
X3324396Y4130120D01*
X3306057Y4111780D01*
X3293089Y4089319D01*
X3286377Y4064268D01*
Y4038332D01*
X3293089Y4013281D01*
X3306057Y3990820D01*
X3324396Y3972480D01*
X3346857Y3959513D01*
X3371909Y3952800D01*
X3397844D01*
X3422896Y3959513D01*
X3445357Y3972480D01*
X3463696Y3990820D01*
X3476664Y4013281D01*
X3483377Y4038332D01*
Y4064268D01*
X3476664Y4089319D01*
X3463696Y4111780D01*
X3445357Y4130120D01*
X3422896Y4143087D01*
X3397844Y4149800D01*
D02*
G37*
G36*
X3065419D02*
X3039483D01*
X3014432Y4143087D01*
X2991971Y4130120D01*
X2973632Y4111780D01*
X2960664Y4089319D01*
X2953951Y4064268D01*
Y4038332D01*
X2960664Y4013281D01*
X2973632Y3990820D01*
X2991971Y3972480D01*
X3014432Y3959513D01*
X3039483Y3952800D01*
X3065419D01*
X3090471Y3959513D01*
X3112932Y3972480D01*
X3131271Y3990820D01*
X3144238Y4013281D01*
X3150951Y4038332D01*
Y4064268D01*
X3144238Y4089319D01*
X3131271Y4111780D01*
X3112932Y4130120D01*
X3090471Y4143087D01*
X3065419Y4149800D01*
D02*
G37*
G36*
X2732993D02*
X2707058D01*
X2682006Y4143087D01*
X2659545Y4130120D01*
X2641206Y4111780D01*
X2628238Y4089319D01*
X2621526Y4064268D01*
Y4038332D01*
X2628238Y4013281D01*
X2641206Y3990820D01*
X2659545Y3972480D01*
X2682006Y3959513D01*
X2707058Y3952800D01*
X2732993D01*
X2758045Y3959513D01*
X2780506Y3972480D01*
X2798845Y3990820D01*
X2811813Y4013281D01*
X2818525Y4038332D01*
Y4064268D01*
X2811813Y4089319D01*
X2798845Y4111780D01*
X2780506Y4130120D01*
X2758045Y4143087D01*
X2732993Y4149800D01*
D02*
G37*
G36*
X2400568D02*
X2374632D01*
X2349581Y4143087D01*
X2327120Y4130120D01*
X2308780Y4111780D01*
X2295813Y4089319D01*
X2289100Y4064268D01*
Y4038332D01*
X2295813Y4013281D01*
X2308780Y3990820D01*
X2327120Y3972480D01*
X2349581Y3959513D01*
X2374632Y3952800D01*
X2400568D01*
X2425619Y3959513D01*
X2448080Y3972480D01*
X2466420Y3990820D01*
X2479387Y4013281D01*
X2486100Y4038332D01*
Y4064268D01*
X2479387Y4089319D01*
X2466420Y4111780D01*
X2448080Y4130120D01*
X2425619Y4143087D01*
X2400568Y4149800D01*
D02*
G37*
G36*
X1508546Y3987000D02*
X1488654D01*
X1470277Y3979388D01*
X1456212Y3965323D01*
X1448600Y3946946D01*
Y3927054D01*
X1456212Y3908677D01*
X1470277Y3894612D01*
X1488654Y3887000D01*
X1508546D01*
X1526923Y3894612D01*
X1540988Y3908677D01*
X1548600Y3927054D01*
Y3946946D01*
X1540988Y3965323D01*
X1526923Y3979388D01*
X1508546Y3987000D01*
D02*
G37*
G36*
X1178346D02*
X1158454D01*
X1140077Y3979388D01*
X1126012Y3965323D01*
X1118400Y3946946D01*
Y3927054D01*
X1126012Y3908677D01*
X1140077Y3894612D01*
X1158454Y3887000D01*
X1178346D01*
X1196723Y3894612D01*
X1210788Y3908677D01*
X1218400Y3927054D01*
Y3946946D01*
X1210788Y3965323D01*
X1196723Y3979388D01*
X1178346Y3987000D01*
D02*
G37*
G36*
X835446D02*
X815554D01*
X797177Y3979388D01*
X783112Y3965323D01*
X775500Y3946946D01*
Y3927054D01*
X783112Y3908677D01*
X797177Y3894612D01*
X815554Y3887000D01*
X835446D01*
X853823Y3894612D01*
X867888Y3908677D01*
X875500Y3927054D01*
Y3946946D01*
X867888Y3965323D01*
X853823Y3979388D01*
X835446Y3987000D01*
D02*
G37*
G36*
X505246D02*
X485354D01*
X466977Y3979388D01*
X452912Y3965323D01*
X445300Y3946946D01*
Y3927054D01*
X452912Y3908677D01*
X466977Y3894612D01*
X485354Y3887000D01*
X505246D01*
X523623Y3894612D01*
X537688Y3908677D01*
X545300Y3927054D01*
Y3946946D01*
X537688Y3965323D01*
X523623Y3979388D01*
X505246Y3987000D01*
D02*
G37*
G36*
X3410277Y3898059D02*
Y3822700D01*
X3485636D01*
X3481696Y3837404D01*
X3468017Y3861096D01*
X3448673Y3880441D01*
X3424980Y3894119D01*
X3410277Y3898059D01*
D02*
G37*
G36*
X3077851D02*
Y3822700D01*
X3153210D01*
X3149271Y3837404D01*
X3135592Y3861096D01*
X3116247Y3880441D01*
X3092555Y3894119D01*
X3077851Y3898059D01*
D02*
G37*
G36*
X2745426D02*
Y3822700D01*
X2820785D01*
X2816845Y3837404D01*
X2803166Y3861096D01*
X2783822Y3880441D01*
X2760129Y3894119D01*
X2745426Y3898059D01*
D02*
G37*
G36*
X2413000D02*
Y3822700D01*
X2488359D01*
X2484419Y3837404D01*
X2470741Y3861096D01*
X2451396Y3880441D01*
X2427704Y3894119D01*
X2413000Y3898059D01*
D02*
G37*
G36*
X3359477D02*
X3344773Y3894119D01*
X3321080Y3880441D01*
X3301736Y3861096D01*
X3288057Y3837404D01*
X3284117Y3822700D01*
X3359477D01*
Y3898059D01*
D02*
G37*
G36*
X3027051D02*
X3012347Y3894119D01*
X2988655Y3880441D01*
X2969310Y3861096D01*
X2955632Y3837404D01*
X2951692Y3822700D01*
X3027051D01*
Y3898059D01*
D02*
G37*
G36*
X2694626D02*
X2679922Y3894119D01*
X2656229Y3880441D01*
X2636885Y3861096D01*
X2623206Y3837404D01*
X2619266Y3822700D01*
X2694626D01*
Y3898059D01*
D02*
G37*
G36*
X2362200D02*
X2347496Y3894119D01*
X2323804Y3880441D01*
X2304459Y3861096D01*
X2290781Y3837404D01*
X2286841Y3822700D01*
X2362200D01*
Y3898059D01*
D02*
G37*
G36*
X3485636Y3771900D02*
X3410277D01*
Y3696541D01*
X3424980Y3700481D01*
X3448673Y3714159D01*
X3468017Y3733504D01*
X3481696Y3757196D01*
X3485636Y3771900D01*
D02*
G37*
G36*
X3153210D02*
X3077851D01*
Y3696541D01*
X3092555Y3700481D01*
X3116247Y3714159D01*
X3135592Y3733504D01*
X3149271Y3757196D01*
X3153210Y3771900D01*
D02*
G37*
G36*
X2820785D02*
X2745426D01*
Y3696541D01*
X2760129Y3700481D01*
X2783822Y3714159D01*
X2803166Y3733504D01*
X2816845Y3757196D01*
X2820785Y3771900D01*
D02*
G37*
G36*
X2488359D02*
X2413000D01*
Y3696541D01*
X2427704Y3700481D01*
X2451396Y3714159D01*
X2470741Y3733504D01*
X2484419Y3757196D01*
X2488359Y3771900D01*
D02*
G37*
G36*
X3359477D02*
X3284117D01*
X3288057Y3757196D01*
X3301736Y3733504D01*
X3321080Y3714159D01*
X3344773Y3700481D01*
X3359477Y3696541D01*
Y3771900D01*
D02*
G37*
G36*
X3027051D02*
X2951692D01*
X2955632Y3757196D01*
X2969310Y3733504D01*
X2988655Y3714159D01*
X3012347Y3700481D01*
X3027051Y3696541D01*
Y3771900D01*
D02*
G37*
G36*
X2694626D02*
X2619266D01*
X2623206Y3757196D01*
X2636885Y3733504D01*
X2656229Y3714159D01*
X2679922Y3700481D01*
X2694626Y3696541D01*
Y3771900D01*
D02*
G37*
G36*
X2362200D02*
X2286841D01*
X2290781Y3757196D01*
X2304459Y3733504D01*
X2323804Y3714159D01*
X2347496Y3700481D01*
X2362200Y3696541D01*
Y3771900D01*
D02*
G37*
G36*
X3483377Y3641800D02*
X3286377D01*
Y3444800D01*
X3483377D01*
Y3641800D01*
D02*
G37*
G36*
X3150951D02*
X2953951D01*
Y3444800D01*
X3150951D01*
Y3641800D01*
D02*
G37*
G36*
X2818525D02*
X2621526D01*
Y3444800D01*
X2818525D01*
Y3641800D01*
D02*
G37*
G36*
X2486100D02*
X2289100D01*
Y3444800D01*
X2486100D01*
Y3641800D01*
D02*
G37*
G36*
X862562Y3555680D02*
X839238D01*
X816709Y3549643D01*
X796511Y3537981D01*
X780019Y3521489D01*
X768357Y3501291D01*
X762320Y3478762D01*
Y3455438D01*
X768357Y3432909D01*
X780019Y3412711D01*
X796511Y3396219D01*
X816709Y3384557D01*
X839238Y3378520D01*
X862562D01*
X885091Y3384557D01*
X905289Y3396219D01*
X921781Y3412711D01*
X933443Y3432909D01*
X939480Y3455438D01*
Y3478762D01*
X933443Y3501291D01*
X921781Y3521489D01*
X905289Y3537981D01*
X885091Y3549643D01*
X862562Y3555680D01*
D02*
G37*
G36*
X3400846Y3390100D02*
X3380954D01*
X3362577Y3382488D01*
X3348512Y3368423D01*
X3340900Y3350046D01*
Y3330154D01*
X3348512Y3311777D01*
X3362577Y3297712D01*
X3380954Y3290100D01*
X3400846D01*
X3419223Y3297712D01*
X3433288Y3311777D01*
X3440900Y3330154D01*
Y3350046D01*
X3433288Y3368423D01*
X3419223Y3382488D01*
X3400846Y3390100D01*
D02*
G37*
G36*
X3057946D02*
X3038054D01*
X3019677Y3382488D01*
X3005612Y3368423D01*
X2998000Y3350046D01*
Y3330154D01*
X3005612Y3311777D01*
X3019677Y3297712D01*
X3038054Y3290100D01*
X3057946D01*
X3076323Y3297712D01*
X3090388Y3311777D01*
X3098000Y3330154D01*
Y3350046D01*
X3090388Y3368423D01*
X3076323Y3382488D01*
X3057946Y3390100D01*
D02*
G37*
G36*
X2727746D02*
X2707854D01*
X2689477Y3382488D01*
X2675412Y3368423D01*
X2667800Y3350046D01*
Y3330154D01*
X2675412Y3311777D01*
X2689477Y3297712D01*
X2707854Y3290100D01*
X2727746D01*
X2746123Y3297712D01*
X2760188Y3311777D01*
X2767800Y3330154D01*
Y3350046D01*
X2760188Y3368423D01*
X2746123Y3382488D01*
X2727746Y3390100D01*
D02*
G37*
G36*
X2397546D02*
X2377654D01*
X2359277Y3382488D01*
X2345212Y3368423D01*
X2337600Y3350046D01*
Y3330154D01*
X2345212Y3311777D01*
X2359277Y3297712D01*
X2377654Y3290100D01*
X2397546D01*
X2415923Y3297712D01*
X2429988Y3311777D01*
X2437600Y3330154D01*
Y3350046D01*
X2429988Y3368423D01*
X2415923Y3382488D01*
X2397546Y3390100D01*
D02*
G37*
G36*
X876300Y3207589D02*
Y3142500D01*
X941389D01*
X938475Y3153375D01*
X926103Y3174805D01*
X908605Y3192303D01*
X887175Y3204675D01*
X876300Y3207589D01*
D02*
G37*
G36*
X825500D02*
X814625Y3204675D01*
X793195Y3192303D01*
X775697Y3174805D01*
X763325Y3153375D01*
X760411Y3142500D01*
X825500D01*
Y3207589D01*
D02*
G37*
G36*
X2727746Y3148800D02*
X2707854D01*
X2689477Y3141188D01*
X2675412Y3127123D01*
X2667800Y3108746D01*
Y3088854D01*
X2675412Y3070477D01*
X2689477Y3056412D01*
X2707854Y3048800D01*
X2727746D01*
X2746123Y3056412D01*
X2760188Y3070477D01*
X2767800Y3088854D01*
Y3108746D01*
X2760188Y3127123D01*
X2746123Y3141188D01*
X2727746Y3148800D01*
D02*
G37*
G36*
X2397546D02*
X2377654D01*
X2359277Y3141188D01*
X2345212Y3127123D01*
X2337600Y3108746D01*
Y3088854D01*
X2345212Y3070477D01*
X2359277Y3056412D01*
X2377654Y3048800D01*
X2397546D01*
X2415923Y3056412D01*
X2429988Y3070477D01*
X2437600Y3088854D01*
Y3108746D01*
X2429988Y3127123D01*
X2415923Y3141188D01*
X2397546Y3148800D01*
D02*
G37*
G36*
X941389Y3091700D02*
X876300D01*
Y3026611D01*
X887175Y3029525D01*
X908605Y3041897D01*
X926103Y3059395D01*
X938475Y3080825D01*
X941389Y3091700D01*
D02*
G37*
G36*
X825500D02*
X760411D01*
X763325Y3080825D01*
X775697Y3059395D01*
X793195Y3041897D01*
X814625Y3029525D01*
X825500Y3026611D01*
Y3091700D01*
D02*
G37*
G36*
X2168946Y2971000D02*
X2149054D01*
X2130677Y2963388D01*
X2116612Y2949323D01*
X2109000Y2930946D01*
Y2911054D01*
X2116612Y2892677D01*
X2130677Y2878612D01*
X2149054Y2871000D01*
X2168946D01*
X2187323Y2878612D01*
X2201388Y2892677D01*
X2209000Y2911054D01*
Y2930946D01*
X2201388Y2949323D01*
X2187323Y2963388D01*
X2168946Y2971000D01*
D02*
G37*
G36*
X2018535Y2955600D02*
X1994665D01*
X1972613Y2946466D01*
X1955734Y2929587D01*
X1946600Y2907535D01*
Y2883665D01*
X1955734Y2861613D01*
X1972613Y2844734D01*
X1994665Y2835600D01*
X2018535D01*
X2040587Y2844734D01*
X2057466Y2861613D01*
X2066600Y2883665D01*
Y2907535D01*
X2057466Y2929587D01*
X2040587Y2946466D01*
X2018535Y2955600D01*
D02*
G37*
G36*
X2016546Y2767800D02*
X1996654D01*
X1978277Y2760188D01*
X1964212Y2746123D01*
X1956600Y2727746D01*
Y2707854D01*
X1964212Y2689477D01*
X1978277Y2675412D01*
X1996654Y2667800D01*
X2016546D01*
X2034923Y2675412D01*
X2048988Y2689477D01*
X2056600Y2707854D01*
Y2727746D01*
X2048988Y2746123D01*
X2034923Y2760188D01*
X2016546Y2767800D01*
D02*
G37*
G36*
X3102076Y2421558D02*
X2852076D01*
X2844273Y2420005D01*
X2837657Y2415585D01*
X2833237Y2408969D01*
X2831684Y2401166D01*
Y1741165D01*
X2833237Y1733362D01*
X2837657Y1726746D01*
X2844273Y1722326D01*
X2852076Y1720774D01*
X3102076D01*
X3109880Y1722326D01*
X3116496Y1726746D01*
X3120916Y1733362D01*
X3122468Y1741165D01*
Y2401166D01*
X3120916Y2408969D01*
X3116496Y2415585D01*
X3109880Y2420005D01*
X3102076Y2421558D01*
D02*
G37*
G36*
X2769215Y1410002D02*
X2750784D01*
X2732981Y1405232D01*
X2717019Y1396016D01*
X2703986Y1382983D01*
X2694770Y1367021D01*
X2690000Y1349218D01*
Y1330787D01*
X2694770Y1312983D01*
X2703986Y1297022D01*
X2717019Y1283989D01*
X2732981Y1274773D01*
X2750784Y1270003D01*
X2769215D01*
X2787019Y1274773D01*
X2802980Y1283989D01*
X2816013Y1297022D01*
X2825229Y1312983D01*
X2829999Y1330787D01*
Y1349218D01*
X2825229Y1367021D01*
X2816013Y1382983D01*
X2802980Y1396016D01*
X2787019Y1405232D01*
X2769215Y1410002D01*
D02*
G37*
G36*
X2778546Y1154900D02*
X2758654D01*
X2740277Y1147288D01*
X2726212Y1133223D01*
X2718600Y1114846D01*
Y1094954D01*
X2726212Y1076577D01*
X2740277Y1062512D01*
X2758654Y1054900D01*
X2778546D01*
X2796923Y1062512D01*
X2810988Y1076577D01*
X2818600Y1094954D01*
Y1114846D01*
X2810988Y1133223D01*
X2796923Y1147288D01*
X2778546Y1154900D01*
D02*
G37*
G36*
X2473746D02*
X2453854D01*
X2435477Y1147288D01*
X2421412Y1133223D01*
X2413800Y1114846D01*
Y1094954D01*
X2421412Y1076577D01*
X2435477Y1062512D01*
X2453854Y1054900D01*
X2473746D01*
X2492123Y1062512D01*
X2506188Y1076577D01*
X2513800Y1094954D01*
Y1114846D01*
X2506188Y1133223D01*
X2492123Y1147288D01*
X2473746Y1154900D01*
D02*
G37*
G36*
X2778546Y875500D02*
X2758654D01*
X2740277Y867888D01*
X2726212Y853823D01*
X2718600Y835446D01*
Y815554D01*
X2726212Y797177D01*
X2740277Y783112D01*
X2758654Y775500D01*
X2778546D01*
X2796923Y783112D01*
X2810988Y797177D01*
X2818600Y815554D01*
Y835446D01*
X2810988Y853823D01*
X2796923Y867888D01*
X2778546Y875500D01*
D02*
G37*
G36*
X2473746D02*
X2453854D01*
X2435477Y867888D01*
X2421412Y853823D01*
X2413800Y835446D01*
Y815554D01*
X2421412Y797177D01*
X2435477Y783112D01*
X2453854Y775500D01*
X2473746D01*
X2492123Y783112D01*
X2506188Y797177D01*
X2513800Y815554D01*
Y835446D01*
X2506188Y853823D01*
X2492123Y867888D01*
X2473746Y875500D01*
D02*
G37*
G36*
X762000Y2523055D02*
Y2428026D01*
X857030D01*
X851125Y2450063D01*
X834944Y2478088D01*
X812062Y2500970D01*
X784038Y2517150D01*
X762000Y2523055D01*
D02*
G37*
G36*
X711200D02*
X689162Y2517150D01*
X661138Y2500970D01*
X638256Y2478088D01*
X622075Y2450063D01*
X616170Y2428026D01*
X711200D01*
Y2523055D01*
D02*
G37*
G36*
X857030Y2377226D02*
X762000D01*
Y2282196D01*
X784038Y2288101D01*
X812062Y2304281D01*
X834944Y2327163D01*
X851125Y2355188D01*
X857030Y2377226D01*
D02*
G37*
G36*
X711200D02*
X616170D01*
X622075Y2355188D01*
X638256Y2327163D01*
X661138Y2304281D01*
X689162Y2288101D01*
X711200Y2282196D01*
Y2377226D01*
D02*
G37*
G36*
X752069Y2012126D02*
X721131D01*
X691247Y2004118D01*
X664453Y1988649D01*
X642577Y1966772D01*
X627107Y1939979D01*
X619100Y1910095D01*
Y1879157D01*
X627107Y1849272D01*
X642577Y1822479D01*
X664453Y1800602D01*
X691247Y1785133D01*
X721131Y1777126D01*
X752069D01*
X781953Y1785133D01*
X808747Y1800602D01*
X830623Y1822479D01*
X846093Y1849272D01*
X854100Y1879157D01*
Y1910095D01*
X846093Y1939979D01*
X830623Y1966772D01*
X808747Y1988649D01*
X781953Y2004118D01*
X752069Y2012126D01*
D02*
G37*
G36*
X1292646Y1574000D02*
X1272754D01*
X1254377Y1566388D01*
X1240312Y1552323D01*
X1232700Y1533946D01*
Y1514054D01*
X1240312Y1495677D01*
X1254377Y1481612D01*
X1272754Y1474000D01*
X1292646D01*
X1311023Y1481612D01*
X1325088Y1495677D01*
X1332700Y1514054D01*
Y1533946D01*
X1325088Y1552323D01*
X1311023Y1566388D01*
X1292646Y1574000D01*
D02*
G37*
G36*
X812800Y1438517D02*
Y1309250D01*
X942066D01*
X938030Y1329543D01*
X926221Y1358052D01*
X909078Y1383709D01*
X887259Y1405528D01*
X861602Y1422672D01*
X833093Y1434480D01*
X812800Y1438517D01*
D02*
G37*
G36*
X762000D02*
X741707Y1434480D01*
X713198Y1422672D01*
X687541Y1405528D01*
X665722Y1383709D01*
X648579Y1358052D01*
X636770Y1329543D01*
X632734Y1309250D01*
X762000D01*
Y1438517D01*
D02*
G37*
G36*
X942066Y1258450D02*
X812800D01*
Y1129184D01*
X833093Y1133220D01*
X861602Y1145029D01*
X887259Y1162172D01*
X909078Y1183992D01*
X926221Y1209649D01*
X938030Y1238157D01*
X942066Y1258450D01*
D02*
G37*
G36*
X762000D02*
X632734D01*
X636770Y1238157D01*
X648579Y1209649D01*
X665722Y1183992D01*
X687541Y1162172D01*
X713198Y1145029D01*
X741707Y1133220D01*
X762000Y1129184D01*
Y1258450D01*
D02*
G37*
G36*
X802297Y1039100D02*
X772503D01*
X743282Y1033287D01*
X715756Y1021886D01*
X690984Y1005334D01*
X669917Y984266D01*
X653364Y959494D01*
X641963Y931968D01*
X636150Y902747D01*
Y872953D01*
X641963Y843732D01*
X653364Y816206D01*
X669917Y791434D01*
X690984Y770367D01*
X715756Y753814D01*
X743282Y742413D01*
X772503Y736600D01*
X802297D01*
X831518Y742413D01*
X859044Y753814D01*
X883816Y770367D01*
X904883Y791434D01*
X921436Y816206D01*
X932837Y843732D01*
X938650Y872953D01*
Y902747D01*
X932837Y931968D01*
X921436Y959494D01*
X904883Y984266D01*
X883816Y1005334D01*
X859044Y1021886D01*
X831518Y1033287D01*
X802297Y1039100D01*
D02*
G37*
G36*
X1100205Y518100D02*
X1068195D01*
X1036801Y511855D01*
X1007227Y499606D01*
X980612Y481822D01*
X957978Y459188D01*
X940194Y432573D01*
X927945Y402999D01*
X921700Y371605D01*
Y339595D01*
X927945Y308201D01*
X940194Y278627D01*
X957978Y252012D01*
X980612Y229378D01*
X1007227Y211594D01*
X1036801Y199345D01*
X1068195Y193100D01*
X1100205D01*
X1131599Y199345D01*
X1161173Y211594D01*
X1187788Y229378D01*
X1210422Y252012D01*
X1228206Y278627D01*
X1240455Y308201D01*
X1246700Y339595D01*
Y371605D01*
X1240455Y402999D01*
X1228206Y432573D01*
X1210422Y459188D01*
X1187788Y481822D01*
X1161173Y499606D01*
X1131599Y511855D01*
X1100205Y518100D01*
D02*
G37*
G36*
X600205D02*
X568195D01*
X536801Y511855D01*
X507227Y499606D01*
X480612Y481822D01*
X457978Y459188D01*
X440194Y432573D01*
X427945Y402999D01*
X421700Y371605D01*
Y339595D01*
X427945Y308201D01*
X440194Y278627D01*
X457978Y252012D01*
X480612Y229378D01*
X507227Y211594D01*
X536801Y199345D01*
X568195Y193100D01*
X600205D01*
X631599Y199345D01*
X661173Y211594D01*
X687788Y229378D01*
X710422Y252012D01*
X728206Y278627D01*
X740455Y308201D01*
X746700Y339595D01*
Y371605D01*
X740455Y402999D01*
X728206Y432573D01*
X710422Y459188D01*
X687788Y481822D01*
X661173Y499606D01*
X631599Y511855D01*
X600205Y518100D01*
D02*
G37*
%LPD*%
D52*
X2720026Y4051300D02*
D03*
Y3797300D02*
D03*
X2387600Y4051300D02*
D03*
Y3797300D02*
D03*
X3052451Y4051300D02*
D03*
Y3797300D02*
D03*
X3384877Y4051300D02*
D03*
Y3797300D02*
D03*
X1495415Y4394200D02*
D03*
X1162989D02*
D03*
X830563D02*
D03*
X498138D02*
D03*
X830563Y4648200D02*
D03*
X1162989D02*
D03*
X1495415D02*
D03*
X498138D02*
D03*
D53*
X2720026Y3543300D02*
D03*
X2387600D02*
D03*
X3052451D02*
D03*
X3384877D02*
D03*
X1495415Y4140200D02*
D03*
X1162989D02*
D03*
X498138D02*
D03*
X830563D02*
D03*
D54*
X1860335Y626500D02*
D03*
X1945335D02*
D03*
X2030335D02*
D03*
X2200335D02*
D03*
X2285335D02*
D03*
Y491500D02*
D03*
X2200335D02*
D03*
X2115335D02*
D03*
X1945335D02*
D03*
X1860335D02*
D03*
X2030335D02*
D03*
X2115335Y626500D02*
D03*
X1775335Y491500D02*
D03*
X2370335D02*
D03*
Y626500D02*
D03*
X1775335D02*
D03*
D55*
X2505335Y528500D02*
D03*
X1640335D02*
D03*
D56*
X2505335Y190500D02*
D03*
X1640335D02*
D03*
D57*
X3146425Y4950000D02*
D03*
D59*
X1084200Y355600D02*
D03*
X584200D02*
D03*
D60*
X850900Y3467100D02*
D03*
Y3117100D02*
D03*
D61*
X3146425Y4750000D02*
D03*
D63*
X787400Y887850D02*
D03*
Y1283850D02*
D03*
D64*
X736600Y5894415D02*
D03*
Y5644415D02*
D03*
Y5144415D02*
D03*
Y5394415D02*
D03*
D65*
X3610000Y259999D02*
D03*
Y7999999D02*
D03*
X250002Y8010002D02*
D03*
D66*
X736600Y2402626D02*
D03*
Y1894626D02*
D03*
D68*
X1945516Y1807995D02*
D03*
Y1886735D02*
D03*
X2024256Y1807995D02*
D03*
Y1886735D02*
D03*
D69*
X3700000Y7400000D02*
D03*
Y6900000D02*
D03*
Y7650000D02*
D03*
X3700000Y6650000D02*
D03*
X3700000Y6400000D02*
D03*
Y5900000D02*
D03*
X3700000Y6150000D02*
D03*
Y7150000D02*
D03*
X3309620Y8150860D02*
D03*
X3700000Y5400000D02*
D03*
Y4900000D02*
D03*
X3700000Y4650000D02*
D03*
X3700000Y4400000D02*
D03*
Y3900000D02*
D03*
X3700000Y4150000D02*
D03*
X3467100Y5765800D02*
D03*
X3700000Y5650000D02*
D03*
Y5150000D02*
D03*
X3517900Y4267200D02*
D03*
X3101340Y8150860D02*
D03*
X2336800Y5981700D02*
D03*
X3144520Y5240020D02*
D03*
X2514600Y5156200D02*
D03*
X3175000Y4267200D02*
D03*
X2832100D02*
D03*
X2514600Y5448300D02*
D03*
X2120900Y5156200D02*
D03*
X2501900Y4267200D02*
D03*
X1982470Y5360129D02*
D03*
X3700000Y3650000D02*
D03*
X3700000Y3400000D02*
D03*
X3390900Y3340100D02*
D03*
X3700000Y2900000D02*
D03*
X3700000Y2650000D02*
D03*
Y3150000D02*
D03*
X2717800Y3340100D02*
D03*
X3048000D02*
D03*
X3700000Y1900000D02*
D03*
Y1400000D02*
D03*
Y2400000D02*
D03*
Y900000D02*
D03*
X3700000Y650000D02*
D03*
Y1150000D02*
D03*
Y2150000D02*
D03*
Y1650000D02*
D03*
X2768600Y1104900D02*
D03*
X2908300Y177800D02*
D03*
X3225800D02*
D03*
X2768600Y825500D02*
D03*
X2717800Y3098800D02*
D03*
X2387600Y3340100D02*
D03*
Y3098800D02*
D03*
X2159000Y2921000D02*
D03*
X2006600Y2717800D02*
D03*
X2654300Y622300D02*
D03*
X2667000Y266700D02*
D03*
Y76200D02*
D03*
X2463800Y1104900D02*
D03*
Y825500D02*
D03*
X1778000Y6210300D02*
D03*
X1371600Y5918200D02*
D03*
X1206500Y6096000D02*
D03*
Y5156200D02*
D03*
X1663700D02*
D03*
X1206500Y5689600D02*
D03*
X835660Y7721600D02*
D03*
X830580Y7579360D02*
D03*
X828040Y7429500D02*
D03*
Y7048500D02*
D03*
X830580Y6916420D02*
D03*
X828040Y7185660D02*
D03*
X150000Y7400000D02*
D03*
Y7150000D02*
D03*
Y7650000D02*
D03*
X698500Y6070600D02*
D03*
X150000Y5400000D02*
D03*
Y4900000D02*
D03*
X990600Y4838700D02*
D03*
X150000Y5150000D02*
D03*
Y6650000D02*
D03*
Y6400000D02*
D03*
Y6900000D02*
D03*
Y5900000D02*
D03*
Y5650000D02*
D03*
Y6150000D02*
D03*
X1625600Y2146300D02*
D03*
X1700000Y1345000D02*
D03*
X1333500Y4838700D02*
D03*
X1498600Y3937000D02*
D03*
X1282700Y1524000D02*
D03*
X1168400Y3937000D02*
D03*
X1473200Y466700D02*
D03*
Y666700D02*
D03*
Y266700D02*
D03*
Y76200D02*
D03*
X495300Y3937000D02*
D03*
X825500D02*
D03*
X150000Y3150000D02*
D03*
Y4400000D02*
D03*
Y4150000D02*
D03*
Y4650000D02*
D03*
Y3650000D02*
D03*
Y3400000D02*
D03*
Y3900000D02*
D03*
Y1150000D02*
D03*
Y900000D02*
D03*
Y1400000D02*
D03*
Y400000D02*
D03*
Y150000D02*
D03*
Y650000D02*
D03*
Y2650000D02*
D03*
Y2400000D02*
D03*
Y2900000D02*
D03*
Y1900000D02*
D03*
Y1650000D02*
D03*
Y2150000D02*
D03*
X2222500Y5588000D02*
D03*
X3352800Y2692400D02*
D03*
X2133600Y4640580D02*
D03*
X3352800Y2527300D02*
D03*
X3200400D02*
D03*
Y2692400D02*
D03*
X2128520Y4744720D02*
D03*
X977900Y3225800D02*
D03*
X723900D02*
D03*
Y2997200D02*
D03*
X1498600Y952500D02*
D03*
X977900Y2997200D02*
D03*
X2336800Y6096000D02*
D03*
X2387600Y4267200D02*
D03*
X930400Y6870700D02*
D03*
X1549400Y5613400D02*
D03*
X1638300Y6210300D02*
D03*
X2981960Y5361940D02*
D03*
X1498600Y5918200D02*
D03*
X1341120Y6093460D02*
D03*
X1206500Y5816600D02*
D03*
X1498600Y4838700D02*
D03*
X1168400D02*
D03*
X825500D02*
D03*
X927100Y7632700D02*
D03*
X495300Y4826000D02*
D03*
X3390900Y4267200D02*
D03*
X3048000D02*
D03*
X2717800D02*
D03*
X930400Y7378700D02*
D03*
Y6629400D02*
D03*
X930000Y7255000D02*
D03*
X930400Y6489700D02*
D03*
X927100Y7759700D02*
D03*
X930400Y6997700D02*
D03*
Y7124700D02*
D03*
Y7505700D02*
D03*
X3098800Y8026400D02*
D03*
X930400Y7886700D02*
D03*
D70*
X1935002Y7369998D02*
D03*
Y7515001D02*
D03*
X1794998D02*
D03*
Y7375002D02*
D03*
X1654998Y7515001D02*
D03*
Y7375002D02*
D03*
X1929999Y7235002D02*
D03*
X1794998D02*
D03*
X1649999D02*
D03*
X812800Y8168640D02*
D03*
X497840Y8163560D02*
D03*
D71*
X2024256Y1807995D02*
D03*
Y1886735D02*
D03*
X1945518Y1886737D02*
D03*
X1945516Y1807995D02*
D03*
D72*
X2006600Y2895600D02*
D03*
D73*
X2760000Y1340002D02*
D03*
X1587500Y1384300D02*
D03*
%TF.MD5,ab3aee1073edd465315f961cf9c0c983*%
M02*
