%TF.GenerationSoftware,Altium Limited,Altium Designer,26.5.1 (12)*%
G04 Layer_Physical_Order=2*
G04 Layer_Color=36540*
G04 Board_Origin=8850000|10000000*
%FSLAX45Y45*%
%MOMM*%
%TF.SameCoordinates,84847B52-3A98-4CAC-9896-DB7724CA6EA3*%
%TF.FilePolarity,Positive*%
%TF.FileFunction,Copper,L2,Inr,Signal*%
%TF.Part,Single*%
G01*
G75*
%TA.AperFunction,ComponentPad*%
%ADD52C,1.57000*%
%ADD53R,1.57000X1.57000*%
%ADD54C,0.65000*%
%ADD55O,0.90000X2.40000*%
%ADD56O,0.90000X1.70000*%
%ADD57C,1.30000*%
%ADD59C,2.85000*%
%ADD60C,1.37160*%
G04:AMPARAMS|DCode=61|XSize=1.3mm|YSize=1.3mm|CornerRadius=0.325mm|HoleSize=0mm|Usage=FLASHONLY|Rotation=270.000|XOffset=0mm|YOffset=0mm|HoleType=Round|Shape=RoundedRectangle|*
%AMROUNDEDRECTD61*
21,1,1.30000,0.65000,0,0,270.0*
21,1,0.65000,1.30000,0,0,270.0*
1,1,0.65000,-0.32500,-0.32500*
1,1,0.65000,-0.32500,0.32500*
1,1,0.65000,0.32500,0.32500*
1,1,0.65000,0.32500,-0.32500*
%
%ADD61ROUNDEDRECTD61*%
%ADD63C,2.62500*%
%ADD64C,1.50800*%
%TA.AperFunction,WasherPad*%
%ADD65C,3.70000*%
%TA.AperFunction,ComponentPad*%
%ADD66C,1.95000*%
%ADD68C,0.50800*%
%TA.AperFunction,ViaPad*%
%ADD69C,0.60000*%
%ADD70C,0.50000*%
%ADD71C,0.50800*%
%ADD72C,0.80000*%
%ADD73C,1.00000*%
G36*
X3733800Y8224413D02*
X3743296Y8224413D01*
X3761922Y8220708D01*
X3779469Y8213440D01*
X3795260Y8202889D01*
X3808689Y8189460D01*
X3819240Y8173669D01*
X3826508Y8156122D01*
X3830213Y8137495D01*
X3830214Y8127999D01*
X3830213Y126999D01*
X3830213Y117503D01*
X3826508Y98877D01*
X3819240Y81331D01*
X3808689Y65539D01*
X3795260Y52110D01*
X3779469Y41559D01*
X3761922Y34291D01*
X3743296Y30586D01*
X3733801Y30586D01*
X127000Y30586D01*
X117503D01*
X98877Y34291D01*
X81331Y41559D01*
X65539Y52111D01*
X52110Y65540D01*
X41559Y81331D01*
X34291Y98877D01*
X30586Y117504D01*
X30586Y126999D01*
Y8128000D01*
X30586Y8137496D01*
X34291Y8156122D01*
X41559Y8173668D01*
X52110Y8189459D01*
X65540Y8202889D01*
X81331Y8213440D01*
X98877Y8220708D01*
X117504Y8224413D01*
X127001Y8224414D01*
X3733800Y8224413D01*
D02*
G37*
%LPC*%
G36*
X3108746Y8076400D02*
X3088854D01*
X3070477Y8068788D01*
X3056412Y8054723D01*
X3048800Y8036346D01*
Y8016454D01*
X3056412Y7998077D01*
X3070477Y7984012D01*
X3088854Y7976400D01*
X3108746D01*
X3127123Y7984012D01*
X3141188Y7998077D01*
X3148800Y8016454D01*
Y8036346D01*
X3141188Y8054723D01*
X3127123Y8068788D01*
X3108746Y8076400D01*
D02*
G37*
G36*
X940345Y7936700D02*
X920454D01*
X902077Y7929088D01*
X888012Y7915023D01*
X880400Y7896646D01*
Y7876754D01*
X888012Y7858377D01*
X902077Y7844312D01*
X920454Y7836700D01*
X940345D01*
X958722Y7844312D01*
X972788Y7858377D01*
X980400Y7876754D01*
Y7896646D01*
X972788Y7915023D01*
X958722Y7929088D01*
X940345Y7936700D01*
D02*
G37*
G36*
X270193Y8215002D02*
X229811D01*
X190206Y8207124D01*
X152898Y8191670D01*
X119322Y8169236D01*
X90768Y8140681D01*
X68334Y8107106D01*
X52880Y8069798D01*
X45002Y8030192D01*
Y7989811D01*
X52880Y7950206D01*
X68334Y7912898D01*
X90768Y7879322D01*
X119322Y7850768D01*
X152898Y7828333D01*
X190206Y7812880D01*
X229811Y7805002D01*
X270193D01*
X309798Y7812880D01*
X347106Y7828333D01*
X380682Y7850768D01*
X409236Y7879322D01*
X431670Y7912898D01*
X447124Y7950206D01*
X455002Y7989811D01*
Y8030192D01*
X447124Y8069798D01*
X431670Y8107106D01*
X409236Y8140681D01*
X380682Y8169236D01*
X347106Y8191670D01*
X309798Y8207124D01*
X270193Y8215002D01*
D02*
G37*
G36*
X3630191Y8204999D02*
X3589810D01*
X3550204Y8197121D01*
X3512896Y8181668D01*
X3479321Y8159233D01*
X3450767Y8130679D01*
X3428332Y8097103D01*
X3412879Y8059795D01*
X3405001Y8020190D01*
Y7979809D01*
X3412879Y7940203D01*
X3428332Y7902895D01*
X3450767Y7869320D01*
X3479321Y7840765D01*
X3512896Y7818331D01*
X3550204Y7802877D01*
X3589810Y7794999D01*
X3630191D01*
X3669797Y7802877D01*
X3707104Y7818331D01*
X3740680Y7840765D01*
X3769234Y7869320D01*
X3791669Y7902895D01*
X3807122Y7940203D01*
X3815000Y7979809D01*
Y8020190D01*
X3807122Y8059795D01*
X3791669Y8097103D01*
X3769234Y8130679D01*
X3740680Y8159233D01*
X3707104Y8181668D01*
X3669797Y8197121D01*
X3630191Y8204999D01*
D02*
G37*
G36*
X937046Y7809700D02*
X917154D01*
X898777Y7802088D01*
X884712Y7788023D01*
X877100Y7769646D01*
Y7749754D01*
X884712Y7731377D01*
X898777Y7717312D01*
X917154Y7709700D01*
X937046D01*
X955423Y7717312D01*
X969488Y7731377D01*
X977100Y7749754D01*
Y7769646D01*
X969488Y7788023D01*
X955423Y7802088D01*
X937046Y7809700D01*
D02*
G37*
G36*
Y7682700D02*
X917154D01*
X898777Y7675088D01*
X884712Y7661023D01*
X877100Y7642646D01*
Y7622754D01*
X884712Y7604377D01*
X898777Y7590312D01*
X917154Y7582700D01*
X937046D01*
X955423Y7590312D01*
X969488Y7604377D01*
X977100Y7622754D01*
Y7642646D01*
X969488Y7661023D01*
X955423Y7675088D01*
X937046Y7682700D01*
D02*
G37*
G36*
X940345Y7555700D02*
X920454D01*
X902077Y7548088D01*
X888012Y7534023D01*
X880400Y7515646D01*
Y7495754D01*
X888012Y7477377D01*
X902077Y7463312D01*
X920454Y7455700D01*
X940345D01*
X958722Y7463312D01*
X972788Y7477377D01*
X980400Y7495754D01*
Y7515646D01*
X972788Y7534023D01*
X958722Y7548088D01*
X940345Y7555700D01*
D02*
G37*
G36*
Y7428700D02*
X920454D01*
X902077Y7421088D01*
X888012Y7407023D01*
X880400Y7388646D01*
Y7368754D01*
X888012Y7350377D01*
X902077Y7336312D01*
X920454Y7328700D01*
X940345D01*
X958722Y7336312D01*
X972788Y7350377D01*
X980400Y7368754D01*
Y7388646D01*
X972788Y7407023D01*
X958722Y7421088D01*
X940345Y7428700D01*
D02*
G37*
G36*
X939946Y7305000D02*
X920054D01*
X901677Y7297388D01*
X887612Y7283323D01*
X880000Y7264946D01*
Y7245054D01*
X887612Y7226677D01*
X901677Y7212612D01*
X920054Y7205000D01*
X939946D01*
X958323Y7212612D01*
X972388Y7226677D01*
X980000Y7245054D01*
Y7264946D01*
X972388Y7283323D01*
X958323Y7297388D01*
X939946Y7305000D01*
D02*
G37*
G36*
X940345Y7174700D02*
X920454D01*
X902077Y7167088D01*
X888012Y7153023D01*
X880400Y7134646D01*
Y7114754D01*
X888012Y7096377D01*
X902077Y7082312D01*
X920454Y7074700D01*
X940345D01*
X958722Y7082312D01*
X972788Y7096377D01*
X980400Y7114754D01*
Y7134646D01*
X972788Y7153023D01*
X958722Y7167088D01*
X940345Y7174700D01*
D02*
G37*
G36*
Y7047700D02*
X920454D01*
X902077Y7040088D01*
X888012Y7026023D01*
X880400Y7007646D01*
Y6987754D01*
X888012Y6969377D01*
X902077Y6955312D01*
X920454Y6947700D01*
X940345D01*
X958722Y6955312D01*
X972788Y6969377D01*
X980400Y6987754D01*
Y7007646D01*
X972788Y7026023D01*
X958722Y7040088D01*
X940345Y7047700D01*
D02*
G37*
G36*
Y6920700D02*
X920454D01*
X902077Y6913088D01*
X888012Y6899023D01*
X880400Y6880646D01*
Y6860754D01*
X888012Y6842377D01*
X902077Y6828312D01*
X920454Y6820700D01*
X940345D01*
X958722Y6828312D01*
X972788Y6842377D01*
X980400Y6860754D01*
Y6880646D01*
X972788Y6899023D01*
X958722Y6913088D01*
X940345Y6920700D01*
D02*
G37*
G36*
Y6679400D02*
X920454D01*
X902077Y6671788D01*
X888012Y6657723D01*
X880400Y6639346D01*
Y6619454D01*
X888012Y6601077D01*
X902077Y6587012D01*
X920454Y6579400D01*
X940345D01*
X958722Y6587012D01*
X972788Y6601077D01*
X980400Y6619454D01*
Y6639346D01*
X972788Y6657723D01*
X958722Y6671788D01*
X940345Y6679400D01*
D02*
G37*
G36*
Y6539700D02*
X920454D01*
X902077Y6532088D01*
X888012Y6518023D01*
X880400Y6499646D01*
Y6479754D01*
X888012Y6461377D01*
X902077Y6447312D01*
X920454Y6439700D01*
X940345D01*
X958722Y6447312D01*
X972788Y6461377D01*
X980400Y6479754D01*
Y6499646D01*
X972788Y6518023D01*
X958722Y6532088D01*
X940345Y6539700D01*
D02*
G37*
G36*
X1648246Y6260300D02*
X1628354D01*
X1609977Y6252688D01*
X1595912Y6238623D01*
X1588300Y6220246D01*
Y6200354D01*
X1595912Y6181977D01*
X1609977Y6167912D01*
X1628354Y6160300D01*
X1648246D01*
X1666623Y6167912D01*
X1680688Y6181977D01*
X1688300Y6200354D01*
Y6220246D01*
X1680688Y6238623D01*
X1666623Y6252688D01*
X1648246Y6260300D01*
D02*
G37*
G36*
X2346746Y6146000D02*
X2326854D01*
X2308477Y6138388D01*
X2294412Y6124323D01*
X2286800Y6105946D01*
Y6086054D01*
X2294412Y6067677D01*
X2308477Y6053612D01*
X2326854Y6046000D01*
X2346746D01*
X2365123Y6053612D01*
X2379188Y6067677D01*
X2386800Y6086054D01*
Y6105946D01*
X2379188Y6124323D01*
X2365123Y6138388D01*
X2346746Y6146000D01*
D02*
G37*
G36*
X1351066Y6143460D02*
X1331174D01*
X1312797Y6135848D01*
X1298732Y6121783D01*
X1291120Y6103406D01*
Y6083514D01*
X1298732Y6065137D01*
X1312797Y6051072D01*
X1331174Y6043460D01*
X1351066D01*
X1369443Y6051072D01*
X1383508Y6065137D01*
X1391120Y6083514D01*
Y6103406D01*
X1383508Y6121783D01*
X1369443Y6135848D01*
X1351066Y6143460D01*
D02*
G37*
G36*
X2134870Y6160842D02*
X2056130D01*
X2048326Y6159290D01*
X2041711Y6154869D01*
X2037290Y6148254D01*
X2035738Y6140450D01*
Y6051550D01*
X2037290Y6043746D01*
X2041711Y6037131D01*
X2048326Y6032710D01*
X2056130Y6031158D01*
X2134870D01*
X2142674Y6032710D01*
X2149289Y6037131D01*
X2153710Y6043746D01*
X2155262Y6051550D01*
Y6140450D01*
X2153710Y6148254D01*
X2149289Y6154869D01*
X2142674Y6159290D01*
X2134870Y6160842D01*
D02*
G37*
G36*
X762000Y5991964D02*
Y5919814D01*
X834150D01*
X830530Y5933322D01*
X817260Y5956307D01*
X798492Y5975075D01*
X775507Y5988345D01*
X762000Y5991964D01*
D02*
G37*
G36*
X711200D02*
X697693Y5988345D01*
X674708Y5975075D01*
X655940Y5956307D01*
X642670Y5933322D01*
X639050Y5919814D01*
X711200D01*
Y5991964D01*
D02*
G37*
G36*
X1508546Y5968200D02*
X1488654D01*
X1470277Y5960588D01*
X1456212Y5946523D01*
X1448600Y5928146D01*
Y5908254D01*
X1456212Y5889877D01*
X1470277Y5875812D01*
X1488654Y5868200D01*
X1508546D01*
X1526923Y5875812D01*
X1540988Y5889877D01*
X1548600Y5908254D01*
Y5928146D01*
X1540988Y5946523D01*
X1526923Y5960588D01*
X1508546Y5968200D01*
D02*
G37*
G36*
X711200Y5869014D02*
X639050D01*
X642670Y5855507D01*
X655940Y5832522D01*
X674708Y5813755D01*
X697693Y5800484D01*
X711200Y5796865D01*
Y5869014D01*
D02*
G37*
G36*
X834150D02*
X762000D01*
Y5796865D01*
X775507Y5800484D01*
X798492Y5813755D01*
X817260Y5832522D01*
X830530Y5855507D01*
X834150Y5869014D01*
D02*
G37*
G36*
X1216446Y5866600D02*
X1196554D01*
X1178177Y5858988D01*
X1164112Y5844923D01*
X1156500Y5826546D01*
Y5806654D01*
X1164112Y5788277D01*
X1178177Y5774212D01*
X1196554Y5766600D01*
X1216446D01*
X1234823Y5774212D01*
X1248888Y5788277D01*
X1256500Y5806654D01*
Y5826546D01*
X1248888Y5844923D01*
X1234823Y5858988D01*
X1216446Y5866600D01*
D02*
G37*
G36*
X1559346Y5663400D02*
X1539454D01*
X1521077Y5655788D01*
X1507012Y5641723D01*
X1499400Y5623346D01*
Y5603454D01*
X1507012Y5585077D01*
X1521077Y5571012D01*
X1539454Y5563400D01*
X1559346D01*
X1577723Y5571012D01*
X1591788Y5585077D01*
X1599400Y5603454D01*
Y5623346D01*
X1591788Y5641723D01*
X1577723Y5655788D01*
X1559346Y5663400D01*
D02*
G37*
G36*
X749160Y5739815D02*
X724040D01*
X699777Y5733313D01*
X678023Y5720754D01*
X660261Y5702992D01*
X647702Y5681238D01*
X641200Y5656974D01*
Y5631855D01*
X647702Y5607592D01*
X660261Y5585838D01*
X678023Y5568076D01*
X699777Y5555516D01*
X724040Y5549015D01*
X749160D01*
X773423Y5555516D01*
X795177Y5568076D01*
X812939Y5585838D01*
X825498Y5607592D01*
X832000Y5631855D01*
Y5656974D01*
X825498Y5681238D01*
X812939Y5702992D01*
X795177Y5720754D01*
X773423Y5733313D01*
X749160Y5739815D01*
D02*
G37*
G36*
X2232446Y5638000D02*
X2212554D01*
X2194177Y5630388D01*
X2180112Y5616323D01*
X2172500Y5597946D01*
Y5578054D01*
X2180112Y5559677D01*
X2194177Y5545612D01*
X2212554Y5538000D01*
X2232446D01*
X2250823Y5545612D01*
X2264888Y5559677D01*
X2272500Y5578054D01*
Y5597946D01*
X2264888Y5616323D01*
X2250823Y5630388D01*
X2232446Y5638000D01*
D02*
G37*
G36*
X2991906Y5411940D02*
X2972014D01*
X2953637Y5404328D01*
X2939572Y5390263D01*
X2931960Y5371886D01*
Y5351994D01*
X2939572Y5333617D01*
X2953637Y5319552D01*
X2972014Y5311940D01*
X2991906D01*
X3010283Y5319552D01*
X3024348Y5333617D01*
X3031960Y5351994D01*
Y5371886D01*
X3024348Y5390263D01*
X3010283Y5404328D01*
X2991906Y5411940D01*
D02*
G37*
G36*
X749160Y5489815D02*
X724040D01*
X699777Y5483313D01*
X678023Y5470754D01*
X660261Y5452992D01*
X647702Y5431238D01*
X641200Y5406974D01*
Y5381855D01*
X647702Y5357592D01*
X660261Y5335838D01*
X678023Y5318076D01*
X699777Y5305516D01*
X724040Y5299015D01*
X749160D01*
X773423Y5305516D01*
X795177Y5318076D01*
X812939Y5335838D01*
X825498Y5357592D01*
X832000Y5381855D01*
Y5406974D01*
X825498Y5431238D01*
X812939Y5452992D01*
X795177Y5470754D01*
X773423Y5483313D01*
X749160Y5489815D01*
D02*
G37*
G36*
Y5239815D02*
X724040D01*
X699777Y5233313D01*
X678023Y5220754D01*
X660261Y5202992D01*
X647702Y5181238D01*
X641200Y5156974D01*
Y5131855D01*
X647702Y5107592D01*
X660261Y5085838D01*
X678023Y5068076D01*
X699777Y5055516D01*
X724040Y5049015D01*
X749160D01*
X773423Y5055516D01*
X795177Y5068076D01*
X812939Y5085838D01*
X825498Y5107592D01*
X832000Y5131855D01*
Y5156974D01*
X825498Y5181238D01*
X812939Y5202992D01*
X795177Y5220754D01*
X773423Y5233313D01*
X749160Y5239815D01*
D02*
G37*
G36*
X3171825Y5036783D02*
Y4975400D01*
X3233208D01*
X3230664Y4984893D01*
X3218763Y5005507D01*
X3201932Y5022338D01*
X3181318Y5034239D01*
X3171825Y5036783D01*
D02*
G37*
G36*
X3121025D02*
X3111532Y5034239D01*
X3090918Y5022338D01*
X3074087Y5005507D01*
X3062186Y4984893D01*
X3059642Y4975400D01*
X3121025D01*
Y5036783D01*
D02*
G37*
G36*
X3233208Y4924600D02*
X3171825D01*
Y4863217D01*
X3181318Y4865760D01*
X3201932Y4877662D01*
X3218763Y4894493D01*
X3230664Y4915107D01*
X3233208Y4924600D01*
D02*
G37*
G36*
X3121025D02*
X3059642D01*
X3062186Y4915107D01*
X3074087Y4894493D01*
X3090918Y4877662D01*
X3111532Y4865760D01*
X3121025Y4863217D01*
Y4924600D01*
D02*
G37*
G36*
X1508546Y4888700D02*
X1488654D01*
X1470277Y4881088D01*
X1456212Y4867023D01*
X1448600Y4848646D01*
Y4828754D01*
X1456212Y4810377D01*
X1470277Y4796312D01*
X1488654Y4788700D01*
X1508546D01*
X1526923Y4796312D01*
X1540988Y4810377D01*
X1548600Y4828754D01*
Y4848646D01*
X1540988Y4867023D01*
X1526923Y4881088D01*
X1508546Y4888700D01*
D02*
G37*
G36*
X1178346D02*
X1158454D01*
X1140077Y4881088D01*
X1126012Y4867023D01*
X1118400Y4848646D01*
Y4828754D01*
X1126012Y4810377D01*
X1140077Y4796312D01*
X1158454Y4788700D01*
X1178346D01*
X1196723Y4796312D01*
X1210788Y4810377D01*
X1218400Y4828754D01*
Y4848646D01*
X1210788Y4867023D01*
X1196723Y4881088D01*
X1178346Y4888700D01*
D02*
G37*
G36*
X835446D02*
X815554D01*
X797177Y4881088D01*
X783112Y4867023D01*
X775500Y4848646D01*
Y4828754D01*
X783112Y4810377D01*
X797177Y4796312D01*
X815554Y4788700D01*
X835446D01*
X853823Y4796312D01*
X867888Y4810377D01*
X875500Y4828754D01*
Y4848646D01*
X867888Y4867023D01*
X853823Y4881088D01*
X835446Y4888700D01*
D02*
G37*
G36*
X505246Y4876000D02*
X485354D01*
X466977Y4868388D01*
X452912Y4854323D01*
X445300Y4835946D01*
Y4816054D01*
X452912Y4797677D01*
X466977Y4783612D01*
X485354Y4776000D01*
X505246D01*
X523623Y4783612D01*
X537688Y4797677D01*
X545300Y4816054D01*
Y4835946D01*
X537688Y4854323D01*
X523623Y4868388D01*
X505246Y4876000D01*
D02*
G37*
G36*
X3178925Y4836028D02*
X3113925D01*
X3093441Y4831953D01*
X3076075Y4820350D01*
X3064471Y4802984D01*
X3060397Y4782500D01*
Y4717500D01*
X3064471Y4697015D01*
X3076075Y4679650D01*
X3093441Y4668046D01*
X3113925Y4663971D01*
X3178925D01*
X3199409Y4668046D01*
X3216775Y4679650D01*
X3228379Y4697015D01*
X3232453Y4717500D01*
Y4782500D01*
X3228379Y4802984D01*
X3216775Y4820350D01*
X3199409Y4831953D01*
X3178925Y4836028D01*
D02*
G37*
G36*
X2138466Y4794720D02*
X2118574D01*
X2100197Y4787108D01*
X2086132Y4773043D01*
X2078520Y4754666D01*
Y4734774D01*
X2086132Y4716397D01*
X2100197Y4702332D01*
X2114496Y4696409D01*
Y4686787D01*
X2105277Y4682968D01*
X2091212Y4668903D01*
X2083600Y4650526D01*
Y4630634D01*
X2091212Y4612257D01*
X2105277Y4598192D01*
X2123654Y4590580D01*
X2143546D01*
X2161923Y4598192D01*
X2175988Y4612257D01*
X2183600Y4630634D01*
Y4650526D01*
X2175988Y4668903D01*
X2161923Y4682968D01*
X2147624Y4688891D01*
Y4698513D01*
X2156843Y4702332D01*
X2170908Y4716397D01*
X2178520Y4734774D01*
Y4754666D01*
X2170908Y4773043D01*
X2156843Y4787108D01*
X2138466Y4794720D01*
D02*
G37*
G36*
X1508382Y4746700D02*
X1482447D01*
X1457395Y4739987D01*
X1434934Y4727020D01*
X1416595Y4708680D01*
X1403627Y4686219D01*
X1396915Y4661168D01*
Y4635232D01*
X1403627Y4610181D01*
X1416595Y4587720D01*
X1434934Y4569380D01*
X1457395Y4556413D01*
X1482447Y4549700D01*
X1508382D01*
X1533434Y4556413D01*
X1555895Y4569380D01*
X1574234Y4587720D01*
X1587202Y4610181D01*
X1593915Y4635232D01*
Y4661168D01*
X1587202Y4686219D01*
X1574234Y4708680D01*
X1555895Y4727020D01*
X1533434Y4739987D01*
X1508382Y4746700D01*
D02*
G37*
G36*
X1175957D02*
X1150021D01*
X1124970Y4739987D01*
X1102509Y4727020D01*
X1084170Y4708680D01*
X1071202Y4686219D01*
X1064489Y4661168D01*
Y4635232D01*
X1071202Y4610181D01*
X1084170Y4587720D01*
X1102509Y4569380D01*
X1124970Y4556413D01*
X1150021Y4549700D01*
X1175957D01*
X1201009Y4556413D01*
X1223469Y4569380D01*
X1241809Y4587720D01*
X1254776Y4610181D01*
X1261489Y4635232D01*
Y4661168D01*
X1254776Y4686219D01*
X1241809Y4708680D01*
X1223469Y4727020D01*
X1201009Y4739987D01*
X1175957Y4746700D01*
D02*
G37*
G36*
X843531D02*
X817596D01*
X792544Y4739987D01*
X770083Y4727020D01*
X751744Y4708680D01*
X738776Y4686219D01*
X732064Y4661168D01*
Y4635232D01*
X738776Y4610181D01*
X751744Y4587720D01*
X770083Y4569380D01*
X792544Y4556413D01*
X817596Y4549700D01*
X843531D01*
X868583Y4556413D01*
X891044Y4569380D01*
X909383Y4587720D01*
X922351Y4610181D01*
X929063Y4635232D01*
Y4661168D01*
X922351Y4686219D01*
X909383Y4708680D01*
X891044Y4727020D01*
X868583Y4739987D01*
X843531Y4746700D01*
D02*
G37*
G36*
X511106D02*
X485170D01*
X460118Y4739987D01*
X437657Y4727020D01*
X419318Y4708680D01*
X406351Y4686219D01*
X399638Y4661168D01*
Y4635232D01*
X406351Y4610181D01*
X419318Y4587720D01*
X437657Y4569380D01*
X460118Y4556413D01*
X485170Y4549700D01*
X511106D01*
X536157Y4556413D01*
X558618Y4569380D01*
X576957Y4587720D01*
X589925Y4610181D01*
X596638Y4635232D01*
Y4661168D01*
X589925Y4686219D01*
X576957Y4708680D01*
X558618Y4727020D01*
X536157Y4739987D01*
X511106Y4746700D01*
D02*
G37*
G36*
X1508382Y4492700D02*
X1482447D01*
X1457395Y4485987D01*
X1434934Y4473020D01*
X1416595Y4454680D01*
X1403627Y4432219D01*
X1396915Y4407168D01*
Y4381232D01*
X1403627Y4356181D01*
X1416595Y4333720D01*
X1434934Y4315380D01*
X1457395Y4302413D01*
X1482447Y4295700D01*
X1508382D01*
X1533434Y4302413D01*
X1555895Y4315380D01*
X1574234Y4333720D01*
X1587202Y4356181D01*
X1593915Y4381232D01*
Y4407168D01*
X1587202Y4432219D01*
X1574234Y4454680D01*
X1555895Y4473020D01*
X1533434Y4485987D01*
X1508382Y4492700D01*
D02*
G37*
G36*
X1175957D02*
X1150021D01*
X1124970Y4485987D01*
X1102509Y4473020D01*
X1084170Y4454680D01*
X1071202Y4432219D01*
X1064489Y4407168D01*
Y4381232D01*
X1071202Y4356181D01*
X1084170Y4333720D01*
X1102509Y4315380D01*
X1124970Y4302413D01*
X1150021Y4295700D01*
X1175957D01*
X1201009Y4302413D01*
X1223469Y4315380D01*
X1241809Y4333720D01*
X1254776Y4356181D01*
X1261489Y4381232D01*
Y4407168D01*
X1254776Y4432219D01*
X1241809Y4454680D01*
X1223469Y4473020D01*
X1201009Y4485987D01*
X1175957Y4492700D01*
D02*
G37*
G36*
X843531D02*
X817596D01*
X792544Y4485987D01*
X770083Y4473020D01*
X751744Y4454680D01*
X738776Y4432219D01*
X732064Y4407168D01*
Y4381232D01*
X738776Y4356181D01*
X751744Y4333720D01*
X770083Y4315380D01*
X792544Y4302413D01*
X817596Y4295700D01*
X843531D01*
X868583Y4302413D01*
X891044Y4315380D01*
X909383Y4333720D01*
X922351Y4356181D01*
X929063Y4381232D01*
Y4407168D01*
X922351Y4432219D01*
X909383Y4454680D01*
X891044Y4473020D01*
X868583Y4485987D01*
X843531Y4492700D01*
D02*
G37*
G36*
X511106D02*
X485170D01*
X460118Y4485987D01*
X437657Y4473020D01*
X419318Y4454680D01*
X406351Y4432219D01*
X399638Y4407168D01*
Y4381232D01*
X406351Y4356181D01*
X419318Y4333720D01*
X437657Y4315380D01*
X460118Y4302413D01*
X485170Y4295700D01*
X511106D01*
X536157Y4302413D01*
X558618Y4315380D01*
X576957Y4333720D01*
X589925Y4356181D01*
X596638Y4381232D01*
Y4407168D01*
X589925Y4432219D01*
X576957Y4454680D01*
X558618Y4473020D01*
X536157Y4485987D01*
X511106Y4492700D01*
D02*
G37*
G36*
X3400846Y4317200D02*
X3380954D01*
X3362577Y4309588D01*
X3348512Y4295523D01*
X3340900Y4277146D01*
Y4257254D01*
X3348512Y4238877D01*
X3362577Y4224812D01*
X3380954Y4217200D01*
X3400846D01*
X3419223Y4224812D01*
X3433288Y4238877D01*
X3440900Y4257254D01*
Y4277146D01*
X3433288Y4295523D01*
X3419223Y4309588D01*
X3400846Y4317200D01*
D02*
G37*
G36*
X3057946D02*
X3038054D01*
X3019677Y4309588D01*
X3005612Y4295523D01*
X2998000Y4277146D01*
Y4257254D01*
X3005612Y4238877D01*
X3019677Y4224812D01*
X3038054Y4217200D01*
X3057946D01*
X3076323Y4224812D01*
X3090388Y4238877D01*
X3098000Y4257254D01*
Y4277146D01*
X3090388Y4295523D01*
X3076323Y4309588D01*
X3057946Y4317200D01*
D02*
G37*
G36*
X2727746D02*
X2707854D01*
X2689477Y4309588D01*
X2675412Y4295523D01*
X2667800Y4277146D01*
Y4257254D01*
X2675412Y4238877D01*
X2689477Y4224812D01*
X2707854Y4217200D01*
X2727746D01*
X2746123Y4224812D01*
X2760188Y4238877D01*
X2767800Y4257254D01*
Y4277146D01*
X2760188Y4295523D01*
X2746123Y4309588D01*
X2727746Y4317200D01*
D02*
G37*
G36*
X2397546D02*
X2377654D01*
X2359277Y4309588D01*
X2345212Y4295523D01*
X2337600Y4277146D01*
Y4257254D01*
X2345212Y4238877D01*
X2359277Y4224812D01*
X2377654Y4217200D01*
X2397546D01*
X2415923Y4224812D01*
X2429988Y4238877D01*
X2437600Y4257254D01*
Y4277146D01*
X2429988Y4295523D01*
X2415923Y4309588D01*
X2397546Y4317200D01*
D02*
G37*
G36*
X1599315Y4244100D02*
X1520815D01*
Y4165600D01*
X1599315D01*
Y4244100D01*
D02*
G37*
G36*
X1266889D02*
X1188389D01*
Y4165600D01*
X1266889D01*
Y4244100D01*
D02*
G37*
G36*
X934463D02*
X855963D01*
Y4165600D01*
X934463D01*
Y4244100D01*
D02*
G37*
G36*
X602038D02*
X523538D01*
Y4165600D01*
X602038D01*
Y4244100D01*
D02*
G37*
G36*
X1470015D02*
X1391515D01*
Y4165600D01*
X1470015D01*
Y4244100D01*
D02*
G37*
G36*
X1137589D02*
X1059089D01*
Y4165600D01*
X1137589D01*
Y4244100D01*
D02*
G37*
G36*
X805163D02*
X726664D01*
Y4165600D01*
X805163D01*
Y4244100D01*
D02*
G37*
G36*
X472738D02*
X394238D01*
Y4165600D01*
X472738D01*
Y4244100D01*
D02*
G37*
G36*
X1599315Y4114800D02*
X1520815D01*
Y4036300D01*
X1599315D01*
Y4114800D01*
D02*
G37*
G36*
X1470015D02*
X1391515D01*
Y4036300D01*
X1470015D01*
Y4114800D01*
D02*
G37*
G36*
X1266889D02*
X1188389D01*
Y4036300D01*
X1266889D01*
Y4114800D01*
D02*
G37*
G36*
X1137589D02*
X1059089D01*
Y4036300D01*
X1137589D01*
Y4114800D01*
D02*
G37*
G36*
X934463D02*
X855963D01*
Y4036300D01*
X934463D01*
Y4114800D01*
D02*
G37*
G36*
X805163D02*
X726664D01*
Y4036300D01*
X805163D01*
Y4114800D01*
D02*
G37*
G36*
X602038D02*
X523538D01*
Y4036300D01*
X602038D01*
Y4114800D01*
D02*
G37*
G36*
X472738D02*
X394238D01*
Y4036300D01*
X472738D01*
Y4114800D01*
D02*
G37*
G36*
X3397844Y4149800D02*
X3371909D01*
X3346857Y4143087D01*
X3324396Y4130120D01*
X3306057Y4111780D01*
X3293089Y4089319D01*
X3286377Y4064268D01*
Y4038332D01*
X3293089Y4013281D01*
X3306057Y3990820D01*
X3324396Y3972480D01*
X3346857Y3959513D01*
X3371909Y3952800D01*
X3397844D01*
X3422896Y3959513D01*
X3445357Y3972480D01*
X3463696Y3990820D01*
X3476664Y4013281D01*
X3483377Y4038332D01*
Y4064268D01*
X3476664Y4089319D01*
X3463696Y4111780D01*
X3445357Y4130120D01*
X3422896Y4143087D01*
X3397844Y4149800D01*
D02*
G37*
G36*
X3065419D02*
X3039483D01*
X3014432Y4143087D01*
X2991971Y4130120D01*
X2973632Y4111780D01*
X2960664Y4089319D01*
X2953951Y4064268D01*
Y4038332D01*
X2960664Y4013281D01*
X2973632Y3990820D01*
X2991971Y3972480D01*
X3014432Y3959513D01*
X3039483Y3952800D01*
X3065419D01*
X3090471Y3959513D01*
X3112932Y3972480D01*
X3131271Y3990820D01*
X3144238Y4013281D01*
X3150951Y4038332D01*
Y4064268D01*
X3144238Y4089319D01*
X3131271Y4111780D01*
X3112932Y4130120D01*
X3090471Y4143087D01*
X3065419Y4149800D01*
D02*
G37*
G36*
X2732993D02*
X2707058D01*
X2682006Y4143087D01*
X2659545Y4130120D01*
X2641206Y4111780D01*
X2628238Y4089319D01*
X2621526Y4064268D01*
Y4038332D01*
X2628238Y4013281D01*
X2641206Y3990820D01*
X2659545Y3972480D01*
X2682006Y3959513D01*
X2707058Y3952800D01*
X2732993D01*
X2758045Y3959513D01*
X2780506Y3972480D01*
X2798845Y3990820D01*
X2811813Y4013281D01*
X2818525Y4038332D01*
Y4064268D01*
X2811813Y4089319D01*
X2798845Y4111780D01*
X2780506Y4130120D01*
X2758045Y4143087D01*
X2732993Y4149800D01*
D02*
G37*
G36*
X2400568D02*
X2374632D01*
X2349581Y4143087D01*
X2327120Y4130120D01*
X2308780Y4111780D01*
X2295813Y4089319D01*
X2289100Y4064268D01*
Y4038332D01*
X2295813Y4013281D01*
X2308780Y3990820D01*
X2327120Y3972480D01*
X2349581Y3959513D01*
X2374632Y3952800D01*
X2400568D01*
X2425619Y3959513D01*
X2448080Y3972480D01*
X2466420Y3990820D01*
X2479387Y4013281D01*
X2486100Y4038332D01*
Y4064268D01*
X2479387Y4089319D01*
X2466420Y4111780D01*
X2448080Y4130120D01*
X2425619Y4143087D01*
X2400568Y4149800D01*
D02*
G37*
G36*
X3397844Y3895800D02*
X3371909D01*
X3346857Y3889087D01*
X3324396Y3876120D01*
X3306057Y3857780D01*
X3293089Y3835319D01*
X3286377Y3810268D01*
Y3784332D01*
X3293089Y3759281D01*
X3306057Y3736820D01*
X3324396Y3718480D01*
X3346857Y3705513D01*
X3371909Y3698800D01*
X3397844D01*
X3422896Y3705513D01*
X3445357Y3718480D01*
X3463696Y3736820D01*
X3476664Y3759281D01*
X3483377Y3784332D01*
Y3810268D01*
X3476664Y3835319D01*
X3463696Y3857780D01*
X3445357Y3876120D01*
X3422896Y3889087D01*
X3397844Y3895800D01*
D02*
G37*
G36*
X3065419D02*
X3039483D01*
X3014432Y3889087D01*
X2991971Y3876120D01*
X2973632Y3857780D01*
X2960664Y3835319D01*
X2953951Y3810268D01*
Y3784332D01*
X2960664Y3759281D01*
X2973632Y3736820D01*
X2991971Y3718480D01*
X3014432Y3705513D01*
X3039483Y3698800D01*
X3065419D01*
X3090471Y3705513D01*
X3112932Y3718480D01*
X3131271Y3736820D01*
X3144238Y3759281D01*
X3150951Y3784332D01*
Y3810268D01*
X3144238Y3835319D01*
X3131271Y3857780D01*
X3112932Y3876120D01*
X3090471Y3889087D01*
X3065419Y3895800D01*
D02*
G37*
G36*
X2732993D02*
X2707058D01*
X2682006Y3889087D01*
X2659545Y3876120D01*
X2641206Y3857780D01*
X2628238Y3835319D01*
X2621526Y3810268D01*
Y3784332D01*
X2628238Y3759281D01*
X2641206Y3736820D01*
X2659545Y3718480D01*
X2682006Y3705513D01*
X2707058Y3698800D01*
X2732993D01*
X2758045Y3705513D01*
X2780506Y3718480D01*
X2798845Y3736820D01*
X2811813Y3759281D01*
X2818525Y3784332D01*
Y3810268D01*
X2811813Y3835319D01*
X2798845Y3857780D01*
X2780506Y3876120D01*
X2758045Y3889087D01*
X2732993Y3895800D01*
D02*
G37*
G36*
X2400568D02*
X2374632D01*
X2349581Y3889087D01*
X2327120Y3876120D01*
X2308780Y3857780D01*
X2295813Y3835319D01*
X2289100Y3810268D01*
Y3784332D01*
X2295813Y3759281D01*
X2308780Y3736820D01*
X2327120Y3718480D01*
X2349581Y3705513D01*
X2374632Y3698800D01*
X2400568D01*
X2425619Y3705513D01*
X2448080Y3718480D01*
X2466420Y3736820D01*
X2479387Y3759281D01*
X2486100Y3784332D01*
Y3810268D01*
X2479387Y3835319D01*
X2466420Y3857780D01*
X2448080Y3876120D01*
X2425619Y3889087D01*
X2400568Y3895800D01*
D02*
G37*
G36*
X3488777Y3647200D02*
X3410277D01*
Y3568700D01*
X3488777D01*
Y3647200D01*
D02*
G37*
G36*
X3156351D02*
X3077851D01*
Y3568700D01*
X3156351D01*
Y3647200D01*
D02*
G37*
G36*
X2823926D02*
X2745426D01*
Y3568700D01*
X2823926D01*
Y3647200D01*
D02*
G37*
G36*
X2491500D02*
X2413000D01*
Y3568700D01*
X2491500D01*
Y3647200D01*
D02*
G37*
G36*
X3359477D02*
X3280977D01*
Y3568700D01*
X3359477D01*
Y3647200D01*
D02*
G37*
G36*
X3027051D02*
X2948551D01*
Y3568700D01*
X3027051D01*
Y3647200D01*
D02*
G37*
G36*
X2694626D02*
X2616126D01*
Y3568700D01*
X2694626D01*
Y3647200D01*
D02*
G37*
G36*
X2362200D02*
X2283700D01*
Y3568700D01*
X2362200D01*
Y3647200D01*
D02*
G37*
G36*
X876300Y3557589D02*
Y3492500D01*
X941389D01*
X938475Y3503375D01*
X926103Y3524805D01*
X908605Y3542303D01*
X887175Y3554675D01*
X876300Y3557589D01*
D02*
G37*
G36*
X825500D02*
X814625Y3554675D01*
X793195Y3542303D01*
X775697Y3524805D01*
X763325Y3503375D01*
X760411Y3492500D01*
X825500D01*
Y3557589D01*
D02*
G37*
G36*
X3488777Y3517900D02*
X3410277D01*
Y3439400D01*
X3488777D01*
Y3517900D01*
D02*
G37*
G36*
X3359477D02*
X3280977D01*
Y3439400D01*
X3359477D01*
Y3517900D01*
D02*
G37*
G36*
X3156351D02*
X3077851D01*
Y3439400D01*
X3156351D01*
Y3517900D01*
D02*
G37*
G36*
X3027051D02*
X2948551D01*
Y3439400D01*
X3027051D01*
Y3517900D01*
D02*
G37*
G36*
X2823926D02*
X2745426D01*
Y3439400D01*
X2823926D01*
Y3517900D01*
D02*
G37*
G36*
X2694626D02*
X2616126D01*
Y3439400D01*
X2694626D01*
Y3517900D01*
D02*
G37*
G36*
X2491500D02*
X2413000D01*
Y3439400D01*
X2491500D01*
Y3517900D01*
D02*
G37*
G36*
X2362200D02*
X2283700D01*
Y3439400D01*
X2362200D01*
Y3517900D01*
D02*
G37*
G36*
X941389Y3441700D02*
X876300D01*
Y3376611D01*
X887175Y3379525D01*
X908605Y3391897D01*
X926103Y3409395D01*
X938475Y3430825D01*
X941389Y3441700D01*
D02*
G37*
G36*
X825500D02*
X760411D01*
X763325Y3430825D01*
X775697Y3409395D01*
X793195Y3391897D01*
X814625Y3379525D01*
X825500Y3376611D01*
Y3441700D01*
D02*
G37*
G36*
X987846Y3275800D02*
X967954D01*
X949577Y3268188D01*
X935512Y3254123D01*
X927900Y3235746D01*
Y3215854D01*
X935512Y3197477D01*
X949577Y3183412D01*
X967954Y3175800D01*
X987846D01*
X1006223Y3183412D01*
X1020288Y3197477D01*
X1027900Y3215854D01*
Y3235746D01*
X1020288Y3254123D01*
X1006223Y3268188D01*
X987846Y3275800D01*
D02*
G37*
G36*
X733846D02*
X713954D01*
X695577Y3268188D01*
X681512Y3254123D01*
X673900Y3235746D01*
Y3215854D01*
X681512Y3197477D01*
X695577Y3183412D01*
X713954Y3175800D01*
X733846D01*
X752223Y3183412D01*
X766288Y3197477D01*
X773900Y3215854D01*
Y3235746D01*
X766288Y3254123D01*
X752223Y3268188D01*
X733846Y3275800D01*
D02*
G37*
G36*
X862562Y3205680D02*
X839238D01*
X816709Y3199643D01*
X796511Y3187981D01*
X780019Y3171489D01*
X768357Y3151291D01*
X762320Y3128762D01*
Y3105438D01*
X768357Y3082909D01*
X780019Y3062711D01*
X796511Y3046218D01*
X816709Y3034557D01*
X839238Y3028520D01*
X862562D01*
X885091Y3034557D01*
X905289Y3046218D01*
X921781Y3062711D01*
X933443Y3082909D01*
X939480Y3105438D01*
Y3128762D01*
X933443Y3151291D01*
X921781Y3171489D01*
X905289Y3187981D01*
X885091Y3199643D01*
X862562Y3205680D01*
D02*
G37*
G36*
X987846Y3047200D02*
X967954D01*
X949577Y3039588D01*
X935512Y3025523D01*
X927900Y3007146D01*
Y2987254D01*
X935512Y2968877D01*
X949577Y2954812D01*
X967954Y2947200D01*
X987846D01*
X1006223Y2954812D01*
X1020288Y2968877D01*
X1027900Y2987254D01*
Y3007146D01*
X1020288Y3025523D01*
X1006223Y3039588D01*
X987846Y3047200D01*
D02*
G37*
G36*
X733846D02*
X713954D01*
X695577Y3039588D01*
X681512Y3025523D01*
X673900Y3007146D01*
Y2987254D01*
X681512Y2968877D01*
X695577Y2954812D01*
X713954Y2947200D01*
X733846D01*
X752223Y2954812D01*
X766288Y2968877D01*
X773900Y2987254D01*
Y3007146D01*
X766288Y3025523D01*
X752223Y3039588D01*
X733846Y3047200D01*
D02*
G37*
G36*
X2018535Y2955600D02*
X1994665D01*
X1972613Y2946466D01*
X1955734Y2929587D01*
X1946600Y2907535D01*
Y2883665D01*
X1955734Y2861613D01*
X1972613Y2844734D01*
X1994665Y2835600D01*
X2018535D01*
X2040587Y2844734D01*
X2057466Y2861613D01*
X2066600Y2883665D01*
Y2907535D01*
X2057466Y2929587D01*
X2040587Y2946466D01*
X2018535Y2955600D01*
D02*
G37*
G36*
X3362746Y2742400D02*
X3342854D01*
X3324477Y2734788D01*
X3310412Y2720723D01*
X3302800Y2702346D01*
Y2682454D01*
X3310412Y2664077D01*
X3324477Y2650012D01*
X3342854Y2642400D01*
X3362746D01*
X3381123Y2650012D01*
X3395188Y2664077D01*
X3402800Y2682454D01*
Y2702346D01*
X3395188Y2720723D01*
X3381123Y2734788D01*
X3362746Y2742400D01*
D02*
G37*
G36*
X3210346D02*
X3190454D01*
X3172077Y2734788D01*
X3158012Y2720723D01*
X3150400Y2702346D01*
Y2682454D01*
X3158012Y2664077D01*
X3172077Y2650012D01*
X3190454Y2642400D01*
X3210346D01*
X3228723Y2650012D01*
X3242788Y2664077D01*
X3250400Y2682454D01*
Y2702346D01*
X3242788Y2720723D01*
X3228723Y2734788D01*
X3210346Y2742400D01*
D02*
G37*
G36*
X3362746Y2577300D02*
X3342854D01*
X3324477Y2569688D01*
X3310412Y2555623D01*
X3302800Y2537246D01*
Y2517354D01*
X3310412Y2498977D01*
X3324477Y2484912D01*
X3342854Y2477300D01*
X3362746D01*
X3381123Y2484912D01*
X3395188Y2498977D01*
X3402800Y2517354D01*
Y2537246D01*
X3395188Y2555623D01*
X3381123Y2569688D01*
X3362746Y2577300D01*
D02*
G37*
G36*
X3210346D02*
X3190454D01*
X3172077Y2569688D01*
X3158012Y2555623D01*
X3150400Y2537246D01*
Y2517354D01*
X3158012Y2498977D01*
X3172077Y2484912D01*
X3190454Y2477300D01*
X3210346D01*
X3228723Y2484912D01*
X3242788Y2498977D01*
X3250400Y2517354D01*
Y2537246D01*
X3242788Y2555623D01*
X3228723Y2569688D01*
X3210346Y2577300D01*
D02*
G37*
G36*
X752069Y2520126D02*
X721131D01*
X691247Y2512118D01*
X664453Y2496649D01*
X642577Y2474772D01*
X627107Y2447979D01*
X619100Y2418095D01*
Y2387157D01*
X627107Y2357272D01*
X642577Y2330479D01*
X664453Y2308602D01*
X691247Y2293133D01*
X721131Y2285126D01*
X752069D01*
X781953Y2293133D01*
X808747Y2308602D01*
X830623Y2330479D01*
X846093Y2357272D01*
X854100Y2387157D01*
Y2418095D01*
X846093Y2447979D01*
X830623Y2474772D01*
X808747Y2496649D01*
X781953Y2512118D01*
X752069Y2520126D01*
D02*
G37*
G36*
X2033286Y1932135D02*
X2015225D01*
X1998539Y1925224D01*
X1990693Y1917378D01*
X1984886Y1913102D01*
X1979078Y1917378D01*
X1971233Y1925224D01*
X1954546Y1932135D01*
X1936485D01*
X1919799Y1925224D01*
X1907027Y1912452D01*
X1900116Y1895766D01*
Y1877705D01*
X1907027Y1861018D01*
X1914872Y1853173D01*
X1919149Y1847365D01*
X1914872Y1841558D01*
X1907027Y1833712D01*
X1900116Y1817026D01*
Y1798965D01*
X1907027Y1782278D01*
X1919799Y1769507D01*
X1936485Y1762595D01*
X1954546D01*
X1971233Y1769507D01*
X1979078Y1777352D01*
X1984886Y1781629D01*
X1990693Y1777352D01*
X1998539Y1769507D01*
X2015225Y1762595D01*
X2033286D01*
X2049973Y1769507D01*
X2062744Y1782278D01*
X2069656Y1798965D01*
Y1817026D01*
X2062744Y1833712D01*
X2054899Y1841558D01*
X2050622Y1847365D01*
X2054899Y1853173D01*
X2062744Y1861018D01*
X2069656Y1877705D01*
Y1895766D01*
X2062744Y1912452D01*
X2049973Y1925224D01*
X2033286Y1932135D01*
D02*
G37*
G36*
X752069Y2012126D02*
X721131D01*
X691247Y2004118D01*
X664453Y1988649D01*
X642577Y1966772D01*
X627107Y1939979D01*
X619100Y1910095D01*
Y1879157D01*
X627107Y1849272D01*
X642577Y1822479D01*
X664453Y1800602D01*
X691247Y1785133D01*
X721131Y1777126D01*
X752069D01*
X781953Y1785133D01*
X808747Y1800602D01*
X830623Y1822479D01*
X846093Y1849272D01*
X854100Y1879157D01*
Y1910095D01*
X846093Y1939979D01*
X830623Y1966772D01*
X808747Y1988649D01*
X781953Y2004118D01*
X752069Y2012126D01*
D02*
G37*
G36*
X3102076Y2421558D02*
X2852076D01*
X2844273Y2420005D01*
X2837657Y2415585D01*
X2833237Y2408969D01*
X2831684Y2401166D01*
Y1741165D01*
X2833237Y1733362D01*
X2837657Y1726746D01*
X2844273Y1722326D01*
X2852076Y1720774D01*
X3102076D01*
X3109880Y1722326D01*
X3116496Y1726746D01*
X3120916Y1733362D01*
X3122468Y1741165D01*
Y2401166D01*
X3120916Y2408969D01*
X3116496Y2415585D01*
X3109880Y2420005D01*
X3102076Y2421558D01*
D02*
G37*
G36*
X1596716Y1454300D02*
X1578284D01*
X1560481Y1449529D01*
X1544519Y1440314D01*
X1531486Y1427281D01*
X1522271Y1411319D01*
X1517500Y1393516D01*
Y1375084D01*
X1522271Y1357281D01*
X1531486Y1341319D01*
X1544519Y1328286D01*
X1560481Y1319071D01*
X1578284Y1314300D01*
X1596716D01*
X1614519Y1319071D01*
X1630481Y1328286D01*
X1643514Y1341319D01*
X1652729Y1357281D01*
X1657500Y1375084D01*
Y1393516D01*
X1652729Y1411319D01*
X1643514Y1427281D01*
X1630481Y1440314D01*
X1614519Y1449529D01*
X1596716Y1454300D01*
D02*
G37*
G36*
X2769215Y1410002D02*
X2750784D01*
X2732981Y1405232D01*
X2717019Y1396016D01*
X2703986Y1382983D01*
X2694770Y1367021D01*
X2690000Y1349218D01*
Y1330787D01*
X2694770Y1312983D01*
X2703986Y1297022D01*
X2717019Y1283989D01*
X2732981Y1274773D01*
X2750784Y1270003D01*
X2769215D01*
X2787019Y1274773D01*
X2802980Y1283989D01*
X2816013Y1297022D01*
X2825229Y1312983D01*
X2829999Y1330787D01*
Y1349218D01*
X2825229Y1367021D01*
X2816013Y1382983D01*
X2802980Y1396016D01*
X2787019Y1405232D01*
X2769215Y1410002D01*
D02*
G37*
G36*
X802297Y1435100D02*
X772503D01*
X743282Y1429287D01*
X715756Y1417886D01*
X690984Y1401333D01*
X669917Y1380266D01*
X653364Y1355494D01*
X641963Y1327968D01*
X636150Y1298747D01*
Y1268953D01*
X641963Y1239732D01*
X653364Y1212206D01*
X669917Y1187434D01*
X690984Y1166367D01*
X715756Y1149814D01*
X743282Y1138413D01*
X772503Y1132600D01*
X802297D01*
X831518Y1138413D01*
X859044Y1149814D01*
X883816Y1166367D01*
X904883Y1187434D01*
X921436Y1212206D01*
X932837Y1239732D01*
X938650Y1268953D01*
Y1298747D01*
X932837Y1327968D01*
X921436Y1355494D01*
X904883Y1380266D01*
X883816Y1401333D01*
X859044Y1417886D01*
X831518Y1429287D01*
X802297Y1435100D01*
D02*
G37*
G36*
X1508546Y1002500D02*
X1488654D01*
X1470277Y994888D01*
X1456212Y980823D01*
X1448600Y962446D01*
Y942554D01*
X1456212Y924177D01*
X1470277Y910112D01*
X1488654Y902500D01*
X1508546D01*
X1526923Y910112D01*
X1540988Y924177D01*
X1548600Y942554D01*
Y962446D01*
X1540988Y980823D01*
X1526923Y994888D01*
X1508546Y1002500D01*
D02*
G37*
G36*
X802297Y1039100D02*
X772503D01*
X743282Y1033287D01*
X715756Y1021886D01*
X690984Y1005334D01*
X669917Y984266D01*
X653364Y959494D01*
X641963Y931968D01*
X636150Y902747D01*
Y872953D01*
X641963Y843732D01*
X653364Y816206D01*
X669917Y791434D01*
X690984Y770367D01*
X715756Y753814D01*
X743282Y742413D01*
X772503Y736600D01*
X802297D01*
X831518Y742413D01*
X859044Y753814D01*
X883816Y770367D01*
X904883Y791434D01*
X921436Y816206D01*
X932837Y843732D01*
X938650Y872953D01*
Y902747D01*
X932837Y931968D01*
X921436Y959494D01*
X904883Y984266D01*
X883816Y1005334D01*
X859044Y1021886D01*
X831518Y1033287D01*
X802297Y1039100D01*
D02*
G37*
G36*
X2295778Y679000D02*
X2274892D01*
X2255596Y671007D01*
X2242835Y658246D01*
X2230074Y671007D01*
X2210778Y679000D01*
X2189892D01*
X2170596Y671007D01*
X2157835Y658246D01*
X2145074Y671007D01*
X2125778Y679000D01*
X2104892D01*
X2085596Y671007D01*
X2072835Y658246D01*
X2060074Y671007D01*
X2040778Y679000D01*
X2019892D01*
X2000596Y671007D01*
X1987835Y658246D01*
X1975074Y671007D01*
X1955778Y679000D01*
X1934892D01*
X1915596Y671007D01*
X1902835Y658246D01*
X1890074Y671007D01*
X1870778Y679000D01*
X1849892D01*
X1830596Y671007D01*
X1821653Y662064D01*
X1808133Y675585D01*
X1800735Y678649D01*
Y626500D01*
Y574350D01*
X1808133Y577415D01*
X1821653Y590935D01*
X1830596Y581992D01*
X1849892Y574000D01*
X1870778D01*
X1890074Y581992D01*
X1902835Y594754D01*
X1915596Y581992D01*
X1934892Y574000D01*
X1955778D01*
X1975074Y581992D01*
X1987835Y594754D01*
X2000596Y581992D01*
X2019892Y574000D01*
X2040778D01*
X2060074Y581992D01*
X2072835Y594754D01*
X2085596Y581992D01*
X2104892Y574000D01*
X2125778D01*
X2145074Y581992D01*
X2157835Y594754D01*
X2170596Y581992D01*
X2189892Y574000D01*
X2210778D01*
X2230074Y581992D01*
X2242835Y594754D01*
X2255596Y581992D01*
X2274892Y574000D01*
X2295778D01*
X2315074Y581992D01*
X2324017Y590935D01*
X2337537Y577415D01*
X2344935Y574350D01*
Y626500D01*
Y678649D01*
X2337537Y675585D01*
X2324017Y662064D01*
X2315074Y671007D01*
X2295778Y679000D01*
D02*
G37*
G36*
X2395735Y678649D02*
Y651900D01*
X2422485D01*
X2419420Y659298D01*
X2403133Y675585D01*
X2395735Y678649D01*
D02*
G37*
G36*
X1749935D02*
X1742537Y675585D01*
X1726250Y659298D01*
X1723186Y651900D01*
X1749935D01*
Y678649D01*
D02*
G37*
G36*
X2479935Y669180D02*
X2469831Y664994D01*
X2455125Y653710D01*
X2443841Y639004D01*
X2436747Y621879D01*
X2428240Y623561D01*
Y614982D01*
X2426243Y610159D01*
X2434899Y607840D01*
X2434328Y603500D01*
Y511539D01*
X2425438Y509771D01*
X2419420Y524298D01*
X2403133Y540585D01*
X2395735Y543649D01*
Y491500D01*
Y439350D01*
X2403133Y442415D01*
X2419420Y458702D01*
X2425438Y473229D01*
X2434328Y471460D01*
Y453500D01*
X2436747Y435122D01*
X2443841Y417996D01*
X2455125Y403290D01*
X2469831Y392006D01*
X2479935Y387821D01*
Y528500D01*
Y669180D01*
D02*
G37*
G36*
X2422485Y601100D02*
X2395735D01*
Y574350D01*
X2403133Y577415D01*
X2419420Y593702D01*
X2422485Y601100D01*
D02*
G37*
G36*
X1749935D02*
X1723186D01*
X1726250Y593702D01*
X1742537Y577415D01*
X1749935Y574350D01*
Y601100D01*
D02*
G37*
G36*
X2530735Y669180D02*
Y553900D01*
X2576343D01*
Y603500D01*
X2573923Y621878D01*
X2566829Y639004D01*
X2555545Y653710D01*
X2540839Y664994D01*
X2530735Y669180D01*
D02*
G37*
G36*
X1614935D02*
X1604831Y664994D01*
X1590125Y653710D01*
X1578841Y639004D01*
X1571747Y621878D01*
X1569328Y603500D01*
Y553900D01*
X1614935D01*
Y669180D01*
D02*
G37*
G36*
X2295778Y544000D02*
X2274892D01*
X2255596Y536007D01*
X2242835Y523246D01*
X2230074Y536007D01*
X2210778Y544000D01*
X2189892D01*
X2170596Y536007D01*
X2157835Y523246D01*
X2145074Y536007D01*
X2125778Y544000D01*
X2104892D01*
X2085596Y536007D01*
X2072835Y523246D01*
X2060074Y536007D01*
X2040778Y544000D01*
X2019892D01*
X2000596Y536007D01*
X1987835Y523246D01*
X1975074Y536007D01*
X1955778Y544000D01*
X1934892D01*
X1915596Y536007D01*
X1902835Y523246D01*
X1890074Y536007D01*
X1870778Y544000D01*
X1849892D01*
X1830596Y536007D01*
X1821653Y527064D01*
X1808133Y540585D01*
X1800735Y543649D01*
Y491500D01*
Y439350D01*
X1808133Y442415D01*
X1821653Y455935D01*
X1830596Y446993D01*
X1849892Y439000D01*
X1870778D01*
X1890074Y446993D01*
X1902835Y459754D01*
X1915596Y446993D01*
X1934892Y439000D01*
X1955778D01*
X1975074Y446993D01*
X1987835Y459754D01*
X2000596Y446993D01*
X2019892Y439000D01*
X2040778D01*
X2060074Y446993D01*
X2072835Y459754D01*
X2085596Y446993D01*
X2104892Y439000D01*
X2125778D01*
X2145074Y446993D01*
X2157835Y459754D01*
X2170596Y446993D01*
X2189892Y439000D01*
X2210778D01*
X2230074Y446993D01*
X2242835Y459754D01*
X2255596Y446993D01*
X2274892Y439000D01*
X2295778D01*
X2315074Y446993D01*
X2324017Y455935D01*
X2337537Y442415D01*
X2344935Y439350D01*
Y491500D01*
Y543649D01*
X2337537Y540585D01*
X2324017Y527064D01*
X2315074Y536007D01*
X2295778Y544000D01*
D02*
G37*
G36*
X1665735Y669180D02*
Y528500D01*
Y387821D01*
X1675839Y392006D01*
X1690545Y403290D01*
X1701829Y417996D01*
X1708923Y435122D01*
X1711343Y453500D01*
Y471460D01*
X1720233Y473229D01*
X1726250Y458702D01*
X1742537Y442415D01*
X1749935Y439350D01*
Y491500D01*
Y543649D01*
X1742537Y540585D01*
X1726250Y524298D01*
X1720233Y509771D01*
X1711343Y511539D01*
Y603500D01*
X1710771Y607840D01*
X1719427Y610159D01*
X1717430Y614982D01*
Y623561D01*
X1708923Y621879D01*
X1701829Y639004D01*
X1690545Y653710D01*
X1675839Y664994D01*
X1665735Y669180D01*
D02*
G37*
G36*
X2576343Y503100D02*
X2530735D01*
Y387821D01*
X2540839Y392006D01*
X2555545Y403290D01*
X2566829Y417996D01*
X2573923Y435122D01*
X2576343Y453500D01*
Y503100D01*
D02*
G37*
G36*
X1614935D02*
X1569328D01*
Y453500D01*
X1571747Y435122D01*
X1578841Y417996D01*
X1590125Y403290D01*
X1604831Y392006D01*
X1614935Y387821D01*
Y503100D01*
D02*
G37*
G36*
X1109600Y521737D02*
Y381000D01*
X1250337D01*
X1245647Y404575D01*
X1232991Y435130D01*
X1214616Y462630D01*
X1191230Y486016D01*
X1163730Y504391D01*
X1133175Y517047D01*
X1109600Y521737D01*
D02*
G37*
G36*
X1058800D02*
X1035226Y517047D01*
X1004670Y504391D01*
X977170Y486016D01*
X953784Y462630D01*
X935409Y435130D01*
X922753Y404575D01*
X918063Y381000D01*
X1058800D01*
Y521737D01*
D02*
G37*
G36*
X2530735Y296179D02*
Y215900D01*
X2576343D01*
Y230500D01*
X2573923Y248878D01*
X2566829Y266004D01*
X2555545Y280710D01*
X2540839Y291994D01*
X2530735Y296179D01*
D02*
G37*
G36*
X1665735D02*
Y215900D01*
X1711343D01*
Y230500D01*
X1708923Y248878D01*
X1701829Y266004D01*
X1690545Y280710D01*
X1675839Y291994D01*
X1665735Y296179D01*
D02*
G37*
G36*
X1614935D02*
X1604831Y291994D01*
X1590125Y280710D01*
X1578841Y266004D01*
X1571747Y248878D01*
X1569328Y230500D01*
Y215900D01*
X1614935D01*
Y296179D01*
D02*
G37*
G36*
X2479935D02*
X2469831Y291994D01*
X2455125Y280710D01*
X2443841Y266004D01*
X2436747Y248878D01*
X2434328Y230500D01*
Y215900D01*
X2479935D01*
Y296179D01*
D02*
G37*
G36*
X600205Y518100D02*
X568195D01*
X536801Y511855D01*
X507227Y499606D01*
X480612Y481822D01*
X457978Y459188D01*
X440194Y432573D01*
X427945Y402999D01*
X421700Y371605D01*
Y339595D01*
X427945Y308201D01*
X440194Y278627D01*
X457978Y252012D01*
X480612Y229378D01*
X507227Y211594D01*
X536801Y199345D01*
X568195Y193100D01*
X600205D01*
X631599Y199345D01*
X661173Y211594D01*
X687788Y229378D01*
X710422Y252012D01*
X728206Y278627D01*
X740455Y308201D01*
X746700Y339595D01*
Y371605D01*
X740455Y402999D01*
X728206Y432573D01*
X710422Y459188D01*
X687788Y481822D01*
X661173Y499606D01*
X631599Y511855D01*
X600205Y518100D01*
D02*
G37*
G36*
X1250337Y330200D02*
X1109600D01*
Y189463D01*
X1133175Y194153D01*
X1163730Y206809D01*
X1191230Y225184D01*
X1214616Y248570D01*
X1232991Y276070D01*
X1245647Y306625D01*
X1250337Y330200D01*
D02*
G37*
G36*
X1058800D02*
X918063D01*
X922753Y306625D01*
X935409Y276070D01*
X953784Y248570D01*
X977170Y225184D01*
X1004670Y206809D01*
X1035226Y194153D01*
X1058800Y189463D01*
Y330200D01*
D02*
G37*
G36*
X2576343Y165100D02*
X2530735D01*
Y84821D01*
X2540839Y89006D01*
X2555545Y100290D01*
X2566829Y114996D01*
X2573923Y132122D01*
X2576343Y150500D01*
Y165100D01*
D02*
G37*
G36*
X1711343D02*
X1665735D01*
Y84821D01*
X1675839Y89006D01*
X1690545Y100290D01*
X1701829Y114996D01*
X1708923Y132122D01*
X1711343Y150500D01*
Y165100D01*
D02*
G37*
G36*
X2479935D02*
X2434328D01*
Y150500D01*
X2436747Y132122D01*
X2443841Y114996D01*
X2455125Y100290D01*
X2469831Y89006D01*
X2479935Y84821D01*
Y165100D01*
D02*
G37*
G36*
X1614935D02*
X1569328D01*
Y150500D01*
X1571747Y132122D01*
X1578841Y114996D01*
X1590125Y100290D01*
X1604831Y89006D01*
X1614935Y84821D01*
Y165100D01*
D02*
G37*
G36*
X3630191Y464999D02*
X3589810D01*
X3550204Y457121D01*
X3512896Y441668D01*
X3479321Y419233D01*
X3450767Y390679D01*
X3428332Y357103D01*
X3412879Y319796D01*
X3405001Y280190D01*
Y239809D01*
X3412879Y200203D01*
X3428332Y162896D01*
X3450767Y129320D01*
X3479321Y100766D01*
X3512896Y78331D01*
X3550204Y62878D01*
X3589810Y55000D01*
X3630191D01*
X3669797Y62878D01*
X3707104Y78331D01*
X3740680Y100766D01*
X3769234Y129320D01*
X3791669Y162896D01*
X3807122Y200203D01*
X3815000Y239809D01*
Y280190D01*
X3807122Y319796D01*
X3791669Y357103D01*
X3769234Y390679D01*
X3740680Y419233D01*
X3707104Y441668D01*
X3669797Y457121D01*
X3630191Y464999D01*
D02*
G37*
%LPD*%
G36*
X1990693Y1856092D02*
X1993612Y1853173D01*
X1997889Y1847365D01*
X1993612Y1841558D01*
X1990693Y1838638D01*
X1984886Y1834362D01*
X1979078Y1838638D01*
X1976159Y1841558D01*
X1971882Y1847365D01*
X1976159Y1853173D01*
X1979078Y1856092D01*
X1984886Y1860369D01*
X1990693Y1856092D01*
D02*
G37*
D52*
X2720026Y4051300D02*
D03*
Y3797300D02*
D03*
X2387600Y4051300D02*
D03*
Y3797300D02*
D03*
X3052451Y4051300D02*
D03*
Y3797300D02*
D03*
X3384877Y4051300D02*
D03*
Y3797300D02*
D03*
X1495415Y4394200D02*
D03*
X1162989D02*
D03*
X830563D02*
D03*
X498138D02*
D03*
X830563Y4648200D02*
D03*
X1162989D02*
D03*
X1495415D02*
D03*
X498138D02*
D03*
D53*
X2720026Y3543300D02*
D03*
X2387600D02*
D03*
X3052451D02*
D03*
X3384877D02*
D03*
X1495415Y4140200D02*
D03*
X1162989D02*
D03*
X498138D02*
D03*
X830563D02*
D03*
D54*
X1860335Y626500D02*
D03*
X1945335D02*
D03*
X2030335D02*
D03*
X2200335D02*
D03*
X2285335D02*
D03*
Y491500D02*
D03*
X2200335D02*
D03*
X2115335D02*
D03*
X1945335D02*
D03*
X1860335D02*
D03*
X2030335D02*
D03*
X2115335Y626500D02*
D03*
X1775335Y491500D02*
D03*
X2370335D02*
D03*
Y626500D02*
D03*
X1775335D02*
D03*
D55*
X2505335Y528500D02*
D03*
X1640335D02*
D03*
D56*
X2505335Y190500D02*
D03*
X1640335D02*
D03*
D57*
X3146425Y4950000D02*
D03*
D59*
X1084200Y355600D02*
D03*
X584200D02*
D03*
D60*
X850900Y3467100D02*
D03*
Y3117100D02*
D03*
D61*
X3146425Y4750000D02*
D03*
D63*
X787400Y887850D02*
D03*
Y1283850D02*
D03*
D64*
X736600Y5894415D02*
D03*
Y5644415D02*
D03*
Y5144415D02*
D03*
Y5394415D02*
D03*
D65*
X3610000Y259999D02*
D03*
Y7999999D02*
D03*
X250002Y8010002D02*
D03*
D66*
X736600Y2402626D02*
D03*
Y1894626D02*
D03*
D68*
X1945516Y1807995D02*
D03*
Y1886735D02*
D03*
X2024256Y1807995D02*
D03*
Y1886735D02*
D03*
D69*
X3700000Y7400000D02*
D03*
Y6900000D02*
D03*
Y7650000D02*
D03*
X3700000Y6650000D02*
D03*
X3700000Y6400000D02*
D03*
Y5900000D02*
D03*
X3700000Y6150000D02*
D03*
Y7150000D02*
D03*
X3309620Y8150860D02*
D03*
X3700000Y5400000D02*
D03*
Y4900000D02*
D03*
X3700000Y4650000D02*
D03*
X3700000Y4400000D02*
D03*
Y3900000D02*
D03*
X3700000Y4150000D02*
D03*
X3467100Y5765800D02*
D03*
X3700000Y5650000D02*
D03*
Y5150000D02*
D03*
X3517900Y4267200D02*
D03*
X3101340Y8150860D02*
D03*
X2336800Y5981700D02*
D03*
X3144520Y5240020D02*
D03*
X2514600Y5156200D02*
D03*
X3175000Y4267200D02*
D03*
X2832100D02*
D03*
X2514600Y5448300D02*
D03*
X2120900Y5156200D02*
D03*
X2501900Y4267200D02*
D03*
X1982470Y5360129D02*
D03*
X3700000Y3650000D02*
D03*
X3700000Y3400000D02*
D03*
X3390900Y3340100D02*
D03*
X3700000Y2900000D02*
D03*
X3700000Y2650000D02*
D03*
Y3150000D02*
D03*
X2717800Y3340100D02*
D03*
X3048000D02*
D03*
X3700000Y1900000D02*
D03*
Y1400000D02*
D03*
Y2400000D02*
D03*
Y900000D02*
D03*
X3700000Y650000D02*
D03*
Y1150000D02*
D03*
Y2150000D02*
D03*
Y1650000D02*
D03*
X2768600Y1104900D02*
D03*
X2908300Y177800D02*
D03*
X3225800D02*
D03*
X2768600Y825500D02*
D03*
X2717800Y3098800D02*
D03*
X2387600Y3340100D02*
D03*
Y3098800D02*
D03*
X2159000Y2921000D02*
D03*
X2006600Y2717800D02*
D03*
X2654300Y622300D02*
D03*
X2667000Y266700D02*
D03*
Y76200D02*
D03*
X2463800Y1104900D02*
D03*
Y825500D02*
D03*
X1778000Y6210300D02*
D03*
X1371600Y5918200D02*
D03*
X1206500Y6096000D02*
D03*
Y5156200D02*
D03*
X1663700D02*
D03*
X1206500Y5689600D02*
D03*
X835660Y7721600D02*
D03*
X830580Y7579360D02*
D03*
X828040Y7429500D02*
D03*
Y7048500D02*
D03*
X830580Y6916420D02*
D03*
X828040Y7185660D02*
D03*
X150000Y7400000D02*
D03*
Y7150000D02*
D03*
Y7650000D02*
D03*
X698500Y6070600D02*
D03*
X150000Y5400000D02*
D03*
Y4900000D02*
D03*
X990600Y4838700D02*
D03*
X150000Y5150000D02*
D03*
Y6650000D02*
D03*
Y6400000D02*
D03*
Y6900000D02*
D03*
Y5900000D02*
D03*
Y5650000D02*
D03*
Y6150000D02*
D03*
X1625600Y2146300D02*
D03*
X1700000Y1345000D02*
D03*
X1333500Y4838700D02*
D03*
X1498600Y3937000D02*
D03*
X1282700Y1524000D02*
D03*
X1168400Y3937000D02*
D03*
X1473200Y466700D02*
D03*
Y666700D02*
D03*
Y266700D02*
D03*
Y76200D02*
D03*
X495300Y3937000D02*
D03*
X825500D02*
D03*
X150000Y3150000D02*
D03*
Y4400000D02*
D03*
Y4150000D02*
D03*
Y4650000D02*
D03*
Y3650000D02*
D03*
Y3400000D02*
D03*
Y3900000D02*
D03*
Y1150000D02*
D03*
Y900000D02*
D03*
Y1400000D02*
D03*
Y400000D02*
D03*
Y150000D02*
D03*
Y650000D02*
D03*
Y2650000D02*
D03*
Y2400000D02*
D03*
Y2900000D02*
D03*
Y1900000D02*
D03*
Y1650000D02*
D03*
Y2150000D02*
D03*
X2222500Y5588000D02*
D03*
X3352800Y2692400D02*
D03*
X2133600Y4640580D02*
D03*
X3352800Y2527300D02*
D03*
X3200400D02*
D03*
Y2692400D02*
D03*
X2128520Y4744720D02*
D03*
X977900Y3225800D02*
D03*
X723900D02*
D03*
Y2997200D02*
D03*
X1498600Y952500D02*
D03*
X977900Y2997200D02*
D03*
X2336800Y6096000D02*
D03*
X2387600Y4267200D02*
D03*
X930400Y6870700D02*
D03*
X1549400Y5613400D02*
D03*
X1638300Y6210300D02*
D03*
X2981960Y5361940D02*
D03*
X1498600Y5918200D02*
D03*
X1341120Y6093460D02*
D03*
X1206500Y5816600D02*
D03*
X1498600Y4838700D02*
D03*
X1168400D02*
D03*
X825500D02*
D03*
X927100Y7632700D02*
D03*
X495300Y4826000D02*
D03*
X3390900Y4267200D02*
D03*
X3048000D02*
D03*
X2717800D02*
D03*
X930400Y7378700D02*
D03*
Y6629400D02*
D03*
X930000Y7255000D02*
D03*
X930400Y6489700D02*
D03*
X927100Y7759700D02*
D03*
X930400Y6997700D02*
D03*
Y7124700D02*
D03*
Y7505700D02*
D03*
X3098800Y8026400D02*
D03*
X930400Y7886700D02*
D03*
D70*
X1935002Y7369998D02*
D03*
Y7515001D02*
D03*
X1794998D02*
D03*
Y7375002D02*
D03*
X1654998Y7515001D02*
D03*
Y7375002D02*
D03*
X1929999Y7235002D02*
D03*
X1794998D02*
D03*
X1649999D02*
D03*
X812800Y8168640D02*
D03*
X497840Y8163560D02*
D03*
D71*
X2024256Y1807995D02*
D03*
Y1886735D02*
D03*
X1945518Y1886737D02*
D03*
X1945516Y1807995D02*
D03*
D72*
X2006600Y2895600D02*
D03*
D73*
X2760000Y1340002D02*
D03*
X1587500Y1384300D02*
D03*
%TF.MD5,a40ee86ee6e60956d2a5c73784c72ba5*%
M02*
