%TF.GenerationSoftware,Altium Limited,Altium Designer,26.5.1 (12)*%
G04 Layer_Color=8421504*
G04 Board_Origin=8850000|10000000*
%FSLAX45Y45*%
%MOMM*%
%TF.SameCoordinates,84847B52-3A98-4CAC-9896-DB7724CA6EA3*%
%TF.FilePolarity,Positive*%
%TF.FileFunction,Paste,Top*%
%TF.Part,Single*%
G01*
G75*
%TA.AperFunction,SMDPad,CuDef*%
%ADD10R,1.00000X1.55000*%
G04:AMPARAMS|DCode=11|XSize=0.59mm|YSize=0.6mm|CornerRadius=0.15635mm|HoleSize=0mm|Usage=FLASHONLY|Rotation=270.000|XOffset=0mm|YOffset=0mm|HoleType=Round|Shape=RoundedRectangle|*
%AMROUNDEDRECTD11*
21,1,0.59000,0.28730,0,0,270.0*
21,1,0.27730,0.60000,0,0,270.0*
1,1,0.31270,-0.14365,-0.13865*
1,1,0.31270,-0.14365,0.13865*
1,1,0.31270,0.14365,0.13865*
1,1,0.31270,0.14365,-0.13865*
%
%ADD11ROUNDEDRECTD11*%
%ADD12R,0.35411X0.26274*%
G04:AMPARAMS|DCode=13|XSize=0.59mm|YSize=0.6mm|CornerRadius=0.15635mm|HoleSize=0mm|Usage=FLASHONLY|Rotation=0.000|XOffset=0mm|YOffset=0mm|HoleType=Round|Shape=RoundedRectangle|*
%AMROUNDEDRECTD13*
21,1,0.59000,0.28730,0,0,0.0*
21,1,0.27730,0.60000,0,0,0.0*
1,1,0.31270,0.13865,-0.14365*
1,1,0.31270,-0.13865,-0.14365*
1,1,0.31270,-0.13865,0.14365*
1,1,0.31270,0.13865,0.14365*
%
%ADD13ROUNDEDRECTD13*%
%TA.AperFunction,ConnectorPad*%
%ADD14R,1.50000X0.90000*%
%TA.AperFunction,SMDPad,CuDef*%
G04:AMPARAMS|DCode=15|XSize=1.40712mm|YSize=0.57583mm|CornerRadius=0.28791mm|HoleSize=0mm|Usage=FLASHONLY|Rotation=180.000|XOffset=0mm|YOffset=0mm|HoleType=Round|Shape=RoundedRectangle|*
%AMROUNDEDRECTD15*
21,1,1.40712,0.00000,0,0,180.0*
21,1,0.83129,0.57583,0,0,180.0*
1,1,0.57583,-0.41565,0.00000*
1,1,0.57583,0.41565,0.00000*
1,1,0.57583,0.41565,0.00000*
1,1,0.57583,-0.41565,0.00000*
%
%ADD15ROUNDEDRECTD15*%
%ADD16R,0.81280X0.49530*%
G04:AMPARAMS|DCode=18|XSize=0.64mm|YSize=0.72mm|CornerRadius=0.08mm|HoleSize=0mm|Usage=FLASHONLY|Rotation=0.000|XOffset=0mm|YOffset=0mm|HoleType=Round|Shape=RoundedRectangle|*
%AMROUNDEDRECTD18*
21,1,0.64000,0.56000,0,0,0.0*
21,1,0.48000,0.72000,0,0,0.0*
1,1,0.16000,0.24000,-0.28000*
1,1,0.16000,-0.24000,-0.28000*
1,1,0.16000,-0.24000,0.28000*
1,1,0.16000,0.24000,0.28000*
%
%ADD18ROUNDEDRECTD18*%
%ADD19R,0.26274X0.35411*%
G04:AMPARAMS|DCode=20|XSize=1.37mm|YSize=2.72mm|CornerRadius=0.17125mm|HoleSize=0mm|Usage=FLASHONLY|Rotation=270.000|XOffset=0mm|YOffset=0mm|HoleType=Round|Shape=RoundedRectangle|*
%AMROUNDEDRECTD20*
21,1,1.37000,2.37750,0,0,270.0*
21,1,1.02750,2.72000,0,0,270.0*
1,1,0.34250,-1.18875,-0.51375*
1,1,0.34250,-1.18875,0.51375*
1,1,0.34250,1.18875,0.51375*
1,1,0.34250,1.18875,-0.51375*
%
%ADD20ROUNDEDRECTD20*%
%ADD21R,0.79000X0.93000*%
%ADD22R,0.56000X0.60000*%
%ADD23R,0.93000X0.79000*%
G04:AMPARAMS|DCode=24|XSize=0.87mm|YSize=0.93mm|CornerRadius=0.10875mm|HoleSize=0mm|Usage=FLASHONLY|Rotation=90.000|XOffset=0mm|YOffset=0mm|HoleType=Round|Shape=RoundedRectangle|*
%AMROUNDEDRECTD24*
21,1,0.87000,0.71250,0,0,90.0*
21,1,0.65250,0.93000,0,0,90.0*
1,1,0.21750,0.35625,0.32625*
1,1,0.21750,0.35625,-0.32625*
1,1,0.21750,-0.35625,-0.32625*
1,1,0.21750,-0.35625,0.32625*
%
%ADD24ROUNDEDRECTD24*%
%TA.AperFunction,BGAPad,CuDef*%
%ADD25R,0.90000X0.90000*%
%TA.AperFunction,SMDPad,CuDef*%
%ADD26R,1.02000X1.00000*%
%ADD28R,1.30000X1.50000*%
G04:AMPARAMS|DCode=30|XSize=1.08mm|YSize=1.42mm|CornerRadius=0.135mm|HoleSize=0mm|Usage=FLASHONLY|Rotation=90.000|XOffset=0mm|YOffset=0mm|HoleType=Round|Shape=RoundedRectangle|*
%AMROUNDEDRECTD30*
21,1,1.08000,1.15000,0,0,90.0*
21,1,0.81000,1.42000,0,0,90.0*
1,1,0.27000,0.57500,0.40500*
1,1,0.27000,0.57500,-0.40500*
1,1,0.27000,-0.57500,-0.40500*
1,1,0.27000,-0.57500,0.40500*
%
%ADD30ROUNDEDRECTD30*%
%ADD31R,1.16000X1.82000*%
%ADD32R,3.18000X2.25000*%
%ADD33R,2.25000X3.18000*%
%ADD34R,2.95000X3.50000*%
%ADD35R,1.02000X1.04000*%
%ADD36R,1.40712X0.57583*%
%ADD38R,0.55000X0.60000*%
%ADD39R,1.04000X1.02000*%
%ADD40R,0.60000X0.55000*%
%TA.AperFunction,ConnectorPad*%
%ADD41R,0.90000X1.50000*%
%TA.AperFunction,SMDPad,CuDef*%
%ADD43R,0.60000X0.56000*%
%TA.AperFunction,NonConductor*%
%ADD128R,0.52922X0.30422*%
%ADD129R,0.52922X0.30422*%
%ADD130R,0.30422X0.52922*%
%ADD131R,0.30422X0.52922*%
%TA.AperFunction,SMDPad,SMDef*%
%ADD132R,0.02540X0.02540*%
G36*
X2022386Y1989865D02*
X2002386D01*
Y2062365D01*
X2022386D01*
Y1989865D01*
D02*
G37*
G36*
X1967385D02*
X1947385D01*
Y2062365D01*
X1967385D01*
Y1989865D01*
D02*
G37*
G36*
X2071385Y1979865D02*
X2048386D01*
Y2059865D01*
X2071385D01*
Y1979865D01*
D02*
G37*
G36*
X1921386D02*
X1898386D01*
Y2059865D01*
X1921386D01*
Y1979865D01*
D02*
G37*
G36*
X2197385Y1935865D02*
X2117386D01*
Y1958865D01*
X2197385D01*
Y1935865D01*
D02*
G37*
G36*
X1852385D02*
X1772386D01*
Y1958865D01*
X1852385D01*
Y1935865D01*
D02*
G37*
G36*
X2079892Y1896735D02*
X2048398D01*
X2034256Y1910878D01*
Y1942372D01*
X2079892D01*
Y1896735D01*
D02*
G37*
G36*
X2014256Y1910878D02*
X2000113Y1896735D01*
X1969658D01*
X1955516Y1910878D01*
Y1942372D01*
X2014256D01*
Y1910878D01*
D02*
G37*
G36*
X1935516D02*
X1921373Y1896735D01*
X1889879D01*
Y1942372D01*
X1935516D01*
Y1910878D01*
D02*
G37*
G36*
X2197385Y1885865D02*
X2117386D01*
Y1908865D01*
X2197385D01*
Y1885865D01*
D02*
G37*
G36*
X1852385D02*
X1772386D01*
Y1908865D01*
X1852385D01*
Y1885865D01*
D02*
G37*
G36*
X2197385Y1835865D02*
X2117386D01*
Y1858865D01*
X2197385D01*
Y1835865D01*
D02*
G37*
G36*
X1852385D02*
X1772386D01*
Y1858865D01*
X1852385D01*
Y1835865D01*
D02*
G37*
G36*
X2079892Y1817995D02*
X2048398D01*
X2034256Y1832138D01*
Y1862593D01*
X2048398Y1876735D01*
X2079892D01*
Y1817995D01*
D02*
G37*
G36*
X2014256Y1862593D02*
Y1832138D01*
X2000113Y1817995D01*
X1969658D01*
X1955516Y1832138D01*
Y1862593D01*
X1969658Y1876735D01*
X2000113D01*
X2014256Y1862593D01*
D02*
G37*
G36*
X1935516D02*
Y1832138D01*
X1921373Y1817995D01*
X1889879D01*
Y1876735D01*
X1921373D01*
X1935516Y1862593D01*
D02*
G37*
G36*
X2197385Y1785865D02*
X2117386D01*
Y1808865D01*
X2197385D01*
Y1785865D01*
D02*
G37*
G36*
X1852385D02*
X1772386D01*
Y1808865D01*
X1852385D01*
Y1785865D01*
D02*
G37*
G36*
X2079892Y1752358D02*
X2034256D01*
Y1783853D01*
X2048398Y1797995D01*
X2079892D01*
Y1752358D01*
D02*
G37*
G36*
X2014256Y1783853D02*
Y1752358D01*
X1955516D01*
Y1783853D01*
X1969658Y1797995D01*
X2000113D01*
X2014256Y1783853D01*
D02*
G37*
G36*
X1935516D02*
Y1752358D01*
X1889879D01*
Y1797995D01*
X1921373D01*
X1935516Y1783853D01*
D02*
G37*
G36*
X2197385Y1735865D02*
X2117386D01*
Y1758865D01*
X2197385D01*
Y1735865D01*
D02*
G37*
G36*
X1852385D02*
X1772386D01*
Y1758865D01*
X1852385D01*
Y1735865D01*
D02*
G37*
G36*
X2071385Y1634865D02*
X2048386D01*
Y1714865D01*
X2071385D01*
Y1634865D01*
D02*
G37*
G36*
X1921386D02*
X1898386D01*
Y1714865D01*
X1921386D01*
Y1634865D01*
D02*
G37*
G36*
X2022386Y1632365D02*
X2002386D01*
Y1704865D01*
X2022386D01*
Y1632365D01*
D02*
G37*
G36*
X1967385D02*
X1947385D01*
Y1704865D01*
X1967385D01*
Y1632365D01*
D02*
G37*
D10*
X3449300Y7539100D02*
D03*
X3454400Y6623675D02*
D03*
Y6098675D02*
D03*
X3449300Y7014100D02*
D03*
X3134400Y6098675D02*
D03*
Y6623675D02*
D03*
X3129300Y7539100D02*
D03*
Y7014100D02*
D03*
D11*
X3469640Y5638660D02*
D03*
X1574800Y1115060D02*
D03*
X3469640Y5557660D02*
D03*
X1574800Y1196060D02*
D03*
D12*
X3200400Y7874000D02*
D03*
X3149538D02*
D03*
D13*
X3215500Y7724525D02*
D03*
X2734967Y5600000D02*
D03*
X1978635Y1516380D02*
D03*
X2815967Y5600000D02*
D03*
X3134500Y7724525D02*
D03*
X2059635Y1516380D02*
D03*
D14*
X2818100Y8146000D02*
D03*
X1068100D02*
D03*
Y6876000D02*
D03*
Y8019000D02*
D03*
Y6749000D02*
D03*
Y7638000D02*
D03*
Y7384000D02*
D03*
Y6622000D02*
D03*
Y7892000D02*
D03*
Y7765000D02*
D03*
Y7511000D02*
D03*
Y7257000D02*
D03*
Y7130000D02*
D03*
Y7003000D02*
D03*
Y6495000D02*
D03*
X2818100D02*
D03*
Y6622000D02*
D03*
Y6749000D02*
D03*
Y6876000D02*
D03*
Y7003000D02*
D03*
Y7130000D02*
D03*
Y7257000D02*
D03*
Y7384000D02*
D03*
Y7511000D02*
D03*
Y7638000D02*
D03*
Y7765000D02*
D03*
Y7892000D02*
D03*
Y8019000D02*
D03*
D15*
X3231359Y5651500D02*
D03*
Y5746500D02*
D03*
X3001249Y5556500D02*
D03*
Y5746500D02*
D03*
D16*
X2489200Y5768975D02*
D03*
Y5889625D02*
D03*
D18*
X2725667Y5450000D02*
D03*
X2813467D02*
D03*
D19*
X2260600Y5435569D02*
D03*
X1879600Y5283138D02*
D03*
X815425Y8077262D02*
D03*
X1879600Y5334000D02*
D03*
X2260600Y5486431D02*
D03*
X815425Y8026400D02*
D03*
X2345151Y1968562D02*
D03*
Y1917700D02*
D03*
D20*
X2959100Y3141700D02*
D03*
X3306525D02*
D03*
Y2857500D02*
D03*
X2959100D02*
D03*
D21*
X2050500Y2197100D02*
D03*
X2914100Y1488440D02*
D03*
X2750100D02*
D03*
X1886500Y2197100D02*
D03*
D22*
X1976120Y1377325D02*
D03*
X1889120D02*
D03*
D23*
X2588675Y1328420D02*
D03*
Y1492420D02*
D03*
D24*
X2410089Y1333500D02*
D03*
Y1489500D02*
D03*
D25*
X1933100Y7514000D02*
D03*
X1793100D02*
D03*
Y7374000D02*
D03*
X1933100D02*
D03*
X1653100Y7514000D02*
D03*
Y7374000D02*
D03*
Y7234000D02*
D03*
X1793100D02*
D03*
X1933100D02*
D03*
D26*
X647700Y8140100D02*
D03*
Y7988300D02*
D03*
D28*
X1618409Y1955800D02*
D03*
X1428409D02*
D03*
D30*
X1615440Y1573600D02*
D03*
Y1752600D02*
D03*
D31*
X1924960Y1181100D02*
D03*
X2219960D02*
D03*
D32*
X1780540Y2893000D02*
D03*
Y3584000D02*
D03*
D33*
X1940500Y4648200D02*
D03*
X2631500D02*
D03*
D34*
X3249576Y2071166D02*
D03*
X2704576D02*
D03*
D35*
X1734820Y1074420D02*
D03*
Y1221420D02*
D03*
D36*
X3231359Y5556500D02*
D03*
D38*
X1498600Y6053500D02*
D03*
Y6138500D02*
D03*
D39*
X561500Y7810000D02*
D03*
X2771300Y6083300D02*
D03*
X2918300D02*
D03*
X708500Y7810000D02*
D03*
D40*
X740500Y6756400D02*
D03*
X825500D02*
D03*
D41*
X1498600Y6370000D02*
D03*
X1244600D02*
D03*
X1371600D02*
D03*
X1625600D02*
D03*
X1752600D02*
D03*
X1879600D02*
D03*
X2006600D02*
D03*
X2133600D02*
D03*
X2260600D02*
D03*
X2387600D02*
D03*
X2514600D02*
D03*
X2641600D02*
D03*
D43*
X2214880Y1468760D02*
D03*
Y1381760D02*
D03*
D128*
X1826850Y5663000D02*
D03*
Y5513000D02*
D03*
X2059350D02*
D03*
Y5663000D02*
D03*
D129*
X1826850Y5613000D02*
D03*
Y5563000D02*
D03*
X2059350D02*
D03*
Y5613000D02*
D03*
D130*
X1893100Y5496750D02*
D03*
X1993100D02*
D03*
Y5679250D02*
D03*
X1893100D02*
D03*
D131*
X1943100Y5496750D02*
D03*
Y5679250D02*
D03*
D132*
X1984886Y1847365D02*
D03*
%TF.MD5,e39ca4cc45147426af21122752720197*%
M02*
