%TF.GenerationSoftware,Altium Limited,Altium Designer,26.5.1 (12)*%
G04 Layer_Color=0*
G04 Board_Origin=8850000|10000000*
%FSLAX45Y45*%
%MOMM*%
%TF.SameCoordinates,84847B52-3A98-4CAC-9896-DB7724CA6EA3*%
%TF.FilePolarity,Positive*%
%TF.FileFunction,Plated,1,4,PTH,Drill*%
%TF.Part,Single*%
G01*
G75*
%TA.AperFunction,ComponentDrill*%
%ADD137C,1.02000*%
%ADD138C,0.40000*%
%ADD139O,0.60000X2.10000*%
%ADD140O,0.60000X1.40000*%
%ADD141C,0.80000*%
%ADD142C,1.00000*%
%ADD143C,1.90000*%
%ADD144C,0.86360*%
%ADD145C,1.75000*%
%ADD146C,1.30000*%
%ADD147C,0.25400*%
%TA.AperFunction,ViaDrill,NotFilled*%
%ADD148C,0.30000*%
%ADD149C,0.25000*%
%ADD150C,0.25400*%
%ADD151C,0.40000*%
%ADD152C,0.50000*%
D137*
X2720026Y4051300D02*
D03*
Y3543300D02*
D03*
Y3797300D02*
D03*
X2387600Y4051300D02*
D03*
Y3543300D02*
D03*
Y3797300D02*
D03*
X3052451Y4051300D02*
D03*
Y3543300D02*
D03*
Y3797300D02*
D03*
X3384877Y4051300D02*
D03*
Y3543300D02*
D03*
Y3797300D02*
D03*
X1495415Y4140200D02*
D03*
X1162989D02*
D03*
X498138D02*
D03*
X830563D02*
D03*
X1495415Y4394200D02*
D03*
X1162989D02*
D03*
X830563D02*
D03*
X498138D02*
D03*
X830563Y4648200D02*
D03*
X1162989D02*
D03*
X1495415D02*
D03*
X498138D02*
D03*
D138*
X1860335Y626500D02*
D03*
X1945335D02*
D03*
X2030335D02*
D03*
X2200335D02*
D03*
X2285335D02*
D03*
Y491500D02*
D03*
X2200335D02*
D03*
X2115335D02*
D03*
X1945335D02*
D03*
X1860335D02*
D03*
X2030335D02*
D03*
X2115335Y626500D02*
D03*
X1775335Y491500D02*
D03*
X2370335D02*
D03*
Y626500D02*
D03*
X1775335D02*
D03*
D139*
X2505335Y528500D02*
D03*
X1640335D02*
D03*
D140*
X2505335Y190500D02*
D03*
X1640335D02*
D03*
D141*
X3146425Y4950000D02*
D03*
Y4750000D02*
D03*
D142*
X736600Y5894415D02*
D03*
Y5644415D02*
D03*
Y5144415D02*
D03*
Y5394415D02*
D03*
D143*
X1084200Y355600D02*
D03*
X584200D02*
D03*
D144*
X850900Y3467100D02*
D03*
Y3117100D02*
D03*
D145*
X787400Y887850D02*
D03*
Y1283850D02*
D03*
D146*
X736600Y2402626D02*
D03*
Y1894626D02*
D03*
D147*
X1945516Y1807995D02*
D03*
Y1886735D02*
D03*
X2024256Y1807995D02*
D03*
Y1886735D02*
D03*
D148*
X3700000Y7400000D02*
D03*
Y6900000D02*
D03*
Y7650000D02*
D03*
X3700000Y6650000D02*
D03*
X3700000Y6400000D02*
D03*
Y5900000D02*
D03*
X3700000Y6150000D02*
D03*
Y7150000D02*
D03*
X3309620Y8150860D02*
D03*
X3700000Y5400000D02*
D03*
Y4900000D02*
D03*
X3700000Y4650000D02*
D03*
X3700000Y4400000D02*
D03*
Y3900000D02*
D03*
X3700000Y4150000D02*
D03*
X3467100Y5765800D02*
D03*
X3700000Y5650000D02*
D03*
Y5150000D02*
D03*
X3517900Y4267200D02*
D03*
X3101340Y8150860D02*
D03*
X2336800Y5981700D02*
D03*
X3144520Y5240020D02*
D03*
X2514600Y5156200D02*
D03*
X3175000Y4267200D02*
D03*
X2832100D02*
D03*
X2514600Y5448300D02*
D03*
X2120900Y5156200D02*
D03*
X2501900Y4267200D02*
D03*
X1982470Y5360129D02*
D03*
X3700000Y3650000D02*
D03*
X3700000Y3400000D02*
D03*
X3390900Y3340100D02*
D03*
X3700000Y2900000D02*
D03*
X3700000Y2650000D02*
D03*
Y3150000D02*
D03*
X2717800Y3340100D02*
D03*
X3048000D02*
D03*
X3700000Y1900000D02*
D03*
Y1400000D02*
D03*
Y2400000D02*
D03*
Y900000D02*
D03*
X3700000Y650000D02*
D03*
Y1150000D02*
D03*
Y2150000D02*
D03*
Y1650000D02*
D03*
X2768600Y1104900D02*
D03*
X2908300Y177800D02*
D03*
X3225800D02*
D03*
X2768600Y825500D02*
D03*
X2717800Y3098800D02*
D03*
X2387600Y3340100D02*
D03*
Y3098800D02*
D03*
X2159000Y2921000D02*
D03*
X2006600Y2717800D02*
D03*
X2654300Y622300D02*
D03*
X2667000Y266700D02*
D03*
Y76200D02*
D03*
X2463800Y1104900D02*
D03*
Y825500D02*
D03*
X1778000Y6210300D02*
D03*
X1371600Y5918200D02*
D03*
X1206500Y6096000D02*
D03*
Y5156200D02*
D03*
X1663700D02*
D03*
X1206500Y5689600D02*
D03*
X835660Y7721600D02*
D03*
X830580Y7579360D02*
D03*
X828040Y7429500D02*
D03*
Y7048500D02*
D03*
X830580Y6916420D02*
D03*
X828040Y7185660D02*
D03*
X150000Y7400000D02*
D03*
Y7150000D02*
D03*
Y7650000D02*
D03*
X698500Y6070600D02*
D03*
X150000Y5400000D02*
D03*
Y4900000D02*
D03*
X990600Y4838700D02*
D03*
X150000Y5150000D02*
D03*
Y6650000D02*
D03*
Y6400000D02*
D03*
Y6900000D02*
D03*
Y5900000D02*
D03*
Y5650000D02*
D03*
Y6150000D02*
D03*
X1625600Y2146300D02*
D03*
X1700000Y1345000D02*
D03*
X1333500Y4838700D02*
D03*
X1498600Y3937000D02*
D03*
X1282700Y1524000D02*
D03*
X1168400Y3937000D02*
D03*
X1473200Y466700D02*
D03*
Y666700D02*
D03*
Y266700D02*
D03*
Y76200D02*
D03*
X495300Y3937000D02*
D03*
X825500D02*
D03*
X150000Y3150000D02*
D03*
Y4400000D02*
D03*
Y4150000D02*
D03*
Y4650000D02*
D03*
Y3650000D02*
D03*
Y3400000D02*
D03*
Y3900000D02*
D03*
Y1150000D02*
D03*
Y900000D02*
D03*
Y1400000D02*
D03*
Y400000D02*
D03*
Y150000D02*
D03*
Y650000D02*
D03*
Y2650000D02*
D03*
Y2400000D02*
D03*
Y2900000D02*
D03*
Y1900000D02*
D03*
Y1650000D02*
D03*
Y2150000D02*
D03*
X2222500Y5588000D02*
D03*
X3352800Y2692400D02*
D03*
X2133600Y4640580D02*
D03*
X3352800Y2527300D02*
D03*
X3200400D02*
D03*
Y2692400D02*
D03*
X2128520Y4744720D02*
D03*
X977900Y3225800D02*
D03*
X723900D02*
D03*
Y2997200D02*
D03*
X1498600Y952500D02*
D03*
X977900Y2997200D02*
D03*
X2336800Y6096000D02*
D03*
X2387600Y4267200D02*
D03*
X930400Y6870700D02*
D03*
X1549400Y5613400D02*
D03*
X1638300Y6210300D02*
D03*
X2981960Y5361940D02*
D03*
X1498600Y5918200D02*
D03*
X1341120Y6093460D02*
D03*
X1206500Y5816600D02*
D03*
X1498600Y4838700D02*
D03*
X1168400D02*
D03*
X825500D02*
D03*
X927100Y7632700D02*
D03*
X495300Y4826000D02*
D03*
X3390900Y4267200D02*
D03*
X3048000D02*
D03*
X2717800D02*
D03*
X930400Y7378700D02*
D03*
Y6629400D02*
D03*
X930000Y7255000D02*
D03*
X930400Y6489700D02*
D03*
X927100Y7759700D02*
D03*
X930400Y6997700D02*
D03*
Y7124700D02*
D03*
Y7505700D02*
D03*
X3098800Y8026400D02*
D03*
X930400Y7886700D02*
D03*
D149*
X1935002Y7369998D02*
D03*
Y7515001D02*
D03*
X1794998D02*
D03*
Y7375002D02*
D03*
X1654998Y7515001D02*
D03*
Y7375002D02*
D03*
X1929999Y7235002D02*
D03*
X1794998D02*
D03*
X1649999D02*
D03*
X812800Y8168640D02*
D03*
X497840Y8163560D02*
D03*
D150*
X2024256Y1807995D02*
D03*
Y1886735D02*
D03*
X1945518Y1886737D02*
D03*
X1945516Y1807995D02*
D03*
D151*
X2006600Y2895600D02*
D03*
D152*
X2760000Y1340002D02*
D03*
X1587500Y1384300D02*
D03*
%TF.MD5,9cb60906b9c24cf7d55ac7bb8fc80d3e*%
M02*
