%TF.GenerationSoftware,Altium Limited,Altium Designer,26.5.1 (12)*%
G04 Layer_Physical_Order=4*
G04 Layer_Color=16711680*
G04 Board_Origin=8850000|10000000*
%FSLAX45Y45*%
%MOMM*%
%TF.SameCoordinates,84847B52-3A98-4CAC-9896-DB7724CA6EA3*%
%TF.FilePolarity,Positive*%
%TF.FileFunction,Copper,L4,Bot,Signal*%
%TF.Part,Single*%
G01*
G75*
%TA.AperFunction,SMDPad,CuDef*%
%ADD21R,0.79000X0.93000*%
%TA.AperFunction,Conductor*%
%ADD44C,0.38100*%
%ADD45C,1.01600*%
%ADD46C,0.30480*%
%ADD47C,0.50800*%
%ADD48C,0.25400*%
%ADD51C,0.76200*%
%TA.AperFunction,ComponentPad*%
%ADD52C,1.57000*%
%ADD53R,1.57000X1.57000*%
%ADD54C,0.65000*%
%ADD55O,0.90000X2.40000*%
%ADD56O,0.90000X1.70000*%
%ADD57C,1.30000*%
%ADD58R,1.50800X1.50800*%
%ADD59C,2.85000*%
%ADD60C,1.37160*%
G04:AMPARAMS|DCode=61|XSize=1.3mm|YSize=1.3mm|CornerRadius=0.325mm|HoleSize=0mm|Usage=FLASHONLY|Rotation=270.000|XOffset=0mm|YOffset=0mm|HoleType=Round|Shape=RoundedRectangle|*
%AMROUNDEDRECTD61*
21,1,1.30000,0.65000,0,0,270.0*
21,1,0.65000,1.30000,0,0,270.0*
1,1,0.65000,-0.32500,-0.32500*
1,1,0.65000,-0.32500,0.32500*
1,1,0.65000,0.32500,0.32500*
1,1,0.65000,0.32500,-0.32500*
%
%ADD61ROUNDEDRECTD61*%
%ADD62R,2.85000X2.85000*%
%ADD63C,2.62500*%
%ADD64C,1.50800*%
%TA.AperFunction,WasherPad*%
%ADD65C,3.70000*%
%TA.AperFunction,ComponentPad*%
%ADD66C,1.95000*%
%ADD67R,1.95000X1.95000*%
%ADD68C,0.50800*%
%TA.AperFunction,ViaPad*%
%ADD69C,0.60000*%
%ADD70C,0.50000*%
%ADD71C,0.50800*%
%ADD72C,0.80000*%
%ADD73C,1.00000*%
%TA.AperFunction,SMDPad,CuDef*%
%ADD74R,1.73000X0.97000*%
%ADD75R,0.60960X0.88900*%
G36*
X3733800Y8224413D02*
X3743296Y8224413D01*
X3761922Y8220708D01*
X3779469Y8213440D01*
X3795260Y8202889D01*
X3808689Y8189460D01*
X3819240Y8173669D01*
X3826508Y8156122D01*
X3830213Y8137495D01*
X3830214Y8127999D01*
X3830213Y126999D01*
X3830213Y117503D01*
X3826508Y98877D01*
X3819240Y81331D01*
X3808689Y65539D01*
X3795260Y52110D01*
X3779469Y41559D01*
X3761922Y34291D01*
X3743296Y30586D01*
X3733801Y30586D01*
X127000Y30586D01*
X117503D01*
X98877Y34291D01*
X81331Y41559D01*
X65539Y52111D01*
X52110Y65540D01*
X41559Y81331D01*
X34291Y98877D01*
X30586Y117504D01*
X30586Y126999D01*
Y8128000D01*
X30586Y8137496D01*
X34291Y8156122D01*
X41559Y8173668D01*
X52110Y8189459D01*
X65540Y8202889D01*
X81331Y8213440D01*
X98877Y8220708D01*
X117504Y8224413D01*
X127001Y8224414D01*
X3733800Y8224413D01*
D02*
G37*
%LPC*%
G36*
X3108746Y8076400D02*
X3088854D01*
X3070477Y8068788D01*
X3056412Y8054723D01*
X3048800Y8036346D01*
Y8023551D01*
X2945290Y7920041D01*
X967770D01*
X958722Y7929088D01*
X940345Y7936700D01*
X920454D01*
X902077Y7929088D01*
X888012Y7915023D01*
X880400Y7896646D01*
Y7876754D01*
X888012Y7858377D01*
X902077Y7844312D01*
X920454Y7836700D01*
X940345D01*
X958722Y7844312D01*
X967770Y7853359D01*
X2959100D01*
X2971859Y7855897D01*
X2982675Y7863125D01*
X3095951Y7976400D01*
X3108746D01*
X3127123Y7984012D01*
X3141188Y7998077D01*
X3148800Y8016454D01*
Y8036346D01*
X3141188Y8054723D01*
X3127123Y8068788D01*
X3108746Y8076400D01*
D02*
G37*
G36*
X270193Y8215002D02*
X229811D01*
X190206Y8207124D01*
X152898Y8191670D01*
X119322Y8169236D01*
X90768Y8140681D01*
X68334Y8107106D01*
X52880Y8069798D01*
X45002Y8030192D01*
Y7989811D01*
X52880Y7950206D01*
X68334Y7912898D01*
X90768Y7879322D01*
X119322Y7850768D01*
X152898Y7828333D01*
X190206Y7812880D01*
X229811Y7805002D01*
X270193D01*
X309798Y7812880D01*
X347106Y7828333D01*
X380682Y7850768D01*
X409236Y7879322D01*
X431670Y7912898D01*
X447124Y7950206D01*
X455002Y7989811D01*
Y8030192D01*
X447124Y8069798D01*
X431670Y8107106D01*
X409236Y8140681D01*
X380682Y8169236D01*
X347106Y8191670D01*
X309798Y8207124D01*
X270193Y8215002D01*
D02*
G37*
G36*
X3630191Y8204999D02*
X3589810D01*
X3550204Y8197121D01*
X3512896Y8181668D01*
X3479321Y8159233D01*
X3450767Y8130679D01*
X3428332Y8097103D01*
X3412879Y8059795D01*
X3405001Y8020190D01*
Y7979809D01*
X3412879Y7940203D01*
X3428332Y7902895D01*
X3450767Y7869320D01*
X3479321Y7840765D01*
X3512896Y7818331D01*
X3550204Y7802877D01*
X3589810Y7794999D01*
X3630191D01*
X3669797Y7802877D01*
X3707104Y7818331D01*
X3740680Y7840765D01*
X3769234Y7869320D01*
X3791669Y7902895D01*
X3807122Y7940203D01*
X3815000Y7979809D01*
Y8020190D01*
X3807122Y8059795D01*
X3791669Y8097103D01*
X3769234Y8130679D01*
X3740680Y8159233D01*
X3707104Y8181668D01*
X3669797Y8197121D01*
X3630191Y8204999D01*
D02*
G37*
G36*
X891800Y7828340D02*
X565000D01*
X552241Y7825802D01*
X541425Y7818575D01*
X344725Y7621875D01*
X337497Y7611059D01*
X334959Y7598300D01*
Y4965700D01*
X337497Y4952941D01*
X344725Y4942125D01*
X401775Y4885075D01*
X404037Y4873701D01*
X411265Y4862885D01*
X445300Y4828849D01*
Y4816054D01*
X452912Y4797677D01*
X466977Y4783612D01*
X485354Y4776000D01*
X505246D01*
X523623Y4783612D01*
X537688Y4797677D01*
X545300Y4816054D01*
Y4835946D01*
X537688Y4854323D01*
X523623Y4868388D01*
X505246Y4876000D01*
X492451D01*
X467905Y4900546D01*
X465642Y4911919D01*
X458415Y4922735D01*
X401641Y4979510D01*
Y7584490D01*
X578810Y7761659D01*
X877100D01*
Y7749754D01*
X884712Y7731377D01*
X898777Y7717312D01*
X917154Y7709700D01*
X937046D01*
X955423Y7717312D01*
X969488Y7731377D01*
X977100Y7749754D01*
Y7769646D01*
X969488Y7788023D01*
X955423Y7802088D01*
X937046Y7809700D01*
X924251D01*
X915375Y7818575D01*
X904559Y7825802D01*
X891800Y7828340D01*
D02*
G37*
G36*
X900437Y7683340D02*
X677700D01*
X664941Y7680803D01*
X654125Y7673575D01*
X446325Y7465775D01*
X439097Y7454959D01*
X436559Y7442200D01*
Y5054600D01*
X439097Y5041841D01*
X446325Y5031025D01*
X611425Y4865925D01*
X622241Y4858697D01*
X635000Y4856159D01*
X760890D01*
X775500Y4841549D01*
Y4828754D01*
X783112Y4810377D01*
X797177Y4796312D01*
X815554Y4788700D01*
X835446D01*
X853823Y4796312D01*
X867888Y4810377D01*
X875500Y4828754D01*
Y4848646D01*
X867888Y4867023D01*
X853823Y4881088D01*
X835446Y4888700D01*
X822651D01*
X800280Y4911070D01*
X803115Y4919960D01*
X1039989D01*
X1118400Y4841549D01*
Y4828754D01*
X1126012Y4810377D01*
X1140077Y4796312D01*
X1158454Y4788700D01*
X1178346D01*
X1196723Y4796312D01*
X1210788Y4810377D01*
X1218400Y4828754D01*
Y4848646D01*
X1210788Y4867023D01*
X1196723Y4881088D01*
X1178346Y4888700D01*
X1165551D01*
X1077374Y4976876D01*
X1066558Y4984104D01*
X1053799Y4986642D01*
X737409D01*
X617541Y5106510D01*
Y7330390D01*
X759510Y7472359D01*
X893029D01*
X902077Y7463312D01*
X920454Y7455700D01*
X940345D01*
X958722Y7463312D01*
X972788Y7477377D01*
X980400Y7495754D01*
Y7515646D01*
X972788Y7534023D01*
X958722Y7548088D01*
X940345Y7555700D01*
X920454D01*
X902077Y7548088D01*
X893029Y7539041D01*
X745700D01*
X732941Y7536503D01*
X722125Y7529275D01*
X560625Y7367775D01*
X553397Y7356959D01*
X550859Y7344200D01*
Y5092700D01*
X553397Y5079941D01*
X560625Y5069125D01*
X698019Y4931731D01*
X695494Y4923817D01*
X694746Y4922841D01*
X648810D01*
X503241Y5068410D01*
Y7428390D01*
X691510Y7616659D01*
X879625D01*
X884712Y7604377D01*
X898777Y7590312D01*
X917154Y7582700D01*
X937046D01*
X955423Y7590312D01*
X969488Y7604377D01*
X977100Y7622754D01*
Y7642646D01*
X969488Y7661023D01*
X955423Y7675088D01*
X937046Y7682700D01*
X917154D01*
X912776Y7680886D01*
X900437Y7683340D01*
D02*
G37*
G36*
X940345Y7047700D02*
X920454D01*
X902077Y7040088D01*
X888012Y7026023D01*
X880400Y7007646D01*
Y6987754D01*
X888012Y6969377D01*
X902077Y6955312D01*
X920454Y6947700D01*
X933249D01*
X957896Y6923053D01*
X952861Y6915516D01*
X940345Y6920700D01*
X920454D01*
X902077Y6913088D01*
X888012Y6899023D01*
X880400Y6880646D01*
Y6860754D01*
X888012Y6842377D01*
X897059Y6833330D01*
Y6753992D01*
X899597Y6741233D01*
X906824Y6730417D01*
X953787Y6683455D01*
X948751Y6675918D01*
X940345Y6679400D01*
X920454D01*
X902077Y6671788D01*
X888012Y6657723D01*
X880400Y6639346D01*
Y6635705D01*
X807798Y6563103D01*
X799168Y6550187D01*
X796137Y6534950D01*
Y6450578D01*
X799168Y6435341D01*
X807798Y6422424D01*
X958093Y6272130D01*
Y5562093D01*
X961123Y5546857D01*
X969754Y5533940D01*
X1710284Y4793410D01*
Y3401393D01*
X1378347Y3069456D01*
X1369716Y3056539D01*
X1366685Y3041302D01*
Y1317198D01*
X1369716Y1301961D01*
X1378347Y1289044D01*
X1505544Y1161847D01*
X1518461Y1153216D01*
X1533697Y1150185D01*
X1858508D01*
X1883444Y1125249D01*
X1885623Y1122686D01*
X1888881Y1118342D01*
X1891599Y1114160D01*
X1893808Y1110144D01*
X1895538Y1106298D01*
X1896824Y1102625D01*
X1897706Y1099097D01*
X1898219Y1095675D01*
X1898438Y1091295D01*
X1898500Y1091049D01*
Y1029500D01*
X2111500D01*
Y1166500D01*
X2111500D01*
X2111995Y1175185D01*
X2148508D01*
X2150971Y1172722D01*
X2153500Y1164500D01*
X2153500D01*
X2153500Y1164500D01*
Y1027501D01*
X2366500D01*
Y1164501D01*
X2259979D01*
X2258106Y1173915D01*
X2249476Y1186832D01*
X2193153Y1243153D01*
X2180237Y1251784D01*
X2165000Y1254815D01*
X1956294D01*
X1929456Y1281654D01*
X1916539Y1290284D01*
X1901302Y1293315D01*
X1576492D01*
X1559742Y1310065D01*
X1564344Y1318035D01*
X1578284Y1314300D01*
X1596716D01*
X1614519Y1319071D01*
X1630481Y1328286D01*
X1643514Y1341319D01*
X1652729Y1357281D01*
X1655831Y1368856D01*
X1677737Y1390762D01*
X2619023D01*
X2694026Y1315759D01*
X2694770Y1312983D01*
X2703986Y1297022D01*
X2717019Y1283989D01*
X2732981Y1274773D01*
X2750784Y1270003D01*
X2769215D01*
X2787019Y1274773D01*
X2802980Y1283989D01*
X2816013Y1297022D01*
X2825229Y1312983D01*
X2829999Y1330787D01*
Y1349218D01*
X2825229Y1367021D01*
X2816013Y1382983D01*
X2802980Y1396016D01*
X2787019Y1405232D01*
X2769215Y1410002D01*
X2767334D01*
X2685448Y1491888D01*
X2666230Y1504729D01*
X2643561Y1509238D01*
X1653200D01*
X1630530Y1504729D01*
X1611312Y1491888D01*
X1572056Y1452631D01*
X1560481Y1449529D01*
X1544519Y1440314D01*
X1531486Y1427281D01*
X1522271Y1411319D01*
X1518705Y1398013D01*
X1509815Y1399183D01*
Y2998508D01*
X1841752Y3330445D01*
X1850383Y3343362D01*
X1853414Y3358599D01*
Y4836204D01*
X1850383Y4851441D01*
X1841752Y4864358D01*
X1113212Y5592898D01*
Y6316604D01*
X1110181Y6331840D01*
X1101550Y6344757D01*
X982061Y6464246D01*
Y6477856D01*
X980400Y6486209D01*
Y6499646D01*
X972788Y6518023D01*
X958722Y6532088D01*
X940345Y6539700D01*
X920454D01*
X902077Y6532088D01*
X888012Y6518023D01*
X887347Y6516418D01*
X878162Y6517475D01*
X877684Y6520375D01*
X936709Y6579400D01*
X940345D01*
X958722Y6587012D01*
X972788Y6601077D01*
X980400Y6619454D01*
Y6639346D01*
X976918Y6647751D01*
X984455Y6652787D01*
X1427159Y6210082D01*
Y6108700D01*
X1429697Y6095941D01*
X1436925Y6085125D01*
X1627819Y5894230D01*
Y5476240D01*
X1630357Y5463481D01*
X1637585Y5452665D01*
X2228903Y4861346D01*
Y4389967D01*
X2231638Y4376217D01*
X2239427Y4364560D01*
X2337600Y4266387D01*
Y4257254D01*
X2345212Y4238877D01*
X2359277Y4224812D01*
X2377654Y4217200D01*
X2397546D01*
X2415923Y4224812D01*
X2429988Y4238877D01*
X2437600Y4257254D01*
Y4277146D01*
X2429988Y4295523D01*
X2415923Y4309588D01*
X2397546Y4317200D01*
X2388413D01*
X2300764Y4404849D01*
Y4872567D01*
X2298029Y4886317D01*
X2290240Y4897973D01*
X2279201Y4905349D01*
X1694501Y5490050D01*
Y5908040D01*
X1691963Y5920799D01*
X1684735Y5931615D01*
X1493841Y6122510D01*
Y6223892D01*
X1491303Y6236651D01*
X1484075Y6247468D01*
X963740Y6767802D01*
Y6833330D01*
X972788Y6842377D01*
X980400Y6860754D01*
Y6880646D01*
X975216Y6893161D01*
X982752Y6898197D01*
X1479529Y6401421D01*
X1490345Y6394193D01*
X1503104Y6391655D01*
X2247994D01*
X2684459Y5955190D01*
Y4304570D01*
X2675412Y4295523D01*
X2667800Y4277146D01*
Y4257254D01*
X2675412Y4238877D01*
X2689477Y4224812D01*
X2707854Y4217200D01*
X2727746D01*
X2746123Y4224812D01*
X2760188Y4238877D01*
X2767800Y4257254D01*
Y4277146D01*
X2760188Y4295523D01*
X2751141Y4304570D01*
Y5969000D01*
X2748603Y5981759D01*
X2741376Y5992575D01*
X2285379Y6448571D01*
X2274563Y6455798D01*
X2261804Y6458336D01*
X1516914D01*
X980400Y6994851D01*
Y7007646D01*
X972788Y7026023D01*
X958722Y7040088D01*
X940345Y7047700D01*
D02*
G37*
G36*
X1648246Y6260300D02*
X1628354D01*
X1609977Y6252688D01*
X1595912Y6238623D01*
X1588300Y6220246D01*
Y6200354D01*
X1595912Y6181977D01*
X1609977Y6167912D01*
X1628354Y6160300D01*
X1641149D01*
X1729025Y6072425D01*
X1739841Y6065197D01*
X1752600Y6062659D01*
X1970090D01*
Y6031550D01*
X2054160D01*
X2056130Y6031158D01*
X2134870D01*
X2136840Y6031550D01*
X2220910D01*
Y6062659D01*
X2299430D01*
X2308477Y6053612D01*
X2326854Y6046000D01*
X2346746D01*
X2365123Y6053612D01*
X2379188Y6067677D01*
X2386800Y6086054D01*
Y6105946D01*
X2379188Y6124323D01*
X2365123Y6138388D01*
X2346746Y6146000D01*
X2326854D01*
X2308477Y6138388D01*
X2299430Y6129341D01*
X2220910D01*
Y6160450D01*
X2136840D01*
X2134870Y6160842D01*
X2056130D01*
X2054160Y6160450D01*
X1970090D01*
Y6129341D01*
X1766410D01*
X1688300Y6207451D01*
Y6220246D01*
X1680688Y6238623D01*
X1666623Y6252688D01*
X1648246Y6260300D01*
D02*
G37*
G36*
X837400Y5995215D02*
X762000D01*
Y5919814D01*
X837400D01*
Y5995215D01*
D02*
G37*
G36*
X711200D02*
X635800D01*
Y5919814D01*
X711200D01*
Y5995215D01*
D02*
G37*
G36*
X1508546Y5968200D02*
X1488654D01*
X1470277Y5960588D01*
X1456212Y5946523D01*
X1448600Y5928146D01*
Y5908254D01*
X1456212Y5889877D01*
X1470277Y5875812D01*
X1488654Y5868200D01*
X1508546D01*
X1526923Y5875812D01*
X1540988Y5889877D01*
X1548600Y5908254D01*
Y5928146D01*
X1540988Y5946523D01*
X1526923Y5960588D01*
X1508546Y5968200D01*
D02*
G37*
G36*
X837400Y5869014D02*
X762000D01*
Y5793615D01*
X837400D01*
Y5869014D01*
D02*
G37*
G36*
X711200D02*
X635800D01*
Y5793615D01*
X711200D01*
Y5869014D01*
D02*
G37*
G36*
X1351066Y6143460D02*
X1331174D01*
X1312797Y6135848D01*
X1298732Y6121783D01*
X1291120Y6103406D01*
Y6090611D01*
X1208325Y6007815D01*
X1201097Y5996999D01*
X1198559Y5984240D01*
Y5866600D01*
X1196554D01*
X1178177Y5858988D01*
X1164112Y5844923D01*
X1156500Y5826546D01*
Y5806654D01*
X1164112Y5788277D01*
X1178177Y5774212D01*
X1196554Y5766600D01*
X1216446D01*
X1234823Y5774212D01*
X1248888Y5788277D01*
X1256500Y5806654D01*
Y5821901D01*
X1262703Y5831184D01*
X1265241Y5843943D01*
Y5970430D01*
X1338271Y6043460D01*
X1351066D01*
X1369443Y6051072D01*
X1383508Y6065137D01*
X1391120Y6083514D01*
Y6103406D01*
X1383508Y6121783D01*
X1369443Y6135848D01*
X1351066Y6143460D01*
D02*
G37*
G36*
X1559346Y5663400D02*
X1539454D01*
X1521077Y5655788D01*
X1507012Y5641723D01*
X1499400Y5623346D01*
Y5603454D01*
X1507012Y5585077D01*
X1521077Y5571012D01*
X1539454Y5563400D01*
X1559346D01*
X1577723Y5571012D01*
X1591788Y5585077D01*
X1599400Y5603454D01*
Y5623346D01*
X1591788Y5641723D01*
X1577723Y5655788D01*
X1559346Y5663400D01*
D02*
G37*
G36*
X749160Y5739815D02*
X724040D01*
X699777Y5733313D01*
X678023Y5720754D01*
X660261Y5702992D01*
X647702Y5681238D01*
X641200Y5656974D01*
Y5631855D01*
X647702Y5607592D01*
X660261Y5585838D01*
X678023Y5568076D01*
X699777Y5555516D01*
X724040Y5549015D01*
X749160D01*
X773423Y5555516D01*
X795177Y5568076D01*
X812939Y5585838D01*
X825498Y5607592D01*
X832000Y5631855D01*
Y5656974D01*
X825498Y5681238D01*
X812939Y5702992D01*
X795177Y5720754D01*
X773423Y5733313D01*
X749160Y5739815D01*
D02*
G37*
G36*
X2232446Y5638000D02*
X2212554D01*
X2194177Y5630388D01*
X2180112Y5616323D01*
X2172500Y5597946D01*
Y5578054D01*
X2180112Y5559677D01*
X2194177Y5545612D01*
X2212554Y5538000D01*
X2232446D01*
X2250823Y5545612D01*
X2264888Y5559677D01*
X2272500Y5578054D01*
Y5597946D01*
X2264888Y5616323D01*
X2250823Y5630388D01*
X2232446Y5638000D01*
D02*
G37*
G36*
X2991906Y5411940D02*
X2972014D01*
X2953637Y5404328D01*
X2939572Y5390263D01*
X2931960Y5371886D01*
Y5351994D01*
X2939572Y5333617D01*
X2953637Y5319552D01*
X2972014Y5311940D01*
X2991906D01*
X3010283Y5319552D01*
X3024348Y5333617D01*
X3031960Y5351994D01*
Y5371886D01*
X3024348Y5390263D01*
X3010283Y5404328D01*
X2991906Y5411940D01*
D02*
G37*
G36*
X749160Y5489815D02*
X724040D01*
X699777Y5483313D01*
X678023Y5470754D01*
X660261Y5452992D01*
X647702Y5431238D01*
X641200Y5406974D01*
Y5381855D01*
X647702Y5357592D01*
X660261Y5335838D01*
X678023Y5318076D01*
X699777Y5305516D01*
X724040Y5299015D01*
X749160D01*
X773423Y5305516D01*
X795177Y5318076D01*
X812939Y5335838D01*
X825498Y5357592D01*
X832000Y5381855D01*
Y5406974D01*
X825498Y5431238D01*
X812939Y5452992D01*
X795177Y5470754D01*
X773423Y5483313D01*
X749160Y5489815D01*
D02*
G37*
G36*
Y5239815D02*
X724040D01*
X699777Y5233313D01*
X678023Y5220754D01*
X660261Y5202992D01*
X647702Y5181238D01*
X641200Y5156974D01*
Y5131855D01*
X647702Y5107592D01*
X660261Y5085838D01*
X678023Y5068076D01*
X699777Y5055516D01*
X724040Y5049015D01*
X749160D01*
X773423Y5055516D01*
X795177Y5068076D01*
X812939Y5085838D01*
X825498Y5107592D01*
X832000Y5131855D01*
Y5156974D01*
X825498Y5181238D01*
X812939Y5202992D01*
X795177Y5220754D01*
X773423Y5233313D01*
X749160Y5239815D01*
D02*
G37*
G36*
X3171825Y5036783D02*
Y4975400D01*
X3233208D01*
X3230664Y4984893D01*
X3218763Y5005507D01*
X3201932Y5022338D01*
X3181318Y5034239D01*
X3171825Y5036783D01*
D02*
G37*
G36*
X3121025D02*
X3111532Y5034239D01*
X3090918Y5022338D01*
X3074087Y5005507D01*
X3062186Y4984893D01*
X3059642Y4975400D01*
X3121025D01*
Y5036783D01*
D02*
G37*
G36*
X3233208Y4924600D02*
X3171825D01*
Y4863217D01*
X3181318Y4865760D01*
X3201932Y4877662D01*
X3218763Y4894493D01*
X3230664Y4915107D01*
X3233208Y4924600D01*
D02*
G37*
G36*
X3121025D02*
X3059642D01*
X3062186Y4915107D01*
X3074087Y4894493D01*
X3090918Y4877662D01*
X3111532Y4865760D01*
X3121025Y4863217D01*
Y4924600D01*
D02*
G37*
G36*
X3178925Y4836028D02*
X3113925D01*
X3093441Y4831953D01*
X3076075Y4820350D01*
X3064471Y4802984D01*
X3060397Y4782500D01*
Y4717500D01*
X3064471Y4697015D01*
X3076075Y4679650D01*
X3093441Y4668046D01*
X3113925Y4663971D01*
X3178925D01*
X3199409Y4668046D01*
X3216775Y4679650D01*
X3228379Y4697015D01*
X3232453Y4717500D01*
Y4782500D01*
X3228379Y4802984D01*
X3216775Y4820350D01*
X3199409Y4831953D01*
X3178925Y4836028D01*
D02*
G37*
G36*
X2138466Y4794720D02*
X2118574D01*
X2100197Y4787108D01*
X2086132Y4773043D01*
X2078520Y4754666D01*
Y4734774D01*
X2086132Y4716397D01*
X2100197Y4702332D01*
X2114496Y4696409D01*
Y4686787D01*
X2105277Y4682968D01*
X2091212Y4668903D01*
X2083600Y4650526D01*
Y4630634D01*
X2091212Y4612257D01*
X2105277Y4598192D01*
X2123654Y4590580D01*
X2143546D01*
X2161923Y4598192D01*
X2175988Y4612257D01*
X2183600Y4630634D01*
Y4650526D01*
X2175988Y4668903D01*
X2161923Y4682968D01*
X2147624Y4688891D01*
Y4698513D01*
X2156843Y4702332D01*
X2170908Y4716397D01*
X2178520Y4734774D01*
Y4754666D01*
X2170908Y4773043D01*
X2156843Y4787108D01*
X2138466Y4794720D01*
D02*
G37*
G36*
X1508382Y4746700D02*
X1482447D01*
X1457395Y4739987D01*
X1434934Y4727020D01*
X1416595Y4708680D01*
X1403627Y4686219D01*
X1396915Y4661168D01*
Y4635232D01*
X1403627Y4610181D01*
X1416595Y4587720D01*
X1434934Y4569380D01*
X1457395Y4556413D01*
X1482447Y4549700D01*
X1508382D01*
X1533434Y4556413D01*
X1555895Y4569380D01*
X1574234Y4587720D01*
X1587202Y4610181D01*
X1593915Y4635232D01*
Y4661168D01*
X1587202Y4686219D01*
X1574234Y4708680D01*
X1555895Y4727020D01*
X1533434Y4739987D01*
X1508382Y4746700D01*
D02*
G37*
G36*
X1175957D02*
X1150021D01*
X1124970Y4739987D01*
X1102509Y4727020D01*
X1084170Y4708680D01*
X1071202Y4686219D01*
X1064489Y4661168D01*
Y4635232D01*
X1071202Y4610181D01*
X1084170Y4587720D01*
X1102509Y4569380D01*
X1124970Y4556413D01*
X1150021Y4549700D01*
X1175957D01*
X1201009Y4556413D01*
X1223469Y4569380D01*
X1241809Y4587720D01*
X1254776Y4610181D01*
X1261489Y4635232D01*
Y4661168D01*
X1254776Y4686219D01*
X1241809Y4708680D01*
X1223469Y4727020D01*
X1201009Y4739987D01*
X1175957Y4746700D01*
D02*
G37*
G36*
X843531D02*
X817596D01*
X792544Y4739987D01*
X770083Y4727020D01*
X751744Y4708680D01*
X738776Y4686219D01*
X732064Y4661168D01*
Y4635232D01*
X738776Y4610181D01*
X751744Y4587720D01*
X770083Y4569380D01*
X792544Y4556413D01*
X817596Y4549700D01*
X843531D01*
X868583Y4556413D01*
X891044Y4569380D01*
X909383Y4587720D01*
X922351Y4610181D01*
X929063Y4635232D01*
Y4661168D01*
X922351Y4686219D01*
X909383Y4708680D01*
X891044Y4727020D01*
X868583Y4739987D01*
X843531Y4746700D01*
D02*
G37*
G36*
X511106D02*
X485170D01*
X460118Y4739987D01*
X437657Y4727020D01*
X419318Y4708680D01*
X406351Y4686219D01*
X399638Y4661168D01*
Y4635232D01*
X406351Y4610181D01*
X419318Y4587720D01*
X437657Y4569380D01*
X460118Y4556413D01*
X485170Y4549700D01*
X511106D01*
X536157Y4556413D01*
X558618Y4569380D01*
X576957Y4587720D01*
X589925Y4610181D01*
X596638Y4635232D01*
Y4661168D01*
X589925Y4686219D01*
X576957Y4708680D01*
X558618Y4727020D01*
X536157Y4739987D01*
X511106Y4746700D01*
D02*
G37*
G36*
X1508382Y4492700D02*
X1482447D01*
X1457395Y4485987D01*
X1434934Y4473020D01*
X1416595Y4454680D01*
X1403627Y4432219D01*
X1396915Y4407168D01*
Y4381232D01*
X1403627Y4356181D01*
X1416595Y4333720D01*
X1434934Y4315380D01*
X1457395Y4302413D01*
X1482447Y4295700D01*
X1508382D01*
X1533434Y4302413D01*
X1555895Y4315380D01*
X1574234Y4333720D01*
X1587202Y4356181D01*
X1593915Y4381232D01*
Y4407168D01*
X1587202Y4432219D01*
X1574234Y4454680D01*
X1555895Y4473020D01*
X1533434Y4485987D01*
X1508382Y4492700D01*
D02*
G37*
G36*
X1175957D02*
X1150021D01*
X1124970Y4485987D01*
X1102509Y4473020D01*
X1084170Y4454680D01*
X1071202Y4432219D01*
X1064489Y4407168D01*
Y4381232D01*
X1071202Y4356181D01*
X1084170Y4333720D01*
X1102509Y4315380D01*
X1124970Y4302413D01*
X1150021Y4295700D01*
X1175957D01*
X1201009Y4302413D01*
X1223469Y4315380D01*
X1241809Y4333720D01*
X1254776Y4356181D01*
X1261489Y4381232D01*
Y4407168D01*
X1254776Y4432219D01*
X1241809Y4454680D01*
X1223469Y4473020D01*
X1201009Y4485987D01*
X1175957Y4492700D01*
D02*
G37*
G36*
X843531D02*
X817596D01*
X792544Y4485987D01*
X770083Y4473020D01*
X751744Y4454680D01*
X738776Y4432219D01*
X732064Y4407168D01*
Y4381232D01*
X738776Y4356181D01*
X751744Y4333720D01*
X770083Y4315380D01*
X792544Y4302413D01*
X817596Y4295700D01*
X843531D01*
X868583Y4302413D01*
X891044Y4315380D01*
X909383Y4333720D01*
X922351Y4356181D01*
X929063Y4381232D01*
Y4407168D01*
X922351Y4432219D01*
X909383Y4454680D01*
X891044Y4473020D01*
X868583Y4485987D01*
X843531Y4492700D01*
D02*
G37*
G36*
X511106D02*
X485170D01*
X460118Y4485987D01*
X437657Y4473020D01*
X419318Y4454680D01*
X406351Y4432219D01*
X399638Y4407168D01*
Y4381232D01*
X406351Y4356181D01*
X419318Y4333720D01*
X437657Y4315380D01*
X460118Y4302413D01*
X485170Y4295700D01*
X511106D01*
X536157Y4302413D01*
X558618Y4315380D01*
X576957Y4333720D01*
X589925Y4356181D01*
X596638Y4381232D01*
Y4407168D01*
X589925Y4432219D01*
X576957Y4454680D01*
X558618Y4473020D01*
X536157Y4485987D01*
X511106Y4492700D01*
D02*
G37*
G36*
X940345Y7428700D02*
X920454D01*
X902077Y7421088D01*
X888012Y7407023D01*
X880400Y7388646D01*
Y7375848D01*
X840392Y7335841D01*
X762500D01*
X749741Y7333303D01*
X738925Y7326075D01*
X674925Y7262075D01*
X667697Y7251259D01*
X665159Y7238500D01*
Y6201500D01*
X667697Y6188741D01*
X674925Y6177925D01*
X855659Y5997190D01*
Y5286000D01*
X858197Y5273241D01*
X865425Y5262425D01*
X1101425Y5026425D01*
X1112241Y5019197D01*
X1125000Y5016660D01*
X1273490D01*
X1448600Y4841549D01*
Y4828754D01*
X1456212Y4810377D01*
X1470277Y4796312D01*
X1488654Y4788700D01*
X1508546D01*
X1526923Y4796312D01*
X1540988Y4810377D01*
X1548600Y4828754D01*
Y4848646D01*
X1540988Y4867023D01*
X1526923Y4881088D01*
X1508546Y4888700D01*
X1495751D01*
X1310875Y5073575D01*
X1300059Y5080803D01*
X1287300Y5083341D01*
X1138810D01*
X922341Y5299810D01*
Y6011000D01*
X919803Y6023759D01*
X912575Y6034575D01*
X731841Y6215310D01*
Y7224690D01*
X776310Y7269159D01*
X854202D01*
X866961Y7271697D01*
X875552Y7277438D01*
X882748Y7271581D01*
X880000Y7264946D01*
Y7245054D01*
X887612Y7226677D01*
X901677Y7212612D01*
X920054Y7205000D01*
X939946D01*
X958323Y7212612D01*
X967370Y7221659D01*
X998890D01*
X1559166Y6661383D01*
X1569983Y6654156D01*
X1582742Y6651618D01*
X2381731D01*
X3357559Y5675790D01*
Y4304570D01*
X3348512Y4295523D01*
X3340900Y4277146D01*
Y4257254D01*
X3348512Y4238877D01*
X3362577Y4224812D01*
X3380954Y4217200D01*
X3400846D01*
X3419223Y4224812D01*
X3433288Y4238877D01*
X3440900Y4257254D01*
Y4277146D01*
X3433288Y4295523D01*
X3424241Y4304570D01*
Y5689600D01*
X3421703Y5702359D01*
X3414475Y5713175D01*
X2419117Y6708534D01*
X2408300Y6715761D01*
X2395541Y6718299D01*
X1596552D01*
X1036275Y7278575D01*
X1025459Y7285803D01*
X1012700Y7288341D01*
X967370D01*
X958323Y7297388D01*
X939946Y7305000D01*
X920054D01*
X913858Y7302433D01*
X908823Y7309970D01*
X927553Y7328700D01*
X940345D01*
X958722Y7336312D01*
X972788Y7350377D01*
X980400Y7368754D01*
Y7388646D01*
X972788Y7407023D01*
X958722Y7421088D01*
X940345Y7428700D01*
D02*
G37*
G36*
Y7174700D02*
X920454D01*
X902077Y7167088D01*
X888012Y7153023D01*
X880400Y7134646D01*
Y7114754D01*
X888012Y7096377D01*
X902077Y7082312D01*
X920454Y7074700D01*
X940345D01*
X949652Y7078555D01*
X955205Y7074844D01*
X1500425Y6529625D01*
X1511241Y6522397D01*
X1524000Y6519859D01*
X2310290D01*
X2836859Y5993290D01*
Y4686300D01*
X2839397Y4673541D01*
X2846625Y4662725D01*
X3014659Y4494690D01*
Y4304570D01*
X3005612Y4295523D01*
X2998000Y4277146D01*
Y4257254D01*
X3005612Y4238877D01*
X3019677Y4224812D01*
X3038054Y4217200D01*
X3057946D01*
X3076323Y4224812D01*
X3090388Y4238877D01*
X3098000Y4257254D01*
Y4277146D01*
X3090388Y4295523D01*
X3081341Y4304570D01*
Y4508500D01*
X3078803Y4521259D01*
X3071575Y4532076D01*
X2903541Y4700110D01*
Y6007100D01*
X2901003Y6019859D01*
X2893775Y6030675D01*
X2347675Y6576775D01*
X2336859Y6584003D01*
X2324100Y6586541D01*
X1537810D01*
X998502Y7125849D01*
X992734Y7129703D01*
X975173Y7147264D01*
X972788Y7153023D01*
X958722Y7167088D01*
X940345Y7174700D01*
D02*
G37*
G36*
X1599315Y4244100D02*
X1520815D01*
Y4165600D01*
X1599315D01*
Y4244100D01*
D02*
G37*
G36*
X1266889D02*
X1188389D01*
Y4165600D01*
X1266889D01*
Y4244100D01*
D02*
G37*
G36*
X934463D02*
X855963D01*
Y4165600D01*
X934463D01*
Y4244100D01*
D02*
G37*
G36*
X602038D02*
X523538D01*
Y4165600D01*
X602038D01*
Y4244100D01*
D02*
G37*
G36*
X1470015D02*
X1391515D01*
Y4165600D01*
X1470015D01*
Y4244100D01*
D02*
G37*
G36*
X1137589D02*
X1059089D01*
Y4165600D01*
X1137589D01*
Y4244100D01*
D02*
G37*
G36*
X805163D02*
X726664D01*
Y4165600D01*
X805163D01*
Y4244100D01*
D02*
G37*
G36*
X472738D02*
X394238D01*
Y4165600D01*
X472738D01*
Y4244100D01*
D02*
G37*
G36*
X1599315Y4114800D02*
X1520815D01*
Y4036300D01*
X1599315D01*
Y4114800D01*
D02*
G37*
G36*
X1470015D02*
X1391515D01*
Y4036300D01*
X1470015D01*
Y4114800D01*
D02*
G37*
G36*
X1266889D02*
X1188389D01*
Y4036300D01*
X1266889D01*
Y4114800D01*
D02*
G37*
G36*
X1137589D02*
X1059089D01*
Y4036300D01*
X1137589D01*
Y4114800D01*
D02*
G37*
G36*
X934463D02*
X855963D01*
Y4036300D01*
X934463D01*
Y4114800D01*
D02*
G37*
G36*
X805163D02*
X726664D01*
Y4036300D01*
X805163D01*
Y4114800D01*
D02*
G37*
G36*
X602038D02*
X523538D01*
Y4036300D01*
X602038D01*
Y4114800D01*
D02*
G37*
G36*
X472738D02*
X394238D01*
Y4036300D01*
X472738D01*
Y4114800D01*
D02*
G37*
G36*
X3397844Y4149800D02*
X3371909D01*
X3346857Y4143087D01*
X3324396Y4130120D01*
X3306057Y4111780D01*
X3293089Y4089319D01*
X3286377Y4064268D01*
Y4038332D01*
X3293089Y4013281D01*
X3306057Y3990820D01*
X3324396Y3972480D01*
X3346857Y3959513D01*
X3371909Y3952800D01*
X3397844D01*
X3422896Y3959513D01*
X3445357Y3972480D01*
X3463696Y3990820D01*
X3476664Y4013281D01*
X3483377Y4038332D01*
Y4064268D01*
X3476664Y4089319D01*
X3463696Y4111780D01*
X3445357Y4130120D01*
X3422896Y4143087D01*
X3397844Y4149800D01*
D02*
G37*
G36*
X3065419D02*
X3039483D01*
X3014432Y4143087D01*
X2991971Y4130120D01*
X2973632Y4111780D01*
X2960664Y4089319D01*
X2953951Y4064268D01*
Y4038332D01*
X2960664Y4013281D01*
X2973632Y3990820D01*
X2991971Y3972480D01*
X3014432Y3959513D01*
X3039483Y3952800D01*
X3065419D01*
X3090471Y3959513D01*
X3112932Y3972480D01*
X3131271Y3990820D01*
X3144238Y4013281D01*
X3150951Y4038332D01*
Y4064268D01*
X3144238Y4089319D01*
X3131271Y4111780D01*
X3112932Y4130120D01*
X3090471Y4143087D01*
X3065419Y4149800D01*
D02*
G37*
G36*
X2732993D02*
X2707058D01*
X2682006Y4143087D01*
X2659545Y4130120D01*
X2641206Y4111780D01*
X2628238Y4089319D01*
X2621526Y4064268D01*
Y4038332D01*
X2628238Y4013281D01*
X2641206Y3990820D01*
X2659545Y3972480D01*
X2682006Y3959513D01*
X2707058Y3952800D01*
X2732993D01*
X2758045Y3959513D01*
X2780506Y3972480D01*
X2798845Y3990820D01*
X2811813Y4013281D01*
X2818525Y4038332D01*
Y4064268D01*
X2811813Y4089319D01*
X2798845Y4111780D01*
X2780506Y4130120D01*
X2758045Y4143087D01*
X2732993Y4149800D01*
D02*
G37*
G36*
X2400568D02*
X2374632D01*
X2349581Y4143087D01*
X2327120Y4130120D01*
X2308780Y4111780D01*
X2295813Y4089319D01*
X2289100Y4064268D01*
Y4038332D01*
X2295813Y4013281D01*
X2308780Y3990820D01*
X2327120Y3972480D01*
X2349581Y3959513D01*
X2374632Y3952800D01*
X2400568D01*
X2425619Y3959513D01*
X2448080Y3972480D01*
X2466420Y3990820D01*
X2479387Y4013281D01*
X2486100Y4038332D01*
Y4064268D01*
X2479387Y4089319D01*
X2466420Y4111780D01*
X2448080Y4130120D01*
X2425619Y4143087D01*
X2400568Y4149800D01*
D02*
G37*
G36*
X3397844Y3895800D02*
X3371909D01*
X3346857Y3889087D01*
X3324396Y3876120D01*
X3306057Y3857780D01*
X3293089Y3835319D01*
X3286377Y3810268D01*
Y3784332D01*
X3293089Y3759281D01*
X3306057Y3736820D01*
X3324396Y3718480D01*
X3346857Y3705513D01*
X3371909Y3698800D01*
X3397844D01*
X3422896Y3705513D01*
X3445357Y3718480D01*
X3463696Y3736820D01*
X3476664Y3759281D01*
X3483377Y3784332D01*
Y3810268D01*
X3476664Y3835319D01*
X3463696Y3857780D01*
X3445357Y3876120D01*
X3422896Y3889087D01*
X3397844Y3895800D01*
D02*
G37*
G36*
X3065419D02*
X3039483D01*
X3014432Y3889087D01*
X2991971Y3876120D01*
X2973632Y3857780D01*
X2960664Y3835319D01*
X2953951Y3810268D01*
Y3784332D01*
X2960664Y3759281D01*
X2973632Y3736820D01*
X2991971Y3718480D01*
X3014432Y3705513D01*
X3039483Y3698800D01*
X3065419D01*
X3090471Y3705513D01*
X3112932Y3718480D01*
X3131271Y3736820D01*
X3144238Y3759281D01*
X3150951Y3784332D01*
Y3810268D01*
X3144238Y3835319D01*
X3131271Y3857780D01*
X3112932Y3876120D01*
X3090471Y3889087D01*
X3065419Y3895800D01*
D02*
G37*
G36*
X2732993D02*
X2707058D01*
X2682006Y3889087D01*
X2659545Y3876120D01*
X2641206Y3857780D01*
X2628238Y3835319D01*
X2621526Y3810268D01*
Y3784332D01*
X2628238Y3759281D01*
X2641206Y3736820D01*
X2659545Y3718480D01*
X2682006Y3705513D01*
X2707058Y3698800D01*
X2732993D01*
X2758045Y3705513D01*
X2780506Y3718480D01*
X2798845Y3736820D01*
X2811813Y3759281D01*
X2818525Y3784332D01*
Y3810268D01*
X2811813Y3835319D01*
X2798845Y3857780D01*
X2780506Y3876120D01*
X2758045Y3889087D01*
X2732993Y3895800D01*
D02*
G37*
G36*
X2400568D02*
X2374632D01*
X2349581Y3889087D01*
X2327120Y3876120D01*
X2308780Y3857780D01*
X2295813Y3835319D01*
X2289100Y3810268D01*
Y3784332D01*
X2295813Y3759281D01*
X2308780Y3736820D01*
X2327120Y3718480D01*
X2349581Y3705513D01*
X2374632Y3698800D01*
X2400568D01*
X2425619Y3705513D01*
X2448080Y3718480D01*
X2466420Y3736820D01*
X2479387Y3759281D01*
X2486100Y3784332D01*
Y3810268D01*
X2479387Y3835319D01*
X2466420Y3857780D01*
X2448080Y3876120D01*
X2425619Y3889087D01*
X2400568Y3895800D01*
D02*
G37*
G36*
X3488777Y3647200D02*
X3410277D01*
Y3568700D01*
X3488777D01*
Y3647200D01*
D02*
G37*
G36*
X3156351D02*
X3077851D01*
Y3568700D01*
X3156351D01*
Y3647200D01*
D02*
G37*
G36*
X2823926D02*
X2745426D01*
Y3568700D01*
X2823926D01*
Y3647200D01*
D02*
G37*
G36*
X2491500D02*
X2413000D01*
Y3568700D01*
X2491500D01*
Y3647200D01*
D02*
G37*
G36*
X3359477D02*
X3280977D01*
Y3568700D01*
X3359477D01*
Y3647200D01*
D02*
G37*
G36*
X3027051D02*
X2948551D01*
Y3568700D01*
X3027051D01*
Y3647200D01*
D02*
G37*
G36*
X2694626D02*
X2616126D01*
Y3568700D01*
X2694626D01*
Y3647200D01*
D02*
G37*
G36*
X2362200D02*
X2283700D01*
Y3568700D01*
X2362200D01*
Y3647200D01*
D02*
G37*
G36*
X876300Y3557589D02*
Y3492500D01*
X941389D01*
X938475Y3503375D01*
X926103Y3524805D01*
X908605Y3542303D01*
X887175Y3554675D01*
X876300Y3557589D01*
D02*
G37*
G36*
X825500D02*
X814625Y3554675D01*
X793195Y3542303D01*
X775697Y3524805D01*
X763325Y3503375D01*
X760411Y3492500D01*
X825500D01*
Y3557589D01*
D02*
G37*
G36*
X3488777Y3517900D02*
X3410277D01*
Y3439400D01*
X3488777D01*
Y3517900D01*
D02*
G37*
G36*
X3359477D02*
X3280977D01*
Y3439400D01*
X3359477D01*
Y3517900D01*
D02*
G37*
G36*
X3156351D02*
X3077851D01*
Y3439400D01*
X3156351D01*
Y3517900D01*
D02*
G37*
G36*
X3027051D02*
X2948551D01*
Y3439400D01*
X3027051D01*
Y3517900D01*
D02*
G37*
G36*
X2823926D02*
X2745426D01*
Y3439400D01*
X2823926D01*
Y3517900D01*
D02*
G37*
G36*
X2694626D02*
X2616126D01*
Y3439400D01*
X2694626D01*
Y3517900D01*
D02*
G37*
G36*
X2491500D02*
X2413000D01*
Y3439400D01*
X2491500D01*
Y3517900D01*
D02*
G37*
G36*
X2362200D02*
X2283700D01*
Y3439400D01*
X2362200D01*
Y3517900D01*
D02*
G37*
G36*
X941389Y3441700D02*
X876300D01*
Y3376611D01*
X887175Y3379525D01*
X908605Y3391897D01*
X926103Y3409395D01*
X938475Y3430825D01*
X941389Y3441700D01*
D02*
G37*
G36*
X825500D02*
X760411D01*
X763325Y3430825D01*
X775697Y3409395D01*
X793195Y3391897D01*
X814625Y3379525D01*
X825500Y3376611D01*
Y3441700D01*
D02*
G37*
G36*
X987846Y3275800D02*
X967954D01*
X949577Y3268188D01*
X935512Y3254123D01*
X927900Y3235746D01*
Y3215854D01*
X935512Y3197477D01*
X949577Y3183412D01*
X967954Y3175800D01*
X987846D01*
X1006223Y3183412D01*
X1020288Y3197477D01*
X1027900Y3215854D01*
Y3235746D01*
X1020288Y3254123D01*
X1006223Y3268188D01*
X987846Y3275800D01*
D02*
G37*
G36*
X733846D02*
X713954D01*
X695577Y3268188D01*
X681512Y3254123D01*
X673900Y3235746D01*
Y3215854D01*
X681512Y3197477D01*
X695577Y3183412D01*
X713954Y3175800D01*
X733846D01*
X752223Y3183412D01*
X766288Y3197477D01*
X773900Y3215854D01*
Y3235746D01*
X766288Y3254123D01*
X752223Y3268188D01*
X733846Y3275800D01*
D02*
G37*
G36*
X862562Y3205680D02*
X839238D01*
X816709Y3199643D01*
X796511Y3187981D01*
X780019Y3171489D01*
X768357Y3151291D01*
X762320Y3128762D01*
Y3105438D01*
X768357Y3082909D01*
X780019Y3062711D01*
X796511Y3046218D01*
X816709Y3034557D01*
X839238Y3028520D01*
X862562D01*
X885091Y3034557D01*
X905289Y3046218D01*
X921781Y3062711D01*
X933443Y3082909D01*
X939480Y3105438D01*
Y3128762D01*
X933443Y3151291D01*
X921781Y3171489D01*
X905289Y3187981D01*
X885091Y3199643D01*
X862562Y3205680D01*
D02*
G37*
G36*
X987846Y3047200D02*
X967954D01*
X949577Y3039588D01*
X935512Y3025523D01*
X927900Y3007146D01*
Y2987254D01*
X935512Y2968877D01*
X949577Y2954812D01*
X967954Y2947200D01*
X987846D01*
X1006223Y2954812D01*
X1020288Y2968877D01*
X1027900Y2987254D01*
Y3007146D01*
X1020288Y3025523D01*
X1006223Y3039588D01*
X987846Y3047200D01*
D02*
G37*
G36*
X733846D02*
X713954D01*
X695577Y3039588D01*
X681512Y3025523D01*
X673900Y3007146D01*
Y2987254D01*
X681512Y2968877D01*
X695577Y2954812D01*
X713954Y2947200D01*
X733846D01*
X752223Y2954812D01*
X766288Y2968877D01*
X773900Y2987254D01*
Y3007146D01*
X766288Y3025523D01*
X752223Y3039588D01*
X733846Y3047200D01*
D02*
G37*
G36*
X3362746Y2742400D02*
X3342854D01*
X3324477Y2734788D01*
X3310412Y2720723D01*
X3302800Y2702346D01*
Y2682454D01*
X3310412Y2664077D01*
X3324477Y2650012D01*
X3342854Y2642400D01*
X3362746D01*
X3381123Y2650012D01*
X3395188Y2664077D01*
X3402800Y2682454D01*
Y2702346D01*
X3395188Y2720723D01*
X3381123Y2734788D01*
X3362746Y2742400D01*
D02*
G37*
G36*
X3210346D02*
X3190454D01*
X3172077Y2734788D01*
X3158012Y2720723D01*
X3150400Y2702346D01*
Y2682454D01*
X3158012Y2664077D01*
X3172077Y2650012D01*
X3190454Y2642400D01*
X3210346D01*
X3228723Y2650012D01*
X3242788Y2664077D01*
X3250400Y2682454D01*
Y2702346D01*
X3242788Y2720723D01*
X3228723Y2734788D01*
X3210346Y2742400D01*
D02*
G37*
G36*
X3362746Y2577300D02*
X3342854D01*
X3324477Y2569688D01*
X3310412Y2555623D01*
X3302800Y2537246D01*
Y2517354D01*
X3310412Y2498977D01*
X3324477Y2484912D01*
X3342854Y2477300D01*
X3362746D01*
X3381123Y2484912D01*
X3395188Y2498977D01*
X3402800Y2517354D01*
Y2537246D01*
X3395188Y2555623D01*
X3381123Y2569688D01*
X3362746Y2577300D01*
D02*
G37*
G36*
X2006600Y2967011D02*
X1988117Y2964578D01*
X1970895Y2957444D01*
X1956105Y2946095D01*
X1944756Y2931305D01*
X1937622Y2914083D01*
X1935189Y2895600D01*
X1937622Y2877117D01*
X1944756Y2859895D01*
X1956105Y2845105D01*
X2188658Y2612552D01*
X2188659Y2612551D01*
X2203449Y2601202D01*
X2220672Y2594068D01*
X2239154Y2591635D01*
X2239156Y2591635D01*
X2940322D01*
X2945578Y2592327D01*
X3108576Y2429329D01*
X3104196Y2421136D01*
X3102076Y2421558D01*
X2852076D01*
X2844273Y2420005D01*
X2837657Y2415585D01*
X2833237Y2408969D01*
X2831684Y2401166D01*
Y1741165D01*
X2833237Y1733362D01*
X2837657Y1726746D01*
X2844273Y1722326D01*
X2852076Y1720774D01*
X3102076D01*
X3109880Y1722326D01*
X3116496Y1726746D01*
X3120916Y1733362D01*
X3122468Y1741165D01*
Y2401166D01*
X3122047Y2403286D01*
X3130240Y2407665D01*
X3154111Y2383794D01*
Y971674D01*
X2571626Y389189D01*
X2551772D01*
X2548755Y398079D01*
X2555545Y403290D01*
X2566829Y417996D01*
X2573923Y435122D01*
X2576343Y453500D01*
Y503100D01*
X2505335D01*
Y528500D01*
X2479935D01*
Y669180D01*
X2469831Y664994D01*
X2455125Y653710D01*
X2443841Y639004D01*
X2436747Y621879D01*
X2428240Y623561D01*
Y614982D01*
X2426243Y610159D01*
X2434899Y607840D01*
X2434328Y603500D01*
Y511539D01*
X2425438Y509771D01*
X2419420Y524298D01*
X2403133Y540585D01*
X2395735Y543649D01*
Y491500D01*
Y439350D01*
X2403133Y442415D01*
X2419420Y458702D01*
X2425438Y473229D01*
X2434328Y471460D01*
Y453500D01*
X2436747Y435122D01*
X2443841Y417996D01*
X2455125Y403290D01*
X2461916Y398079D01*
X2458898Y389189D01*
X2353727D01*
X2348271Y390152D01*
X2343745Y391661D01*
X2340418Y393452D01*
X2337926Y395492D01*
X2335888Y397983D01*
X2334096Y401310D01*
X2332587Y405836D01*
X2331624Y411292D01*
Y436712D01*
X2340515Y441181D01*
X2344935Y439350D01*
Y491500D01*
Y543649D01*
X2340515Y541818D01*
X2331624Y546288D01*
Y571712D01*
X2340515Y576181D01*
X2344935Y574350D01*
Y626500D01*
Y678649D01*
X2337537Y675585D01*
X2324017Y662064D01*
X2315074Y671007D01*
X2295778Y679000D01*
X2274892D01*
X2255596Y671007D01*
X2242835Y658246D01*
X2230074Y671007D01*
X2210778Y679000D01*
X2189892D01*
X2170596Y671007D01*
X2164042Y664453D01*
X2155152Y668136D01*
Y676845D01*
X2194756Y716449D01*
X2197314Y718623D01*
X2201658Y721881D01*
X2205840Y724599D01*
X2209856Y726808D01*
X2213702Y728539D01*
X2217375Y729825D01*
X2220903Y730706D01*
X2224325Y731220D01*
X2228705Y731439D01*
X2228951Y731501D01*
X2366500D01*
Y868501D01*
X2153500D01*
Y806951D01*
X2153438Y806706D01*
X2153219Y802326D01*
X2152706Y798904D01*
X2151824Y795376D01*
X2150538Y791703D01*
X2148808Y787857D01*
X2146600Y783843D01*
X2143880Y779658D01*
X2140623Y775314D01*
X2138440Y772746D01*
X2119713Y754020D01*
X2111500Y757422D01*
Y870500D01*
X1898500D01*
Y749866D01*
X1890287Y746464D01*
X1851572Y785179D01*
X1850429Y786523D01*
X1848521Y789067D01*
X1846968Y791457D01*
X1845747Y793676D01*
X1844825Y795726D01*
X1844168Y797604D01*
X1843735Y799335D01*
X1843491Y800960D01*
X1843362Y803544D01*
X1843300Y803789D01*
Y866600D01*
X1724300D01*
Y733600D01*
X1798466D01*
X1798697Y733541D01*
X1798727Y733546D01*
X1798756Y733538D01*
X1801341Y733409D01*
X1802965Y733165D01*
X1804696Y732733D01*
X1806574Y732075D01*
X1808624Y731153D01*
X1810842Y729933D01*
X1813233Y728379D01*
X1815777Y726471D01*
X1817121Y725328D01*
X1855236Y687213D01*
X1851834Y679000D01*
X1849892D01*
X1830596Y671007D01*
X1821653Y662064D01*
X1808133Y675585D01*
X1800735Y678649D01*
Y626500D01*
Y574350D01*
X1805155Y576181D01*
X1814046Y571712D01*
Y546288D01*
X1805155Y541818D01*
X1800735Y543649D01*
Y491500D01*
Y438072D01*
X1806946Y433922D01*
Y280366D01*
X1806945Y280365D01*
X1810469Y262651D01*
X1820503Y247633D01*
X1897668Y170469D01*
X1897669Y170468D01*
X1912686Y160434D01*
X1930400Y156910D01*
X1930402Y156911D01*
X2209799D01*
X2209800Y156910D01*
X2227514Y160434D01*
X2242532Y170468D01*
X2318066Y246003D01*
X2318067Y246003D01*
X2328101Y261021D01*
X2331625Y278735D01*
X2331624Y278736D01*
Y283728D01*
X2332210Y286258D01*
X2333164Y288442D01*
X2334311Y290068D01*
X2335904Y291554D01*
X2338364Y293089D01*
X2342048Y294603D01*
X2347133Y295897D01*
X2352434Y296611D01*
X2461244D01*
X2464262Y287721D01*
X2455125Y280710D01*
X2443841Y266004D01*
X2436747Y248878D01*
X2434328Y230500D01*
Y215900D01*
X2505335D01*
X2576343D01*
Y230500D01*
X2573923Y248878D01*
X2566829Y266004D01*
X2555545Y280710D01*
X2546408Y287721D01*
X2549426Y296611D01*
X2590799D01*
X2590800Y296610D01*
X2608514Y300134D01*
X2623532Y310168D01*
X3233131Y919768D01*
X3233132Y919768D01*
X3243166Y934786D01*
X3246690Y952500D01*
X3246689Y952501D01*
Y2402967D01*
X3246690Y2402968D01*
X3243166Y2420682D01*
X3233132Y2435700D01*
X3233131Y2435700D01*
X3199744Y2469087D01*
X3203147Y2477300D01*
X3210346D01*
X3228723Y2484912D01*
X3242788Y2498977D01*
X3250400Y2517354D01*
Y2537246D01*
X3242788Y2555623D01*
X3228723Y2569688D01*
X3210346Y2577300D01*
X3190454D01*
X3172077Y2569688D01*
X3158012Y2555623D01*
X3150400Y2537246D01*
Y2530047D01*
X3142187Y2526645D01*
X3011041Y2657790D01*
X3011733Y2663046D01*
X3009300Y2681528D01*
X3002166Y2698751D01*
X2990817Y2713541D01*
X2976028Y2724889D01*
X2958805Y2732023D01*
X2940322Y2734457D01*
X2268734D01*
X2057095Y2946095D01*
X2042305Y2957444D01*
X2025083Y2964578D01*
X2006600Y2967011D01*
D02*
G37*
G36*
X752069Y2520126D02*
X721131D01*
X691247Y2512118D01*
X664453Y2496649D01*
X642577Y2474772D01*
X627107Y2447979D01*
X619100Y2418095D01*
Y2387157D01*
X627107Y2357272D01*
X642577Y2330479D01*
X664453Y2308602D01*
X691247Y2293133D01*
X721131Y2285126D01*
X752069D01*
X781953Y2293133D01*
X808747Y2308602D01*
X830623Y2330479D01*
X846093Y2357272D01*
X854100Y2387157D01*
Y2418095D01*
X846093Y2447979D01*
X830623Y2474772D01*
X808747Y2496649D01*
X781953Y2512118D01*
X752069Y2520126D01*
D02*
G37*
G36*
X2033286Y1932135D02*
X2015225D01*
X1998539Y1925224D01*
X1990693Y1917378D01*
X1984886Y1913102D01*
X1979078Y1917378D01*
X1971233Y1925224D01*
X1954546Y1932135D01*
X1936485D01*
X1919799Y1925224D01*
X1907027Y1912452D01*
X1900116Y1895766D01*
Y1877705D01*
X1907027Y1861018D01*
X1914872Y1853173D01*
X1919149Y1847365D01*
X1914872Y1841558D01*
X1907027Y1833712D01*
X1900116Y1817026D01*
Y1798965D01*
X1907027Y1782278D01*
X1919799Y1769507D01*
X1936485Y1762595D01*
X1954546D01*
X1971233Y1769507D01*
X1979078Y1777352D01*
X1984886Y1781629D01*
X1990693Y1777352D01*
X1998539Y1769507D01*
X2015225Y1762595D01*
X2033286D01*
X2049973Y1769507D01*
X2062744Y1782278D01*
X2069656Y1798965D01*
Y1817026D01*
X2062744Y1833712D01*
X2054899Y1841558D01*
X2050622Y1847365D01*
X2054899Y1853173D01*
X2062744Y1861018D01*
X2069656Y1877705D01*
Y1895766D01*
X2062744Y1912452D01*
X2049973Y1925224D01*
X2033286Y1932135D01*
D02*
G37*
G36*
X854100Y2012126D02*
X619100D01*
Y1777126D01*
X854100D01*
Y2012126D01*
D02*
G37*
G36*
X802297Y1435100D02*
X772503D01*
X743282Y1429287D01*
X715756Y1417886D01*
X690984Y1401333D01*
X669917Y1380266D01*
X653364Y1355494D01*
X641963Y1327968D01*
X636150Y1298747D01*
Y1268953D01*
X641963Y1239732D01*
X653364Y1212206D01*
X669917Y1187434D01*
X690984Y1166367D01*
X715756Y1149814D01*
X743282Y1138413D01*
X772503Y1132600D01*
X802297D01*
X831518Y1138413D01*
X859044Y1149814D01*
X883816Y1166367D01*
X904883Y1187434D01*
X921436Y1212206D01*
X932837Y1239732D01*
X938650Y1268953D01*
Y1298747D01*
X932837Y1327968D01*
X921436Y1355494D01*
X904883Y1380266D01*
X883816Y1401333D01*
X859044Y1417886D01*
X831518Y1429287D01*
X802297Y1435100D01*
D02*
G37*
G36*
X1508546Y1002500D02*
X1488654D01*
X1470277Y994888D01*
X1456212Y980823D01*
X1448600Y962446D01*
Y942554D01*
X1456212Y924177D01*
X1470277Y910112D01*
X1488654Y902500D01*
X1508546D01*
X1526923Y910112D01*
X1540988Y924177D01*
X1548600Y942554D01*
Y962446D01*
X1540988Y980823D01*
X1526923Y994888D01*
X1508546Y1002500D01*
D02*
G37*
G36*
X802297Y1039100D02*
X772503D01*
X743282Y1033287D01*
X715756Y1021886D01*
X690984Y1005334D01*
X669917Y984266D01*
X653364Y959494D01*
X641963Y931968D01*
X636150Y902747D01*
Y872953D01*
X641963Y843732D01*
X653364Y816206D01*
X669917Y791434D01*
X690984Y770367D01*
X715756Y753814D01*
X743282Y742413D01*
X772503Y736600D01*
X802297D01*
X831518Y742413D01*
X859044Y753814D01*
X883816Y770367D01*
X904883Y791434D01*
X921436Y816206D01*
X932837Y843732D01*
X938650Y872953D01*
Y902747D01*
X932837Y931968D01*
X921436Y959494D01*
X904883Y984266D01*
X883816Y1005334D01*
X859044Y1021886D01*
X831518Y1033287D01*
X802297Y1039100D01*
D02*
G37*
G36*
X2395735Y678649D02*
Y651900D01*
X2422485D01*
X2419420Y659298D01*
X2403133Y675585D01*
X2395735Y678649D01*
D02*
G37*
G36*
X1749935D02*
X1742537Y675585D01*
X1726250Y659298D01*
X1723186Y651900D01*
X1749935D01*
Y678649D01*
D02*
G37*
G36*
X2422485Y601100D02*
X2395735D01*
Y574350D01*
X2403133Y577415D01*
X2419420Y593702D01*
X2422485Y601100D01*
D02*
G37*
G36*
X1749935D02*
X1723186D01*
X1726250Y593702D01*
X1742537Y577415D01*
X1749935Y574350D01*
Y601100D01*
D02*
G37*
G36*
X2530735Y669180D02*
Y553900D01*
X2576343D01*
Y603500D01*
X2573923Y621878D01*
X2566829Y639004D01*
X2555545Y653710D01*
X2540839Y664994D01*
X2530735Y669180D01*
D02*
G37*
G36*
X1614935D02*
X1604831Y664994D01*
X1590125Y653710D01*
X1578841Y639004D01*
X1571747Y621878D01*
X1569328Y603500D01*
Y553900D01*
X1614935D01*
Y669180D01*
D02*
G37*
G36*
X1665735D02*
Y528500D01*
Y387821D01*
X1675839Y392006D01*
X1690545Y403290D01*
X1701829Y417996D01*
X1708923Y435122D01*
X1711343Y453500D01*
Y471460D01*
X1720233Y473229D01*
X1726250Y458702D01*
X1742537Y442415D01*
X1749935Y439350D01*
Y491500D01*
Y543649D01*
X1742537Y540585D01*
X1726250Y524298D01*
X1720233Y509771D01*
X1711343Y511539D01*
Y603500D01*
X1710771Y607840D01*
X1719427Y610159D01*
X1717430Y614982D01*
Y623561D01*
X1708923Y621879D01*
X1701829Y639004D01*
X1690545Y653710D01*
X1675839Y664994D01*
X1665735Y669180D01*
D02*
G37*
G36*
X1614935Y503100D02*
X1569328D01*
Y453500D01*
X1571747Y435122D01*
X1578841Y417996D01*
X1590125Y403290D01*
X1604831Y392006D01*
X1614935Y387821D01*
Y503100D01*
D02*
G37*
G36*
X1109600Y521737D02*
Y381000D01*
X1250337D01*
X1245647Y404575D01*
X1232991Y435130D01*
X1214616Y462630D01*
X1191230Y486016D01*
X1163730Y504391D01*
X1133175Y517047D01*
X1109600Y521737D01*
D02*
G37*
G36*
X1058800D02*
X1035226Y517047D01*
X1004670Y504391D01*
X977170Y486016D01*
X953784Y462630D01*
X935409Y435130D01*
X922753Y404575D01*
X918063Y381000D01*
X1058800D01*
Y521737D01*
D02*
G37*
G36*
X1665735Y296179D02*
Y215900D01*
X1711343D01*
Y230500D01*
X1708923Y248878D01*
X1701829Y266004D01*
X1690545Y280710D01*
X1675839Y291994D01*
X1665735Y296179D01*
D02*
G37*
G36*
X1614935D02*
X1604831Y291994D01*
X1590125Y280710D01*
X1578841Y266004D01*
X1571747Y248878D01*
X1569328Y230500D01*
Y215900D01*
X1614935D01*
Y296179D01*
D02*
G37*
G36*
X746700Y518100D02*
X421700D01*
Y193100D01*
X746700D01*
Y518100D01*
D02*
G37*
G36*
X1250337Y330200D02*
X1109600D01*
Y189463D01*
X1133175Y194153D01*
X1163730Y206809D01*
X1191230Y225184D01*
X1214616Y248570D01*
X1232991Y276070D01*
X1245647Y306625D01*
X1250337Y330200D01*
D02*
G37*
G36*
X1058800D02*
X918063D01*
X922753Y306625D01*
X935409Y276070D01*
X953784Y248570D01*
X977170Y225184D01*
X1004670Y206809D01*
X1035226Y194153D01*
X1058800Y189463D01*
Y330200D01*
D02*
G37*
G36*
X2576343Y165100D02*
X2530735D01*
Y84821D01*
X2540839Y89006D01*
X2555545Y100290D01*
X2566829Y114996D01*
X2573923Y132122D01*
X2576343Y150500D01*
Y165100D01*
D02*
G37*
G36*
X1711343D02*
X1665735D01*
Y84821D01*
X1675839Y89006D01*
X1690545Y100290D01*
X1701829Y114996D01*
X1708923Y132122D01*
X1711343Y150500D01*
Y165100D01*
D02*
G37*
G36*
X2479935D02*
X2434328D01*
Y150500D01*
X2436747Y132122D01*
X2443841Y114996D01*
X2455125Y100290D01*
X2469831Y89006D01*
X2479935Y84821D01*
Y165100D01*
D02*
G37*
G36*
X1614935D02*
X1569328D01*
Y150500D01*
X1571747Y132122D01*
X1578841Y114996D01*
X1590125Y100290D01*
X1604831Y89006D01*
X1614935Y84821D01*
Y165100D01*
D02*
G37*
G36*
X3630191Y464999D02*
X3589810D01*
X3550204Y457121D01*
X3512896Y441668D01*
X3479321Y419233D01*
X3450767Y390679D01*
X3428332Y357103D01*
X3412879Y319796D01*
X3405001Y280190D01*
Y239809D01*
X3412879Y200203D01*
X3428332Y162896D01*
X3450767Y129320D01*
X3479321Y100766D01*
X3512896Y78331D01*
X3550204Y62878D01*
X3589810Y55000D01*
X3630191D01*
X3669797Y62878D01*
X3707104Y78331D01*
X3740680Y100766D01*
X3769234Y129320D01*
X3791669Y162896D01*
X3807122Y200203D01*
X3815000Y239809D01*
Y280190D01*
X3807122Y319796D01*
X3791669Y357103D01*
X3769234Y390679D01*
X3740680Y419233D01*
X3707104Y441668D01*
X3669797Y457121D01*
X3630191Y464999D01*
D02*
G37*
%LPD*%
G36*
X1924193Y1168017D02*
X1929581Y1163437D01*
X1934969Y1159396D01*
X1940358Y1155894D01*
X1945746Y1152930D01*
X1951134Y1150506D01*
X1956522Y1148620D01*
X1961910Y1147273D01*
X1967298Y1146465D01*
X1972686Y1146195D01*
X1918805Y1092314D01*
X1918535Y1097702D01*
X1917727Y1103090D01*
X1916380Y1108478D01*
X1914494Y1113866D01*
X1912070Y1119254D01*
X1909106Y1124642D01*
X1905604Y1130031D01*
X1901563Y1135419D01*
X1896983Y1140807D01*
X1891864Y1146195D01*
X1918805Y1173136D01*
X1924193Y1168017D01*
D02*
G37*
G36*
X2200859Y6118987D02*
X2201621Y6116828D01*
X2202891Y6114923D01*
X2204669Y6113272D01*
X2206955Y6111875D01*
X2209749Y6110732D01*
X2213051Y6109843D01*
X2216861Y6109208D01*
X2221179Y6108827D01*
X2226005Y6108700D01*
Y6083300D01*
X2221179Y6083173D01*
X2216861Y6082792D01*
X2213051Y6082157D01*
X2209749Y6081268D01*
X2206955Y6080125D01*
X2204669Y6078728D01*
X2202891Y6077077D01*
X2201621Y6075172D01*
X2200859Y6073013D01*
X2200605Y6070600D01*
Y6121400D01*
X2200859Y6118987D01*
D02*
G37*
G36*
X1990395Y6070600D02*
X1990141Y6073013D01*
X1989379Y6075172D01*
X1988109Y6077077D01*
X1986331Y6078728D01*
X1984045Y6080125D01*
X1981251Y6081268D01*
X1977949Y6082157D01*
X1974139Y6082792D01*
X1969821Y6083173D01*
X1964995Y6083300D01*
Y6108700D01*
X1969821Y6108827D01*
X1974139Y6109208D01*
X1977949Y6109843D01*
X1981251Y6110732D01*
X1984045Y6111875D01*
X1986331Y6113272D01*
X1988109Y6114923D01*
X1989379Y6116828D01*
X1990141Y6118987D01*
X1990395Y6121400D01*
Y6070600D01*
D02*
G37*
G36*
X1823175Y798934D02*
X1823714Y795342D01*
X1824612Y791749D01*
X1825869Y788157D01*
X1827486Y784565D01*
X1829461Y780973D01*
X1831796Y777381D01*
X1834490Y773789D01*
X1837543Y770197D01*
X1840956Y766605D01*
X1835695Y735944D01*
X1832103Y739357D01*
X1828511Y742410D01*
X1824919Y745104D01*
X1821327Y747439D01*
X1817735Y749415D01*
X1814143Y751031D01*
X1810551Y752288D01*
X1806959Y753186D01*
X1803366Y753725D01*
X1799774Y753905D01*
X1822995Y802526D01*
X1823175Y798934D01*
D02*
G37*
G36*
X2227686Y751805D02*
X2222298Y751536D01*
X2216910Y750728D01*
X2211522Y749381D01*
X2206134Y747495D01*
X2200746Y745070D01*
X2195358Y742107D01*
X2189969Y738605D01*
X2184581Y734563D01*
X2179193Y729984D01*
X2173805Y724865D01*
X2146864Y751805D01*
X2151983Y757194D01*
X2156563Y762582D01*
X2160604Y767970D01*
X2164106Y773358D01*
X2167070Y778746D01*
X2169494Y784134D01*
X2171380Y789522D01*
X2172727Y794911D01*
X2173535Y800299D01*
X2173805Y805687D01*
X2227686Y751805D01*
D02*
G37*
G36*
X2064814Y753424D02*
X2061576Y752281D01*
X2058718Y750376D01*
X2056242Y747709D01*
X2054146Y744280D01*
X2052432Y740089D01*
X2051098Y735136D01*
X2050146Y729421D01*
X2049574Y722944D01*
X2049384Y715705D01*
X2011284D01*
X2011093Y722944D01*
X2010522Y729421D01*
X2009569Y735136D01*
X2008236Y740089D01*
X2006521Y744280D01*
X2004426Y747709D01*
X2001949Y750376D01*
X1999092Y752281D01*
X1995853Y753424D01*
X1992234Y753805D01*
X2068434D01*
X2064814Y753424D01*
D02*
G37*
G36*
X2090980Y725287D02*
X2087184Y721491D01*
X2083658Y716214D01*
X2071581Y713910D01*
X2070149Y714892D01*
Y724116D01*
X2070389Y726843D01*
X2071049Y730798D01*
X2071776Y733500D01*
X2087578D01*
X2090980Y725287D01*
D02*
G37*
G36*
X1989619Y730799D02*
X1990278Y726843D01*
X1990519Y724116D01*
Y668135D01*
X1981629Y664452D01*
X1975074Y671007D01*
X1959146Y677605D01*
X1911464Y725287D01*
X1914866Y733500D01*
X1988892D01*
X1989619Y730799D01*
D02*
G37*
G36*
X2000596Y581992D02*
X2012996Y576856D01*
X2015082Y566369D01*
X2007327Y558615D01*
X1998697Y545698D01*
X1995819Y531230D01*
X1987835Y523246D01*
X1975074Y536007D01*
X1955778Y544000D01*
X1934892D01*
X1915596Y536007D01*
X1914838Y535249D01*
X1906625Y538651D01*
Y579349D01*
X1914838Y582751D01*
X1915596Y581992D01*
X1934892Y574000D01*
X1955778D01*
X1975074Y581992D01*
X1987835Y594754D01*
X2000596Y581992D01*
D02*
G37*
G36*
X2170596D02*
X2189892Y574000D01*
X2210778D01*
X2230074Y581992D01*
X2230832Y582751D01*
X2239046Y579349D01*
Y538651D01*
X2230832Y535249D01*
X2230074Y536007D01*
X2210778Y544000D01*
X2189892D01*
X2170596Y536007D01*
X2157835Y523246D01*
X2145074Y536007D01*
X2125778Y544000D01*
X2116942D01*
X2113540Y552213D01*
X2130037Y568711D01*
X2136554Y578463D01*
X2145074Y581992D01*
X2157835Y594754D01*
X2170596Y581992D01*
D02*
G37*
G36*
X2085596Y446993D02*
X2104892Y439000D01*
X2120467D01*
X2125219Y430110D01*
X2122744Y426406D01*
X2121888Y422100D01*
X2098400D01*
Y289100D01*
X2217400D01*
Y422099D01*
X2217400Y422100D01*
X2217401D01*
X2217658Y430607D01*
X2218340Y431290D01*
X2225568Y442106D01*
X2230155Y444259D01*
X2239046Y439140D01*
Y342900D01*
Y297909D01*
X2190626Y249489D01*
X1949574D01*
X1899525Y299539D01*
Y450492D01*
X1908415Y454174D01*
X1915596Y446993D01*
X1934892Y439000D01*
X1955778D01*
X1975074Y446993D01*
X1987835Y459754D01*
X2000596Y446993D01*
X2019892Y439000D01*
X2040778D01*
X2060074Y446993D01*
X2072835Y459754D01*
X2085596Y446993D01*
D02*
G37*
G36*
X2311243Y409448D02*
X2312767Y400812D01*
X2315307Y393192D01*
X2318863Y386588D01*
X2323435Y381000D01*
X2329023Y376428D01*
X2335627Y372872D01*
X2343247Y370332D01*
X2351883Y368808D01*
X2361535Y368300D01*
Y317500D01*
X2351883Y317112D01*
X2343247Y315949D01*
X2335627Y314011D01*
X2329023Y311298D01*
X2323435Y307809D01*
X2318863Y303545D01*
X2315307Y298505D01*
X2312767Y292690D01*
X2311243Y286100D01*
X2310735Y278735D01*
X2259935Y342900D01*
X2310735Y419100D01*
X2311243Y409448D01*
D02*
G37*
G36*
X1990693Y1856092D02*
X1993612Y1853173D01*
X1997889Y1847365D01*
X1993612Y1841558D01*
X1990693Y1838638D01*
X1984886Y1834362D01*
X1979078Y1838638D01*
X1976159Y1841558D01*
X1971882Y1847365D01*
X1976159Y1853173D01*
X1979078Y1856092D01*
X1984886Y1860369D01*
X1990693Y1856092D01*
D02*
G37*
D21*
X1993900Y355600D02*
D03*
X1619800Y800100D02*
D03*
X2157900Y355600D02*
D03*
X1783800Y800100D02*
D03*
D44*
X2030334Y626501D02*
Y776665D01*
X2005000Y801999D02*
X2030334Y776665D01*
X2115337Y626501D02*
Y693337D01*
X2222000Y800000D01*
X2035481Y530461D02*
X2101884Y596864D01*
X2035481Y496647D02*
Y530461D01*
X2101884Y596864D02*
Y605768D01*
X2115337Y619222D01*
X2030334Y491500D02*
X2035481Y496647D01*
X2115337Y619222D02*
Y626501D01*
X2222000Y800000D02*
X2260000D01*
X1750099Y3384901D02*
Y4809902D01*
X1813599Y3358599D02*
Y4836204D01*
X997908Y5562093D02*
X1750099Y4809902D01*
X997908Y5562093D02*
Y6288622D01*
X1073397Y5576407D02*
X1813599Y4836204D01*
X1073397Y5576407D02*
Y6316604D01*
X1939802Y1215000D02*
X2165000D01*
X1901302Y1253500D02*
X1939802Y1215000D01*
X1875000Y1190000D02*
X1937549Y1127451D01*
X1937550D02*
X1967000Y1098001D01*
X2165000Y1215000D02*
X2221322Y1158678D01*
Y1125451D02*
Y1158678D01*
Y1125451D02*
X2250772Y1096001D01*
X2260000D01*
X1967000Y1098001D02*
X2005000D01*
X1937549Y1127451D02*
X1937550D01*
X1560000Y1253500D02*
X1901302D01*
X1533697Y1190000D02*
X1875000D01*
X1406500Y1317198D02*
X1533697Y1190000D01*
X1470000Y1343500D02*
Y3015000D01*
X1813599Y3358599D01*
X1406500Y1317198D02*
Y3041302D01*
X1750099Y3384901D01*
X835952Y6450578D02*
Y6534950D01*
Y6450578D02*
X997908Y6288622D01*
X835952Y6534950D02*
X930402Y6629400D01*
X942246Y6447754D02*
X1073397Y6316604D01*
X930402Y6489700D02*
X942246Y6477856D01*
Y6447754D02*
Y6477856D01*
X1470000Y1343500D02*
X1560000Y1253500D01*
D45*
X2006600Y2895600D02*
X2239154Y2663046D01*
X2940322D01*
D46*
X2264833Y4389967D02*
X2387600Y4267200D01*
X2264833Y4389967D02*
Y4872567D01*
D47*
X3200400Y952500D02*
Y2402968D01*
X2285335Y342900D02*
X2590800D01*
X3200400Y952500D01*
X2285335Y342900D02*
Y491500D01*
Y278735D02*
Y342900D01*
Y491500D02*
Y626500D01*
X1853235Y480557D02*
X1860335Y487657D01*
X1853235Y280365D02*
Y480557D01*
Y280365D02*
X1930400Y203200D01*
X2209800D01*
X2285335Y278735D01*
X1860335Y487657D02*
Y626500D01*
X2940322Y2663046D02*
X3200400Y2402968D01*
D48*
X2153547Y413647D02*
X2194765Y454865D01*
X2153547Y369847D02*
Y413647D01*
X2194765Y454865D02*
Y485930D01*
X2146300Y362600D02*
X2153547Y369847D01*
X2194765Y485930D02*
X2200335Y491500D01*
X1796500Y793100D02*
X1937758Y651842D01*
Y634077D02*
Y651842D01*
Y634077D02*
X1945335Y626500D01*
X1796500Y793100D02*
Y800100D01*
X2170430Y6096000D02*
X2336800D01*
X1661160Y5476240D02*
Y5908040D01*
X1460500Y6108700D02*
X1661160Y5908040D01*
Y5476240D02*
X2264833Y4872567D01*
X930400Y6753992D02*
Y6870700D01*
Y6753992D02*
X1460500Y6223892D01*
Y6108700D02*
Y6223892D01*
X854202Y7302500D02*
X930402Y7378700D01*
X762500Y7302500D02*
X854202D01*
X698500Y7238500D02*
X762500Y7302500D01*
X698500Y6201500D02*
X889000Y6011000D01*
X698500Y6201500D02*
Y7238500D01*
X1231900Y5843943D02*
Y5984240D01*
X1206500Y5816600D02*
Y5818543D01*
X1231900Y5843943D01*
Y5984240D02*
X1341120Y6093460D01*
X1638300Y6210300D02*
X1752600Y6096000D01*
X2020570D01*
X1125000Y5050000D02*
X1287300D01*
X1498600Y4838700D01*
X1053799Y4953301D02*
X1168400Y4838700D01*
X723599Y4953301D02*
X1053799D01*
X635000Y4889500D02*
X774700D01*
X469900Y5054600D02*
X635000Y4889500D01*
X774700D02*
X825500Y4838700D01*
X469900Y5054600D02*
Y7442200D01*
X900437Y7650000D02*
X917737Y7632700D01*
X677700Y7650000D02*
X900437D01*
X917737Y7632700D02*
X927100D01*
X469900Y7442200D02*
X677700Y7650000D01*
X434840Y4886460D02*
Y4899160D01*
Y4886460D02*
X495300Y4826000D01*
X368300Y4965700D02*
X434840Y4899160D01*
X3390900Y4267200D02*
Y5689600D01*
X3048000Y4267200D02*
Y4508500D01*
X2261804Y6424996D02*
X2717800Y5969000D01*
Y4267200D02*
Y5969000D01*
X2395541Y6684959D02*
X3390900Y5689600D01*
X889000Y5286000D02*
X1125000Y5050000D01*
X889000Y5286000D02*
Y6011000D01*
X930000Y7255000D02*
X1012700D01*
X926759Y7378700D02*
X930402D01*
X368300Y7598300D02*
X565000Y7795000D01*
X1012700Y7255000D02*
X1582742Y6684959D01*
X2395541D01*
X2870200Y4686300D02*
Y6007100D01*
X2324100Y6553200D02*
X2870200Y6007100D01*
X1524000Y6553200D02*
X2324100D01*
X1503104Y6424996D02*
X2261804D01*
X930400Y6997700D02*
X1503104Y6424996D01*
X974927Y7102274D02*
X1524000Y6553200D01*
X2870200Y4686300D02*
X3048000Y4508500D01*
X368300Y4965700D02*
Y7598300D01*
X565000Y7795000D02*
X891800D01*
X927100Y7759700D01*
X950586Y7124700D02*
X973013Y7102274D01*
X974927D01*
X930400Y7124700D02*
X950586D01*
X584200Y5092700D02*
Y7344200D01*
X745700Y7505700D02*
X930402D01*
X584200Y7344200D02*
X745700Y7505700D01*
X584200Y5092700D02*
X723599Y4953301D01*
X2959100Y7886700D02*
X3098800Y8026400D01*
X930400Y7886700D02*
X2959100D01*
D51*
X2753558Y1340002D02*
X2760000D01*
X1653200Y1450000D02*
X2643561D01*
X2753558Y1340002D01*
X1587500Y1384300D02*
X1653200Y1450000D01*
D52*
X2720026Y4051300D02*
D03*
Y3797300D02*
D03*
X2387600Y4051300D02*
D03*
Y3797300D02*
D03*
X3052451Y4051300D02*
D03*
Y3797300D02*
D03*
X3384877Y4051300D02*
D03*
Y3797300D02*
D03*
X1495415Y4394200D02*
D03*
X1162989D02*
D03*
X830563D02*
D03*
X498138D02*
D03*
X830563Y4648200D02*
D03*
X1162989D02*
D03*
X1495415D02*
D03*
X498138D02*
D03*
D53*
X2720026Y3543300D02*
D03*
X2387600D02*
D03*
X3052451D02*
D03*
X3384877D02*
D03*
X1495415Y4140200D02*
D03*
X1162989D02*
D03*
X498138D02*
D03*
X830563D02*
D03*
D54*
X1860335Y626500D02*
D03*
X1945335D02*
D03*
X2030335D02*
D03*
X2200335D02*
D03*
X2285335D02*
D03*
Y491500D02*
D03*
X2200335D02*
D03*
X2115335D02*
D03*
X1945335D02*
D03*
X1860335D02*
D03*
X2030335D02*
D03*
X2115335Y626500D02*
D03*
X1775335Y491500D02*
D03*
X2370335D02*
D03*
Y626500D02*
D03*
X1775335D02*
D03*
D55*
X2505335Y528500D02*
D03*
X1640335D02*
D03*
D56*
X2505335Y190500D02*
D03*
X1640335D02*
D03*
D57*
X3146425Y4950000D02*
D03*
D58*
X736600Y5894415D02*
D03*
D59*
X1084200Y355600D02*
D03*
D60*
X850900Y3467100D02*
D03*
Y3117100D02*
D03*
D61*
X3146425Y4750000D02*
D03*
D62*
X584200Y355600D02*
D03*
D63*
X787400Y887850D02*
D03*
Y1283850D02*
D03*
D64*
X736600Y5644415D02*
D03*
Y5144415D02*
D03*
Y5394415D02*
D03*
D65*
X3610000Y259999D02*
D03*
Y7999999D02*
D03*
X250002Y8010002D02*
D03*
D66*
X736600Y2402626D02*
D03*
D67*
Y1894626D02*
D03*
D68*
X1945516Y1807995D02*
D03*
Y1886735D02*
D03*
X2024256Y1807995D02*
D03*
Y1886735D02*
D03*
D69*
X3700000Y7400000D02*
D03*
Y6900000D02*
D03*
Y7650000D02*
D03*
X3700000Y6650000D02*
D03*
X3700000Y6400000D02*
D03*
Y5900000D02*
D03*
X3700000Y6150000D02*
D03*
Y7150000D02*
D03*
X3309620Y8150860D02*
D03*
X3700000Y5400000D02*
D03*
Y4900000D02*
D03*
X3700000Y4650000D02*
D03*
X3700000Y4400000D02*
D03*
Y3900000D02*
D03*
X3700000Y4150000D02*
D03*
X3467100Y5765800D02*
D03*
X3700000Y5650000D02*
D03*
Y5150000D02*
D03*
X3517900Y4267200D02*
D03*
X3101340Y8150860D02*
D03*
X2336800Y5981700D02*
D03*
X3144520Y5240020D02*
D03*
X2514600Y5156200D02*
D03*
X3175000Y4267200D02*
D03*
X2832100D02*
D03*
X2514600Y5448300D02*
D03*
X2120900Y5156200D02*
D03*
X2501900Y4267200D02*
D03*
X1982470Y5360129D02*
D03*
X3700000Y3650000D02*
D03*
X3700000Y3400000D02*
D03*
X3390900Y3340100D02*
D03*
X3700000Y2900000D02*
D03*
X3700000Y2650000D02*
D03*
Y3150000D02*
D03*
X2717800Y3340100D02*
D03*
X3048000D02*
D03*
X3700000Y1900000D02*
D03*
Y1400000D02*
D03*
Y2400000D02*
D03*
Y900000D02*
D03*
X3700000Y650000D02*
D03*
Y1150000D02*
D03*
Y2150000D02*
D03*
Y1650000D02*
D03*
X2768600Y1104900D02*
D03*
X2908300Y177800D02*
D03*
X3225800D02*
D03*
X2768600Y825500D02*
D03*
X2717800Y3098800D02*
D03*
X2387600Y3340100D02*
D03*
Y3098800D02*
D03*
X2159000Y2921000D02*
D03*
X2006600Y2717800D02*
D03*
X2654300Y622300D02*
D03*
X2667000Y266700D02*
D03*
Y76200D02*
D03*
X2463800Y1104900D02*
D03*
Y825500D02*
D03*
X1778000Y6210300D02*
D03*
X1371600Y5918200D02*
D03*
X1206500Y6096000D02*
D03*
Y5156200D02*
D03*
X1663700D02*
D03*
X1206500Y5689600D02*
D03*
X835660Y7721600D02*
D03*
X830580Y7579360D02*
D03*
X828040Y7429500D02*
D03*
Y7048500D02*
D03*
X830580Y6916420D02*
D03*
X828040Y7185660D02*
D03*
X150000Y7400000D02*
D03*
Y7150000D02*
D03*
Y7650000D02*
D03*
X698500Y6070600D02*
D03*
X150000Y5400000D02*
D03*
Y4900000D02*
D03*
X990600Y4838700D02*
D03*
X150000Y5150000D02*
D03*
Y6650000D02*
D03*
Y6400000D02*
D03*
Y6900000D02*
D03*
Y5900000D02*
D03*
Y5650000D02*
D03*
Y6150000D02*
D03*
X1625600Y2146300D02*
D03*
X1700000Y1345000D02*
D03*
X1333500Y4838700D02*
D03*
X1498600Y3937000D02*
D03*
X1282700Y1524000D02*
D03*
X1168400Y3937000D02*
D03*
X1473200Y466700D02*
D03*
Y666700D02*
D03*
Y266700D02*
D03*
Y76200D02*
D03*
X495300Y3937000D02*
D03*
X825500D02*
D03*
X150000Y3150000D02*
D03*
Y4400000D02*
D03*
Y4150000D02*
D03*
Y4650000D02*
D03*
Y3650000D02*
D03*
Y3400000D02*
D03*
Y3900000D02*
D03*
Y1150000D02*
D03*
Y900000D02*
D03*
Y1400000D02*
D03*
Y400000D02*
D03*
Y150000D02*
D03*
Y650000D02*
D03*
Y2650000D02*
D03*
Y2400000D02*
D03*
Y2900000D02*
D03*
Y1900000D02*
D03*
Y1650000D02*
D03*
Y2150000D02*
D03*
X2222500Y5588000D02*
D03*
X3352800Y2692400D02*
D03*
X2133600Y4640580D02*
D03*
X3352800Y2527300D02*
D03*
X3200400D02*
D03*
Y2692400D02*
D03*
X2128520Y4744720D02*
D03*
X977900Y3225800D02*
D03*
X723900D02*
D03*
Y2997200D02*
D03*
X1498600Y952500D02*
D03*
X977900Y2997200D02*
D03*
X2336800Y6096000D02*
D03*
X2387600Y4267200D02*
D03*
X930400Y6870700D02*
D03*
X1549400Y5613400D02*
D03*
X1638300Y6210300D02*
D03*
X2981960Y5361940D02*
D03*
X1498600Y5918200D02*
D03*
X1341120Y6093460D02*
D03*
X1206500Y5816600D02*
D03*
X1498600Y4838700D02*
D03*
X1168400D02*
D03*
X825500D02*
D03*
X927100Y7632700D02*
D03*
X495300Y4826000D02*
D03*
X3390900Y4267200D02*
D03*
X3048000D02*
D03*
X2717800D02*
D03*
X930400Y7378700D02*
D03*
Y6629400D02*
D03*
X930000Y7255000D02*
D03*
X930400Y6489700D02*
D03*
X927100Y7759700D02*
D03*
X930400Y6997700D02*
D03*
Y7124700D02*
D03*
Y7505700D02*
D03*
X3098800Y8026400D02*
D03*
X930400Y7886700D02*
D03*
D70*
X1935002Y7369998D02*
D03*
Y7515001D02*
D03*
X1794998D02*
D03*
Y7375002D02*
D03*
X1654998Y7515001D02*
D03*
Y7375002D02*
D03*
X1929999Y7235002D02*
D03*
X1794998D02*
D03*
X1649999D02*
D03*
X812800Y8168640D02*
D03*
X497840Y8163560D02*
D03*
D71*
X2024256Y1807995D02*
D03*
Y1886735D02*
D03*
X1945518Y1886737D02*
D03*
X1945516Y1807995D02*
D03*
D72*
X2006600Y2895600D02*
D03*
D73*
X2760000Y1340002D02*
D03*
X1587500Y1384300D02*
D03*
D74*
X2005000Y802000D02*
D03*
X2260000Y800001D02*
D03*
Y1096001D02*
D03*
X2005000Y1098000D02*
D03*
D75*
X2170430Y6096000D02*
D03*
X2020570D02*
D03*
%TF.MD5,141d1176a4651c53d3df05fec164d776*%
M02*
