%TF.GenerationSoftware,Altium Limited,Altium Designer,26.5.1 (12)*%
G04 Layer_Physical_Order=1*
G04 Layer_Color=255*
G04 Board_Origin=8850000|10000000*
%FSLAX45Y45*%
%MOMM*%
%TF.SameCoordinates,84847B52-3A98-4CAC-9896-DB7724CA6EA3*%
%TF.FilePolarity,Positive*%
%TF.FileFunction,Copper,L1,Top,Signal*%
%TF.Part,Single*%
G01*
G75*
%TA.AperFunction,SMDPad,CuDef*%
%ADD10R,1.00000X1.55000*%
G04:AMPARAMS|DCode=11|XSize=0.59mm|YSize=0.6mm|CornerRadius=0.15635mm|HoleSize=0mm|Usage=FLASHONLY|Rotation=270.000|XOffset=0mm|YOffset=0mm|HoleType=Round|Shape=RoundedRectangle|*
%AMROUNDEDRECTD11*
21,1,0.59000,0.28730,0,0,270.0*
21,1,0.27730,0.60000,0,0,270.0*
1,1,0.31270,-0.14365,-0.13865*
1,1,0.31270,-0.14365,0.13865*
1,1,0.31270,0.14365,0.13865*
1,1,0.31270,0.14365,-0.13865*
%
%ADD11ROUNDEDRECTD11*%
%ADD12R,0.35411X0.26274*%
G04:AMPARAMS|DCode=13|XSize=0.59mm|YSize=0.6mm|CornerRadius=0.15635mm|HoleSize=0mm|Usage=FLASHONLY|Rotation=0.000|XOffset=0mm|YOffset=0mm|HoleType=Round|Shape=RoundedRectangle|*
%AMROUNDEDRECTD13*
21,1,0.59000,0.28730,0,0,0.0*
21,1,0.27730,0.60000,0,0,0.0*
1,1,0.31270,0.13865,-0.14365*
1,1,0.31270,-0.13865,-0.14365*
1,1,0.31270,-0.13865,0.14365*
1,1,0.31270,0.13865,0.14365*
%
%ADD13ROUNDEDRECTD13*%
%TA.AperFunction,ConnectorPad*%
%ADD14R,1.50000X0.90000*%
%TA.AperFunction,SMDPad,CuDef*%
G04:AMPARAMS|DCode=15|XSize=1.40712mm|YSize=0.57583mm|CornerRadius=0.28791mm|HoleSize=0mm|Usage=FLASHONLY|Rotation=180.000|XOffset=0mm|YOffset=0mm|HoleType=Round|Shape=RoundedRectangle|*
%AMROUNDEDRECTD15*
21,1,1.40712,0.00000,0,0,180.0*
21,1,0.83129,0.57583,0,0,180.0*
1,1,0.57583,-0.41565,0.00000*
1,1,0.57583,0.41565,0.00000*
1,1,0.57583,0.41565,0.00000*
1,1,0.57583,-0.41565,0.00000*
%
%ADD15ROUNDEDRECTD15*%
%ADD16R,0.81280X0.49530*%
%ADD17R,0.35000X0.57500*%
G04:AMPARAMS|DCode=18|XSize=0.64mm|YSize=0.72mm|CornerRadius=0.08mm|HoleSize=0mm|Usage=FLASHONLY|Rotation=0.000|XOffset=0mm|YOffset=0mm|HoleType=Round|Shape=RoundedRectangle|*
%AMROUNDEDRECTD18*
21,1,0.64000,0.56000,0,0,0.0*
21,1,0.48000,0.72000,0,0,0.0*
1,1,0.16000,0.24000,-0.28000*
1,1,0.16000,-0.24000,-0.28000*
1,1,0.16000,-0.24000,0.28000*
1,1,0.16000,0.24000,0.28000*
%
%ADD18ROUNDEDRECTD18*%
%ADD19R,0.26274X0.35411*%
G04:AMPARAMS|DCode=20|XSize=1.37mm|YSize=2.72mm|CornerRadius=0.17125mm|HoleSize=0mm|Usage=FLASHONLY|Rotation=270.000|XOffset=0mm|YOffset=0mm|HoleType=Round|Shape=RoundedRectangle|*
%AMROUNDEDRECTD20*
21,1,1.37000,2.37750,0,0,270.0*
21,1,1.02750,2.72000,0,0,270.0*
1,1,0.34250,-1.18875,-0.51375*
1,1,0.34250,-1.18875,0.51375*
1,1,0.34250,1.18875,0.51375*
1,1,0.34250,1.18875,-0.51375*
%
%ADD20ROUNDEDRECTD20*%
%ADD21R,0.79000X0.93000*%
%ADD22R,0.56000X0.60000*%
%ADD23R,0.93000X0.79000*%
G04:AMPARAMS|DCode=24|XSize=0.87mm|YSize=0.93mm|CornerRadius=0.10875mm|HoleSize=0mm|Usage=FLASHONLY|Rotation=90.000|XOffset=0mm|YOffset=0mm|HoleType=Round|Shape=RoundedRectangle|*
%AMROUNDEDRECTD24*
21,1,0.87000,0.71250,0,0,90.0*
21,1,0.65250,0.93000,0,0,90.0*
1,1,0.21750,0.35625,0.32625*
1,1,0.21750,0.35625,-0.32625*
1,1,0.21750,-0.35625,-0.32625*
1,1,0.21750,-0.35625,0.32625*
%
%ADD24ROUNDEDRECTD24*%
%TA.AperFunction,BGAPad,CuDef*%
%ADD25R,0.90000X0.90000*%
%TA.AperFunction,SMDPad,CuDef*%
%ADD26R,1.02000X1.00000*%
%ADD27R,0.85000X0.28000*%
%ADD28R,1.30000X1.50000*%
%TA.AperFunction,SMDPad,SMDef*%
%ADD29R,2.05000X2.05000*%
%TA.AperFunction,SMDPad,CuDef*%
G04:AMPARAMS|DCode=30|XSize=1.08mm|YSize=1.42mm|CornerRadius=0.135mm|HoleSize=0mm|Usage=FLASHONLY|Rotation=90.000|XOffset=0mm|YOffset=0mm|HoleType=Round|Shape=RoundedRectangle|*
%AMROUNDEDRECTD30*
21,1,1.08000,1.15000,0,0,90.0*
21,1,0.81000,1.42000,0,0,90.0*
1,1,0.27000,0.57500,0.40500*
1,1,0.27000,0.57500,-0.40500*
1,1,0.27000,-0.57500,-0.40500*
1,1,0.27000,-0.57500,0.40500*
%
%ADD30ROUNDEDRECTD30*%
%ADD31R,1.16000X1.82000*%
%ADD32R,3.18000X2.25000*%
%ADD33R,2.25000X3.18000*%
%ADD34R,2.95000X3.50000*%
%ADD35R,1.02000X1.04000*%
%ADD36R,1.40712X0.57583*%
%ADD37R,0.57500X0.35000*%
%ADD38R,0.55000X0.60000*%
%ADD39R,1.04000X1.02000*%
%ADD40R,0.60000X0.55000*%
%TA.AperFunction,ConnectorPad*%
%ADD41R,0.90000X1.50000*%
%TA.AperFunction,SMDPad,CuDef*%
%ADD42R,0.28000X0.85000*%
%ADD43R,0.60000X0.56000*%
%TA.AperFunction,Conductor*%
%ADD44C,0.38100*%
%ADD45C,1.01600*%
%ADD46C,0.30480*%
%ADD47C,0.50800*%
%ADD48C,0.25400*%
%ADD49C,1.52400*%
%ADD50C,0.63500*%
%ADD51C,0.76200*%
%TA.AperFunction,ComponentPad*%
%ADD52C,1.57000*%
%ADD53R,1.57000X1.57000*%
%ADD54C,0.65000*%
%ADD55O,0.90000X2.40000*%
%ADD56O,0.90000X1.70000*%
%ADD57C,1.30000*%
%ADD58R,1.50800X1.50800*%
%ADD59C,2.85000*%
%ADD60C,1.37160*%
G04:AMPARAMS|DCode=61|XSize=1.3mm|YSize=1.3mm|CornerRadius=0.325mm|HoleSize=0mm|Usage=FLASHONLY|Rotation=270.000|XOffset=0mm|YOffset=0mm|HoleType=Round|Shape=RoundedRectangle|*
%AMROUNDEDRECTD61*
21,1,1.30000,0.65000,0,0,270.0*
21,1,0.65000,1.30000,0,0,270.0*
1,1,0.65000,-0.32500,-0.32500*
1,1,0.65000,-0.32500,0.32500*
1,1,0.65000,0.32500,0.32500*
1,1,0.65000,0.32500,-0.32500*
%
%ADD61ROUNDEDRECTD61*%
%ADD62R,2.85000X2.85000*%
%ADD63C,2.62500*%
%ADD64C,1.50800*%
%TA.AperFunction,WasherPad*%
%ADD65C,3.70000*%
%TA.AperFunction,ComponentPad*%
%ADD66C,1.95000*%
%ADD67R,1.95000X1.95000*%
%ADD68C,0.50800*%
%TA.AperFunction,ViaPad*%
%ADD69C,0.60000*%
%ADD70C,0.50000*%
%ADD71C,0.50800*%
%ADD72C,0.80000*%
%ADD73C,1.00000*%
G36*
X3733800Y8224413D02*
X3743296Y8224413D01*
X3761922Y8220708D01*
X3779469Y8213440D01*
X3795260Y8202889D01*
X3808689Y8189460D01*
X3819240Y8173669D01*
X3826508Y8156122D01*
X3830213Y8137495D01*
X3830214Y8127999D01*
X3830213Y126999D01*
X3830213Y117503D01*
X3826508Y98877D01*
X3819240Y81331D01*
X3808689Y65539D01*
X3795260Y52110D01*
X3779469Y41559D01*
X3761922Y34291D01*
X3743296Y30586D01*
X3733801Y30586D01*
X127000Y30586D01*
X117503D01*
X98877Y34291D01*
X81331Y41559D01*
X65539Y52111D01*
X52110Y65540D01*
X41559Y81331D01*
X34291Y98877D01*
X30586Y117504D01*
X30586Y126999D01*
Y6848997D01*
X32597Y8147603D01*
X34291Y8156122D01*
X41559Y8173668D01*
X52110Y8189459D01*
X65540Y8202889D01*
X81331Y8213440D01*
X98877Y8220708D01*
X117504Y8224413D01*
X127001Y8224414D01*
X3733800Y8224413D01*
D02*
G37*
%LPC*%
G36*
X1163100Y8084000D02*
X973100D01*
Y8062427D01*
X971320Y8062130D01*
X969474Y8061967D01*
X848562D01*
Y8064106D01*
X782289D01*
Y8062330D01*
X686800D01*
X673050Y8059595D01*
X671111Y8058300D01*
X576700D01*
Y7982974D01*
X576638Y7982729D01*
X576473Y7979425D01*
X576122Y7977084D01*
X575509Y7974631D01*
X574600Y7972034D01*
X573356Y7969271D01*
X571741Y7966333D01*
X569720Y7963225D01*
X567271Y7959958D01*
X565715Y7958128D01*
X536096Y7928509D01*
X528307Y7916853D01*
X525572Y7903103D01*
Y7884626D01*
X525409Y7882780D01*
X525113Y7881000D01*
X489500D01*
Y7739000D01*
X525113D01*
X525409Y7737220D01*
X525572Y7735374D01*
Y7096597D01*
X528307Y7082847D01*
X536096Y7071191D01*
X704570Y6902717D01*
Y6807295D01*
X704424Y6805550D01*
X704163Y6803900D01*
X690500D01*
Y6784033D01*
X690413Y6783595D01*
X690500Y6783157D01*
Y6729643D01*
X690413Y6729205D01*
X690500Y6728767D01*
Y6708900D01*
X700407D01*
X700670Y6705862D01*
Y6215380D01*
X703405Y6201630D01*
X711193Y6189973D01*
X868310Y6032857D01*
Y5826938D01*
X845613Y5804241D01*
X837400Y5807643D01*
Y5869014D01*
X762000D01*
Y5793615D01*
X823371D01*
X826774Y5785401D01*
X774223Y5732851D01*
X773423Y5733313D01*
X749160Y5739815D01*
X724040D01*
X699777Y5733313D01*
X678023Y5720754D01*
X660261Y5702992D01*
X647702Y5681238D01*
X641200Y5656974D01*
Y5631855D01*
X647702Y5607592D01*
X660261Y5585838D01*
X678023Y5568076D01*
X699777Y5555516D01*
X724040Y5549015D01*
X749160D01*
X773423Y5555516D01*
X795177Y5568076D01*
X812939Y5585838D01*
X825498Y5607592D01*
X832000Y5631855D01*
Y5656974D01*
X825498Y5681238D01*
X825036Y5682038D01*
X929647Y5786648D01*
X937435Y5798305D01*
X940170Y5812055D01*
Y6047740D01*
X937435Y6061490D01*
X929647Y6073147D01*
X772530Y6230263D01*
Y6705274D01*
X772693Y6707120D01*
X772990Y6708900D01*
X792159D01*
Y6324600D01*
X794697Y6311841D01*
X801925Y6301025D01*
X1233997Y5868953D01*
X1228961Y5861416D01*
X1216446Y5866600D01*
X1196554D01*
X1178177Y5858988D01*
X1164112Y5844923D01*
X1160278Y5835667D01*
X1144511D01*
X1131752Y5833129D01*
X1120936Y5825901D01*
X776545Y5481510D01*
X773423Y5483313D01*
X749160Y5489815D01*
X724040D01*
X699777Y5483313D01*
X678023Y5470754D01*
X660261Y5452992D01*
X647702Y5431238D01*
X641200Y5406974D01*
Y5381855D01*
X647702Y5357592D01*
X660261Y5335838D01*
X678023Y5318076D01*
X699777Y5305516D01*
X724040Y5299015D01*
X749160D01*
X773423Y5305516D01*
X795177Y5318076D01*
X812939Y5335838D01*
X825498Y5357592D01*
X832000Y5381855D01*
Y5406974D01*
X825498Y5431238D01*
X823696Y5434360D01*
X1158321Y5768985D01*
X1190796D01*
X1196554Y5766600D01*
X1216446D01*
X1234823Y5774212D01*
X1248888Y5788277D01*
X1256500Y5806654D01*
Y5826546D01*
X1251316Y5839061D01*
X1258853Y5844097D01*
X1321967Y5780983D01*
X1323428Y5779157D01*
X1325213Y5776531D01*
X1326727Y5773864D01*
X1327994Y5771130D01*
X1329032Y5768298D01*
X1329848Y5765341D01*
X1330443Y5762222D01*
X1330700Y5759899D01*
Y5695851D01*
X836599Y5201749D01*
X813656D01*
X812939Y5202992D01*
X795177Y5220754D01*
X773423Y5233313D01*
X749160Y5239815D01*
X724040D01*
X699777Y5233313D01*
X678023Y5220754D01*
X660261Y5202992D01*
X647702Y5181238D01*
X641200Y5156974D01*
Y5131855D01*
X647702Y5107592D01*
X660261Y5085838D01*
X678023Y5068076D01*
X699777Y5055516D01*
X724040Y5049015D01*
X749160D01*
X773423Y5055516D01*
X795177Y5068076D01*
X812939Y5085838D01*
X825498Y5107592D01*
X832000Y5131855D01*
Y5135068D01*
X850409D01*
X863168Y5137606D01*
X873984Y5144834D01*
X1387616Y5658466D01*
X1394844Y5669282D01*
X1397382Y5682041D01*
Y5750970D01*
X1397577Y5752080D01*
X1397688Y5752412D01*
X1398021Y5752523D01*
X1399130Y5752718D01*
X1807431D01*
X1848887Y5711262D01*
X1845205Y5702372D01*
X1516380D01*
X1508576Y5700820D01*
X1501961Y5696400D01*
X1471480Y5665919D01*
X1467060Y5659304D01*
X1465508Y5651500D01*
X1465508Y5575302D01*
X1465507Y5575301D01*
X1467060Y5567497D01*
X1471480Y5560881D01*
X1471481Y5560880D01*
X1500556Y5531806D01*
X1500667Y5531731D01*
X1500743Y5531620D01*
X1503973Y5529522D01*
X1507171Y5527385D01*
X1507303Y5527359D01*
X1507416Y5527286D01*
X1511196Y5526584D01*
X1514975Y5525833D01*
X1515107Y5525859D01*
X1515239Y5525835D01*
X1770717Y5529139D01*
X1778100Y5520344D01*
Y5475500D01*
X1840797D01*
X1843670Y5472000D01*
Y5333637D01*
X1846405Y5319887D01*
X1846463Y5319799D01*
Y5296294D01*
X1878230D01*
X1881703Y5295604D01*
X1892583D01*
X1917693Y5270493D01*
X1929350Y5262705D01*
X1930084Y5262559D01*
X1939460Y5256294D01*
X1953210Y5253558D01*
X2025589D01*
X2039339Y5256294D01*
X2050995Y5264082D01*
X2084757Y5297843D01*
X2092545Y5309500D01*
X2095280Y5323250D01*
Y5472514D01*
X2095398Y5474059D01*
X2095606Y5475500D01*
X2108100D01*
Y5477070D01*
X2152192D01*
X2169981Y5459281D01*
X2176596Y5454860D01*
X2184400Y5453308D01*
X2227463D01*
Y5448725D01*
X2293737D01*
Y5472050D01*
X2294158Y5472681D01*
X2296893Y5486431D01*
X2294158Y5500181D01*
X2293737Y5500812D01*
Y5524137D01*
X2293692D01*
Y5613400D01*
X2292140Y5621204D01*
X2287719Y5627819D01*
X2287719Y5627820D01*
X2262319Y5653219D01*
X2255704Y5657640D01*
X2247900Y5659192D01*
X2197101D01*
X2197100Y5659192D01*
X2189296Y5657640D01*
X2182681Y5653219D01*
X2132453Y5602991D01*
X2128032Y5596376D01*
X2126480Y5588572D01*
Y5548930D01*
X2108100D01*
Y5700500D01*
X2030600D01*
Y5728000D01*
X1976441D01*
Y5803900D01*
X1973903Y5816659D01*
X1966676Y5827475D01*
X1642740Y6151410D01*
X1646423Y6160300D01*
X1648246D01*
X1666623Y6167912D01*
X1680688Y6181977D01*
X1688300Y6200354D01*
Y6220246D01*
X1680688Y6238623D01*
X1666623Y6252688D01*
X1658941Y6255870D01*
Y6275000D01*
X2706600D01*
Y6465000D01*
X1179600D01*
Y6275000D01*
X1465259D01*
Y6188500D01*
X1451100D01*
Y6171841D01*
X1402910D01*
X1390151Y6169303D01*
X1379335Y6162076D01*
X1357892Y6140632D01*
X1351066Y6143460D01*
X1331174D01*
X1312797Y6135848D01*
X1298732Y6121783D01*
X1291120Y6103406D01*
Y6083514D01*
X1298732Y6065137D01*
X1312797Y6051072D01*
X1331174Y6043460D01*
X1351066D01*
X1369443Y6051072D01*
X1383508Y6065137D01*
X1388323Y6076763D01*
X1416720Y6105159D01*
X1451100D01*
Y6075559D01*
X1449853Y6073692D01*
X1445836Y6053500D01*
Y5918200D01*
X1449853Y5898008D01*
X1461290Y5880890D01*
X1478408Y5869453D01*
X1498600Y5865436D01*
X1518792Y5869453D01*
X1535910Y5880890D01*
X1547347Y5898008D01*
X1551364Y5918200D01*
Y6053500D01*
X1547347Y6073692D01*
X1546100Y6075559D01*
Y6100759D01*
X1599090D01*
X1909759Y5790090D01*
Y5756306D01*
X1901546Y5752904D01*
X1844816Y5809634D01*
X1834000Y5816862D01*
X1821241Y5819400D01*
X1390201D01*
X1387878Y5819657D01*
X1384759Y5820252D01*
X1381802Y5821068D01*
X1378971Y5822105D01*
X1376236Y5823373D01*
X1373569Y5824887D01*
X1370944Y5826671D01*
X1369117Y5828133D01*
X858841Y6338410D01*
Y6708900D01*
X875500D01*
Y6715659D01*
X973100D01*
Y6669983D01*
X964210Y6666300D01*
X958722Y6671788D01*
X940345Y6679400D01*
X920454D01*
X902077Y6671788D01*
X888012Y6657723D01*
X880400Y6639346D01*
Y6619454D01*
X888012Y6601077D01*
X902077Y6587012D01*
X920454Y6579400D01*
X940345D01*
X958722Y6587012D01*
X964210Y6592500D01*
X973100Y6588817D01*
Y6528341D01*
X970500D01*
X963802Y6527008D01*
X958722Y6532088D01*
X940345Y6539700D01*
X920454D01*
X902077Y6532088D01*
X888012Y6518023D01*
X880400Y6499646D01*
Y6479754D01*
X888012Y6461377D01*
X902077Y6447312D01*
X920454Y6439700D01*
X940345D01*
X958722Y6447312D01*
X964210Y6452800D01*
X973100Y6449117D01*
Y6430000D01*
X1163100D01*
Y6557000D01*
Y6684000D01*
Y6811000D01*
Y6938000D01*
Y7065000D01*
Y7192000D01*
Y7319000D01*
Y7446000D01*
Y7573000D01*
Y7700000D01*
Y7827000D01*
Y7954000D01*
Y8084000D01*
D02*
G37*
G36*
X270193Y8215002D02*
X229811D01*
X190206Y8207124D01*
X152898Y8191670D01*
X119322Y8169236D01*
X90768Y8140681D01*
X68334Y8107106D01*
X52880Y8069798D01*
X45002Y8030192D01*
Y7989811D01*
X52880Y7950206D01*
X68334Y7912898D01*
X90768Y7879322D01*
X119322Y7850768D01*
X152898Y7828333D01*
X190206Y7812880D01*
X229811Y7805002D01*
X270193D01*
X309798Y7812880D01*
X347106Y7828333D01*
X380682Y7850768D01*
X409236Y7879322D01*
X431670Y7912898D01*
X447124Y7950206D01*
X455002Y7989811D01*
Y8030192D01*
X447124Y8069798D01*
X431670Y8107106D01*
X409236Y8140681D01*
X380682Y8169236D01*
X347106Y8191670D01*
X309798Y8207124D01*
X270193Y8215002D01*
D02*
G37*
G36*
X3630191Y8204999D02*
X3589810D01*
X3550204Y8197121D01*
X3512896Y8181668D01*
X3479321Y8159233D01*
X3450767Y8130679D01*
X3428332Y8097103D01*
X3412879Y8059795D01*
X3405001Y8020190D01*
Y7979809D01*
X3412879Y7940203D01*
X3428332Y7902895D01*
X3450767Y7869320D01*
X3479321Y7840765D01*
X3512896Y7818331D01*
X3550204Y7802877D01*
X3589810Y7794999D01*
X3630191D01*
X3669797Y7802877D01*
X3707104Y7818331D01*
X3740680Y7840765D01*
X3769234Y7869320D01*
X3791669Y7902895D01*
X3807122Y7940203D01*
X3815000Y7979809D01*
Y8020190D01*
X3807122Y8059795D01*
X3791669Y8097103D01*
X3769234Y8130679D01*
X3740680Y8159233D01*
X3707104Y8181668D01*
X3669797Y8197121D01*
X3630191Y8204999D01*
D02*
G37*
G36*
X3108746Y8076400D02*
X3088854D01*
X3070477Y8068788D01*
X3056412Y8054723D01*
X3048800Y8036346D01*
Y8016454D01*
X3056412Y7998077D01*
X3065459Y7989030D01*
Y7924738D01*
X3067997Y7911979D01*
X3075225Y7901163D01*
X3104085Y7872302D01*
X3103697Y7871721D01*
X3101159Y7858962D01*
Y7775378D01*
X3101088Y7774634D01*
X3100745Y7772613D01*
X3100322Y7770948D01*
X3099855Y7769616D01*
X3099373Y7768573D01*
X3098890Y7767759D01*
X3098402Y7767107D01*
X3097879Y7766548D01*
X3097851Y7766524D01*
X3094944Y7764582D01*
X3087068Y7752795D01*
X3084302Y7738890D01*
Y7710160D01*
X3087068Y7696256D01*
X3094944Y7684469D01*
X3097851Y7682526D01*
X3097880Y7682502D01*
X3098402Y7681944D01*
X3098890Y7681292D01*
X3099373Y7680478D01*
X3099855Y7679434D01*
X3100322Y7678103D01*
X3100745Y7676438D01*
X3101088Y7674417D01*
X3101159Y7673672D01*
Y7636600D01*
X3059300D01*
Y7441600D01*
X3095960D01*
Y7111600D01*
X3059300D01*
Y6916600D01*
X3199300D01*
Y7111600D01*
X3162641D01*
Y7441600D01*
X3199300D01*
Y7636600D01*
X3167841D01*
Y7673672D01*
X3167912Y7674417D01*
X3168255Y7676438D01*
X3168678Y7678102D01*
X3169145Y7679435D01*
X3169627Y7680478D01*
X3170110Y7681292D01*
X3170597Y7681943D01*
X3171121Y7682503D01*
X3171149Y7682526D01*
X3174056Y7684469D01*
X3181932Y7696256D01*
X3184698Y7710160D01*
Y7738890D01*
X3181932Y7752795D01*
X3174056Y7764582D01*
X3171149Y7766524D01*
X3171120Y7766549D01*
X3170598Y7767107D01*
X3170110Y7767759D01*
X3169627Y7768573D01*
X3169145Y7769616D01*
X3168678Y7770948D01*
X3168255Y7772613D01*
X3167912Y7774634D01*
X3167841Y7775378D01*
Y7840863D01*
X3187244D01*
Y7907137D01*
X3163552D01*
X3132141Y7938548D01*
Y7989030D01*
X3141188Y7998077D01*
X3148800Y8016454D01*
Y8036346D01*
X3141188Y8054723D01*
X3127123Y8068788D01*
X3108746Y8076400D01*
D02*
G37*
G36*
X2134870Y6160842D02*
X2056130D01*
X2048326Y6159290D01*
X2041711Y6154869D01*
X2037290Y6148254D01*
X2035738Y6140450D01*
Y6051550D01*
X2037290Y6043746D01*
X2041711Y6037131D01*
X2048326Y6032710D01*
X2056130Y6031158D01*
X2134870D01*
X2142674Y6032710D01*
X2149289Y6037131D01*
X2153710Y6043746D01*
X2155262Y6051550D01*
Y6140450D01*
X2153710Y6148254D01*
X2149289Y6154869D01*
X2142674Y6159290D01*
X2134870Y6160842D01*
D02*
G37*
G36*
X2913100Y8084000D02*
X2723100D01*
Y7954000D01*
Y7827000D01*
Y7700000D01*
Y7573000D01*
Y7446000D01*
Y7319000D01*
Y7192000D01*
Y7065000D01*
Y6938000D01*
Y6811000D01*
Y6684000D01*
Y6541969D01*
X2722808Y6540500D01*
Y6451601D01*
X2722808Y6451600D01*
X2723100Y6450130D01*
Y6430000D01*
X2735962D01*
X2849808Y6316153D01*
Y6160050D01*
X2843300Y6154300D01*
X2837410Y6154300D01*
X2699300D01*
Y6012300D01*
X2734910D01*
X2735207Y6010520D01*
X2735370Y6008674D01*
Y5932764D01*
X2738105Y5919014D01*
X2745893Y5907358D01*
X2780037Y5873214D01*
Y5654464D01*
X2779978Y5653772D01*
X2779557Y5650872D01*
X2778986Y5648151D01*
X2778874Y5647750D01*
X2778085Y5647051D01*
X2775913Y5645599D01*
X2775134Y5644433D01*
X2774086Y5643504D01*
X2767342Y5634614D01*
X2767071Y5634057D01*
X2766634Y5633619D01*
X2765341Y5630498D01*
X2763863Y5627458D01*
X2763826Y5626839D01*
X2763589Y5626268D01*
Y5622892D01*
X2763386Y5619516D01*
X2763589Y5618930D01*
Y5618311D01*
X2764773Y5612357D01*
Y5587643D01*
X2762991Y5578684D01*
X2762398Y5577797D01*
X2762007Y5575827D01*
X2761238Y5573972D01*
Y5571963D01*
X2760846Y5569993D01*
Y5334000D01*
X2760847Y5333996D01*
X2760846Y5333990D01*
X2761667Y5329873D01*
X2762398Y5326196D01*
X2762401Y5326192D01*
X2762402Y5326187D01*
X2764509Y5323038D01*
X2766819Y5319581D01*
X2766823Y5319578D01*
X2766826Y5319574D01*
X2830380Y5256081D01*
X2830381Y5256081D01*
X2830381Y5256080D01*
X2830388Y5256074D01*
X2833551Y5253962D01*
X2836996Y5251660D01*
X2837001Y5251659D01*
X2837006Y5251657D01*
X2840928Y5250878D01*
X2844800Y5250108D01*
X3009900D01*
X3017704Y5251660D01*
X3024319Y5256081D01*
X3024320Y5256081D01*
X3085279Y5317041D01*
X3089700Y5323656D01*
X3091252Y5331460D01*
Y5549921D01*
X3092560Y5556500D01*
X3091252Y5563079D01*
Y5580000D01*
X3091235Y5580084D01*
X3091251Y5580170D01*
X3090456Y5584004D01*
X3089700Y5587804D01*
X3089652Y5587875D01*
X3089634Y5587960D01*
X3087444Y5591180D01*
X3085279Y5594419D01*
X3085207Y5594468D01*
X3085159Y5594539D01*
X3033119Y5645719D01*
X3029866Y5647853D01*
X3026624Y5650020D01*
X3026539Y5650037D01*
X3026466Y5650084D01*
X3022635Y5650813D01*
X3018820Y5651572D01*
X2852275D01*
X2851956Y5653772D01*
X2851898Y5654464D01*
Y5888097D01*
X2849163Y5901847D01*
X2841374Y5913504D01*
X2807230Y5947647D01*
Y6003600D01*
X2814619Y6012300D01*
X2843300Y6012300D01*
X2860690Y6012300D01*
X2862396Y6011160D01*
X2870200Y6009608D01*
X3064400D01*
Y6001175D01*
X3204400D01*
Y6018994D01*
X3206540Y6022196D01*
X3208092Y6030000D01*
Y6705600D01*
X3206540Y6713404D01*
X3204400Y6716606D01*
Y6721175D01*
X3200390D01*
X3195504Y6724440D01*
X3187700Y6725992D01*
X3086101D01*
X3086100Y6725992D01*
X3078296Y6724440D01*
X3073410Y6721175D01*
X3064400D01*
Y6712739D01*
X2921313Y6569652D01*
X2913100Y6573054D01*
Y6684000D01*
Y6811000D01*
Y6938000D01*
Y7065000D01*
Y7192000D01*
Y7319000D01*
Y7446000D01*
Y7573000D01*
Y7700000D01*
Y7827000D01*
Y7954000D01*
Y8084000D01*
D02*
G37*
G36*
X837400Y5995215D02*
X762000D01*
Y5919814D01*
X837400D01*
Y5995215D01*
D02*
G37*
G36*
X711200D02*
X635800D01*
Y5919814D01*
X711200D01*
Y5995215D01*
D02*
G37*
G36*
Y5869014D02*
X635800D01*
Y5793615D01*
X711200D01*
Y5869014D01*
D02*
G37*
G36*
X2346746Y6146000D02*
X2326854D01*
X2308477Y6138388D01*
X2294412Y6124323D01*
X2286800Y6105946D01*
Y6086054D01*
X2294412Y6067677D01*
X2308477Y6053612D01*
X2326854Y6046000D01*
X2346746D01*
X2365123Y6053612D01*
X2374170Y6062659D01*
X2437290D01*
X2460120Y6039829D01*
Y5934390D01*
X2428560D01*
Y5844860D01*
X2429438D01*
Y5798820D01*
X2430990Y5791016D01*
X2435411Y5784401D01*
X2442026Y5779980D01*
X2449830Y5778428D01*
X2528570D01*
X2536374Y5779980D01*
X2542989Y5784401D01*
X2547410Y5791016D01*
X2548962Y5798820D01*
Y5844860D01*
X2549840D01*
Y5934390D01*
X2526801D01*
Y6053640D01*
X2524263Y6066399D01*
X2517036Y6077215D01*
X2474675Y6119575D01*
X2463859Y6126803D01*
X2451100Y6129341D01*
X2374170D01*
X2365123Y6138388D01*
X2346746Y6146000D01*
D02*
G37*
G36*
X3042813Y5796247D02*
X2959684D01*
X2940647Y5792460D01*
X2924508Y5781677D01*
X2913724Y5765537D01*
X2909937Y5746500D01*
X2913724Y5727463D01*
X2924508Y5711324D01*
X2940647Y5700540D01*
X2959684Y5696753D01*
X3042813D01*
X3061851Y5700540D01*
X3077990Y5711324D01*
X3088774Y5727463D01*
X3092560Y5746500D01*
X3088774Y5765537D01*
X3077990Y5781677D01*
X3061851Y5792460D01*
X3042813Y5796247D01*
D02*
G37*
G36*
X3171825Y5036783D02*
Y4975400D01*
X3233208D01*
X3230664Y4984893D01*
X3218763Y5005507D01*
X3201932Y5022338D01*
X3181318Y5034239D01*
X3171825Y5036783D01*
D02*
G37*
G36*
X3121025D02*
X3111532Y5034239D01*
X3090918Y5022338D01*
X3074087Y5005507D01*
X3062186Y4984893D01*
X3059642Y4975400D01*
X3121025D01*
Y5036783D01*
D02*
G37*
G36*
X3233208Y4924600D02*
X3171825D01*
Y4863217D01*
X3181318Y4865760D01*
X3201932Y4877662D01*
X3218763Y4894493D01*
X3230664Y4915107D01*
X3233208Y4924600D01*
D02*
G37*
G36*
X3121025D02*
X3059642D01*
X3062186Y4915107D01*
X3074087Y4894493D01*
X3090918Y4877662D01*
X3111532Y4865760D01*
X3121025Y4863217D01*
Y4924600D01*
D02*
G37*
G36*
X3272923Y5796247D02*
X3189794D01*
X3170757Y5792460D01*
X3154618Y5781677D01*
X3150025Y5774804D01*
X3119004Y5741938D01*
X3104909Y5727843D01*
X3096278Y5714927D01*
X3093248Y5699690D01*
Y5612157D01*
X3096278Y5596921D01*
X3104909Y5584004D01*
X3125947Y5562967D01*
X3128125Y5560404D01*
X3131383Y5556059D01*
X3134101Y5551878D01*
X3136310Y5547861D01*
X3138041Y5544015D01*
X3139327Y5540342D01*
X3140208Y5536815D01*
X3140722Y5533392D01*
X3140941Y5529013D01*
X3141003Y5528767D01*
Y5507709D01*
X3155333D01*
X3344889Y5318152D01*
Y4929239D01*
X3237060Y4821410D01*
X3215188D01*
X3199409Y4831953D01*
X3178925Y4836028D01*
X3113925D01*
X3093441Y4831953D01*
X3077662Y4821410D01*
X2824737D01*
X2794081Y4821735D01*
X2764000Y4823212D01*
Y4827200D01*
X2745189D01*
X2745026Y4827244D01*
X2744695Y4827200D01*
X2744133D01*
X2743695Y4827287D01*
X2743257Y4827200D01*
X2499000D01*
Y4613685D01*
X2498526Y4613211D01*
X2497432D01*
X2484608Y4611522D01*
X2294754D01*
X2294752Y4611523D01*
X2276269Y4609089D01*
X2259046Y4601955D01*
X2244256Y4590607D01*
X2244256Y4590606D01*
X1730045Y4076395D01*
X1718696Y4061605D01*
X1711562Y4044383D01*
X1709129Y4025900D01*
X1709129Y4025898D01*
Y3789741D01*
X1708864Y3779656D01*
X1707464Y3763798D01*
X1705217Y3750315D01*
X1702254Y3739307D01*
X1698786Y3730831D01*
X1695118Y3724829D01*
X1691539Y3720974D01*
X1688038Y3718640D01*
X1684070Y3717239D01*
X1677042Y3716500D01*
X1601540D01*
Y3451500D01*
X1959540D01*
Y3716500D01*
X1884038D01*
X1877010Y3717239D01*
X1873042Y3718640D01*
X1869542Y3720974D01*
X1865962Y3724829D01*
X1862294Y3730831D01*
X1858826Y3739308D01*
X1855862Y3750317D01*
X1853616Y3763797D01*
X1852216Y3779656D01*
X1851951Y3789741D01*
Y3996320D01*
X2324331Y4468701D01*
X2495742D01*
X2495744Y4468700D01*
X2499538Y4469200D01*
X2764000D01*
Y4646502D01*
X2764739Y4653529D01*
X2766140Y4657497D01*
X2768474Y4660998D01*
X2772329Y4664578D01*
X2778331Y4668246D01*
X2786808Y4671714D01*
X2797817Y4674677D01*
X2811297Y4676924D01*
X2827156Y4678323D01*
X2837241Y4678589D01*
X3077662D01*
X3093441Y4668046D01*
X3113925Y4663971D01*
X3178925D01*
X3199409Y4668046D01*
X3215188Y4678589D01*
X3266638D01*
X3266640Y4678589D01*
X3285122Y4681022D01*
X3302345Y4688156D01*
X3317135Y4699504D01*
X3466794Y4849164D01*
X3466795Y4849165D01*
X3478144Y4863955D01*
X3485278Y4881177D01*
X3487711Y4899660D01*
Y5453380D01*
X3487492Y5455043D01*
Y5498273D01*
X3502542Y5513323D01*
X3509696Y5518104D01*
X3517572Y5529891D01*
X3520338Y5543795D01*
Y5571525D01*
X3517572Y5585429D01*
X3509696Y5597216D01*
X3497909Y5605092D01*
X3484005Y5607858D01*
X3455275D01*
X3441371Y5605092D01*
X3438706Y5603312D01*
X3321714D01*
Y5605291D01*
X3301848D01*
X3301410Y5605378D01*
X3300972Y5605291D01*
X3215379D01*
X3215134Y5605353D01*
X3210754Y5605572D01*
X3207332Y5606085D01*
X3203804Y5606967D01*
X3200131Y5608253D01*
X3196285Y5609984D01*
X3192271Y5612191D01*
X3188086Y5614911D01*
X3183742Y5618169D01*
X3181179Y5620347D01*
X3172878Y5628649D01*
Y5683198D01*
X3173513Y5683833D01*
X3175773Y5685733D01*
X3179767Y5688671D01*
X3183645Y5691125D01*
X3187407Y5693124D01*
X3191055Y5694698D01*
X3194611Y5695883D01*
X3198096Y5696706D01*
X3198430Y5696753D01*
X3272923D01*
X3291960Y5700540D01*
X3308100Y5711324D01*
X3318883Y5727463D01*
X3322670Y5746500D01*
X3318883Y5765537D01*
X3308100Y5781677D01*
X3291960Y5792460D01*
X3272923Y5796247D01*
D02*
G37*
G36*
X1508546Y4888700D02*
X1488654D01*
X1470277Y4881088D01*
X1456212Y4867023D01*
X1448600Y4848646D01*
Y4828754D01*
X1456212Y4810377D01*
X1461077Y4805512D01*
Y4740974D01*
X1457395Y4739987D01*
X1434934Y4727020D01*
X1416595Y4708680D01*
X1403627Y4686219D01*
X1396915Y4661168D01*
Y4635232D01*
X1403627Y4610181D01*
X1416595Y4587720D01*
X1434934Y4569380D01*
X1457395Y4556413D01*
X1482447Y4549700D01*
X1508382D01*
X1533434Y4556413D01*
X1555895Y4569380D01*
X1574234Y4587720D01*
X1587202Y4610181D01*
X1593915Y4635232D01*
Y4661168D01*
X1587202Y4686219D01*
X1574234Y4708680D01*
X1555895Y4727020D01*
X1533434Y4739987D01*
X1532938Y4740120D01*
Y4802327D01*
X1540988Y4810377D01*
X1548600Y4828754D01*
Y4848646D01*
X1540988Y4867023D01*
X1526923Y4881088D01*
X1508546Y4888700D01*
D02*
G37*
G36*
X1178346D02*
X1158454D01*
X1140077Y4881088D01*
X1126012Y4867023D01*
X1118400Y4848646D01*
Y4828754D01*
X1126012Y4810377D01*
X1129764Y4806625D01*
Y4741272D01*
X1124970Y4739987D01*
X1102509Y4727020D01*
X1084170Y4708680D01*
X1071202Y4686219D01*
X1064489Y4661168D01*
Y4635232D01*
X1071202Y4610181D01*
X1084170Y4587720D01*
X1102509Y4569380D01*
X1124970Y4556413D01*
X1150021Y4549700D01*
X1175957D01*
X1201009Y4556413D01*
X1223469Y4569380D01*
X1241809Y4587720D01*
X1254776Y4610181D01*
X1261489Y4635232D01*
Y4661168D01*
X1254776Y4686219D01*
X1241809Y4708680D01*
X1223469Y4727020D01*
X1201625Y4739631D01*
Y4801214D01*
X1210788Y4810377D01*
X1218400Y4828754D01*
Y4848646D01*
X1210788Y4867023D01*
X1196723Y4881088D01*
X1178346Y4888700D01*
D02*
G37*
G36*
X835446D02*
X815554D01*
X797177Y4881088D01*
X783112Y4867023D01*
X775500Y4848646D01*
Y4828754D01*
X783112Y4810377D01*
X794691Y4798798D01*
Y4740563D01*
X792544Y4739987D01*
X770083Y4727020D01*
X751744Y4708680D01*
X738776Y4686219D01*
X732064Y4661168D01*
Y4635232D01*
X738776Y4610181D01*
X751744Y4587720D01*
X770083Y4569380D01*
X792544Y4556413D01*
X817596Y4549700D01*
X843531D01*
X868583Y4556413D01*
X891044Y4569380D01*
X909383Y4587720D01*
X922351Y4610181D01*
X929063Y4635232D01*
Y4661168D01*
X922351Y4686219D01*
X909383Y4708680D01*
X891044Y4727020D01*
X868583Y4739987D01*
X861372Y4741919D01*
Y4803862D01*
X867888Y4810377D01*
X875500Y4828754D01*
Y4848646D01*
X867888Y4867023D01*
X853823Y4881088D01*
X835446Y4888700D01*
D02*
G37*
G36*
X505246Y4876000D02*
X485354D01*
X466977Y4868388D01*
X452912Y4854323D01*
X445300Y4835946D01*
Y4816054D01*
X452912Y4797677D01*
X460789Y4789800D01*
Y4740167D01*
X460118Y4739987D01*
X437657Y4727020D01*
X419318Y4708680D01*
X406351Y4686219D01*
X399638Y4661168D01*
Y4635232D01*
X406351Y4610181D01*
X419318Y4587720D01*
X437657Y4569380D01*
X460118Y4556413D01*
X485170Y4549700D01*
X511106D01*
X536157Y4556413D01*
X558618Y4569380D01*
X576957Y4587720D01*
X589925Y4610181D01*
X596638Y4635232D01*
Y4661168D01*
X589925Y4686219D01*
X576957Y4708680D01*
X558618Y4727020D01*
X536157Y4739987D01*
X532649Y4740927D01*
Y4792639D01*
X537688Y4797677D01*
X545300Y4816054D01*
Y4835946D01*
X537688Y4854323D01*
X523623Y4868388D01*
X505246Y4876000D01*
D02*
G37*
G36*
X2145000Y4830392D02*
X2050000D01*
X2042196Y4828840D01*
X2039742Y4827200D01*
X1808000D01*
Y4469200D01*
X2073000D01*
Y4471291D01*
X2079419Y4475580D01*
X2234419Y4630581D01*
X2238840Y4637196D01*
X2240392Y4645000D01*
Y4735000D01*
X2238840Y4742804D01*
X2234419Y4749419D01*
X2234418Y4749420D01*
X2159419Y4824419D01*
X2152803Y4828840D01*
X2145000Y4830392D01*
D02*
G37*
G36*
X1508382Y4492700D02*
X1482447D01*
X1457395Y4485987D01*
X1434934Y4473020D01*
X1416595Y4454680D01*
X1403627Y4432219D01*
X1396915Y4407168D01*
Y4381232D01*
X1403627Y4356181D01*
X1416595Y4333720D01*
X1434934Y4315380D01*
X1457395Y4302413D01*
X1482447Y4295700D01*
X1508382D01*
X1533434Y4302413D01*
X1555895Y4315380D01*
X1574234Y4333720D01*
X1587202Y4356181D01*
X1593915Y4381232D01*
Y4407168D01*
X1587202Y4432219D01*
X1574234Y4454680D01*
X1555895Y4473020D01*
X1533434Y4485987D01*
X1508382Y4492700D01*
D02*
G37*
G36*
X1175957D02*
X1150021D01*
X1124970Y4485987D01*
X1102509Y4473020D01*
X1084170Y4454680D01*
X1071202Y4432219D01*
X1064489Y4407168D01*
Y4381232D01*
X1071202Y4356181D01*
X1084170Y4333720D01*
X1102509Y4315380D01*
X1124970Y4302413D01*
X1150021Y4295700D01*
X1175957D01*
X1201009Y4302413D01*
X1223469Y4315380D01*
X1241809Y4333720D01*
X1254776Y4356181D01*
X1261489Y4381232D01*
Y4407168D01*
X1254776Y4432219D01*
X1241809Y4454680D01*
X1223469Y4473020D01*
X1201009Y4485987D01*
X1175957Y4492700D01*
D02*
G37*
G36*
X843531D02*
X817596D01*
X792544Y4485987D01*
X770083Y4473020D01*
X751744Y4454680D01*
X738776Y4432219D01*
X732064Y4407168D01*
Y4381232D01*
X738776Y4356181D01*
X751744Y4333720D01*
X770083Y4315380D01*
X792544Y4302413D01*
X817596Y4295700D01*
X843531D01*
X868583Y4302413D01*
X891044Y4315380D01*
X909383Y4333720D01*
X922351Y4356181D01*
X929063Y4381232D01*
Y4407168D01*
X922351Y4432219D01*
X909383Y4454680D01*
X891044Y4473020D01*
X868583Y4485987D01*
X843531Y4492700D01*
D02*
G37*
G36*
X511106D02*
X485170D01*
X460118Y4485987D01*
X437657Y4473020D01*
X419318Y4454680D01*
X406351Y4432219D01*
X399638Y4407168D01*
Y4381232D01*
X406351Y4356181D01*
X419318Y4333720D01*
X437657Y4315380D01*
X460118Y4302413D01*
X485170Y4295700D01*
X511106D01*
X536157Y4302413D01*
X558618Y4315380D01*
X576957Y4333720D01*
X589925Y4356181D01*
X596638Y4381232D01*
Y4407168D01*
X589925Y4432219D01*
X576957Y4454680D01*
X558618Y4473020D01*
X536157Y4485987D01*
X511106Y4492700D01*
D02*
G37*
G36*
X1599315Y4244100D02*
X1520815D01*
Y4165600D01*
X1599315D01*
Y4244100D01*
D02*
G37*
G36*
X1266889D02*
X1188389D01*
Y4165600D01*
X1266889D01*
Y4244100D01*
D02*
G37*
G36*
X934463D02*
X855963D01*
Y4165600D01*
X934463D01*
Y4244100D01*
D02*
G37*
G36*
X602038D02*
X523538D01*
Y4165600D01*
X602038D01*
Y4244100D01*
D02*
G37*
G36*
X1470015D02*
X1391515D01*
Y4165600D01*
X1470015D01*
Y4244100D01*
D02*
G37*
G36*
X1137589D02*
X1059089D01*
Y4165600D01*
X1137589D01*
Y4244100D01*
D02*
G37*
G36*
X805163D02*
X726664D01*
Y4165600D01*
X805163D01*
Y4244100D01*
D02*
G37*
G36*
X472738D02*
X394238D01*
Y4165600D01*
X472738D01*
Y4244100D01*
D02*
G37*
G36*
X1599315Y4114800D02*
X1520815D01*
Y4036300D01*
X1599315D01*
Y4114800D01*
D02*
G37*
G36*
X1470015D02*
X1391515D01*
Y4036300D01*
X1470015D01*
Y4114800D01*
D02*
G37*
G36*
X1266889D02*
X1188389D01*
Y4036300D01*
X1266889D01*
Y4114800D01*
D02*
G37*
G36*
X1137589D02*
X1059089D01*
Y4036300D01*
X1137589D01*
Y4114800D01*
D02*
G37*
G36*
X934463D02*
X855963D01*
Y4036300D01*
X934463D01*
Y4114800D01*
D02*
G37*
G36*
X805163D02*
X726664D01*
Y4036300D01*
X805163D01*
Y4114800D01*
D02*
G37*
G36*
X602038D02*
X523538D01*
Y4036300D01*
X602038D01*
Y4114800D01*
D02*
G37*
G36*
X472738D02*
X394238D01*
Y4036300D01*
X472738D01*
Y4114800D01*
D02*
G37*
G36*
X3400846Y4317200D02*
X3380954D01*
X3362577Y4309588D01*
X3348512Y4295523D01*
X3340900Y4277146D01*
Y4257254D01*
X3348512Y4238877D01*
X3354548Y4232841D01*
Y4145148D01*
X3346857Y4143087D01*
X3324396Y4130120D01*
X3306057Y4111780D01*
X3293089Y4089319D01*
X3286377Y4064268D01*
Y4038332D01*
X3293089Y4013281D01*
X3306057Y3990820D01*
X3324396Y3972480D01*
X3346857Y3959513D01*
X3371909Y3952800D01*
X3397844D01*
X3422896Y3959513D01*
X3445357Y3972480D01*
X3463696Y3990820D01*
X3476664Y4013281D01*
X3483377Y4038332D01*
Y4064268D01*
X3476664Y4089319D01*
X3463696Y4111780D01*
X3445357Y4130120D01*
X3422896Y4143087D01*
X3421229Y4143534D01*
Y4226818D01*
X3433288Y4238877D01*
X3440900Y4257254D01*
Y4277146D01*
X3433288Y4295523D01*
X3419223Y4309588D01*
X3400846Y4317200D01*
D02*
G37*
G36*
X3057946D02*
X3038054D01*
X3019677Y4309588D01*
X3005612Y4295523D01*
X2998000Y4277146D01*
Y4257254D01*
X3005612Y4238877D01*
X3016885Y4227604D01*
Y4143745D01*
X3014432Y4143087D01*
X2991971Y4130120D01*
X2973632Y4111780D01*
X2960664Y4089319D01*
X2953951Y4064268D01*
Y4038332D01*
X2960664Y4013281D01*
X2973632Y3990820D01*
X2991971Y3972480D01*
X3014432Y3959513D01*
X3039483Y3952800D01*
X3065419D01*
X3090471Y3959513D01*
X3112932Y3972480D01*
X3131271Y3990820D01*
X3144238Y4013281D01*
X3150951Y4038332D01*
Y4064268D01*
X3144238Y4089319D01*
X3131271Y4111780D01*
X3112932Y4130120D01*
X3090471Y4143087D01*
X3083566Y4144937D01*
Y4232055D01*
X3090388Y4238877D01*
X3098000Y4257254D01*
Y4277146D01*
X3090388Y4295523D01*
X3076323Y4309588D01*
X3057946Y4317200D01*
D02*
G37*
G36*
X2727746D02*
X2707854D01*
X2689477Y4309588D01*
X2675412Y4295523D01*
X2667800Y4277146D01*
Y4257254D01*
X2675412Y4238877D01*
X2685572Y4228717D01*
Y4144043D01*
X2682006Y4143087D01*
X2659545Y4130120D01*
X2641206Y4111780D01*
X2628238Y4089319D01*
X2621526Y4064268D01*
Y4038332D01*
X2628238Y4013281D01*
X2641206Y3990820D01*
X2659545Y3972480D01*
X2682006Y3959513D01*
X2707058Y3952800D01*
X2732993D01*
X2758045Y3959513D01*
X2780506Y3972480D01*
X2798845Y3990820D01*
X2811813Y4013281D01*
X2818525Y4038332D01*
Y4064268D01*
X2811813Y4089319D01*
X2798845Y4111780D01*
X2780506Y4130120D01*
X2758045Y4143087D01*
X2752253Y4144639D01*
Y4230943D01*
X2760188Y4238877D01*
X2767800Y4257254D01*
Y4277146D01*
X2760188Y4295523D01*
X2746123Y4309588D01*
X2727746Y4317200D01*
D02*
G37*
G36*
X2397546D02*
X2377654D01*
X2359277Y4309588D01*
X2345212Y4295523D01*
X2337600Y4277146D01*
Y4257254D01*
X2345212Y4238877D01*
X2351670Y4232420D01*
Y4143647D01*
X2349581Y4143087D01*
X2327120Y4130120D01*
X2308780Y4111780D01*
X2295813Y4089319D01*
X2289100Y4064268D01*
Y4038332D01*
X2295813Y4013281D01*
X2308780Y3990820D01*
X2327120Y3972480D01*
X2349581Y3959513D01*
X2374632Y3952800D01*
X2400568D01*
X2425619Y3959513D01*
X2448080Y3972480D01*
X2466420Y3990820D01*
X2479387Y4013281D01*
X2486100Y4038332D01*
Y4064268D01*
X2479387Y4089319D01*
X2466420Y4111780D01*
X2448080Y4130120D01*
X2425619Y4143087D01*
X2423530Y4143647D01*
Y4232420D01*
X2429988Y4238877D01*
X2437600Y4257254D01*
Y4277146D01*
X2429988Y4295523D01*
X2415923Y4309588D01*
X2397546Y4317200D01*
D02*
G37*
G36*
X3397844Y3895800D02*
X3371909D01*
X3346857Y3889087D01*
X3324396Y3876120D01*
X3306057Y3857780D01*
X3293089Y3835319D01*
X3286377Y3810268D01*
Y3784332D01*
X3293089Y3759281D01*
X3306057Y3736820D01*
X3324396Y3718480D01*
X3346857Y3705513D01*
X3371909Y3698800D01*
X3397844D01*
X3422896Y3705513D01*
X3445357Y3718480D01*
X3463696Y3736820D01*
X3476664Y3759281D01*
X3483377Y3784332D01*
Y3810268D01*
X3476664Y3835319D01*
X3463696Y3857780D01*
X3445357Y3876120D01*
X3422896Y3889087D01*
X3397844Y3895800D01*
D02*
G37*
G36*
X3065419D02*
X3039483D01*
X3014432Y3889087D01*
X2991971Y3876120D01*
X2973632Y3857780D01*
X2960664Y3835319D01*
X2953951Y3810268D01*
Y3784332D01*
X2960664Y3759281D01*
X2973632Y3736820D01*
X2991971Y3718480D01*
X3014432Y3705513D01*
X3039483Y3698800D01*
X3065419D01*
X3090471Y3705513D01*
X3112932Y3718480D01*
X3131271Y3736820D01*
X3144238Y3759281D01*
X3150951Y3784332D01*
Y3810268D01*
X3144238Y3835319D01*
X3131271Y3857780D01*
X3112932Y3876120D01*
X3090471Y3889087D01*
X3065419Y3895800D01*
D02*
G37*
G36*
X2732993D02*
X2707058D01*
X2682006Y3889087D01*
X2659545Y3876120D01*
X2641206Y3857780D01*
X2628238Y3835319D01*
X2621526Y3810268D01*
Y3784332D01*
X2628238Y3759281D01*
X2641206Y3736820D01*
X2659545Y3718480D01*
X2682006Y3705513D01*
X2707058Y3698800D01*
X2732993D01*
X2758045Y3705513D01*
X2780506Y3718480D01*
X2798845Y3736820D01*
X2811813Y3759281D01*
X2818525Y3784332D01*
Y3810268D01*
X2811813Y3835319D01*
X2798845Y3857780D01*
X2780506Y3876120D01*
X2758045Y3889087D01*
X2732993Y3895800D01*
D02*
G37*
G36*
X2400568D02*
X2374632D01*
X2349581Y3889087D01*
X2327120Y3876120D01*
X2308780Y3857780D01*
X2295813Y3835319D01*
X2289100Y3810268D01*
Y3784332D01*
X2295813Y3759281D01*
X2308780Y3736820D01*
X2327120Y3718480D01*
X2349581Y3705513D01*
X2374632Y3698800D01*
X2400568D01*
X2425619Y3705513D01*
X2448080Y3718480D01*
X2466420Y3736820D01*
X2479387Y3759281D01*
X2486100Y3784332D01*
Y3810268D01*
X2479387Y3835319D01*
X2466420Y3857780D01*
X2448080Y3876120D01*
X2425619Y3889087D01*
X2400568Y3895800D01*
D02*
G37*
G36*
X3488777Y3647200D02*
X3410277D01*
Y3568700D01*
X3488777D01*
Y3647200D01*
D02*
G37*
G36*
X3156351D02*
X3077851D01*
Y3568700D01*
X3156351D01*
Y3647200D01*
D02*
G37*
G36*
X2823926D02*
X2745426D01*
Y3568700D01*
X2823926D01*
Y3647200D01*
D02*
G37*
G36*
X2491500D02*
X2413000D01*
Y3568700D01*
X2491500D01*
Y3647200D01*
D02*
G37*
G36*
X3359477D02*
X3280977D01*
Y3568700D01*
X3359477D01*
Y3647200D01*
D02*
G37*
G36*
X3027051D02*
X2948551D01*
Y3568700D01*
X3027051D01*
Y3647200D01*
D02*
G37*
G36*
X2694626D02*
X2616126D01*
Y3568700D01*
X2694626D01*
Y3647200D01*
D02*
G37*
G36*
X2362200D02*
X2283700D01*
Y3568700D01*
X2362200D01*
Y3647200D01*
D02*
G37*
G36*
X876300Y3557589D02*
Y3492500D01*
X941389D01*
X938475Y3503375D01*
X926103Y3524805D01*
X908605Y3542303D01*
X887175Y3554675D01*
X876300Y3557589D01*
D02*
G37*
G36*
X825500D02*
X814625Y3554675D01*
X793195Y3542303D01*
X775697Y3524805D01*
X763325Y3503375D01*
X760411Y3492500D01*
X825500D01*
Y3557589D01*
D02*
G37*
G36*
X3488777Y3517900D02*
X3410277D01*
Y3439400D01*
X3488777D01*
Y3517900D01*
D02*
G37*
G36*
X3359477D02*
X3280977D01*
Y3439400D01*
X3359477D01*
Y3517900D01*
D02*
G37*
G36*
X3156351D02*
X3077851D01*
Y3439400D01*
X3156351D01*
Y3517900D01*
D02*
G37*
G36*
X3027051D02*
X2948551D01*
Y3439400D01*
X3027051D01*
Y3517900D01*
D02*
G37*
G36*
X2823926D02*
X2745426D01*
Y3439400D01*
X2823926D01*
Y3517900D01*
D02*
G37*
G36*
X2694626D02*
X2616126D01*
Y3439400D01*
X2694626D01*
Y3517900D01*
D02*
G37*
G36*
X2491500D02*
X2413000D01*
Y3439400D01*
X2491500D01*
Y3517900D01*
D02*
G37*
G36*
X2362200D02*
X2283700D01*
Y3439400D01*
X2362200D01*
Y3517900D01*
D02*
G37*
G36*
X941389Y3441700D02*
X876300D01*
Y3376611D01*
X887175Y3379525D01*
X908605Y3391897D01*
X926103Y3409395D01*
X938475Y3430825D01*
X941389Y3441700D01*
D02*
G37*
G36*
X825500D02*
X760411D01*
X763325Y3430825D01*
X775697Y3409395D01*
X793195Y3391897D01*
X814625Y3379525D01*
X825500Y3376611D01*
Y3441700D01*
D02*
G37*
G36*
X982980Y3335092D02*
X723900D01*
X723367Y3334986D01*
X722828Y3335064D01*
X719479Y3334213D01*
X716096Y3333540D01*
X715644Y3333238D01*
X715117Y3333104D01*
X712351Y3331037D01*
X709481Y3329119D01*
X709178Y3328667D01*
X708743Y3328342D01*
X617303Y3226741D01*
X615540Y3223776D01*
X613620Y3220904D01*
X613514Y3220370D01*
X613236Y3219903D01*
X612741Y3216485D01*
X612068Y3213100D01*
Y2997200D01*
X612816Y2993441D01*
X613515Y2989655D01*
X613593Y2989536D01*
X613620Y2989396D01*
X615753Y2986205D01*
X617845Y2982980D01*
X709285Y2889000D01*
X709402Y2888919D01*
X709481Y2888801D01*
X712678Y2886664D01*
X715839Y2884489D01*
X715978Y2884459D01*
X716096Y2884380D01*
X719860Y2883632D01*
X723621Y2882830D01*
X723761Y2882856D01*
X723900Y2882828D01*
X977900D01*
X981180Y2883480D01*
X984498Y2883925D01*
X985063Y2884253D01*
X985704Y2884380D01*
X988486Y2886240D01*
X991380Y2887919D01*
X1080280Y2966236D01*
X1080676Y2966755D01*
X1081219Y2967118D01*
X1083079Y2969900D01*
X1085109Y2972559D01*
X1085277Y2973190D01*
X1085640Y2973733D01*
X1086292Y2977015D01*
X1087151Y2980249D01*
X1087064Y2980897D01*
X1087192Y2981537D01*
Y3241357D01*
X1087058Y3242031D01*
X1087147Y3242714D01*
X1086286Y3245913D01*
X1085640Y3249161D01*
X1085258Y3249733D01*
X1085079Y3250397D01*
X1083060Y3253022D01*
X1081219Y3255777D01*
X1080647Y3256159D01*
X1080228Y3256704D01*
X996408Y3330046D01*
X993539Y3331699D01*
X990784Y3333540D01*
X990109Y3333674D01*
X989513Y3334017D01*
X986228Y3334446D01*
X982980Y3335092D01*
D02*
G37*
G36*
X3425400Y2946727D02*
X3187650D01*
X3173598Y2943932D01*
X3092028D01*
X3077975Y2946727D01*
X2840225D01*
X2825740Y2943846D01*
X2813459Y2935641D01*
X2805254Y2923360D01*
X2802373Y2908875D01*
Y2806125D01*
X2805254Y2791640D01*
X2812373Y2780986D01*
X2814253Y2694497D01*
X2815066Y2690829D01*
X2815800Y2687136D01*
X2815926Y2686949D01*
X2815974Y2686729D01*
X2818134Y2683644D01*
X2820221Y2680521D01*
X3070970Y2429771D01*
X3067568Y2421558D01*
X2852076D01*
X2844273Y2420005D01*
X2837657Y2415585D01*
X2833237Y2408969D01*
X2831684Y2401166D01*
Y2266165D01*
X2537076D01*
Y1955872D01*
X2378288D01*
Y1967537D01*
X2378492Y1968562D01*
X2378288Y1969587D01*
Y2006268D01*
X2312014D01*
Y2001903D01*
X2276548D01*
X2263789Y1999365D01*
X2252973Y1992137D01*
X2241542Y1980706D01*
X2219886D01*
Y1981365D01*
X2200019D01*
X2199581Y1981452D01*
X2199143Y1981365D01*
X2094886Y1981366D01*
X2093886Y1989841D01*
Y2082365D01*
X2025886D01*
Y1957365D01*
X2093885Y1957365D01*
X2094886Y1948889D01*
Y1863365D01*
Y1745841D01*
X2093885Y1737366D01*
X2085995Y1737365D01*
X2025886D01*
Y1633108D01*
X2025799Y1632670D01*
X2025868Y1632322D01*
X2025811Y1631972D01*
X2025886Y1629777D01*
Y1612365D01*
X2026420D01*
Y1567297D01*
X2026347Y1566552D01*
X2026004Y1564560D01*
X2025581Y1562911D01*
X2025111Y1561585D01*
X2024623Y1560539D01*
X2024127Y1559711D01*
X2023617Y1559034D01*
X2023058Y1558439D01*
X2022996Y1558386D01*
X2020079Y1556436D01*
X2012202Y1544649D01*
X2009437Y1530745D01*
Y1502015D01*
X2012202Y1488111D01*
X2020079Y1476324D01*
X2031866Y1468448D01*
X2045770Y1465682D01*
X2073500D01*
X2087404Y1468448D01*
X2099191Y1476324D01*
X2101160Y1479270D01*
X2101302Y1479437D01*
X2101996Y1480097D01*
X2102749Y1480676D01*
X2103624Y1481211D01*
X2104684Y1481720D01*
X2105987Y1482197D01*
X2107587Y1482623D01*
X2109505Y1482966D01*
X2110233Y1483039D01*
X2151450D01*
X2156608Y1477881D01*
X2157751Y1476537D01*
X2159659Y1473993D01*
X2161212Y1471603D01*
X2162433Y1469384D01*
X2163355Y1467334D01*
X2164013Y1465456D01*
X2164446Y1463725D01*
X2164689Y1462100D01*
X2164818Y1459516D01*
X2164880Y1459271D01*
Y1333760D01*
X2181539D01*
Y1292100D01*
X2141960D01*
Y1070100D01*
X2297960D01*
Y1292100D01*
X2248221D01*
Y1333760D01*
X2264880D01*
Y1420760D01*
Y1516760D01*
X2222369D01*
X2222124Y1516822D01*
X2219539Y1516951D01*
X2217916Y1517195D01*
X2216184Y1517627D01*
X2214306Y1518285D01*
X2212256Y1519207D01*
X2210038Y1520427D01*
X2207647Y1521981D01*
X2205103Y1523889D01*
X2203759Y1525032D01*
X2188835Y1539955D01*
X2178019Y1547183D01*
X2165260Y1549721D01*
X2110233D01*
X2109505Y1549794D01*
X2107588Y1550137D01*
X2105987Y1550564D01*
X2104684Y1551040D01*
X2103623Y1551549D01*
X2102749Y1552084D01*
X2101996Y1552663D01*
X2101302Y1553322D01*
X2101160Y1553490D01*
X2099191Y1556436D01*
X2096298Y1558369D01*
X2095812Y1558891D01*
X2095347Y1559516D01*
X2094877Y1560315D01*
X2094401Y1561355D01*
X2093936Y1562696D01*
X2093515Y1564374D01*
X2093172Y1566421D01*
X2093101Y1567173D01*
Y1612365D01*
X2093886D01*
Y1632232D01*
X2093973Y1632670D01*
X2093886Y1633108D01*
Y1634384D01*
X2093894Y1634461D01*
X2093886Y1634489D01*
Y1704889D01*
X2094886Y1713365D01*
X2102776Y1713365D01*
X2155465D01*
X2158686Y1712725D01*
X2171424D01*
X2172331Y1712498D01*
X2174209Y1711841D01*
X2176259Y1710918D01*
X2178477Y1709698D01*
X2180868Y1708144D01*
X2183412Y1706236D01*
X2184756Y1705094D01*
X2349505Y1540345D01*
X2345381Y1534172D01*
X2342984Y1522125D01*
Y1456875D01*
X2345381Y1444828D01*
X2352205Y1434616D01*
X2362417Y1427792D01*
X2374464Y1425395D01*
X2445714D01*
X2457761Y1427792D01*
X2467974Y1434616D01*
X2474798Y1444828D01*
X2477194Y1456875D01*
Y1522125D01*
X2474798Y1534172D01*
X2467974Y1544385D01*
X2457761Y1551209D01*
X2445714Y1553605D01*
X2423992D01*
X2423256Y1557306D01*
X2416029Y1568122D01*
X2239961Y1744190D01*
X2230222Y1755983D01*
X2234010Y1764025D01*
X2269919D01*
X2513904Y1520040D01*
X2515046Y1518697D01*
X2516953Y1516153D01*
X2518507Y1513763D01*
X2519727Y1511544D01*
X2520650Y1509494D01*
X2521307Y1507616D01*
X2521740Y1505885D01*
X2521984Y1504260D01*
X2522113Y1501676D01*
X2522175Y1501431D01*
Y1432920D01*
X2655175D01*
Y1459080D01*
X2690600D01*
Y1421940D01*
X2809600D01*
Y1554940D01*
X2690600D01*
Y1525761D01*
X2655175D01*
Y1551920D01*
X2587008D01*
X2586889Y1551953D01*
X2584563Y1552123D01*
X2583188Y1552411D01*
X2581218Y1553068D01*
X2578692Y1554196D01*
X2575668Y1555863D01*
X2572208Y1558101D01*
X2568550Y1560793D01*
X2560869Y1567376D01*
X2322970Y1805275D01*
X2326373Y1813488D01*
X2831684D01*
Y1741165D01*
X2833237Y1733362D01*
X2837657Y1726746D01*
X2844273Y1722326D01*
X2852076Y1720774D01*
X3102076D01*
X3109880Y1722326D01*
X3116496Y1726746D01*
X3120916Y1733362D01*
X3122468Y1741165D01*
Y1871908D01*
X3434080D01*
X3441884Y1873460D01*
X3448499Y1877881D01*
X3451039Y1880421D01*
X3455460Y1887036D01*
X3457012Y1894840D01*
Y2786612D01*
X3460371Y2791640D01*
X3463252Y2806125D01*
Y2908875D01*
X3460371Y2923360D01*
X3455639Y2930443D01*
X3455460Y2931344D01*
X3451039Y2937959D01*
X3444424Y2942380D01*
X3441086Y2943043D01*
X3439886Y2943846D01*
X3425400Y2946727D01*
D02*
G37*
G36*
X1959540Y3025500D02*
X1601540D01*
Y2760500D01*
X1959540D01*
Y2818705D01*
X1959804Y2818774D01*
X1965060Y2819702D01*
X1991322Y2821589D01*
X2003998D01*
X2004000Y2821589D01*
X2022483Y2824023D01*
X2039705Y2831156D01*
X2054495Y2842505D01*
X2057095Y2845105D01*
X2068444Y2859895D01*
X2075578Y2877117D01*
X2078011Y2895600D01*
X2075578Y2914083D01*
X2068444Y2931305D01*
X2057095Y2946095D01*
X2042305Y2957444D01*
X2025083Y2964578D01*
X2006600Y2967011D01*
X1988117Y2964578D01*
X1988068Y2964557D01*
X1972694Y2965385D01*
X1965500Y2966221D01*
X1959804Y2967226D01*
X1959540Y2967295D01*
Y3025500D01*
D02*
G37*
G36*
X1946000Y2263600D02*
X1827000D01*
Y2130600D01*
X1853159D01*
Y2071751D01*
X1855697Y2058992D01*
X1862925Y2048176D01*
X1875886Y2035215D01*
Y1957365D01*
X1943885D01*
Y2082365D01*
X1923661D01*
X1919840Y2085906D01*
Y2130600D01*
X1946000D01*
Y2263600D01*
D02*
G37*
G36*
X2033286Y1932135D02*
X2015225D01*
X1998539Y1925224D01*
X1990693Y1917378D01*
X1984886Y1913102D01*
X1979078Y1917378D01*
X1971233Y1925224D01*
X1954546Y1932135D01*
X1936485D01*
X1919799Y1925224D01*
X1907027Y1912452D01*
X1900116Y1895766D01*
Y1877705D01*
X1907027Y1861018D01*
X1914872Y1853173D01*
X1919149Y1847365D01*
X1914872Y1841558D01*
X1907027Y1833712D01*
X1900116Y1817026D01*
Y1798965D01*
X1907027Y1782278D01*
X1919799Y1769507D01*
X1936485Y1762595D01*
X1954546D01*
X1971233Y1769507D01*
X1979078Y1777352D01*
X1984886Y1781629D01*
X1990693Y1777352D01*
X1998539Y1769507D01*
X2015225Y1762595D01*
X2033286D01*
X2049973Y1769507D01*
X2062744Y1782278D01*
X2069656Y1798965D01*
Y1817026D01*
X2062744Y1833712D01*
X2054899Y1841558D01*
X2050622Y1847365D01*
X2054899Y1853173D01*
X2062744Y1861018D01*
X2069656Y1877705D01*
Y1895766D01*
X2062744Y1912452D01*
X2049973Y1925224D01*
X2033286Y1932135D01*
D02*
G37*
G36*
X752069Y2520126D02*
X721131D01*
X691247Y2512118D01*
X664453Y2496649D01*
X642577Y2474772D01*
X627107Y2447979D01*
X619100Y2418095D01*
Y2387157D01*
X627107Y2357272D01*
X642577Y2330479D01*
X664453Y2308602D01*
X691247Y2293133D01*
X721131Y2285126D01*
X752069D01*
X781953Y2293133D01*
X795121Y2300736D01*
X799030Y2302355D01*
X800223Y2303270D01*
X1110429D01*
X1331379Y2082320D01*
Y1955800D01*
X1334685Y1930687D01*
X1343409Y1909625D01*
Y1860800D01*
X1412988D01*
X1428409Y1858770D01*
X1443829Y1860800D01*
X1513409D01*
Y1909625D01*
X1522133Y1930687D01*
X1525439Y1955800D01*
Y2122511D01*
X1522133Y2147624D01*
X1512439Y2171026D01*
X1497020Y2191122D01*
X1219230Y2468910D01*
X1199135Y2484331D01*
X1175733Y2494024D01*
X1163177Y2495677D01*
X1150620Y2497330D01*
X807567D01*
X781953Y2512118D01*
X752069Y2520126D01*
D02*
G37*
G36*
X2973600Y1554940D02*
X2854600D01*
Y1428376D01*
X2825465Y1399241D01*
X2797396D01*
X2787019Y1405232D01*
X2769215Y1410002D01*
X2750784D01*
X2732981Y1405232D01*
X2717019Y1396016D01*
X2703986Y1382983D01*
X2694770Y1367021D01*
X2690000Y1349218D01*
Y1330787D01*
X2694770Y1312983D01*
X2703986Y1297022D01*
X2717019Y1283989D01*
X2732981Y1274773D01*
X2750784Y1270003D01*
X2769215D01*
X2787019Y1274773D01*
X2797396Y1280764D01*
X2850002D01*
X2872671Y1285274D01*
X2891890Y1298115D01*
X2955990Y1362215D01*
X2968830Y1381432D01*
X2973339Y1404102D01*
X2973339Y1421679D01*
X2973600Y1421940D01*
X2973600D01*
Y1554940D01*
D02*
G37*
G36*
X833053Y2012199D02*
X832742Y2012126D01*
X619100D01*
Y1777126D01*
X760182D01*
X760427Y1777064D01*
X773787Y1776396D01*
X786188Y1774536D01*
X798696Y1771409D01*
X811352Y1766979D01*
X824176Y1761209D01*
X837173Y1754060D01*
X850336Y1745504D01*
X863660Y1735511D01*
X877124Y1724066D01*
X884705Y1716865D01*
X899464Y1702106D01*
X899465Y1702105D01*
X914255Y1690756D01*
X931477Y1683622D01*
X949960Y1681189D01*
X949962Y1681189D01*
X1373322D01*
Y1437640D01*
X1377831Y1414970D01*
X1390672Y1395752D01*
X1444012Y1342412D01*
X1463230Y1329571D01*
X1485900Y1325062D01*
X1550104D01*
X1560481Y1319071D01*
X1578284Y1314300D01*
X1596716D01*
X1614519Y1319071D01*
X1630481Y1328286D01*
X1643514Y1341319D01*
X1652729Y1357281D01*
X1657500Y1375084D01*
Y1393516D01*
X1652729Y1411319D01*
X1643514Y1427281D01*
X1630481Y1440314D01*
X1614519Y1449529D01*
X1596716Y1454300D01*
X1578284D01*
X1560481Y1449529D01*
X1550104Y1443538D01*
X1510437D01*
X1491798Y1462177D01*
Y1681189D01*
X1543903D01*
X1544869Y1680544D01*
X1557940Y1677944D01*
X1672940D01*
X1677587Y1678868D01*
X1854200D01*
X1862004Y1680420D01*
X1866996Y1683756D01*
X1872904Y1681879D01*
X1875886Y1679818D01*
Y1668839D01*
X1875588Y1668641D01*
X1865545Y1658597D01*
X1858317Y1647781D01*
X1855779Y1635022D01*
Y1427325D01*
X1841120D01*
Y1384815D01*
X1841058Y1384569D01*
X1840929Y1381985D01*
X1840685Y1380361D01*
X1840253Y1378629D01*
X1839595Y1376751D01*
X1838673Y1374701D01*
X1837453Y1372483D01*
X1835899Y1370092D01*
X1833991Y1367549D01*
X1832848Y1366204D01*
X1768336Y1301692D01*
X1766991Y1300549D01*
X1764448Y1298641D01*
X1762057Y1297088D01*
X1759838Y1295867D01*
X1757788Y1294945D01*
X1755911Y1294287D01*
X1754179Y1293854D01*
X1752555Y1293611D01*
X1749970Y1293482D01*
X1749725Y1293420D01*
X1663820D01*
Y1229401D01*
X1625653D01*
X1624909Y1229472D01*
X1622888Y1229815D01*
X1621223Y1230238D01*
X1619891Y1230705D01*
X1618848Y1231187D01*
X1618034Y1231670D01*
X1617382Y1232158D01*
X1616823Y1232681D01*
X1616799Y1232709D01*
X1614856Y1235616D01*
X1603069Y1243492D01*
X1589165Y1246258D01*
X1560435D01*
X1546531Y1243492D01*
X1534744Y1235616D01*
X1526868Y1223829D01*
X1524102Y1209925D01*
Y1182195D01*
X1526868Y1168291D01*
X1534472Y1156911D01*
X1522281Y1144719D01*
X1407981Y1030419D01*
X1403560Y1023804D01*
X1402008Y1016000D01*
X1402008Y927100D01*
X1403560Y919296D01*
X1407980Y912681D01*
X1446080Y874581D01*
X1452696Y870160D01*
X1460500Y868608D01*
X1549399D01*
X1549400Y868608D01*
X1557204Y870160D01*
X1563819Y874581D01*
X1684846Y995608D01*
X1790700Y995608D01*
X1798504Y997160D01*
X1805119Y1001581D01*
X1805680Y1002420D01*
X1805820D01*
Y1002629D01*
X1809540Y1008196D01*
X1811092Y1016000D01*
Y1130300D01*
X1809540Y1138104D01*
X1807463Y1141211D01*
X1805820Y1149420D01*
X1805820Y1149420D01*
Y1234536D01*
X1805882Y1234781D01*
X1806011Y1237366D01*
X1806254Y1238990D01*
X1806687Y1240722D01*
X1807345Y1242599D01*
X1808267Y1244650D01*
X1809487Y1246867D01*
X1811041Y1249259D01*
X1812949Y1251802D01*
X1814092Y1253147D01*
X1879999Y1319054D01*
X1881343Y1320196D01*
X1883887Y1322104D01*
X1886277Y1323658D01*
X1888496Y1324878D01*
X1890546Y1325801D01*
X1892424Y1326458D01*
X1894155Y1326891D01*
X1895780Y1327135D01*
X1898364Y1327264D01*
X1898609Y1327326D01*
X1937120D01*
Y1427325D01*
X1922460D01*
Y1612365D01*
X1943885D01*
Y1737365D01*
X1875886Y1737366D01*
X1874886Y1745841D01*
Y1881365D01*
X1858456D01*
X1854200Y1882212D01*
X1767840D01*
X1763584Y1881365D01*
X1749886D01*
Y1870949D01*
X1749000Y1869624D01*
X1747448Y1861820D01*
Y1826332D01*
X1677587D01*
X1672940Y1827256D01*
X1557940D01*
X1553293Y1826332D01*
X1549400D01*
X1541596Y1824780D01*
X1540446Y1824011D01*
X979539D01*
X956698Y1846853D01*
X854100Y1998209D01*
Y2012126D01*
X833510D01*
X833053Y2012199D01*
D02*
G37*
G36*
X802297Y1435100D02*
X772503D01*
X743282Y1429287D01*
X715756Y1417886D01*
X690984Y1401333D01*
X669917Y1380266D01*
X653364Y1355494D01*
X641963Y1327968D01*
X636150Y1298747D01*
Y1268953D01*
X641963Y1239732D01*
X653364Y1212206D01*
X669917Y1187434D01*
X690984Y1166367D01*
X715756Y1149814D01*
X743282Y1138413D01*
X772503Y1132600D01*
X802297D01*
X831518Y1138413D01*
X859044Y1149814D01*
X883816Y1166367D01*
X904883Y1187434D01*
X921436Y1212206D01*
X932837Y1239732D01*
X938650Y1268953D01*
Y1298747D01*
X932837Y1327968D01*
X921436Y1355494D01*
X904883Y1380266D01*
X883816Y1401333D01*
X859044Y1417886D01*
X831518Y1429287D01*
X802297Y1435100D01*
D02*
G37*
G36*
X2295778Y679000D02*
X2274892D01*
X2255596Y671007D01*
X2242835Y658246D01*
X2230074Y671007D01*
X2210778Y679000D01*
X2189892D01*
X2170596Y671007D01*
X2157835Y658246D01*
X2145074Y671007D01*
X2125778Y679000D01*
X2104892D01*
X2085596Y671007D01*
X2072835Y658246D01*
X2060074Y671007D01*
X2040778Y679000D01*
X2019892D01*
X2000596Y671007D01*
X1987835Y658246D01*
X1975074Y671007D01*
X1955778Y679000D01*
X1934892D01*
X1915596Y671007D01*
X1902835Y658246D01*
X1890074Y671007D01*
X1870778Y679000D01*
X1849892D01*
X1830596Y671007D01*
X1821653Y662064D01*
X1808133Y675585D01*
X1800735Y678649D01*
Y626500D01*
Y574350D01*
X1808133Y577415D01*
X1821653Y590935D01*
X1830596Y581992D01*
X1849892Y574000D01*
X1870778D01*
X1890074Y581992D01*
X1902835Y594754D01*
X1915596Y581992D01*
X1934892Y574000D01*
X1955778D01*
X1975074Y581992D01*
X1987835Y594754D01*
X2000596Y581992D01*
X2009118Y578463D01*
X2015634Y568711D01*
X2032132Y552213D01*
X2028729Y544000D01*
X2019892D01*
X2000596Y536007D01*
X1987835Y523246D01*
X1975074Y536007D01*
X1955778Y544000D01*
X1934892D01*
X1915596Y536007D01*
X1902835Y523246D01*
X1890074Y536007D01*
X1870778Y544000D01*
X1849892D01*
X1830596Y536007D01*
X1821653Y527064D01*
X1808133Y540585D01*
X1800735Y543649D01*
Y491500D01*
Y439350D01*
X1808133Y442415D01*
X1821653Y455935D01*
X1830596Y446993D01*
X1849892Y439000D01*
X1870778D01*
X1890074Y446993D01*
X1902835Y459754D01*
X1915596Y446993D01*
X1934892Y439000D01*
X1955778D01*
X1975074Y446993D01*
X1987835Y459754D01*
X2000596Y446993D01*
X2019892Y439000D01*
X2040778D01*
X2060074Y446993D01*
X2072835Y459754D01*
X2085596Y446993D01*
X2104892Y439000D01*
X2125778D01*
X2145074Y446993D01*
X2157835Y459754D01*
X2170596Y446993D01*
X2189892Y439000D01*
X2210778D01*
X2230074Y446993D01*
X2242835Y459754D01*
X2255596Y446993D01*
X2274892Y439000D01*
X2295778D01*
X2315074Y446993D01*
X2324017Y455935D01*
X2337537Y442415D01*
X2344935Y439350D01*
Y491500D01*
Y543649D01*
X2337537Y540585D01*
X2324017Y527064D01*
X2315074Y536007D01*
X2295778Y544000D01*
X2274892D01*
X2255596Y536007D01*
X2242835Y523246D01*
X2230074Y536007D01*
X2210778Y544000D01*
X2189892D01*
X2170596Y536007D01*
X2157835Y523246D01*
X2149853Y531229D01*
X2146975Y545698D01*
X2138344Y558615D01*
X2130589Y566370D01*
X2132675Y576857D01*
X2145074Y581992D01*
X2157835Y594754D01*
X2170596Y581992D01*
X2189892Y574000D01*
X2210778D01*
X2230074Y581992D01*
X2242835Y594754D01*
X2255596Y581992D01*
X2274892Y574000D01*
X2295778D01*
X2315074Y581992D01*
X2324017Y590935D01*
X2337537Y577415D01*
X2344935Y574350D01*
Y626500D01*
Y678649D01*
X2337537Y675585D01*
X2324017Y662064D01*
X2315074Y671007D01*
X2295778Y679000D01*
D02*
G37*
G36*
X2395735Y678649D02*
Y651900D01*
X2422485D01*
X2419420Y659298D01*
X2403133Y675585D01*
X2395735Y678649D01*
D02*
G37*
G36*
X1749935D02*
X1742537Y675585D01*
X1726250Y659298D01*
X1723186Y651900D01*
X1749935D01*
Y678649D01*
D02*
G37*
G36*
X2479935Y669180D02*
X2469831Y664994D01*
X2455125Y653710D01*
X2443841Y639004D01*
X2436747Y621879D01*
X2428240Y623561D01*
Y614982D01*
X2426243Y610159D01*
X2434899Y607840D01*
X2434328Y603500D01*
Y511539D01*
X2425438Y509771D01*
X2419420Y524298D01*
X2403133Y540585D01*
X2395735Y543649D01*
Y491500D01*
Y439350D01*
X2403133Y442415D01*
X2419420Y458702D01*
X2425438Y473229D01*
X2434328Y471460D01*
Y453500D01*
X2436747Y435122D01*
X2443841Y417996D01*
X2455125Y403290D01*
X2469831Y392006D01*
X2479935Y387821D01*
Y528500D01*
Y669180D01*
D02*
G37*
G36*
X2422485Y601100D02*
X2395735D01*
Y574350D01*
X2403133Y577415D01*
X2419420Y593702D01*
X2422485Y601100D01*
D02*
G37*
G36*
X1749935D02*
X1723186D01*
X1726250Y593702D01*
X1742537Y577415D01*
X1749935Y574350D01*
Y601100D01*
D02*
G37*
G36*
X2530735Y669180D02*
Y553900D01*
X2576343D01*
Y603500D01*
X2573923Y621878D01*
X2566829Y639004D01*
X2555545Y653710D01*
X2540839Y664994D01*
X2530735Y669180D01*
D02*
G37*
G36*
X1614935D02*
X1604831Y664994D01*
X1590125Y653710D01*
X1578841Y639004D01*
X1571747Y621878D01*
X1569328Y603500D01*
Y553900D01*
X1614935D01*
Y669180D01*
D02*
G37*
G36*
X1665735D02*
Y528500D01*
Y387821D01*
X1675839Y392006D01*
X1690545Y403290D01*
X1701829Y417996D01*
X1708923Y435122D01*
X1711343Y453500D01*
Y471460D01*
X1720233Y473229D01*
X1726250Y458702D01*
X1742537Y442415D01*
X1749935Y439350D01*
Y491500D01*
Y543649D01*
X1742537Y540585D01*
X1726250Y524298D01*
X1720233Y509771D01*
X1711343Y511539D01*
Y603500D01*
X1710771Y607840D01*
X1719427Y610159D01*
X1717430Y614982D01*
Y623561D01*
X1708923Y621879D01*
X1701829Y639004D01*
X1690545Y653710D01*
X1675839Y664994D01*
X1665735Y669180D01*
D02*
G37*
G36*
X2576343Y503100D02*
X2530735D01*
Y387821D01*
X2540839Y392006D01*
X2555545Y403290D01*
X2566829Y417996D01*
X2573923Y435122D01*
X2576343Y453500D01*
Y503100D01*
D02*
G37*
G36*
X1614935D02*
X1569328D01*
Y453500D01*
X1571747Y435122D01*
X1578841Y417996D01*
X1590125Y403290D01*
X1604831Y392006D01*
X1614935Y387821D01*
Y503100D01*
D02*
G37*
G36*
X1109600Y521737D02*
Y381000D01*
X1250337D01*
X1245647Y404575D01*
X1232991Y435130D01*
X1214616Y462630D01*
X1191230Y486016D01*
X1163730Y504391D01*
X1133175Y517047D01*
X1109600Y521737D01*
D02*
G37*
G36*
X1058800D02*
X1035226Y517047D01*
X1004670Y504391D01*
X977170Y486016D01*
X953784Y462630D01*
X935409Y435130D01*
X922753Y404575D01*
X918063Y381000D01*
X1058800D01*
Y521737D01*
D02*
G37*
G36*
X2530735Y296179D02*
Y215900D01*
X2576343D01*
Y230500D01*
X2573923Y248878D01*
X2566829Y266004D01*
X2555545Y280710D01*
X2540839Y291994D01*
X2530735Y296179D01*
D02*
G37*
G36*
X1665735D02*
Y215900D01*
X1711343D01*
Y230500D01*
X1708923Y248878D01*
X1701829Y266004D01*
X1690545Y280710D01*
X1675839Y291994D01*
X1665735Y296179D01*
D02*
G37*
G36*
X1614935D02*
X1604831Y291994D01*
X1590125Y280710D01*
X1578841Y266004D01*
X1571747Y248878D01*
X1569328Y230500D01*
Y215900D01*
X1614935D01*
Y296179D01*
D02*
G37*
G36*
X2479935D02*
X2469831Y291994D01*
X2455125Y280710D01*
X2443841Y266004D01*
X2436747Y248878D01*
X2434328Y230500D01*
Y215900D01*
X2479935D01*
Y296179D01*
D02*
G37*
G36*
X802297Y1039100D02*
X772503D01*
X743282Y1033287D01*
X715756Y1021886D01*
X690984Y1005334D01*
X669917Y984266D01*
X653364Y959494D01*
X641963Y931968D01*
X636150Y902747D01*
Y872953D01*
X637923Y864043D01*
X515590Y741710D01*
X500169Y721615D01*
X490476Y698213D01*
X488823Y685657D01*
X487170Y673100D01*
Y631200D01*
X486966Y622251D01*
X485079Y597564D01*
X482003Y576252D01*
X477840Y558397D01*
X472779Y544114D01*
X467130Y533440D01*
X461296Y526186D01*
X455512Y521734D01*
X449375Y519233D01*
X440053Y518100D01*
X421700D01*
Y498233D01*
X421613Y497795D01*
X421700Y497357D01*
Y193100D01*
X746700D01*
Y497357D01*
X746787Y497795D01*
X746700Y498233D01*
Y518100D01*
X728348D01*
X719025Y519233D01*
X712888Y521734D01*
X707104Y526186D01*
X701270Y533440D01*
X695621Y544114D01*
X690560Y558398D01*
X686397Y576250D01*
X683321Y597564D01*
X681434Y622252D01*
X681230Y631200D01*
Y632909D01*
X784921Y736600D01*
X802297D01*
X831518Y742413D01*
X859044Y753814D01*
X883816Y770367D01*
X904883Y791434D01*
X921436Y816206D01*
X932837Y843732D01*
X938650Y872953D01*
Y902747D01*
X932837Y931968D01*
X921436Y959494D01*
X904883Y984266D01*
X883816Y1005334D01*
X859044Y1021886D01*
X831518Y1033287D01*
X802297Y1039100D01*
D02*
G37*
G36*
X1250337Y330200D02*
X1109600D01*
Y189463D01*
X1133175Y194153D01*
X1163730Y206809D01*
X1191230Y225184D01*
X1214616Y248570D01*
X1232991Y276070D01*
X1245647Y306625D01*
X1250337Y330200D01*
D02*
G37*
G36*
X1058800D02*
X918063D01*
X922753Y306625D01*
X935409Y276070D01*
X953784Y248570D01*
X977170Y225184D01*
X1004670Y206809D01*
X1035226Y194153D01*
X1058800Y189463D01*
Y330200D01*
D02*
G37*
G36*
X2576343Y165100D02*
X2530735D01*
Y84821D01*
X2540839Y89006D01*
X2555545Y100290D01*
X2566829Y114996D01*
X2573923Y132122D01*
X2576343Y150500D01*
Y165100D01*
D02*
G37*
G36*
X1711343D02*
X1665735D01*
Y84821D01*
X1675839Y89006D01*
X1690545Y100290D01*
X1701829Y114996D01*
X1708923Y132122D01*
X1711343Y150500D01*
Y165100D01*
D02*
G37*
G36*
X2479935D02*
X2434328D01*
Y150500D01*
X2436747Y132122D01*
X2443841Y114996D01*
X2455125Y100290D01*
X2469831Y89006D01*
X2479935Y84821D01*
Y165100D01*
D02*
G37*
G36*
X1614935D02*
X1569328D01*
Y150500D01*
X1571747Y132122D01*
X1578841Y114996D01*
X1590125Y100290D01*
X1604831Y89006D01*
X1614935Y84821D01*
Y165100D01*
D02*
G37*
G36*
X3630191Y464999D02*
X3589810D01*
X3550204Y457121D01*
X3512896Y441668D01*
X3479321Y419233D01*
X3450767Y390679D01*
X3428332Y357103D01*
X3412879Y319796D01*
X3405001Y280190D01*
Y239809D01*
X3412879Y200203D01*
X3428332Y162896D01*
X3450767Y129320D01*
X3479321Y100766D01*
X3512896Y78331D01*
X3550204Y62878D01*
X3589810Y55000D01*
X3630191D01*
X3669797Y62878D01*
X3707104Y78331D01*
X3740680Y100766D01*
X3769234Y129320D01*
X3791669Y162896D01*
X3807122Y200203D01*
X3815000Y239809D01*
Y280190D01*
X3807122Y319796D01*
X3791669Y357103D01*
X3769234Y390679D01*
X3740680Y419233D01*
X3707104Y441668D01*
X3669797Y457121D01*
X3630191Y464999D01*
D02*
G37*
%LPD*%
G36*
X728875Y8011160D02*
X723084Y8011008D01*
X717902Y8010550D01*
X713330Y8009788D01*
X709368Y8008722D01*
X706015Y8007350D01*
X703272Y8005674D01*
X701138Y8003692D01*
X699614Y8001406D01*
X698700Y7998816D01*
X698395Y7995920D01*
Y8037995D01*
X728875Y8041640D01*
Y8011160D01*
D02*
G37*
G36*
X993405Y7995557D02*
X993100Y7998453D01*
X992186Y8001043D01*
X990662Y8003329D01*
X988528Y8005311D01*
X985785Y8006987D01*
X982432Y8008359D01*
X978470Y8009425D01*
X973898Y8010187D01*
X968716Y8010645D01*
X962925Y8010797D01*
Y8041277D01*
X968716Y8041429D01*
X973898Y8041887D01*
X978470Y8042649D01*
X982432Y8043715D01*
X985785Y8045087D01*
X988528Y8046763D01*
X990662Y8048745D01*
X992186Y8051031D01*
X993100Y8053621D01*
X993405Y8056517D01*
Y7995557D01*
D02*
G37*
G36*
X782289Y7988694D02*
X848562D01*
Y7990107D01*
X969474D01*
X971320Y7989944D01*
X973100Y7989647D01*
Y7927283D01*
X964210Y7923600D01*
X958722Y7929088D01*
X940345Y7936700D01*
X920454D01*
X902077Y7929088D01*
X893029Y7920041D01*
X781700D01*
X768941Y7917503D01*
X758124Y7910275D01*
X744306Y7896457D01*
X736624Y7889872D01*
X732966Y7887180D01*
X729507Y7884943D01*
X726482Y7883276D01*
X723959Y7882148D01*
X721986Y7881490D01*
X720611Y7881203D01*
X718285Y7881032D01*
X718167Y7881000D01*
X636501D01*
Y7881000D01*
X633499D01*
Y7881000D01*
X601465D01*
X599103Y7889890D01*
X616527Y7907314D01*
X618359Y7908871D01*
X621623Y7911319D01*
X624733Y7913341D01*
X627670Y7914956D01*
X630434Y7916200D01*
X633030Y7917109D01*
X635485Y7917722D01*
X637825Y7918073D01*
X641129Y7918238D01*
X641374Y7918300D01*
X718700D01*
Y7990010D01*
X720480Y7990307D01*
X722326Y7990470D01*
X782289D01*
Y7988694D01*
D02*
G37*
G36*
X640110Y7938605D02*
X635800Y7938389D01*
X631489Y7937743D01*
X627179Y7936665D01*
X622868Y7935157D01*
X618558Y7933217D01*
X614247Y7930846D01*
X609937Y7928044D01*
X605626Y7924811D01*
X601316Y7921147D01*
X597005Y7917052D01*
X575452Y7938605D01*
X579547Y7942916D01*
X583211Y7947226D01*
X586444Y7951537D01*
X589246Y7955847D01*
X591617Y7960158D01*
X593557Y7964468D01*
X595065Y7968779D01*
X596143Y7973089D01*
X596789Y7977400D01*
X597005Y7981710D01*
X640110Y7938605D01*
D02*
G37*
G36*
X576895Y7885384D02*
X577352Y7880202D01*
X578114Y7875630D01*
X579181Y7871668D01*
X580553Y7868315D01*
X582229Y7865572D01*
X584210Y7863438D01*
X586496Y7861914D01*
X589087Y7861000D01*
X591983Y7860695D01*
X531023D01*
X533918Y7861000D01*
X536509Y7861914D01*
X538795Y7863438D01*
X540776Y7865572D01*
X542453Y7868315D01*
X543824Y7871668D01*
X544891Y7875630D01*
X545653Y7880202D01*
X546110Y7885384D01*
X546263Y7891175D01*
X576743D01*
X576895Y7885384D01*
D02*
G37*
G36*
X778156Y7865195D02*
X774743Y7861603D01*
X771690Y7858011D01*
X768996Y7854419D01*
X766661Y7850827D01*
X764685Y7847234D01*
X763069Y7843642D01*
X761812Y7840050D01*
X760913Y7836458D01*
X760375Y7832866D01*
X760195Y7829274D01*
X719774Y7860695D01*
X723456Y7860964D01*
X727317Y7861773D01*
X731358Y7863120D01*
X735579Y7865006D01*
X739979Y7867430D01*
X744559Y7870394D01*
X749319Y7873896D01*
X759377Y7882517D01*
X764675Y7887636D01*
X778156Y7865195D01*
D02*
G37*
G36*
X902077Y7844312D02*
X920454Y7836700D01*
X940345D01*
X958722Y7844312D01*
X964210Y7849800D01*
X973100Y7846117D01*
Y7793669D01*
X964210Y7793301D01*
X955423Y7802088D01*
X937046Y7809700D01*
X917154D01*
X898777Y7802088D01*
X884712Y7788023D01*
X877100Y7769646D01*
Y7749754D01*
X884712Y7731377D01*
X898777Y7717312D01*
X917154Y7709700D01*
X937046D01*
X955423Y7717312D01*
X964210Y7726099D01*
X973100Y7725731D01*
Y7666669D01*
X964210Y7666301D01*
X955423Y7675088D01*
X937046Y7682700D01*
X917154D01*
X898777Y7675088D01*
X884712Y7661023D01*
X877100Y7642646D01*
Y7622754D01*
X884712Y7604377D01*
X898777Y7590312D01*
X917154Y7582700D01*
X937046D01*
X955423Y7590312D01*
X964210Y7599099D01*
X973100Y7598731D01*
Y7546283D01*
X964210Y7542600D01*
X958722Y7548088D01*
X940345Y7555700D01*
X920454D01*
X902077Y7548088D01*
X888012Y7534023D01*
X880400Y7515646D01*
Y7495754D01*
X888012Y7477377D01*
X902077Y7463312D01*
X920454Y7455700D01*
X940345D01*
X958722Y7463312D01*
X964210Y7468800D01*
X973100Y7465117D01*
Y7419283D01*
X964210Y7415600D01*
X958722Y7421088D01*
X940345Y7428700D01*
X920454D01*
X902077Y7421088D01*
X888012Y7407023D01*
X880400Y7388646D01*
Y7368754D01*
X888012Y7350377D01*
X902077Y7336312D01*
X920454Y7328700D01*
X940345D01*
X958722Y7336312D01*
X964210Y7341800D01*
X973100Y7338117D01*
Y7293143D01*
X964210Y7291501D01*
X958323Y7297388D01*
X939946Y7305000D01*
X920054D01*
X901677Y7297388D01*
X887612Y7283323D01*
X880000Y7264946D01*
Y7245054D01*
X887612Y7226677D01*
X901677Y7212612D01*
X920054Y7205000D01*
X939946D01*
X958323Y7212612D01*
X964210Y7218499D01*
X973100Y7214817D01*
Y7165283D01*
X964210Y7161600D01*
X958722Y7167088D01*
X940345Y7174700D01*
X920454D01*
X902077Y7167088D01*
X888012Y7153023D01*
X880400Y7134646D01*
Y7114754D01*
X888012Y7096377D01*
X902077Y7082312D01*
X920454Y7074700D01*
X940345D01*
X958722Y7082312D01*
X964210Y7087800D01*
X973100Y7084117D01*
Y7038283D01*
X964210Y7034600D01*
X958722Y7040088D01*
X940345Y7047700D01*
X920454D01*
X902077Y7040088D01*
X888012Y7026023D01*
X880400Y7007646D01*
Y6987754D01*
X888012Y6969377D01*
X902077Y6955312D01*
X920454Y6947700D01*
X940345D01*
X958722Y6955312D01*
X964210Y6960800D01*
X973100Y6957117D01*
Y6909341D01*
X962470D01*
X958722Y6913088D01*
X940345Y6920700D01*
X920454D01*
X902077Y6913088D01*
X888012Y6899023D01*
X880400Y6880646D01*
Y6860754D01*
X888012Y6842377D01*
X902077Y6828312D01*
X920454Y6820700D01*
X940345D01*
X958722Y6828312D01*
X964210Y6833800D01*
X973100Y6830117D01*
Y6782341D01*
X875500D01*
Y6803900D01*
X776837D01*
X776576Y6805550D01*
X776430Y6807295D01*
Y6917600D01*
X773695Y6931350D01*
X765907Y6943007D01*
X597433Y7111480D01*
Y7735374D01*
X597596Y7737219D01*
X597892Y7739000D01*
X633499D01*
Y7739000D01*
X636501D01*
Y7739000D01*
X780500D01*
Y7828011D01*
X780562Y7828256D01*
X780691Y7830841D01*
X780934Y7832464D01*
X781367Y7834196D01*
X782025Y7836074D01*
X782947Y7838124D01*
X784167Y7840342D01*
X785721Y7842733D01*
X787629Y7845277D01*
X788771Y7846620D01*
X795510Y7853359D01*
X893029D01*
X902077Y7844312D01*
D02*
G37*
G36*
X589087Y7759000D02*
X586496Y7758086D01*
X584210Y7756562D01*
X582229Y7754428D01*
X580553Y7751685D01*
X579181Y7748332D01*
X578114Y7744370D01*
X577352Y7739798D01*
X576895Y7734616D01*
X576743Y7728825D01*
X546263D01*
X546110Y7734616D01*
X545653Y7739798D01*
X544891Y7744370D01*
X543824Y7748332D01*
X542453Y7751685D01*
X540776Y7754428D01*
X538795Y7756562D01*
X536509Y7758086D01*
X533918Y7759000D01*
X531023Y7759305D01*
X591983D01*
X589087Y7759000D01*
D02*
G37*
G36*
X755884Y6808284D02*
X756318Y6803102D01*
X757041Y6798530D01*
X758053Y6794568D01*
X759354Y6791215D01*
X760944Y6788472D01*
X762823Y6786338D01*
X764991Y6784814D01*
X767449Y6783900D01*
X770195Y6783595D01*
X710805D01*
X713551Y6783900D01*
X716009Y6784814D01*
X718177Y6786338D01*
X720056Y6788472D01*
X721646Y6791215D01*
X722947Y6794568D01*
X723959Y6798530D01*
X724682Y6803102D01*
X725115Y6808284D01*
X725260Y6814075D01*
X755740D01*
X755884Y6808284D01*
D02*
G37*
G36*
X993405Y6723600D02*
X993151Y6726013D01*
X992389Y6728172D01*
X991119Y6730077D01*
X989341Y6731728D01*
X987055Y6733125D01*
X984261Y6734268D01*
X980959Y6735157D01*
X977149Y6735792D01*
X972831Y6736173D01*
X968005Y6736300D01*
Y6761700D01*
X972831Y6761827D01*
X977149Y6762208D01*
X980959Y6762843D01*
X984261Y6763732D01*
X987055Y6764875D01*
X989341Y6766272D01*
X991119Y6767923D01*
X992389Y6769828D01*
X993151Y6771987D01*
X993405Y6774400D01*
Y6723600D01*
D02*
G37*
G36*
X764184Y6728900D02*
X761594Y6727986D01*
X759308Y6726462D01*
X757326Y6724328D01*
X755650Y6721585D01*
X754278Y6718232D01*
X753212Y6714270D01*
X752450Y6709698D01*
X751992Y6704516D01*
X751840Y6698725D01*
X721360D01*
X721254Y6704516D01*
X720410Y6714270D01*
X719671Y6718232D01*
X718721Y6721585D01*
X717560Y6724328D01*
X716188Y6726462D01*
X714605Y6727986D01*
X712810Y6728900D01*
X710805Y6729205D01*
X767080D01*
X764184Y6728900D01*
D02*
G37*
G36*
X1521587Y6295051D02*
X1519428Y6294289D01*
X1517523Y6293019D01*
X1515872Y6291241D01*
X1514475Y6288955D01*
X1513332Y6286161D01*
X1512443Y6282859D01*
X1511808Y6279049D01*
X1511427Y6274731D01*
X1511300Y6269905D01*
X1485900D01*
X1485773Y6274731D01*
X1485392Y6279049D01*
X1484757Y6282859D01*
X1483868Y6286161D01*
X1482725Y6288955D01*
X1481328Y6291241D01*
X1479677Y6293019D01*
X1477772Y6294289D01*
X1475613Y6295051D01*
X1473200Y6295305D01*
X1524000D01*
X1521587Y6295051D01*
D02*
G37*
G36*
X1592259Y6232363D02*
X1592603Y6230634D01*
X1588300Y6220246D01*
Y6200354D01*
X1595912Y6181977D01*
X1601559Y6176331D01*
X1597876Y6167441D01*
X1546100D01*
Y6188500D01*
X1531941D01*
Y6275000D01*
X1592259D01*
Y6232363D01*
D02*
G37*
G36*
X1355007Y5813307D02*
X1358823Y5810254D01*
X1362787Y5807560D01*
X1366900Y5805225D01*
X1371161Y5803249D01*
X1375572Y5801633D01*
X1380131Y5800375D01*
X1384839Y5799477D01*
X1389696Y5798939D01*
X1394702Y5798759D01*
X1402141Y5773359D01*
X1397315Y5773105D01*
X1392997Y5772343D01*
X1389187Y5771073D01*
X1385885Y5769295D01*
X1383091Y5767009D01*
X1380805Y5764215D01*
X1379027Y5760913D01*
X1377757Y5757103D01*
X1376995Y5752785D01*
X1376741Y5747959D01*
X1351341Y5755398D01*
X1351161Y5760404D01*
X1350623Y5765261D01*
X1349725Y5769969D01*
X1348467Y5774528D01*
X1346851Y5778939D01*
X1344875Y5783200D01*
X1342540Y5787313D01*
X1339846Y5791277D01*
X1336793Y5795093D01*
X1333380Y5798759D01*
X1351341Y5816720D01*
X1355007Y5813307D01*
D02*
G37*
G36*
X1855470Y5550629D02*
X1845494Y5550500D01*
X1778100D01*
Y5549628D01*
X1514975Y5546225D01*
X1485899Y5575300D01*
X1485900Y5651500D01*
X1516380Y5681980D01*
X1855470D01*
Y5550629D01*
D02*
G37*
G36*
X2273300Y5613400D02*
Y5473700D01*
X2184400D01*
X2146872Y5511228D01*
Y5588572D01*
X2197100Y5638800D01*
X2247900D01*
X2273300Y5613400D01*
D02*
G37*
G36*
X2085286Y5495500D02*
X2083041Y5494586D01*
X2081061Y5493062D01*
X2079344Y5490928D01*
X2077891Y5488185D01*
X2076703Y5484832D01*
X2075778Y5480870D01*
X2075118Y5476298D01*
X2074722Y5471116D01*
X2074590Y5465325D01*
X2044110D01*
X2043978Y5471116D01*
X2043582Y5476298D01*
X2042921Y5480870D01*
X2041997Y5484832D01*
X2040809Y5488185D01*
X2039356Y5490928D01*
X2037639Y5493062D01*
X2035659Y5494586D01*
X2033414Y5495500D01*
X2030905Y5495805D01*
X2087795D01*
X2085286Y5495500D01*
D02*
G37*
G36*
X2010600Y5625500D02*
Y5496243D01*
X2010513Y5495805D01*
X2010600Y5495367D01*
Y5475500D01*
X2023093D01*
X2023302Y5474059D01*
X2023420Y5472514D01*
Y5338133D01*
X2010706Y5325419D01*
X1964394D01*
X1955813Y5334000D01*
X1932873Y5356941D01*
X1932831Y5356969D01*
D01*
X1921216Y5364729D01*
X1915530Y5365860D01*
Y5448000D01*
X1930600D01*
Y5545500D01*
X1882931D01*
X1875862Y5550629D01*
Y5630500D01*
X2010600D01*
Y5625500D01*
D02*
G37*
G36*
X3147321Y7775737D02*
X3147684Y7771949D01*
X3148289Y7768388D01*
X3149136Y7765054D01*
X3150225Y7761948D01*
X3151556Y7759069D01*
X3153128Y7756417D01*
X3154943Y7753992D01*
X3157000Y7751794D01*
X3159298Y7749824D01*
X3109701D01*
X3112000Y7751794D01*
X3114057Y7753992D01*
X3115872Y7756417D01*
X3117444Y7759069D01*
X3118775Y7761948D01*
X3119864Y7765054D01*
X3120711Y7768388D01*
X3121316Y7771949D01*
X3121679Y7775737D01*
X3121800Y7779753D01*
X3147200D01*
X3147321Y7775737D01*
D02*
G37*
G36*
X3157000Y7697256D02*
X3154943Y7695059D01*
X3153128Y7692634D01*
X3151556Y7689982D01*
X3150225Y7687103D01*
X3149136Y7683996D01*
X3148289Y7680663D01*
X3147684Y7677102D01*
X3147321Y7673313D01*
X3147200Y7669298D01*
X3121800D01*
X3121679Y7673313D01*
X3121316Y7677102D01*
X3120711Y7680663D01*
X3119864Y7683996D01*
X3118775Y7687103D01*
X3117444Y7689982D01*
X3115872Y7692634D01*
X3114057Y7695059D01*
X3112000Y7697256D01*
X3109701Y7699227D01*
X3159298D01*
X3157000Y7697256D01*
D02*
G37*
G36*
X3147327Y7636869D02*
X3147708Y7632551D01*
X3148343Y7628741D01*
X3149232Y7625439D01*
X3150375Y7622645D01*
X3151772Y7620359D01*
X3153423Y7618581D01*
X3155328Y7617311D01*
X3157487Y7616549D01*
X3159900Y7616295D01*
X3109100D01*
X3111513Y7616549D01*
X3113672Y7617311D01*
X3115577Y7618581D01*
X3117228Y7620359D01*
X3118625Y7622645D01*
X3119768Y7625439D01*
X3120657Y7628741D01*
X3121292Y7632551D01*
X3121673Y7636869D01*
X3121800Y7641695D01*
X3147200D01*
X3147327Y7636869D01*
D02*
G37*
G36*
X3152287Y7461651D02*
X3150128Y7460889D01*
X3148223Y7459619D01*
X3146572Y7457841D01*
X3145175Y7455555D01*
X3144032Y7452761D01*
X3143143Y7449459D01*
X3142508Y7445649D01*
X3142127Y7441331D01*
X3142000Y7436505D01*
X3116600D01*
X3116473Y7441331D01*
X3116092Y7445649D01*
X3115457Y7449459D01*
X3114568Y7452761D01*
X3113425Y7455555D01*
X3112028Y7457841D01*
X3110377Y7459619D01*
X3108472Y7460889D01*
X3106313Y7461651D01*
X3103900Y7461905D01*
X3154700D01*
X3152287Y7461651D01*
D02*
G37*
G36*
X3142127Y7111869D02*
X3142508Y7107551D01*
X3143143Y7103741D01*
X3144032Y7100439D01*
X3145175Y7097645D01*
X3146572Y7095359D01*
X3148223Y7093581D01*
X3150128Y7092311D01*
X3152287Y7091549D01*
X3154700Y7091295D01*
X3103900D01*
X3106313Y7091549D01*
X3108472Y7092311D01*
X3110377Y7093581D01*
X3112028Y7095359D01*
X3113425Y7097645D01*
X3114568Y7100439D01*
X3115457Y7103741D01*
X3116092Y7107551D01*
X3116473Y7111869D01*
X3116600Y7116695D01*
X3142000D01*
X3142127Y7111869D01*
D02*
G37*
G36*
X3187700Y6030000D02*
X2870200D01*
Y6324600D01*
X2743200Y6451600D01*
Y6540500D01*
X2921000D01*
X3086100Y6705600D01*
X3187700D01*
Y6030000D01*
D02*
G37*
G36*
X2798884Y6032300D02*
X2796294Y6031386D01*
X2794008Y6029862D01*
X2792026Y6027728D01*
X2790350Y6024985D01*
X2788978Y6021632D01*
X2787912Y6017670D01*
X2787150Y6013098D01*
X2786692Y6007916D01*
X2786540Y6002125D01*
X2756060D01*
X2755908Y6007916D01*
X2755450Y6013098D01*
X2754688Y6017670D01*
X2753622Y6021632D01*
X2752250Y6024985D01*
X2750574Y6027728D01*
X2748592Y6029862D01*
X2746306Y6031386D01*
X2743716Y6032300D01*
X2740820Y6032605D01*
X2801780D01*
X2798884Y6032300D01*
D02*
G37*
G36*
X2831327Y5655719D02*
X2831688Y5651447D01*
X2832289Y5647308D01*
X2833130Y5643304D01*
X2834211Y5639434D01*
X2835533Y5635698D01*
X2837095Y5632096D01*
X2837571Y5631180D01*
X3018820D01*
X3070860Y5580000D01*
Y5331460D01*
X3009900Y5270500D01*
X2844800D01*
X2781238Y5334000D01*
Y5569993D01*
X2782399Y5571731D01*
X2785165Y5585635D01*
Y5614365D01*
X2783589Y5622290D01*
X2790332Y5631180D01*
X2794363D01*
X2794839Y5632096D01*
X2796402Y5635698D01*
X2797723Y5639434D01*
X2798805Y5643304D01*
X2799646Y5647308D01*
X2800247Y5651447D01*
X2800607Y5655719D01*
X2800727Y5660126D01*
X2831207D01*
X2831327Y5655719D01*
D02*
G37*
G36*
X2506287Y5934659D02*
X2506668Y5930341D01*
X2507303Y5926531D01*
X2508192Y5923229D01*
X2509335Y5920435D01*
X2510732Y5918149D01*
X2512383Y5916371D01*
X2514288Y5915101D01*
X2516447Y5914339D01*
X2518860Y5914085D01*
X2468060D01*
X2470473Y5914339D01*
X2472632Y5915101D01*
X2474537Y5916371D01*
X2476188Y5918149D01*
X2477585Y5920435D01*
X2478728Y5923229D01*
X2479617Y5926531D01*
X2480252Y5930341D01*
X2480633Y5934659D01*
X2480760Y5939485D01*
X2506160D01*
X2506287Y5934659D01*
D02*
G37*
G36*
X3205022Y5717768D02*
X3199653Y5717518D01*
X3194323Y5716768D01*
X3189032Y5715518D01*
X3183780Y5713768D01*
X3178567Y5711519D01*
X3173393Y5708769D01*
X3168258Y5705519D01*
X3163161Y5701770D01*
X3158104Y5697521D01*
X3153085Y5692771D01*
X3124758Y5718326D01*
X3164911Y5760866D01*
X3205022Y5717768D01*
D02*
G37*
G36*
X3165622Y5606808D02*
X3171010Y5602229D01*
X3176398Y5598187D01*
X3181786Y5594685D01*
X3187174Y5591722D01*
X3192562Y5589297D01*
X3197950Y5587411D01*
X3203339Y5586064D01*
X3208727Y5585256D01*
X3214115Y5584987D01*
X3212129Y5582920D01*
X3301410D01*
Y5584987D01*
X3301791Y5583304D01*
X3302082Y5582920D01*
X3444387D01*
X3445032Y5583246D01*
X3447544Y5584916D01*
Y5582920D01*
X3495040D01*
Y5539740D01*
X3497580Y5537200D01*
X3467100Y5506720D01*
Y5318760D01*
X3373120D01*
X3164840Y5527040D01*
X3162300D01*
X3161932Y5530681D01*
X3161307Y5530031D01*
X3161038Y5535419D01*
X3160230Y5540807D01*
X3158883Y5546196D01*
X3156997Y5551584D01*
X3154572Y5556972D01*
X3151609Y5562360D01*
X3148106Y5567748D01*
X3144065Y5573136D01*
X3139485Y5578525D01*
X3134367Y5583913D01*
X3160233Y5611927D01*
X3165622Y5606808D01*
D02*
G37*
G36*
X2744711Y4805737D02*
X2747759Y4804701D01*
X2752839Y4803786D01*
X2759951Y4802994D01*
X2793479Y4801348D01*
X2845295Y4800800D01*
Y4699200D01*
X2825991Y4698692D01*
X2808719Y4697168D01*
X2793479Y4694628D01*
X2780271Y4691072D01*
X2769095Y4686500D01*
X2759951Y4680912D01*
X2752839Y4674308D01*
X2747759Y4666688D01*
X2744711Y4658052D01*
X2743695Y4648400D01*
Y4806895D01*
X2744711Y4805737D01*
D02*
G37*
G36*
X1831848Y3778491D02*
X1833372Y3761219D01*
X1835912Y3745979D01*
X1839468Y3732771D01*
X1844040Y3721595D01*
X1849628Y3712451D01*
X1856232Y3705339D01*
X1863852Y3700259D01*
X1872488Y3697211D01*
X1882140Y3696195D01*
X1678940D01*
X1688592Y3697211D01*
X1697228Y3700259D01*
X1704848Y3705339D01*
X1711452Y3712451D01*
X1717040Y3721595D01*
X1721612Y3732771D01*
X1725168Y3745979D01*
X1727708Y3761219D01*
X1729232Y3778491D01*
X1729740Y3797795D01*
X1831340D01*
X1831848Y3778491D01*
D02*
G37*
G36*
X2220000Y4735000D02*
Y4645000D01*
X2065000Y4490000D01*
X2050000Y4490000D01*
Y4810000D01*
X2145000D01*
X2220000Y4735000D01*
D02*
G37*
G36*
X1066800Y3241357D02*
Y2981537D01*
X977900Y2903220D01*
X723900D01*
X632460Y2997200D01*
Y3213100D01*
X723900Y3314700D01*
X982980D01*
X1066800Y3241357D01*
D02*
G37*
%LPC*%
G36*
X876300Y3207589D02*
Y3142500D01*
X941389D01*
X938475Y3153375D01*
X926103Y3174805D01*
X908605Y3192303D01*
X887175Y3204675D01*
X876300Y3207589D01*
D02*
G37*
G36*
X825500D02*
X814625Y3204675D01*
X793195Y3192303D01*
X775697Y3174805D01*
X763325Y3153375D01*
X760411Y3142500D01*
X825500D01*
Y3207589D01*
D02*
G37*
G36*
X941389Y3091700D02*
X876300D01*
Y3026611D01*
X887175Y3029525D01*
X908605Y3041897D01*
X926103Y3059395D01*
X938475Y3080825D01*
X941389Y3091700D01*
D02*
G37*
G36*
X825500D02*
X760411D01*
X763325Y3080825D01*
X775697Y3059395D01*
X793195Y3041897D01*
X814625Y3029525D01*
X825500Y3026611D01*
Y3091700D01*
D02*
G37*
%LPD*%
G36*
X2199835Y1960872D02*
X2200597Y1960702D01*
X2201867Y1960553D01*
X2205931Y1960314D01*
X2224981Y1960065D01*
Y1934665D01*
X2199581Y1933670D01*
Y1961061D01*
X2199835Y1960872D01*
D02*
G37*
G36*
X3436620Y1894840D02*
X3434080Y1892300D01*
X3122468D01*
Y2401166D01*
X3120916Y2408969D01*
X3116496Y2415585D01*
X3109880Y2420005D01*
X3109499Y2420081D01*
X2834640Y2694940D01*
X2829820Y2916646D01*
X2838563Y2923540D01*
X3436620D01*
Y1894840D01*
D02*
G37*
G36*
X2831684Y1833880D02*
X2115820D01*
Y1910080D01*
X2316465D01*
Y1930856D01*
X2378288D01*
Y1935480D01*
X2560320D01*
Y2057400D01*
X2831684D01*
Y1833880D01*
D02*
G37*
G36*
X2199835Y1810872D02*
X2200597Y1810703D01*
X2201867Y1810553D01*
X2205931Y1810314D01*
X2224981Y1810065D01*
Y1784665D01*
X2199581Y1783670D01*
Y1811061D01*
X2199835Y1810872D01*
D02*
G37*
G36*
X2226522Y1728439D02*
X2203330Y1715710D01*
X2199738Y1719122D01*
X2196146Y1722175D01*
X2192554Y1724870D01*
X2188962Y1727204D01*
X2185370Y1729180D01*
X2181777Y1730796D01*
X2178185Y1732054D01*
X2174593Y1732952D01*
X2171001Y1733491D01*
X2167409Y1733670D01*
X2199581Y1761060D01*
X2226522Y1728439D01*
D02*
G37*
G36*
X2073368Y1632416D02*
X2073177Y1631654D01*
X2073009Y1630384D01*
X2072740Y1626320D01*
X2072460Y1607270D01*
X2047060D01*
X2046190Y1632670D01*
X2073581D01*
X2073368Y1632416D01*
D02*
G37*
G36*
X2072580Y1567575D02*
X2072939Y1563773D01*
X2073538Y1560202D01*
X2074376Y1556863D01*
X2075453Y1553754D01*
X2076771Y1550877D01*
X2078327Y1548231D01*
X2080123Y1545816D01*
X2082158Y1543632D01*
X2084433Y1541679D01*
X2034836D01*
X2037159Y1543666D01*
X2039237Y1545877D01*
X2041070Y1548312D01*
X2042660Y1550969D01*
X2044004Y1553851D01*
X2045104Y1556955D01*
X2045960Y1560283D01*
X2046571Y1563835D01*
X2046938Y1567609D01*
X2047060Y1571607D01*
X2072460D01*
X2072580Y1567575D01*
D02*
G37*
G36*
X2545797Y1553437D02*
X2555855Y1544816D01*
X2560615Y1541314D01*
X2565195Y1538351D01*
X2569595Y1535926D01*
X2573816Y1534040D01*
X2577857Y1532693D01*
X2581718Y1531885D01*
X2585400Y1531615D01*
X2542479Y1502694D01*
X2542300Y1506287D01*
X2541761Y1509879D01*
X2540863Y1513471D01*
X2539606Y1517063D01*
X2537989Y1520655D01*
X2536013Y1524247D01*
X2533679Y1527839D01*
X2530985Y1531431D01*
X2527931Y1535023D01*
X2524519Y1538615D01*
X2540499Y1558556D01*
X2545797Y1553437D01*
D02*
G37*
G36*
X2086473Y1539285D02*
X2088724Y1537143D01*
X2091187Y1535253D01*
X2093862Y1533615D01*
X2096749Y1532230D01*
X2099848Y1531096D01*
X2103158Y1530214D01*
X2106681Y1529584D01*
X2110416Y1529206D01*
X2114362Y1529080D01*
Y1503680D01*
X2110416Y1503554D01*
X2106681Y1503176D01*
X2103158Y1502546D01*
X2099848Y1501664D01*
X2096749Y1500530D01*
X2093862Y1499145D01*
X2091187Y1497507D01*
X2088724Y1495617D01*
X2086473Y1493475D01*
X2084433Y1491081D01*
Y1541679D01*
X2086473Y1539285D01*
D02*
G37*
G36*
X2710905Y1467020D02*
X2710651Y1469433D01*
X2709889Y1471592D01*
X2708619Y1473497D01*
X2706841Y1475148D01*
X2704555Y1476545D01*
X2701761Y1477688D01*
X2698459Y1478577D01*
X2694649Y1479212D01*
X2690331Y1479593D01*
X2685505Y1479720D01*
Y1505120D01*
X2690331Y1505247D01*
X2694649Y1505628D01*
X2698459Y1506263D01*
X2701761Y1507152D01*
X2704555Y1508295D01*
X2706841Y1509692D01*
X2708619Y1511343D01*
X2709889Y1513248D01*
X2710651Y1515407D01*
X2710905Y1517820D01*
Y1467020D01*
D02*
G37*
G36*
X2635124Y1515407D02*
X2635886Y1513248D01*
X2637156Y1511343D01*
X2638934Y1509692D01*
X2641220Y1508295D01*
X2644014Y1507152D01*
X2647316Y1506263D01*
X2651126Y1505628D01*
X2655444Y1505247D01*
X2660270Y1505120D01*
Y1479720D01*
X2655444Y1479593D01*
X2651126Y1479212D01*
X2647316Y1478577D01*
X2644014Y1477688D01*
X2641220Y1476545D01*
X2638934Y1475148D01*
X2637156Y1473497D01*
X2635886Y1471592D01*
X2635124Y1469433D01*
X2634870Y1467020D01*
Y1517820D01*
X2635124Y1515407D01*
D02*
G37*
G36*
X2188777Y1511003D02*
X2192369Y1507950D01*
X2195961Y1505256D01*
X2199553Y1502921D01*
X2203145Y1500945D01*
X2206738Y1499329D01*
X2210330Y1498072D01*
X2213922Y1497174D01*
X2217514Y1496635D01*
X2221106Y1496455D01*
X2185185Y1460534D01*
X2185005Y1464126D01*
X2184467Y1467718D01*
X2183568Y1471310D01*
X2182311Y1474903D01*
X2180695Y1478495D01*
X2178719Y1482087D01*
X2176384Y1485679D01*
X2173690Y1489271D01*
X2170637Y1492863D01*
X2167224Y1496455D01*
X2185185Y1514416D01*
X2188777Y1511003D01*
D02*
G37*
G36*
X2237867Y1353811D02*
X2235708Y1353049D01*
X2233803Y1351779D01*
X2232152Y1350001D01*
X2230755Y1347715D01*
X2229612Y1344921D01*
X2228723Y1341619D01*
X2228088Y1337809D01*
X2227707Y1333491D01*
X2227580Y1328665D01*
X2202180D01*
X2202053Y1333491D01*
X2201672Y1337809D01*
X2201037Y1341619D01*
X2200148Y1344921D01*
X2199005Y1347715D01*
X2197608Y1350001D01*
X2195957Y1351779D01*
X2194052Y1353049D01*
X2191893Y1353811D01*
X2189480Y1354065D01*
X2240280D01*
X2237867Y1353811D01*
D02*
G37*
G36*
X2227707Y1292369D02*
X2228088Y1288051D01*
X2228723Y1284241D01*
X2229612Y1280939D01*
X2230755Y1278145D01*
X2232152Y1275859D01*
X2233803Y1274081D01*
X2235708Y1272811D01*
X2237867Y1272049D01*
X2240280Y1271795D01*
X2189480D01*
X2191893Y1272049D01*
X2194052Y1272811D01*
X2195957Y1274081D01*
X2197608Y1275859D01*
X2199005Y1278145D01*
X2200148Y1280939D01*
X2201037Y1284241D01*
X2201672Y1288051D01*
X2202053Y1292369D01*
X2202180Y1297195D01*
X2227580D01*
X2227707Y1292369D01*
D02*
G37*
G36*
X1939883Y2955112D02*
X1941826Y2952738D01*
X1945064Y2950643D01*
X1949598Y2948827D01*
X1955426Y2947291D01*
X1962551Y2946034D01*
X1970970Y2945057D01*
X1991695Y2943940D01*
X2004000Y2943800D01*
Y2842200D01*
X1991695Y2842060D01*
X1962551Y2839966D01*
X1955426Y2838709D01*
X1949598Y2837173D01*
X1945064Y2835357D01*
X1941826Y2833263D01*
X1939883Y2830888D01*
X1939235Y2828235D01*
Y2957765D01*
X1939883Y2955112D01*
D02*
G37*
G36*
X1909487Y2150651D02*
X1907328Y2149889D01*
X1905423Y2148619D01*
X1903772Y2146841D01*
X1902375Y2144555D01*
X1901232Y2141761D01*
X1900343Y2138459D01*
X1899708Y2134649D01*
X1899327Y2130331D01*
X1899200Y2125505D01*
X1873800D01*
X1873673Y2130331D01*
X1873292Y2134649D01*
X1872657Y2138459D01*
X1871768Y2141761D01*
X1870625Y2144555D01*
X1869228Y2146841D01*
X1867577Y2148619D01*
X1865672Y2149889D01*
X1863513Y2150651D01*
X1861100Y2150905D01*
X1911900D01*
X1909487Y2150651D01*
D02*
G37*
G36*
X1915571Y2062061D02*
X1896190Y2042680D01*
X1896011Y2043129D01*
X1895472Y2043910D01*
X1894574Y2045021D01*
X1889724Y2050339D01*
X1878230Y2062061D01*
X1896190Y2080021D01*
X1915571Y2062061D01*
D02*
G37*
G36*
X1990693Y1856092D02*
X1993612Y1853173D01*
X1997889Y1847365D01*
X1993612Y1841558D01*
X1990693Y1838638D01*
X1984886Y1834362D01*
X1979078Y1838638D01*
X1976159Y1841558D01*
X1971882Y1847365D01*
X1976159Y1853173D01*
X1979078Y1856092D01*
X1984886Y1860369D01*
X1990693Y1856092D01*
D02*
G37*
G36*
X2952201Y1404102D02*
X2876001Y1404101D01*
X2875958Y1442245D01*
X2952244D01*
X2952201Y1404102D01*
D02*
G37*
G36*
X941558Y1832844D02*
X905130Y1725588D01*
X890761Y1739238D01*
X876393Y1751452D01*
X862024Y1762228D01*
X847656Y1771567D01*
X833287Y1779470D01*
X818919Y1785936D01*
X804551Y1790965D01*
X790182Y1794557D01*
X775814Y1796712D01*
X761446Y1797430D01*
X833795Y1991821D01*
X941558Y1832844D01*
D02*
G37*
G36*
X1854200Y1699260D02*
X1554480D01*
X1549400Y1704340D01*
Y1805940D01*
X1767840D01*
Y1861820D01*
X1854200D01*
Y1699260D01*
D02*
G37*
G36*
X1901947Y1427595D02*
X1902328Y1423277D01*
X1902963Y1419467D01*
X1903852Y1416165D01*
X1904995Y1413371D01*
X1906392Y1411085D01*
X1908043Y1409307D01*
X1909948Y1408037D01*
X1912107Y1407275D01*
X1914520Y1407021D01*
X1863720D01*
X1866133Y1407275D01*
X1868292Y1408037D01*
X1870197Y1409307D01*
X1871848Y1411085D01*
X1873245Y1413371D01*
X1874388Y1416165D01*
X1875277Y1419467D01*
X1875912Y1423277D01*
X1876293Y1427595D01*
X1876420Y1432421D01*
X1901820D01*
X1901947Y1427595D01*
D02*
G37*
G36*
X1897346Y1347630D02*
X1893754Y1347451D01*
X1890162Y1346912D01*
X1886570Y1346014D01*
X1882977Y1344757D01*
X1879385Y1343140D01*
X1875793Y1341164D01*
X1872201Y1338830D01*
X1868609Y1336136D01*
X1865017Y1333082D01*
X1861425Y1329670D01*
X1843464Y1347630D01*
X1846877Y1351222D01*
X1849930Y1354814D01*
X1852624Y1358406D01*
X1854959Y1361999D01*
X1856935Y1365591D01*
X1858551Y1369183D01*
X1859808Y1372775D01*
X1860706Y1376367D01*
X1861245Y1379959D01*
X1861425Y1383551D01*
X1897346Y1347630D01*
D02*
G37*
G36*
X1803476Y1271721D02*
X1800063Y1268129D01*
X1797010Y1264536D01*
X1794316Y1260944D01*
X1791981Y1257352D01*
X1790005Y1253760D01*
X1788389Y1250168D01*
X1787132Y1246576D01*
X1786233Y1242984D01*
X1785695Y1239392D01*
X1785515Y1235800D01*
X1750989Y1273115D01*
X1754581Y1273295D01*
X1758173Y1273833D01*
X1761765Y1274732D01*
X1765357Y1275989D01*
X1768949Y1277605D01*
X1772541Y1279581D01*
X1776133Y1281916D01*
X1779725Y1284610D01*
X1783317Y1287663D01*
X1786910Y1291076D01*
X1803476Y1271721D01*
D02*
G37*
G36*
X1602069Y1218560D02*
X1604266Y1216503D01*
X1606691Y1214688D01*
X1609343Y1213116D01*
X1612222Y1211785D01*
X1615329Y1210696D01*
X1618663Y1209849D01*
X1622224Y1209244D01*
X1626012Y1208881D01*
X1630027Y1208760D01*
Y1183360D01*
X1626012Y1183239D01*
X1622224Y1182876D01*
X1618663Y1182271D01*
X1615329Y1181424D01*
X1612222Y1180335D01*
X1609343Y1179004D01*
X1606691Y1177432D01*
X1604266Y1175617D01*
X1602069Y1173560D01*
X1600099Y1171262D01*
Y1220859D01*
X1602069Y1218560D01*
D02*
G37*
G36*
X1684125Y1170660D02*
X1683871Y1173073D01*
X1683109Y1175232D01*
X1681839Y1177137D01*
X1680061Y1178788D01*
X1677775Y1180185D01*
X1674981Y1181328D01*
X1671679Y1182217D01*
X1667869Y1182852D01*
X1663551Y1183233D01*
X1658725Y1183360D01*
Y1208760D01*
X1663551Y1208887D01*
X1667869Y1209268D01*
X1671679Y1209903D01*
X1674981Y1210792D01*
X1677775Y1211935D01*
X1680061Y1213332D01*
X1681839Y1214983D01*
X1683109Y1216888D01*
X1683871Y1219047D01*
X1684125Y1221460D01*
Y1170660D01*
D02*
G37*
G36*
X1663820Y1150692D02*
X1638089D01*
X1636152Y1153830D01*
X1641110Y1162720D01*
X1663820D01*
Y1150692D01*
D02*
G37*
G36*
X1612900Y1130300D02*
X1790700D01*
Y1016000D01*
X1676399Y1015999D01*
X1549400Y889000D01*
X1460500D01*
X1422400Y927100D01*
X1422400Y1016000D01*
X1536700Y1130300D01*
X1549400Y1143000D01*
X1612900D01*
Y1130300D01*
D02*
G37*
G36*
X661060Y621239D02*
X663040Y595331D01*
X666340Y572471D01*
X670959Y552659D01*
X676899Y535895D01*
X684158Y522179D01*
X692738Y511511D01*
X702637Y503891D01*
X713856Y499319D01*
X726395Y497795D01*
X442005D01*
X454544Y499319D01*
X465763Y503891D01*
X475662Y511511D01*
X484242Y522179D01*
X491501Y535895D01*
X497441Y552659D01*
X502060Y572471D01*
X505360Y595331D01*
X507340Y621239D01*
X508000Y650195D01*
X660400D01*
X661060Y621239D01*
D02*
G37*
D10*
X3449300Y7539100D02*
D03*
X3454400Y6623675D02*
D03*
Y6098675D02*
D03*
X3449300Y7014100D02*
D03*
X3134400Y6098675D02*
D03*
Y6623675D02*
D03*
X3129300Y7539100D02*
D03*
Y7014100D02*
D03*
D11*
X3469640Y5638660D02*
D03*
X1574800Y1115060D02*
D03*
X3469640Y5557660D02*
D03*
X1574800Y1196060D02*
D03*
D12*
X3200400Y7874000D02*
D03*
X3149538D02*
D03*
D13*
X3215500Y7724525D02*
D03*
X2734967Y5600000D02*
D03*
X1978635Y1516380D02*
D03*
X2815967Y5600000D02*
D03*
X3134500Y7724525D02*
D03*
X2059635Y1516380D02*
D03*
D14*
X2818100Y8146000D02*
D03*
X1068100D02*
D03*
Y6876000D02*
D03*
Y8019000D02*
D03*
Y6749000D02*
D03*
Y7638000D02*
D03*
Y7384000D02*
D03*
Y6622000D02*
D03*
Y7892000D02*
D03*
Y7765000D02*
D03*
Y7511000D02*
D03*
Y7257000D02*
D03*
Y7130000D02*
D03*
Y7003000D02*
D03*
Y6495000D02*
D03*
X2818100D02*
D03*
Y6622000D02*
D03*
Y6749000D02*
D03*
Y6876000D02*
D03*
Y7003000D02*
D03*
Y7130000D02*
D03*
Y7257000D02*
D03*
Y7384000D02*
D03*
Y7511000D02*
D03*
Y7638000D02*
D03*
Y7765000D02*
D03*
Y7892000D02*
D03*
Y8019000D02*
D03*
D15*
X3231359Y5651500D02*
D03*
Y5746500D02*
D03*
X3001249Y5556500D02*
D03*
Y5746500D02*
D03*
D16*
X2489200Y5768975D02*
D03*
Y5889625D02*
D03*
D17*
X1943100Y5496750D02*
D03*
X1993100D02*
D03*
Y5679250D02*
D03*
X1943100D02*
D03*
X1893100D02*
D03*
Y5496750D02*
D03*
D18*
X2725667Y5450000D02*
D03*
X2813467D02*
D03*
D19*
X2260600Y5435569D02*
D03*
X1879600Y5283138D02*
D03*
X815425Y8077262D02*
D03*
X1879600Y5334000D02*
D03*
X2260600Y5486431D02*
D03*
X815425Y8026400D02*
D03*
X2345151Y1968562D02*
D03*
Y1917700D02*
D03*
D20*
X2959100Y3141700D02*
D03*
X3306525D02*
D03*
Y2857500D02*
D03*
X2959100D02*
D03*
D21*
X2050500Y2197100D02*
D03*
X2914100Y1488440D02*
D03*
X2750100D02*
D03*
X1886500Y2197100D02*
D03*
D22*
X1976120Y1377325D02*
D03*
X1889120D02*
D03*
D23*
X2588675Y1328420D02*
D03*
Y1492420D02*
D03*
D24*
X2410089Y1333500D02*
D03*
Y1489500D02*
D03*
D25*
X1933100Y7514000D02*
D03*
X1793100D02*
D03*
Y7374000D02*
D03*
X1933100D02*
D03*
X1653100Y7514000D02*
D03*
Y7374000D02*
D03*
Y7234000D02*
D03*
X1793100D02*
D03*
X1933100D02*
D03*
D26*
X647700Y8140100D02*
D03*
Y7988300D02*
D03*
D27*
X1812386Y1947365D02*
D03*
Y1897365D02*
D03*
Y1847365D02*
D03*
Y1797365D02*
D03*
Y1747365D02*
D03*
X2157386D02*
D03*
Y1797365D02*
D03*
Y1847365D02*
D03*
Y1897365D02*
D03*
Y1947365D02*
D03*
D28*
X1618409Y1955800D02*
D03*
X1428409D02*
D03*
D29*
X1984886Y1847365D02*
D03*
D30*
X1615440Y1573600D02*
D03*
Y1752600D02*
D03*
D31*
X1924960Y1181100D02*
D03*
X2219960D02*
D03*
D32*
X1780540Y2893000D02*
D03*
Y3584000D02*
D03*
D33*
X1940500Y4648200D02*
D03*
X2631500D02*
D03*
D34*
X3249576Y2071166D02*
D03*
X2704576D02*
D03*
D35*
X1734820Y1074420D02*
D03*
Y1221420D02*
D03*
D36*
X3231359Y5556500D02*
D03*
D37*
X1826850Y5513000D02*
D03*
X2059350Y5563000D02*
D03*
Y5613000D02*
D03*
Y5663000D02*
D03*
Y5513000D02*
D03*
X1826850Y5663000D02*
D03*
Y5563000D02*
D03*
Y5613000D02*
D03*
D38*
X1498600Y6053500D02*
D03*
Y6138500D02*
D03*
D39*
X561500Y7810000D02*
D03*
X2771300Y6083300D02*
D03*
X2918300D02*
D03*
X708500Y7810000D02*
D03*
D40*
X740500Y6756400D02*
D03*
X825500D02*
D03*
D41*
X1498600Y6370000D02*
D03*
X1244600D02*
D03*
X1371600D02*
D03*
X1625600D02*
D03*
X1752600D02*
D03*
X1879600D02*
D03*
X2006600D02*
D03*
X2133600D02*
D03*
X2260600D02*
D03*
X2387600D02*
D03*
X2514600D02*
D03*
X2641600D02*
D03*
D42*
X1909885Y2019865D02*
D03*
Y1674865D02*
D03*
X2059886Y2019865D02*
D03*
Y1674865D02*
D03*
D43*
X2214880Y1468760D02*
D03*
Y1381760D02*
D03*
D44*
X3469140Y5638660D02*
X3469640D01*
X2043787Y596864D02*
Y605768D01*
Y596864D02*
X2110190Y530461D01*
X2030334Y619222D02*
X2043787Y605768D01*
X2110190Y496647D02*
Y530461D01*
Y496647D02*
X2115337Y491500D01*
X2030334Y619222D02*
Y626501D01*
X3227631Y5742772D02*
X3231359Y5746500D01*
X3231938Y5557080D02*
X3469060D01*
X3176145Y5742772D02*
X3227631D01*
X3133063Y5612157D02*
Y5699690D01*
X3176145Y5742772D01*
X3180053Y5566242D02*
X3180080Y5566214D01*
X3178978Y5566242D02*
X3180053D01*
X3180080Y5550670D02*
Y5566214D01*
X3231359Y5556500D02*
X3231938Y5557080D01*
X3133063Y5612157D02*
X3178978Y5566242D01*
X825500Y6756400D02*
X828000D01*
D45*
X2004000Y2893000D02*
X2006600Y2895600D01*
X1780540Y2893000D02*
X2004000D01*
X3416300Y4899660D02*
Y5453380D01*
X3266640Y4750000D02*
X3416300Y4899660D01*
X3142100Y4750000D02*
X3266640D01*
X2651506D02*
X3142100D01*
X2589806Y4650000D02*
Y4688299D01*
X2651506Y4750000D01*
X2589806Y4603500D02*
Y4650000D01*
X2497432Y4541800D02*
X2528105D01*
X2589806Y4603500D01*
X2495744Y4540112D02*
X2497432Y4541800D01*
X2294752Y4540112D02*
X2495744D01*
X1780540Y3584000D02*
Y4025900D01*
X2294752Y4540112D01*
X1430020Y1752600D02*
X1615440D01*
X949960D02*
X1430020D01*
X805180Y1897380D02*
X949960Y1752600D01*
D46*
X2025589Y5289489D02*
X2059350Y5323250D01*
Y5513000D01*
X1953210Y5289489D02*
X2025589D01*
X1907466Y5331534D02*
X1943100Y5295900D01*
X1881703Y5331534D02*
X1907466D01*
X1879600Y5333637D02*
X1881703Y5331534D01*
X1879600Y5333637D02*
Y5334000D01*
X2387600Y4051300D02*
Y4267200D01*
X736600Y6215380D02*
X904240Y6047740D01*
X736600Y5644415D02*
X904240Y5812055D01*
Y6047740D01*
X561503Y7096597D02*
X740500Y6917600D01*
Y6756400D02*
Y6917600D01*
X1879600Y5472000D02*
X1893100Y5485500D01*
X1879600Y5334000D02*
Y5472000D01*
X1893100Y5485500D02*
Y5496750D01*
X2059350Y5513000D02*
X2234394D01*
X2771300Y5932764D02*
Y6083300D01*
X2815967Y5600000D02*
Y5888097D01*
X2771300Y5932764D02*
X2815967Y5888097D01*
X736600Y6215380D02*
Y6756400D01*
X2234394Y5513000D02*
X2260963Y5486431D01*
X686800Y8026400D02*
X815425D01*
X648700Y7988300D02*
X686800Y8026400D01*
X1061063Y8026037D02*
X1068100Y8019000D01*
X817528Y8026037D02*
X1061063D01*
X561503Y7903103D02*
X646700Y7988300D01*
X648701D01*
X561503Y7096597D02*
Y7903103D01*
X1497007Y4675193D02*
X1498600Y4673600D01*
X1497007Y4837107D02*
X1498600Y4838700D01*
X1497007Y4675193D02*
Y4837107D01*
X1165695Y4674080D02*
Y4835995D01*
Y4674080D02*
X1191574Y4648200D01*
X1165695Y4835995D02*
X1168400Y4838700D01*
X495300Y4826000D02*
X496719Y4824581D01*
Y4678204D02*
Y4824581D01*
Y4678204D02*
X515052Y4659872D01*
D47*
X1574800Y1115060D02*
X1575300D01*
X1734820Y1074420D02*
X1760402Y1048838D01*
D48*
X2336800Y6096000D02*
X2451100D01*
X2493460Y6053640D01*
Y5892800D02*
Y6053640D01*
X930400Y6870700D02*
X935700Y6876000D01*
X1068100D01*
X850409Y5168409D02*
X1364041Y5682041D01*
X760594Y5168409D02*
X850409D01*
X1364041Y5682041D02*
Y5786059D01*
X736600Y5144415D02*
X760594Y5168409D01*
X1364041Y5786059D02*
X1821241D01*
X1625600Y6232363D02*
X1638300Y6219663D01*
Y6210300D02*
Y6219663D01*
X1625600Y6232363D02*
Y6370000D01*
X1889329Y5683021D02*
X1893100Y5679250D01*
X1889329Y5683021D02*
Y5717971D01*
X1821241Y5786059D02*
X1889329Y5717971D01*
X825500Y6749000D02*
X1068100D01*
X820200D02*
X825500D01*
Y6324600D02*
Y6749000D01*
Y6324600D02*
X1364041Y5786059D01*
X1402910Y6138500D02*
X1498600D01*
Y6370000D01*
Y6138500D02*
X1503000Y6134100D01*
X1341120Y6093460D02*
X1357870D01*
X1402910Y6138500D01*
X1503000Y6134100D02*
X1612900D01*
X1943100Y5679250D02*
Y5803900D01*
X1612900Y6134100D02*
X1943100Y5803900D01*
X1144511Y5802326D02*
X1192226D01*
X736600Y5394415D02*
X1144511Y5802326D01*
X1192226D02*
X1206500Y5816600D01*
X828032Y4679317D02*
X859149Y4648200D01*
X825500Y4838700D02*
X828032Y4836168D01*
Y4679317D02*
Y4836168D01*
X927100Y7632700D02*
X1062800D01*
X1068100Y7638000D01*
X3387888Y4054312D02*
Y4264188D01*
X3390900Y4267200D01*
X3384877Y4051300D02*
X3387888Y4054312D01*
X3050226Y4053526D02*
Y4264974D01*
X3048000Y4267200D02*
X3050226Y4264974D01*
X2718913Y4052413D02*
X2720026Y4051300D01*
X2717800Y4267200D02*
X2718913Y4266087D01*
Y4052413D02*
Y4266087D01*
X714503Y7815000D02*
X747803Y7848300D01*
X710000Y7815000D02*
X714503D01*
X747803Y7852803D02*
X781700Y7886700D01*
X930000Y7255000D02*
X931998Y7256998D01*
X1068100D01*
X1040000Y6630000D02*
X1060099D01*
X1062800Y7378700D02*
X1068100Y7384000D01*
X930400Y7378700D02*
X1062800D01*
X1060099Y6630000D02*
X1060699Y6629400D01*
X930400D02*
X1060700D01*
X970500Y6495000D02*
X1068100D01*
X965200Y6489700D02*
X970500Y6495000D01*
X930400Y6489700D02*
X965200D01*
X1062800Y7759700D02*
X1068100Y7765000D01*
X927100Y7759700D02*
X1062800D01*
X3050226Y4053526D02*
X3052451Y4051300D01*
X930400Y6997700D02*
X1062800D01*
X1068100Y7003000D01*
X930400Y7124700D02*
X1062800D01*
X1068100Y7130000D01*
X930400Y7505700D02*
X1062800D01*
X1068100Y7511000D01*
X3144532Y7874437D02*
X3144969Y7874000D01*
X3149538D01*
X3144532Y7873563D02*
X3144969Y7874000D01*
X3144532Y7874437D02*
Y7879006D01*
X3098800Y7924738D02*
X3144532Y7879006D01*
Y7868994D02*
Y7873563D01*
X3134500Y7858962D02*
X3144532Y7868994D01*
X3134500Y7544300D02*
Y7724525D01*
X3129300Y7539100D02*
X3134500Y7544300D01*
Y7724525D02*
Y7858962D01*
X3129300Y7014100D02*
Y7539100D01*
X3098800Y7924738D02*
Y8026400D01*
X1062800Y7886700D02*
X1068100Y7892000D01*
X781700Y7886700D02*
X930400D01*
X1062800D01*
X747803Y7848300D02*
Y7852803D01*
X2276548Y1968562D02*
X2345151D01*
X2255352Y1947365D02*
X2276548Y1968562D01*
X2157386Y1947365D02*
X2255352D01*
X1909885Y2019865D02*
Y2048365D01*
X1886500Y2071751D02*
X1909885Y2048365D01*
X1886500Y2071751D02*
Y2197100D01*
X1709460Y1196060D02*
X1734820Y1221420D01*
X1574800Y1196060D02*
X1709460D01*
X1734820Y1222420D02*
X1773120Y1260720D01*
X1774515D01*
X1889120Y1375325D01*
Y1374680D02*
Y1635022D01*
X1899163Y1645065D02*
X1908585D01*
X1909885Y1646365D01*
X1889120Y1635022D02*
X1899163Y1645065D01*
X1909885Y1646365D02*
Y1674865D01*
X2214880Y1186180D02*
X2219960Y1181100D01*
X2214880Y1186180D02*
Y1381760D01*
X2212880Y1468760D02*
X2214880D01*
X2165260Y1516380D02*
X2212880Y1468760D01*
X2059635Y1516380D02*
X2165260D01*
X2059635D02*
X2059760Y1516505D01*
Y1674740D01*
X2059886Y1674865D01*
X2746120Y1492420D02*
X2750100Y1488440D01*
X2588675Y1492420D02*
X2746120D01*
X2392453Y1507136D02*
X2410089Y1489500D01*
X2190935Y1746065D02*
X2392453Y1544547D01*
X2158686Y1746065D02*
X2190935D01*
X2392453Y1507136D02*
Y1544547D01*
X2157386Y1747365D02*
X2158686Y1746065D01*
X2283729Y1797365D02*
X2554874Y1526220D01*
Y1519220D02*
Y1526220D01*
X2157386Y1797365D02*
X2283729D01*
X2581675Y1492420D02*
X2588675D01*
X2554874Y1519220D02*
X2581675Y1492420D01*
D49*
X584200Y355600D02*
Y673100D01*
X787400Y876300D01*
Y1272300D02*
Y1295400D01*
X756279Y2400300D02*
X1150620D01*
X750515Y2386385D02*
Y2394536D01*
X1150620Y2400300D02*
X1428409Y2122511D01*
X750515Y2394536D02*
X756279Y2400300D01*
X1428409Y1955800D02*
Y2122511D01*
D50*
X1498600Y5918200D02*
Y6053500D01*
D51*
X2850002Y1340002D02*
X2914101Y1404102D01*
X2760000Y1340002D02*
X2850002D01*
X2914100Y1488440D02*
X2914101Y1404102D01*
X1430020Y1752600D02*
X1432560Y1750060D01*
Y1437640D02*
Y1750060D01*
Y1437640D02*
X1485900Y1384300D01*
X1587500D01*
D52*
X2720026Y4051300D02*
D03*
Y3797300D02*
D03*
X2387600Y4051300D02*
D03*
Y3797300D02*
D03*
X3052451Y4051300D02*
D03*
Y3797300D02*
D03*
X3384877Y4051300D02*
D03*
Y3797300D02*
D03*
X1495415Y4394200D02*
D03*
X1162989D02*
D03*
X830563D02*
D03*
X498138D02*
D03*
X830563Y4648200D02*
D03*
X1162989D02*
D03*
X1495415D02*
D03*
X498138D02*
D03*
D53*
X2720026Y3543300D02*
D03*
X2387600D02*
D03*
X3052451D02*
D03*
X3384877D02*
D03*
X1495415Y4140200D02*
D03*
X1162989D02*
D03*
X498138D02*
D03*
X830563D02*
D03*
D54*
X1860335Y626500D02*
D03*
X1945335D02*
D03*
X2030335D02*
D03*
X2200335D02*
D03*
X2285335D02*
D03*
Y491500D02*
D03*
X2200335D02*
D03*
X2115335D02*
D03*
X1945335D02*
D03*
X1860335D02*
D03*
X2030335D02*
D03*
X2115335Y626500D02*
D03*
X1775335Y491500D02*
D03*
X2370335D02*
D03*
Y626500D02*
D03*
X1775335D02*
D03*
D55*
X2505335Y528500D02*
D03*
X1640335D02*
D03*
D56*
X2505335Y190500D02*
D03*
X1640335D02*
D03*
D57*
X3146425Y4950000D02*
D03*
D58*
X736600Y5894415D02*
D03*
D59*
X1084200Y355600D02*
D03*
D60*
X850900Y3467100D02*
D03*
Y3117100D02*
D03*
D61*
X3146425Y4750000D02*
D03*
D62*
X584200Y355600D02*
D03*
D63*
X787400Y887850D02*
D03*
Y1283850D02*
D03*
D64*
X736600Y5644415D02*
D03*
Y5144415D02*
D03*
Y5394415D02*
D03*
D65*
X3610000Y259999D02*
D03*
Y7999999D02*
D03*
X250002Y8010002D02*
D03*
D66*
X736600Y2402626D02*
D03*
D67*
Y1894626D02*
D03*
D68*
X1945516Y1807995D02*
D03*
Y1886735D02*
D03*
X2024256Y1807995D02*
D03*
Y1886735D02*
D03*
D69*
X3700000Y7400000D02*
D03*
Y6900000D02*
D03*
Y7650000D02*
D03*
X3700000Y6650000D02*
D03*
X3700000Y6400000D02*
D03*
Y5900000D02*
D03*
X3700000Y6150000D02*
D03*
Y7150000D02*
D03*
X3309620Y8150860D02*
D03*
X3700000Y5400000D02*
D03*
Y4900000D02*
D03*
X3700000Y4650000D02*
D03*
X3700000Y4400000D02*
D03*
Y3900000D02*
D03*
X3700000Y4150000D02*
D03*
X3467100Y5765800D02*
D03*
X3700000Y5650000D02*
D03*
Y5150000D02*
D03*
X3517900Y4267200D02*
D03*
X3101340Y8150860D02*
D03*
X2336800Y5981700D02*
D03*
X3144520Y5240020D02*
D03*
X2514600Y5156200D02*
D03*
X3175000Y4267200D02*
D03*
X2832100D02*
D03*
X2514600Y5448300D02*
D03*
X2120900Y5156200D02*
D03*
X2501900Y4267200D02*
D03*
X1982470Y5360129D02*
D03*
X3700000Y3650000D02*
D03*
X3700000Y3400000D02*
D03*
X3390900Y3340100D02*
D03*
X3700000Y2900000D02*
D03*
X3700000Y2650000D02*
D03*
Y3150000D02*
D03*
X2717800Y3340100D02*
D03*
X3048000D02*
D03*
X3700000Y1900000D02*
D03*
Y1400000D02*
D03*
Y2400000D02*
D03*
Y900000D02*
D03*
X3700000Y650000D02*
D03*
Y1150000D02*
D03*
Y2150000D02*
D03*
Y1650000D02*
D03*
X2768600Y1104900D02*
D03*
X2908300Y177800D02*
D03*
X3225800D02*
D03*
X2768600Y825500D02*
D03*
X2717800Y3098800D02*
D03*
X2387600Y3340100D02*
D03*
Y3098800D02*
D03*
X2159000Y2921000D02*
D03*
X2006600Y2717800D02*
D03*
X2654300Y622300D02*
D03*
X2667000Y266700D02*
D03*
Y76200D02*
D03*
X2463800Y1104900D02*
D03*
Y825500D02*
D03*
X1778000Y6210300D02*
D03*
X1371600Y5918200D02*
D03*
X1206500Y6096000D02*
D03*
Y5156200D02*
D03*
X1663700D02*
D03*
X1206500Y5689600D02*
D03*
X835660Y7721600D02*
D03*
X830580Y7579360D02*
D03*
X828040Y7429500D02*
D03*
Y7048500D02*
D03*
X830580Y6916420D02*
D03*
X828040Y7185660D02*
D03*
X150000Y7400000D02*
D03*
Y7150000D02*
D03*
Y7650000D02*
D03*
X698500Y6070600D02*
D03*
X150000Y5400000D02*
D03*
Y4900000D02*
D03*
X990600Y4838700D02*
D03*
X150000Y5150000D02*
D03*
Y6650000D02*
D03*
Y6400000D02*
D03*
Y6900000D02*
D03*
Y5900000D02*
D03*
Y5650000D02*
D03*
Y6150000D02*
D03*
X1625600Y2146300D02*
D03*
X1700000Y1345000D02*
D03*
X1333500Y4838700D02*
D03*
X1498600Y3937000D02*
D03*
X1282700Y1524000D02*
D03*
X1168400Y3937000D02*
D03*
X1473200Y466700D02*
D03*
Y666700D02*
D03*
Y266700D02*
D03*
Y76200D02*
D03*
X495300Y3937000D02*
D03*
X825500D02*
D03*
X150000Y3150000D02*
D03*
Y4400000D02*
D03*
Y4150000D02*
D03*
Y4650000D02*
D03*
Y3650000D02*
D03*
Y3400000D02*
D03*
Y3900000D02*
D03*
Y1150000D02*
D03*
Y900000D02*
D03*
Y1400000D02*
D03*
Y400000D02*
D03*
Y150000D02*
D03*
Y650000D02*
D03*
Y2650000D02*
D03*
Y2400000D02*
D03*
Y2900000D02*
D03*
Y1900000D02*
D03*
Y1650000D02*
D03*
Y2150000D02*
D03*
X2222500Y5588000D02*
D03*
X3352800Y2692400D02*
D03*
X2133600Y4640580D02*
D03*
X3352800Y2527300D02*
D03*
X3200400D02*
D03*
Y2692400D02*
D03*
X2128520Y4744720D02*
D03*
X977900Y3225800D02*
D03*
X723900D02*
D03*
Y2997200D02*
D03*
X1498600Y952500D02*
D03*
X977900Y2997200D02*
D03*
X2336800Y6096000D02*
D03*
X2387600Y4267200D02*
D03*
X930400Y6870700D02*
D03*
X1549400Y5613400D02*
D03*
X1638300Y6210300D02*
D03*
X2981960Y5361940D02*
D03*
X1498600Y5918200D02*
D03*
X1341120Y6093460D02*
D03*
X1206500Y5816600D02*
D03*
X1498600Y4838700D02*
D03*
X1168400D02*
D03*
X825500D02*
D03*
X927100Y7632700D02*
D03*
X495300Y4826000D02*
D03*
X3390900Y4267200D02*
D03*
X3048000D02*
D03*
X2717800D02*
D03*
X930400Y7378700D02*
D03*
Y6629400D02*
D03*
X930000Y7255000D02*
D03*
X930400Y6489700D02*
D03*
X927100Y7759700D02*
D03*
X930400Y6997700D02*
D03*
Y7124700D02*
D03*
Y7505700D02*
D03*
X3098800Y8026400D02*
D03*
X930400Y7886700D02*
D03*
D70*
X1935002Y7369998D02*
D03*
Y7515001D02*
D03*
X1794998D02*
D03*
Y7375002D02*
D03*
X1654998Y7515001D02*
D03*
Y7375002D02*
D03*
X1929999Y7235002D02*
D03*
X1794998D02*
D03*
X1649999D02*
D03*
X812800Y8168640D02*
D03*
X497840Y8163560D02*
D03*
D71*
X2024256Y1807995D02*
D03*
Y1886735D02*
D03*
X1945518Y1886737D02*
D03*
X1945516Y1807995D02*
D03*
D72*
X2006600Y2895600D02*
D03*
D73*
X2760000Y1340002D02*
D03*
X1587500Y1384300D02*
D03*
%TF.MD5,3f0f0f723b8060c0ba57c8dceb662c6f*%
M02*
